<?xml version="1.0" encoding="UTF-8"?>
<svg id="_圖層_1" data-name="圖層_1" xmlns="http://www.w3.org/2000/svg" xmlns:xlink="http://www.w3.org/1999/xlink" version="1.1" width="44" height="68" viewBox="0 0 43.6 67.2">
  <!-- Generator: Adobe Illustrator 30.5.1, SVG Export Plug-In . SVG Version: 2.1.4 Build 3)  -->
  <defs>
    <style>
      .st0 {
        fill: url(#_未命名漸層_37);
      }
    </style>
    <linearGradient id="_未命名漸層_37" data-name="未命名漸層 37" x1="21.2" y1="10" x2="23.8" y2="77.7" gradientTransform="translate(0 76.8) scale(1 -1)" gradientUnits="userSpaceOnUse">
      <stop offset="0" stop-color="#53bcae" stop-opacity="0"/>
      <stop offset=".3" stop-color="#e7d380"/>
      <stop offset=".5" stop-color="#75c3e6"/>
      <stop offset=".7" stop-color="#53bcae"/>
    </linearGradient>
  </defs>
  <path class="st0" d="M0,67.2v-10.2c0-1.2,0-1.9.2-2.2.2-.4.7-1,1.6-1.7l31.9-29.1c.8-.7,1.3-1.3,1.5-1.9.2-.6.3-1.6.3-2.9v-8.5c0-1,0-1.6-.2-1.8,0-.3-.4-.7-1-1.2-.6-.4-1-.7-1.3-.8-.3-.1-1.1-.2-2.2-.2H13.7c-1.2,0-1.9,0-2.2.2-.3,0-.8.3-1.3.8-.6.4-.9.8-1.1,1.2,0,.3,0,.9,0,1.8v1.8H1v-3.8c0-1.9.8-3.5,2.3-4.8l2.3-1.9c1.5-1.3,3.1-1.9,4.6-1.9h24.2c1.5,0,3.1.6,4.6,1.9l2.3,1.9c1.5,1.3,2.3,2.9,2.3,4.8v13.5c0,1.3,0,2.2-.3,2.9-.2.6-.7,1.2-1.5,1.9l-31.8,28.7c-.9.8-1.4,1.5-1.6,1.9-.2.4-.3,1.3-.3,2.5v.4h35.5v6.7H0Z" shape-rendering="crispEdges"/>
</svg>