<?xml version="1.0" encoding="UTF-8"?>
<svg id="_圖層_1" data-name="圖層_1" xmlns="http://www.w3.org/2000/svg" xmlns:xlink="http://www.w3.org/1999/xlink" version="1.1" width="45" height="68" viewBox="0 0 44.5 67.2">
  <!-- Generator: Adobe Illustrator 30.5.1, SVG Export Plug-In . SVG Version: 2.1.4 Build 3)  -->
  <defs>
    <style>
      .st0 {
        fill: url(#_未命名漸層_38);
      }
    </style>
    <linearGradient id="_未命名漸層_38" data-name="未命名漸層 38" x1="26" y1="-.4" x2="17" y2="73.6" gradientTransform="translate(0 68.8) scale(1 -1)" gradientUnits="userSpaceOnUse">
      <stop offset="0" stop-color="#53bcae" stop-opacity="0"/>
      <stop offset=".3" stop-color="#e7d380"/>
      <stop offset=".5" stop-color="#75c3e6"/>
      <stop offset=".7" stop-color="#53bcae"/>
    </linearGradient>
  </defs>
  <path class="st0" d="M38.9,33.2l3.7,3.1c1,.8,1.5,1.3,1.6,1.7.2.4.3,1.3.3,2.9v17.7c0,1.3-.1,2.2-.4,2.7-.2.5-.7,1.2-1.4,2l-1.7,1.7c-1.5,1.5-3,2.2-4.5,2.2H9.2c-1.5,0-3.1-.6-4.6-1.9l-2.3-1.9c-1.5-1.3-2.3-2.9-2.3-4.8v-3.8h8.1v1.8c0,1,0,1.6,0,1.9.1.3.5.6,1.1,1.1.6.4,1,.7,1.3.9.3,0,1.1,0,2.2,0h19c1.2,0,1.9,0,2.2,0,.3-.1.8-.4,1.3-.9.6-.4.9-.8,1-1.1.1-.3.2-1,.2-1.9v-14.5c0-1.4-.6-2.6-1.7-3.6l-1.4-1.2c-1-.8-1.6-1.3-2-1.4-.4-.1-1.2-.2-2.4-.2h-15.4v-6.1h14c1.2,0,2,0,2.4-.2.4-.1,1.1-.6,2-1.4l1.4-1.2c1-.8,1.5-1.3,1.6-1.6.2-.4.3-1.2.3-2.4v-11.9c0-1,0-1.6-.2-1.8,0-.3-.4-.7-1-1.2-.6-.4-1-.7-1.3-.8-.3-.1-1.1-.2-2.2-.2h-15.8c-1.2,0-2,0-2.3.2-.3,0-.8.3-1.3.8-.6.4-.9.8-1.1,1.2,0,.3,0,.9,0,1.8v1.8H1.9v-3.8c0-1.9.8-3.5,2.3-4.8l2.3-1.9c1.5-1.3,3.1-1.9,4.6-1.9h23c1.5,0,3.1.6,4.6,1.9l2.3,1.9c1.5,1.3,2.3,2.9,2.3,4.8v15.7c0,1.1,0,1.8-.3,2.1-.1.3-.6.8-1.4,1.4l-2.8,2.3c-1,.8-1.9,1.2-2.7,1.2v.5c.8,0,1.7.4,2.7,1.2Z"/>
</svg>