<?xml version="1.0" encoding="UTF-8"?>
<svg id="_圖層_1" data-name="圖層_1" xmlns="http://www.w3.org/2000/svg" version="1.1" viewBox="0 0 270.7 35.7">
  <!-- Generator: Adobe Illustrator 30.5.1, SVG Export Plug-In . SVG Version: 2.1.4 Build 3)  -->
  <defs>
    <style>
      .st0 {
        fill: #fff;
      }
    </style>
  </defs>
  <path class="st0" d="M26,35.2H0v-6.8c1.1-.8,1.8-1.3,2.1-1.5l4.2-3c2.7-1.9,6.9-5.4,8.9-7.5,1.7-1.8,2.6-3.6,2.6-5.4,0-2.8-1.9-4.6-4.8-4.6s-5.4,2.2-5.9,6.7l-7.2-1.6C1.6,3.7,6.1,0,13.5,0s6.3.8,8.6,2.7c2.7,2.1,4,4.9,4,8.3s-2,7.5-7.3,11.6c-2,1.6-4.1,2.9-8.8,5.8h16.6l-.6,6.9Z"/>
  <path class="st0" d="M57.7,18.1c0,4.8-1.4,9.5-3.7,12.9-2.2,3.1-5.7,4.8-9.9,4.8s-7.5-1.7-9.7-4.7c-2.4-3.4-3.8-8.1-3.8-13.2s1.3-9.7,3.6-13c2.2-3.2,5.8-4.9,9.9-4.9,8.3,0,13.6,7,13.6,18.1ZM39,17.6c0,9,1.4,12.2,5.2,12.2s5.1-3.4,5.1-11.6-1.4-12.3-5.3-12.3-5,3.2-5,11.8Z"/>
  <path class="st0" d="M87.1,35.2h-26v-6.8c1.1-.8,1.8-1.3,2.1-1.5l4.2-3c2.7-1.9,6.9-5.4,8.9-7.5,1.7-1.8,2.6-3.6,2.6-5.4,0-2.8-1.9-4.6-4.8-4.6s-5.4,2.2-5.9,6.7l-7.2-1.6c1.6-7.7,6.1-11.4,13.5-11.4s6.3.8,8.6,2.7c2.7,2.1,4,4.9,4,8.3s-2,7.5-7.3,11.6c-2,1.6-4.1,2.9-8.8,5.8h16.6l-.6,6.9Z"/>
  <path class="st0" d="M111.4,11.1c-.8-3.7-2.4-5.3-5.2-5.3s-6.1,3.7-6.1,10.7v.9c1.7-2.7,4.2-4,7.8-4,6.2,0,11,4.6,11,10.7s-1.3,6.1-3.5,8.3c-2.3,2.3-5.4,3.4-9.2,3.4-8.8,0-14.1-6.7-14.1-17.6s1.4-9.9,3.6-12.9c2.7-3.6,5.9-5.2,10.7-5.2s6.7,1.1,9.1,3.5c1.7,1.7,2.4,3.2,3,5.8l-7,1.9ZM100.5,24.5c0,3.2,2.2,5.5,5.2,5.5s5.2-2.3,5.2-5.5-2.1-5.5-5.1-5.5-5.3,2.4-5.3,5.5Z"/>
  <path class="st0" d="M123.9,35.2v-7.9h7.9v7.9h-7.9Z"/>
  <path class="st0" d="M163.3,18.1c0,4.8-1.4,9.5-3.7,12.9-2.2,3.1-5.7,4.8-9.9,4.8s-7.5-1.7-9.7-4.7c-2.4-3.4-3.8-8.1-3.8-13.2s1.3-9.7,3.6-13c2.2-3.2,5.8-4.9,9.9-4.9,8.3,0,13.6,7,13.6,18.1ZM144.7,17.6c0,9,1.4,12.2,5.2,12.2s5.1-3.4,5.1-11.6-1.4-12.3-5.3-12.3-5,3.2-5,11.8Z"/>
  <path class="st0" d="M194.1,25c0,6.6-5.5,10.7-14.4,10.7s-13.2-3.8-13.2-9.9,1.8-6,6.2-7.7c-3.5-2.1-5-4.5-5-7.9s1.4-5.6,3.5-7.4c2.2-1.9,5.4-2.8,9.3-2.8,7.3,0,12.3,3.7,12.3,9.2s-1.6,5.6-5.3,7.3c4.6,2.1,6.5,4.5,6.5,8.5ZM173.9,25.5c0,3,2.3,4.7,6.4,4.7s5.9-1.4,5.9-3.7-1.1-3.1-3.1-4c-1.3-.6-1.8-.7-4.9-1.8-3.1,1-4.3,2.4-4.3,4.7ZM185.8,9.8c0-2.8-2.1-4.6-5.6-4.6s-4.7,1.5-4.7,3.7,1.2,3.3,6.8,5.3c2.4-.8,3.5-2.1,3.5-4.4Z"/>
  <path class="st0" d="M199.2,35.2v-7.9h7.9v7.9h-7.9Z"/>
  <path class="st0" d="M213,7.1c5.6-1.6,10-4.3,11.7-7.1h5.9v28.9h9.6v6.3h-28.1v-6.3h10.5V9.1c-4.4,2.7-7.1,4.1-9.6,5.2v-7.1Z"/>
  <path class="st0" d="M243.5,7.1c5.6-1.6,10-4.3,11.7-7.1h5.9v28.9h9.6v6.3h-28.1v-6.3h10.5V9.1c-4.4,2.7-7.1,4.1-9.6,5.2v-7.1Z"/>
</svg>