<svg width="16" height="33" viewBox="0 0 16 33" fill="none" xmlns="http://www.w3.org/2000/svg">
<path d="M0.399676 0.456761C0.169093 0.721205 0.0288953 1.07179 0.00457572 1.44477C-0.0197438 1.81775 0.0734296 2.18836 0.267155 2.48921L0.399676 2.66413L12.1433 16.1374L0.397859 29.6107C0.167547 29.8755 0.0276845 30.2262 0.00369855 30.5991C-0.0202874 30.9721 0.0731953 31.3426 0.267152 31.6432L0.399674 31.8181C0.630204 32.0826 0.935829 32.2435 1.26098 32.2713C1.58613 32.2992 1.90921 32.1924 2.17147 31.9701L2.32396 31.8181L15.0315 17.2411C15.2621 16.9767 15.4023 16.6261 15.4266 16.2531C15.451 15.8801 15.3578 15.5095 15.1641 15.2087L15.0315 15.0338L2.32397 0.456761C2.06868 0.164283 1.72263 1.49183e-06 1.36182 1.45678e-06C1.00102 1.42173e-06 0.654963 0.164283 0.399676 0.456761Z" fill="#F0F0F0" fill-opacity="0.88"/>
</svg>
