<svg width="83" height="31" viewBox="0 0 83 31" fill="none" xmlns="http://www.w3.org/2000/svg">
<g clip-path="url(#clip0_173_931)">
<path d="M83 0H0V31H83V0Z" fill="#D80C18"/>
<path d="M20.1231 4.7057C20.5654 6.01001 18.7761 6.43467 17.9498 6.77844C17.6639 6.89688 17.3794 7.01821 17.0992 7.15109C16.9072 7.24209 16.7308 7.36631 16.5346 7.4472C16.3482 7.52375 16.1434 7.54975 15.9471 7.59309C15.5062 7.69131 15.0667 7.80397 14.6301 7.92241C13.7539 8.16218 12.8877 8.43373 12.0158 8.68795C11.5194 8.83239 11.0202 8.9725 10.5181 9.09816C9.98899 9.22961 9.44851 9.08661 8.9891 8.81073C8.56098 8.55506 8.53395 8.14918 8.33909 7.72886C8.24095 7.51653 8.25517 7.28687 8.44719 7.12076C8.49697 7.07743 8.71743 7.08898 8.78713 7.08032C8.90233 7.06443 9.01612 7.04565 9.13133 7.02688C9.35748 6.98932 9.58221 6.94743 9.80836 6.91277C10.0345 6.8781 10.2607 6.84921 10.4882 6.83477C10.7386 6.81888 10.9462 6.8781 11.1653 6.72933C11.3985 6.57044 11.6247 6.41589 11.8807 6.29745C12.3757 6.06778 12.909 5.9479 13.4424 5.86268C13.6302 5.83235 13.8179 5.80779 14.0057 5.78179C14.1038 5.76879 14.2105 5.78757 14.3058 5.75868C14.4195 5.72546 14.4494 5.6619 14.5419 5.58968C14.7325 5.44091 14.9956 5.43802 15.1862 5.28925C15.7267 4.85014 16.4478 4.68548 16.8802 4.13516C17.1917 3.87516 17.5871 3.76539 17.9853 3.74517C18.4035 3.7235 18.8288 3.69172 19.2057 3.90261C19.557 4.09905 19.9865 4.28393 20.1245 4.70281" fill="white"/>
<path d="M34.8996 11.4684C34.9565 11.2589 35.0035 11.0423 35.0035 10.8242C35.0035 10.5988 34.8726 10.4039 34.857 10.1814C34.8442 10.0023 34.9423 9.80875 34.7375 9.71198C34.3051 9.40143 33.9083 9.89542 33.4759 9.96908C33.1217 10.1482 32.8572 10.4616 32.5599 10.7187C32.3522 10.8978 32.0919 10.9946 31.8686 11.1506C31.6553 11.2994 31.4903 11.5059 31.2826 11.6634C30.836 12.0014 30.3169 12.2195 29.8546 12.5315C29.4635 12.7958 28.5816 12.6918 28.1507 12.608C27.3698 12.4549 26.6857 12.062 25.9603 11.7645C25.6431 11.6345 25.3103 11.5319 25.0201 11.3442C24.6859 11.1275 24.5024 10.7462 24.1682 10.5194C23.868 10.3157 23.5694 10.1352 23.6561 9.71487C23.9264 9.42165 24.3047 9.36676 24.666 9.27577C25.9091 9.03744 27.2603 9.22088 28.4679 8.79911C29.152 8.61711 29.8731 8.45101 30.5402 8.21412C30.7151 8.15201 30.9015 8.06246 31.0878 7.99891C31.2912 7.92957 31.4178 7.77791 31.6055 7.68258C32.0194 7.47169 32.4561 7.59591 32.8742 7.48036C33.4617 7.31714 34.0448 7.13515 34.6237 6.94448C34.9608 6.83326 35.2893 6.69171 35.635 6.61082C35.9095 6.54727 36.1968 6.5516 36.4414 6.39127C37.0345 6.00273 37.7855 6.17606 38.4128 5.89006C38.9419 5.65029 39.5421 5.41196 40.1068 5.26896C40.4012 5.1953 40.7056 5.15774 41.0071 5.19819C41.5177 5.26752 42.0454 5.39463 42.5503 5.50296C42.9799 5.5954 43.4194 5.6604 43.8048 5.88862C44.0139 6.01284 44.1832 6.19628 44.2884 6.42016C44.3169 6.70615 44.2216 6.97915 44.0992 7.23048C44.0367 7.35759 43.967 7.48181 43.9001 7.60602C43.6839 8.00468 43.3312 8.09857 42.923 8.20979C42.5134 8.32101 42.0881 8.36434 41.6699 8.26468C41.448 8.21268 41.2219 8.10146 41.0455 7.95557C40.3287 7.49047 39.4539 7.62191 38.6759 7.82558C38.5692 7.85302 38.4626 7.8848 38.3587 7.92091C38.2449 7.95991 38.1411 7.97724 38.0458 8.05524C37.9562 8.12746 37.8638 8.18523 37.7628 8.24012C37.5025 8.38167 37.2763 8.50301 37.2792 8.828C37.282 9.21366 37.2152 9.65854 37.3688 10.0225C37.7116 10.7548 37.2607 11.4857 37.585 12.218C37.7301 13.206 38.0174 14.597 37.9818 15.7309C37.9818 17.3053 38.1084 19.2624 38.3602 20.7805C38.4185 21.1301 38.5266 21.4724 38.6076 21.8176C38.6588 22.0328 38.6716 22.2567 38.7214 22.4734C38.8309 22.9385 38.9362 23.2779 38.9177 23.7632C38.8964 24.3164 38.8309 24.8668 38.7527 25.4156C38.6674 26.0194 38.4825 26.6102 37.8908 26.8759C37.3119 27.5216 36.2821 27.3988 35.5482 27.1504C35.231 27.0435 34.837 26.5856 34.6763 26.2938C34.5782 26.1162 34.5924 25.9024 34.5483 25.7074C34.4331 25.2033 34.2283 24.7267 34.3961 24.2052C34.756 19.9962 35.1158 16.0067 34.901 11.8165" fill="white"/>
<path d="M14.7538 9.68299C15.1137 10.086 15.2758 10.5612 15.492 11.0378C15.6769 11.243 15.9102 11.2314 16.1505 11.1418C16.3582 11.0638 16.5843 11.0277 16.7621 10.8833C16.9399 10.7389 17.0822 10.5496 17.25 10.3965C17.6127 10.0658 18.0024 9.75954 18.4718 9.60354C18.7505 9.5111 19.0379 9.47355 19.3309 9.50099C19.7988 9.68443 20.3933 9.66565 20.628 10.1596C20.8442 10.4716 20.7902 10.8371 20.6821 11.1664C20.2682 12.0258 19.2413 12.3378 18.5201 12.8867C17.9427 13.1972 17.1689 13.4168 16.8802 14.0754C16.8617 15.1183 17.6909 15.9604 18.3395 16.5642C19.3309 17.607 20.2497 19.1988 21.5838 19.8213C21.9764 20.0048 22.3049 20.3803 22.6349 20.6547C22.8156 20.805 23.0019 20.9494 23.2039 21.0679C23.43 21.2007 23.6775 21.2498 23.8965 21.4015C24.1156 21.5532 24.3986 21.6211 24.5736 21.8334C24.6433 21.9186 24.7642 21.9359 24.8552 21.9851C25.05 22.0891 25.1809 22.3014 25.4056 22.3476C25.5308 22.3736 25.6403 22.3447 25.7598 22.3996C25.8793 22.4545 25.9845 22.5542 26.0926 22.6264C26.5933 22.96 27.111 23.2764 27.6757 23.4858C27.8933 23.5667 28.1308 23.5782 28.3484 23.6635C28.5575 23.7443 28.6912 23.9119 28.8704 24.039C29.1776 24.2571 29.593 24.4536 29.7395 24.8305C29.8348 25.0761 29.7096 25.4459 29.5531 25.6394C29.3298 25.9153 28.923 25.9861 28.5973 26.0366C28.2674 26.0886 27.926 26.2446 27.5932 26.2822C27.4097 26.3039 27.2219 26.301 27.0385 26.314C26.6431 26.3443 26.2491 26.3862 25.8551 26.4266C25.0586 26.509 24.2578 26.5927 23.4556 26.5783C23.0175 26.5696 22.5041 26.6375 22.1072 26.4064C21.5668 26.0901 21.0761 25.6163 20.5797 25.2321C19.9282 24.728 19.4845 24.0289 19.0179 23.3471C18.5301 22.635 18.0636 21.9085 17.5729 21.1978C17.176 20.6244 16.7806 19.9629 16.2416 19.5151C16.051 19.3577 15.9258 19.1338 15.7381 18.972C15.5745 18.8305 15.4294 18.6759 15.2872 18.5127C14.9956 18.1819 14.6898 17.8844 14.2318 17.8425C14.0611 18.1025 13.9431 18.3957 13.8748 18.699C13.8293 18.9041 13.8392 19.1179 13.8037 19.3244C13.7752 19.4978 13.7112 19.6624 13.6799 19.8358C13.6131 20.2099 13.6074 20.6129 13.4197 20.9523C13.3059 21.1574 13.2433 21.325 13.1892 21.5575C13.1352 21.7857 13.0257 22.0284 12.9361 22.2436C12.8863 22.3664 12.8066 22.4718 12.7526 22.5932C12.6544 22.8141 12.6018 23.0481 12.4895 23.2662C12.3629 23.5104 12.2249 23.7487 12.0741 23.9769C11.7712 24.4362 11.4227 24.8667 11.0444 25.2639C10.8324 25.4878 10.6106 25.7015 10.3801 25.9081C10.2009 26.0684 10.0473 26.249 9.83824 26.3746C9.62631 26.5017 9.38594 26.5508 9.1541 26.626C8.65913 26.7848 8.21109 27.0102 7.68198 27.0362C7.37049 27.0506 7.06185 26.9625 6.78876 26.8094C6.67213 26.7444 6.46589 26.7545 6.33362 26.704C6.17716 26.6447 6.02497 26.561 5.89127 26.4598C5.73908 26.3443 5.58689 26.2201 5.47453 26.0626C5.41337 25.976 5.35932 25.885 5.34368 25.7781C5.31238 25.5571 5.35221 25.4805 5.21282 25.2942C5.03361 25.053 5.13033 24.8912 5.07912 24.6298C5.05352 24.5041 4.99521 24.3842 4.98383 24.2571C4.96676 24.0462 5.14171 23.8816 5.25549 23.727C5.38208 23.5551 5.49302 23.3674 5.70637 23.2951C5.94817 23.2128 6.28953 23.2215 6.53559 23.272C6.6764 23.3009 6.81152 23.3529 6.93384 23.4295C7.13154 23.5537 7.21973 23.74 7.46864 23.5927C7.65496 23.4829 7.76448 23.2778 7.9252 23.1377C8.04752 23.0308 8.09588 22.8531 8.21536 22.7333C8.35048 22.5989 8.47849 22.4574 8.5937 22.3057C8.8298 21.9923 9.0076 21.6384 9.12992 21.2643C9.7785 20.5681 9.85104 19.5815 9.59928 18.6297C8.93221 18.5748 8.22958 18.9229 7.52695 18.6846C7.05758 18.3365 6.37344 18.1545 6.13876 17.6229C5.81447 17.2763 5.54422 16.8357 5.49018 16.3417C5.6893 15.7929 6.44598 15.9575 6.87837 15.8665C7.2752 15.7019 7.74314 15.6643 8.13997 15.4635C8.36328 15.3494 8.62783 15.3148 8.85541 15.1891C9.08013 15.0649 9.29064 14.9161 9.50541 14.7731C9.72018 14.6301 9.93353 14.49 10.1668 14.3831C10.4157 14.269 10.6902 14.2329 10.9334 14.1C11.1411 13.9859 11.3345 13.8256 11.5166 13.6725C11.8935 13.3547 12.1865 12.9055 12.1239 12.3884C12.1026 12.2136 12.0201 12.0547 12.0215 11.8655C12.0215 11.6777 12.0585 11.4914 12.0955 11.3094C12.1339 11.126 12.1765 10.9425 12.1979 10.7547C12.2292 10.4745 12.1581 10.2853 12.3259 10.0354C12.4724 9.81443 12.69 9.63099 12.9361 9.53421C13.1338 9.45621 13.3798 9.4981 13.5861 9.4981C13.7539 9.4981 13.9673 9.37966 14.1294 9.42732C14.2275 9.45621 14.2972 9.54577 14.4082 9.57321C14.5277 9.60354 14.6528 9.59776 14.7552 9.6801" fill="white"/>
<path d="M52.0971 18.809L52.0374 18.8177C51.9933 18.666 51.9022 18.5476 51.7685 18.4638C51.6349 18.38 51.467 18.3367 51.2665 18.3367C50.9635 18.3367 50.7274 18.445 50.5596 18.6602C50.3903 18.8754 50.3064 19.1788 50.3064 19.5688C50.3064 19.9891 50.3917 20.3097 50.5638 20.5307C50.7359 20.7517 50.9863 20.8615 51.3134 20.8615C51.4542 20.8615 51.5979 20.8341 51.7401 20.7777C51.8838 20.7214 52.0132 20.6434 52.1298 20.5437L52.181 20.5567L52.0843 20.9164C51.9506 20.9828 51.8098 21.0334 51.6633 21.0652C51.5168 21.0984 51.3632 21.1143 51.201 21.1143C50.7089 21.1143 50.3249 20.98 50.0518 20.7113C49.7773 20.4426 49.6407 20.0671 49.6407 19.5861C49.6407 19.1297 49.7887 18.7642 50.0845 18.4898C50.3804 18.2153 50.7758 18.0781 51.2693 18.0781C51.4258 18.0781 51.5808 18.0955 51.7344 18.1301C51.8894 18.1648 52.0459 18.2182 52.2052 18.2905C52.181 18.3685 52.1583 18.4508 52.1398 18.536C52.1213 18.6212 52.1071 18.7122 52.0957 18.809H52.0971Z" fill="white"/>
<path d="M52.3915 20.0365C52.3915 19.6956 52.4854 19.4298 52.6717 19.2406C52.858 19.0514 53.1169 18.9561 53.4497 18.9561C53.7825 18.9561 54.0471 19.0499 54.2291 19.2363C54.4112 19.424 54.5022 19.6898 54.5022 20.035C54.5022 20.3802 54.4083 20.6373 54.2234 20.8251C54.0371 21.0143 53.7782 21.1082 53.444 21.1082C53.1098 21.1082 52.8509 21.0143 52.6674 20.8266C52.4825 20.6388 52.3915 20.3745 52.3915 20.035V20.0365ZM53.0102 20.0365C53.0102 20.3615 53.0429 20.5897 53.1098 20.7211C53.1766 20.854 53.2875 20.919 53.444 20.919C53.6005 20.919 53.7142 20.8526 53.7811 20.7197C53.8479 20.5868 53.8821 20.3586 53.8821 20.0365C53.8821 19.7144 53.8479 19.4833 53.7811 19.3489C53.7142 19.2146 53.6019 19.1467 53.444 19.1467C53.2861 19.1467 53.1766 19.2132 53.1098 19.346C53.0429 19.4789 53.0102 19.7086 53.0102 20.0365Z" fill="white"/>
<path d="M54.8735 21.0578C54.882 20.8296 54.8877 20.6303 54.892 20.457C54.8962 20.2851 54.8977 20.1435 54.8977 20.0323C54.8977 19.9211 54.8962 19.781 54.892 19.612C54.8877 19.443 54.882 19.2437 54.8735 19.0125C54.919 19.0183 54.9659 19.0227 55.0129 19.0255C55.0612 19.0284 55.1124 19.0299 55.1679 19.0299C55.2248 19.0299 55.2774 19.0299 55.3258 19.0255C55.3727 19.0227 55.4182 19.0183 55.4609 19.0125V19.2957C55.5477 19.1815 55.6401 19.0978 55.7397 19.0458C55.8393 18.9938 55.9516 18.9678 56.0796 18.9678C56.2204 18.9678 56.3413 19.001 56.4409 19.0689C56.5405 19.1368 56.6144 19.235 56.6628 19.3635C56.7453 19.2292 56.8406 19.1281 56.9501 19.0645C57.0596 18.9996 57.1862 18.9678 57.3327 18.9678C57.4337 18.9678 57.5261 18.9851 57.6072 19.0198C57.6897 19.0544 57.758 19.105 57.8163 19.1729C57.8746 19.2393 57.9144 19.3274 57.9372 19.4343C57.9599 19.5412 57.9713 19.7348 57.9713 20.015V20.2807C57.9713 20.4006 57.9727 20.5249 57.977 20.6534C57.9813 20.782 57.9855 20.9177 57.9927 21.0593C57.9315 21.0521 57.8746 21.0477 57.8234 21.0434C57.7722 21.0405 57.7224 21.0376 57.6741 21.0376C57.6257 21.0376 57.5773 21.0391 57.5276 21.0434C57.4778 21.0477 57.4237 21.0521 57.3683 21.0593C57.3811 20.873 57.3896 20.6996 57.3967 20.5407C57.4024 20.3819 57.4052 20.2331 57.4052 20.0959C57.4052 19.7766 57.3811 19.5686 57.3313 19.4704C57.2815 19.3722 57.1947 19.3231 57.0681 19.3231C56.9416 19.3231 56.8548 19.3722 56.8022 19.4704C56.7495 19.5686 56.7225 19.7434 56.7225 19.9933V20.6693C56.7225 20.7343 56.7268 20.8498 56.7367 21.016C56.7367 21.0347 56.7382 21.0492 56.7382 21.0578C56.6798 21.0506 56.6244 21.0463 56.5732 21.0419C56.522 21.0391 56.4722 21.0362 56.4238 21.0362C56.3755 21.0362 56.3271 21.0376 56.2773 21.0419C56.2276 21.0463 56.1721 21.0506 56.1123 21.0564C56.1223 20.8961 56.1308 20.7415 56.1365 20.5927C56.1422 20.444 56.1451 20.3024 56.1451 20.1681C56.1451 19.794 56.1209 19.56 56.0725 19.4646C56.0242 19.3693 55.9374 19.3217 55.8094 19.3217C55.6814 19.3217 55.5989 19.3708 55.5463 19.4675C55.4936 19.5643 55.468 19.7391 55.468 19.9919V20.6678C55.468 20.7343 55.4723 20.8513 55.4822 21.016C55.4822 21.0347 55.4822 21.0477 55.4822 21.0549C55.4296 21.0477 55.3798 21.0434 55.3286 21.0391C55.2789 21.0362 55.2291 21.0333 55.1793 21.0333C55.1338 21.0333 55.0868 21.0347 55.0371 21.0391C54.9873 21.0434 54.9332 21.0477 54.8721 21.0549L54.8735 21.0578Z" fill="white"/>
<path d="M58.526 21.0578C58.5345 20.8296 58.5402 20.6303 58.5444 20.457C58.5487 20.2851 58.5501 20.1435 58.5501 20.0323C58.5501 19.9211 58.5487 19.781 58.5444 19.612C58.5402 19.443 58.5345 19.2437 58.526 19.0125C58.5715 19.0183 58.6184 19.0227 58.6653 19.0255C58.7137 19.0284 58.7649 19.0299 58.8204 19.0299C58.8787 19.0299 58.9299 19.0299 58.9783 19.0255C59.0252 19.0227 59.0707 19.0183 59.1134 19.0125V19.2957C59.2001 19.1815 59.2926 19.0978 59.3922 19.0458C59.4917 18.9938 59.6041 18.9678 59.7321 18.9678C59.8729 18.9678 59.9938 19.001 60.0934 19.0689C60.1929 19.1368 60.2669 19.235 60.3152 19.3635C60.3977 19.2292 60.493 19.1281 60.6026 19.0645C60.7121 18.9996 60.8387 18.9678 60.9852 18.9678C61.0861 18.9678 61.1786 18.9851 61.2597 19.0198C61.3422 19.0544 61.4104 19.105 61.4688 19.1729C61.5257 19.2393 61.5669 19.3274 61.5897 19.4343C61.6124 19.5412 61.6238 19.7348 61.6238 20.015V20.2807C61.6238 20.4006 61.6252 20.5249 61.6295 20.6534C61.6337 20.782 61.638 20.9177 61.6451 21.0593C61.584 21.0521 61.5271 21.0477 61.4759 21.0434C61.4247 21.0405 61.3749 21.0376 61.3265 21.0376C61.2782 21.0376 61.2298 21.0391 61.18 21.0434C61.1302 21.0477 61.0762 21.0521 61.0207 21.0593C61.0335 20.873 61.0421 20.6996 61.0492 20.5407C61.0549 20.3819 61.0577 20.2331 61.0577 20.0959C61.0577 19.7766 61.0335 19.5686 60.9837 19.4704C60.934 19.3722 60.8472 19.3231 60.7206 19.3231C60.594 19.3231 60.5073 19.3722 60.4546 19.4704C60.402 19.5686 60.375 19.7434 60.375 19.9933V20.6693C60.375 20.7343 60.3793 20.8498 60.3892 21.016C60.3892 21.0347 60.3906 21.0492 60.3906 21.0578C60.3323 21.0506 60.2768 21.0463 60.2256 21.0419C60.1744 21.0391 60.1247 21.0362 60.0763 21.0362C60.0279 21.0362 59.9796 21.0376 59.9298 21.0419C59.88 21.0463 59.8245 21.0506 59.7648 21.0564C59.7748 20.8961 59.7833 20.7415 59.789 20.5927C59.7947 20.444 59.7975 20.3024 59.7975 20.1681C59.7975 19.794 59.7733 19.56 59.725 19.4646C59.6766 19.3693 59.5899 19.3217 59.4619 19.3217C59.3338 19.3217 59.2513 19.3708 59.1987 19.4675C59.1461 19.5643 59.1205 19.7391 59.1205 19.9919V20.6678C59.1205 20.7343 59.1248 20.8513 59.1347 21.016C59.1347 21.0347 59.1347 21.0477 59.1347 21.0549C59.0821 21.0477 59.0323 21.0434 58.9811 21.0391C58.9313 21.0362 58.8815 21.0333 58.8318 21.0333C58.7862 21.0333 58.7393 21.0347 58.6895 21.0391C58.6397 21.0434 58.5857 21.0477 58.5245 21.0549L58.526 21.0578Z" fill="white"/>
<path d="M62.0392 20.0365C62.0392 19.6956 62.1331 19.4298 62.3194 19.2406C62.5057 19.0514 62.7646 18.9561 63.0974 18.9561C63.4302 18.9561 63.6948 19.0499 63.8768 19.2363C64.0589 19.424 64.1499 19.6898 64.1499 20.035C64.1499 20.3802 64.056 20.6373 63.8711 20.8251C63.6848 21.0143 63.426 21.1082 63.0917 21.1082C62.7575 21.1082 62.4986 21.0143 62.3151 20.8266C62.1316 20.6388 62.0392 20.3745 62.0392 20.035V20.0365ZM62.6579 20.0365C62.6579 20.3615 62.6906 20.5897 62.7575 20.7211C62.8243 20.854 62.9353 20.919 63.0917 20.919C63.2482 20.919 63.362 20.8526 63.4288 20.7197C63.4957 20.5868 63.5298 20.3586 63.5298 20.0365C63.5298 19.7144 63.4957 19.4833 63.4288 19.3489C63.362 19.2146 63.2496 19.1467 63.0917 19.1467C62.9338 19.1467 62.8243 19.2132 62.7575 19.346C62.6906 19.4789 62.6579 19.7086 62.6579 20.0365Z" fill="white"/>
<path d="M64.5211 21.0583C64.5325 20.8691 64.5396 20.6914 64.5453 20.5224C64.551 20.3549 64.5538 20.1931 64.5538 20.0386C64.5538 19.8652 64.551 19.6919 64.5453 19.5215C64.5396 19.351 64.5311 19.1806 64.5211 19.013C64.5652 19.0188 64.6107 19.0231 64.6577 19.026C64.7046 19.0289 64.7558 19.0304 64.8113 19.0304C64.8667 19.0304 64.9165 19.0304 64.962 19.026C65.0076 19.0231 65.0516 19.0188 65.0929 19.013V19.3077C65.1782 19.1921 65.2764 19.1069 65.383 19.0506C65.4897 18.9942 65.6092 18.9668 65.7429 18.9668C65.8453 18.9668 65.9392 18.9841 66.0245 19.0202C66.1099 19.0563 66.181 19.1083 66.2407 19.1762C66.2877 19.2326 66.3204 19.3005 66.3403 19.3828C66.3602 19.4637 66.3701 19.6038 66.3701 19.8017C66.3701 19.8291 66.3701 19.9028 66.3687 20.0227C66.3673 20.1411 66.3659 20.2465 66.3659 20.3375C66.3659 20.4719 66.3687 20.5975 66.373 20.716C66.3773 20.8344 66.3844 20.9485 66.3943 21.0612C66.336 21.054 66.2805 21.0496 66.2293 21.0453C66.1781 21.0424 66.1283 21.0395 66.08 21.0395C66.0316 21.0395 65.9833 21.041 65.9335 21.0453C65.8837 21.0496 65.8282 21.054 65.7699 21.0612C65.7799 20.9399 65.787 20.7954 65.7941 20.6264C65.7998 20.4574 65.8026 20.2711 65.8026 20.0646C65.8026 19.754 65.7785 19.5532 65.7301 19.4637C65.6817 19.3741 65.5936 19.3293 65.4655 19.3293C65.3375 19.3293 65.2465 19.3828 65.191 19.4897C65.1356 19.5966 65.1085 19.7786 65.1085 20.0328C65.1085 20.1527 65.1114 20.2985 65.1142 20.469C65.1185 20.6409 65.1242 20.8373 65.1313 21.0598C65.0787 21.0525 65.0275 21.0482 64.9777 21.0439C64.9265 21.041 64.8781 21.0381 64.8298 21.0381C64.7814 21.0381 64.7345 21.0395 64.6833 21.0439C64.6321 21.0482 64.578 21.0525 64.5225 21.0598L64.5211 21.0583Z" fill="white"/>
<path d="M67.5364 21.0578C67.4155 20.5884 67.2818 20.1103 67.1368 19.6235C66.9903 19.1367 66.8324 18.6413 66.6603 18.1357C66.7143 18.1415 66.7698 18.1459 66.8281 18.1487C66.8864 18.1516 66.949 18.1531 67.0187 18.1531C67.0884 18.1531 67.1481 18.1531 67.205 18.1487C67.2619 18.1459 67.3188 18.1415 67.3714 18.1357C67.4525 18.494 67.5407 18.8507 67.6346 19.2075C67.7284 19.5643 67.8294 19.9181 67.9361 20.2706C68.0698 19.882 68.195 19.5123 68.313 19.1627C68.4311 18.8132 68.5434 18.4708 68.6515 18.1357C68.6843 18.1415 68.7184 18.1459 68.7511 18.1487C68.7838 18.1516 68.8208 18.1531 68.8606 18.1531C68.9004 18.1531 68.9403 18.1531 68.9744 18.1487C69.01 18.1459 69.0441 18.1415 69.0768 18.1357C69.175 18.4737 69.2816 18.819 69.394 19.1685C69.5078 19.518 69.6273 19.8763 69.7524 20.2403C69.8705 19.8979 69.98 19.5513 70.0824 19.2017C70.1848 18.8522 70.2787 18.4954 70.3669 18.1357C70.3953 18.1415 70.4252 18.1459 70.4579 18.1487C70.4892 18.1516 70.5233 18.1531 70.5603 18.1531C70.5973 18.1531 70.6314 18.1531 70.6627 18.1487C70.694 18.1459 70.7224 18.1415 70.7523 18.1357C70.603 18.5691 70.4494 19.0284 70.2901 19.5137C70.1322 19.999 69.9672 20.5132 69.7979 21.0578C69.7595 21.0506 69.7226 21.0462 69.6856 21.0419C69.65 21.039 69.6145 21.0361 69.5789 21.0361C69.5476 21.0361 69.5135 21.0376 69.4779 21.0419C69.4424 21.0462 69.4025 21.0506 69.3613 21.0578C69.2631 20.7285 69.1593 20.3905 69.0469 20.0467C68.9346 19.7029 68.8123 19.3505 68.6828 18.9879C68.5562 19.3144 68.4339 19.6495 68.3144 19.9947C68.195 20.3399 68.0769 20.6938 67.9617 21.0578C67.9233 21.0506 67.8863 21.0462 67.8508 21.0419C67.8152 21.039 67.7811 21.0361 67.7484 21.0361C67.7156 21.0361 67.6815 21.0376 67.646 21.0419C67.6118 21.0462 67.5734 21.0506 67.5336 21.0578H67.5364Z" fill="white"/>
<path d="M71.4606 20.0408C71.4606 20.2878 71.519 20.4828 71.6342 20.6272C71.7508 20.7717 71.9058 20.8439 72.1021 20.8439C72.1988 20.8439 72.2927 20.8266 72.3823 20.7933C72.4719 20.7601 72.5573 20.7096 72.6412 20.6402L72.6824 20.672L72.59 20.9147C72.5018 20.9768 72.3994 21.0259 72.2799 21.0591C72.1618 21.0923 72.0324 21.1097 71.8944 21.1097C71.5673 21.1097 71.3099 21.0115 71.125 20.815C70.9401 20.6186 70.8462 20.347 70.8462 20.0004C70.8462 19.6884 70.9386 19.437 71.1235 19.2449C71.3084 19.0528 71.5531 18.9561 71.8575 18.9561C72.1618 18.9561 72.3681 19.0369 72.5231 19.2002C72.6782 19.3634 72.755 19.5974 72.755 19.9021C72.755 19.9383 72.755 19.9657 72.755 19.9859C72.755 20.0047 72.7535 20.0235 72.7521 20.0379H71.4635L71.4606 20.0408ZM71.4606 19.8299H72.1746C72.1746 19.814 72.1746 19.7953 72.1775 19.7721C72.1775 19.749 72.1803 19.7346 72.1803 19.7274C72.1803 19.5338 72.1519 19.3879 72.0964 19.2883C72.0409 19.19 71.9585 19.1395 71.8504 19.1395C71.7266 19.1395 71.6313 19.1958 71.563 19.3085C71.4948 19.4212 71.4606 19.5815 71.4606 19.7909V19.8285V19.8299Z" fill="white"/>
<path d="M74.1488 20.789C74.0877 20.8915 74.0095 20.971 73.9113 21.0273C73.8132 21.0836 73.7022 21.1111 73.5785 21.1111C73.4021 21.1111 73.2627 21.0576 73.1618 20.9507C73.0608 20.8439 73.011 20.6994 73.011 20.516C73.011 20.3802 73.0465 20.269 73.1177 20.1823C73.1888 20.0942 73.3011 20.0249 73.4533 19.9729C73.5031 19.9555 73.5742 19.9339 73.6667 19.9035C73.8857 19.8371 74.0365 19.775 74.1176 19.7201C74.1176 19.7114 74.1204 19.7028 74.1204 19.6927C74.1204 19.6826 74.1204 19.6667 74.1204 19.6479C74.1204 19.5179 74.0834 19.4153 74.0109 19.3388C73.9383 19.2622 73.8416 19.2232 73.7207 19.2232C73.6254 19.2232 73.5401 19.2507 73.4619 19.3041C73.3851 19.359 73.3125 19.4413 73.2471 19.5526C73.2272 19.4861 73.2087 19.4327 73.1959 19.3922C73.1817 19.3518 73.1689 19.3142 73.1546 19.2796C73.2798 19.1698 73.4021 19.0875 73.5244 19.034C73.6468 18.9806 73.7734 18.9531 73.9056 18.9531C74.1574 18.9531 74.3522 19.0123 74.4859 19.1308C74.6211 19.2492 74.6893 19.4182 74.6893 19.6378V19.658L74.6765 20.4033V20.4842C74.6765 20.6575 74.695 20.7702 74.7334 20.8193C74.7718 20.8684 74.8444 20.893 74.9539 20.893H74.9667V20.9999C74.8956 21.0302 74.8216 21.0533 74.7448 21.0692C74.668 21.0851 74.594 21.0937 74.5243 21.0937C74.4219 21.0937 74.3394 21.0677 74.2754 21.0157C74.2114 20.9637 74.1673 20.8872 74.146 20.7875L74.1488 20.789ZM74.1304 19.9324C73.9355 19.9729 73.7947 20.0335 73.7079 20.1159C73.6226 20.1982 73.5785 20.3123 73.5785 20.4582C73.5785 20.581 73.5998 20.672 73.6439 20.7341C73.688 20.7948 73.7534 20.8265 73.8388 20.8265C73.9327 20.8265 74.0038 20.7919 74.0536 20.724C74.1033 20.6561 74.1289 20.5579 74.1289 20.4293V19.9324H74.1304Z" fill="white"/>
<path d="M75.2554 21.0577C75.2653 20.8164 75.2739 20.5651 75.2796 20.3037C75.2852 20.0422 75.2881 19.762 75.2881 19.4616C75.2881 19.1438 75.2852 18.8549 75.2796 18.592C75.2739 18.3292 75.2653 18.0822 75.2554 17.8496C75.3222 17.8612 75.3791 17.8684 75.4275 17.8727C75.4744 17.8771 75.5213 17.8785 75.5669 17.8785C75.6124 17.8785 75.6593 17.8756 75.7105 17.8713C75.7617 17.8669 75.8186 17.8597 75.8812 17.8496C75.8698 18.0908 75.8627 18.3422 75.857 18.6036C75.8513 18.865 75.8485 19.1452 75.8485 19.4457C75.8485 19.7635 75.8513 20.0538 75.857 20.3152C75.8627 20.5781 75.8712 20.8251 75.8812 21.0577C75.8343 21.0475 75.7859 21.0403 75.7333 21.036C75.6807 21.0317 75.6266 21.0288 75.5711 21.0288C75.5157 21.0288 75.4616 21.0317 75.409 21.036C75.3564 21.0403 75.3052 21.0475 75.2554 21.0577Z" fill="white"/>
<path d="M76.4602 19.2525H76.3834C76.3265 19.2525 76.2852 19.2525 76.2553 19.2525C76.2255 19.2525 76.1985 19.254 76.1743 19.2554C76.1771 19.2395 76.1785 19.2251 76.18 19.2121C76.18 19.1976 76.18 19.176 76.18 19.1456C76.18 19.1153 76.18 19.0922 76.1771 19.0749C76.1771 19.059 76.1743 19.0445 76.1729 19.0315C76.1785 19.0315 76.1857 19.0344 76.197 19.0359C76.2966 19.046 76.3677 19.0503 76.4104 19.0503H76.4573C76.4573 19.0286 76.4602 19.0084 76.4602 18.9853C76.4602 18.9636 76.4602 18.929 76.4602 18.8828C76.4602 18.8264 76.4602 18.7672 76.4559 18.7051C76.453 18.643 76.4488 18.565 76.4431 18.4711C76.5398 18.4335 76.6365 18.3931 76.7304 18.3527C76.8243 18.3108 76.9167 18.2674 77.0063 18.2227L77.0518 18.2588C77.0433 18.422 77.0376 18.5578 77.0334 18.6675C77.0291 18.7773 77.0262 18.8596 77.0262 18.9174V19.0517C77.1031 19.0517 77.1742 19.0517 77.241 19.0474C77.3079 19.0445 77.3719 19.0402 77.4359 19.0344C77.4316 19.0662 77.4288 19.0893 77.4288 19.1037C77.4288 19.1182 77.4288 19.1312 77.4288 19.1456C77.4288 19.1687 77.4302 19.202 77.4345 19.2439C77.4373 19.2496 77.4373 19.254 77.4373 19.2569C77.4046 19.2569 77.3605 19.254 77.3065 19.254C77.2524 19.254 77.1571 19.254 77.0191 19.254C77.0191 19.2742 77.0191 19.3074 77.0177 19.3522C77.0078 19.6468 77.0035 19.8577 77.0035 19.9834V20.1553C77.0035 20.4832 77.0191 20.6854 77.0504 20.7634C77.0817 20.8414 77.1429 20.8804 77.2339 20.8804C77.2794 20.8804 77.3605 20.8645 77.4771 20.8342H77.48V20.9902C77.3875 21.032 77.3022 21.0624 77.224 21.0826C77.1457 21.1028 77.0689 21.1115 76.9964 21.1115C76.8172 21.1115 76.6792 21.0624 76.5853 20.9656C76.49 20.8688 76.4431 20.7273 76.4431 20.5438C76.4431 20.5366 76.4459 20.4153 76.4502 20.1784C76.4559 19.9415 76.4573 19.709 76.4573 19.4793V19.2525H76.4602Z" fill="white"/>
<path d="M77.7516 21.0576C77.763 20.9074 77.7715 20.7211 77.7772 20.4987C77.7815 20.2762 77.7843 19.9556 77.7843 19.5352C77.7843 19.0904 77.7815 18.7423 77.7772 18.4924C77.7715 18.2425 77.763 18.0287 77.7516 17.8496C77.8085 17.8612 77.8625 17.8684 77.9123 17.8742C77.9621 17.8799 78.0104 17.8828 78.0574 17.8828C78.1072 17.8828 78.1569 17.8799 78.2067 17.8742C78.2579 17.8684 78.3106 17.8597 78.3646 17.8496C78.3504 17.9666 78.3404 18.0923 78.3333 18.2252C78.3262 18.3595 78.3219 18.5025 78.3219 18.657V19.3215C78.3987 19.203 78.4912 19.1149 78.5993 19.0557C78.7074 18.9965 78.8311 18.9661 78.9719 18.9661C79.0729 18.9661 79.1668 18.9835 79.2507 19.0196C79.3346 19.0557 79.4058 19.1077 79.4641 19.1756C79.5138 19.2334 79.548 19.3041 79.5693 19.3894C79.5892 19.4746 79.6006 19.6118 79.6006 19.801C79.6006 19.8285 79.6006 19.9021 79.5978 20.022C79.5978 20.1404 79.5963 20.2459 79.5963 20.3369C79.5963 20.4943 79.5978 20.6301 79.602 20.7428C79.6063 20.8569 79.612 20.9623 79.6205 21.0591C79.5636 21.0519 79.5082 21.0475 79.4555 21.0432C79.4029 21.0403 79.3545 21.0374 79.309 21.0374C79.2607 21.0374 79.2123 21.0389 79.1625 21.0432C79.1128 21.0475 79.0573 21.0519 78.999 21.0591C79.0089 20.9378 79.016 20.7933 79.0217 20.6243C79.0274 20.4553 79.0303 20.269 79.0303 20.0624C79.0303 19.7519 79.0061 19.5511 78.9591 19.4616C78.9108 19.372 78.824 19.3272 78.696 19.3272C78.568 19.3272 78.477 19.3807 78.4215 19.4876C78.366 19.5945 78.3376 19.7765 78.3376 20.0307C78.3376 20.165 78.3404 20.3181 78.3447 20.4929C78.349 20.6662 78.3561 20.8554 78.3646 21.0591C78.3091 21.0519 78.2565 21.0475 78.2067 21.0432C78.1555 21.0403 78.1072 21.0374 78.0588 21.0374C78.0104 21.0374 77.9635 21.0389 77.9123 21.0432C77.8611 21.0475 77.8085 21.0519 77.753 21.0591L77.7516 21.0576Z" fill="white"/>
<path d="M49.7246 25.8293C49.7587 25.6097 49.7886 25.4205 49.8128 25.2631C49.837 25.1056 49.854 24.993 49.8626 24.9265L50.1314 22.9072C50.1584 22.913 50.1869 22.9173 50.2167 22.9202C50.2466 22.9231 50.2779 22.9246 50.312 22.9246C50.3462 22.9246 50.3789 22.9246 50.4102 22.9202C50.4415 22.9173 50.4713 22.913 50.4998 22.9072C50.6505 23.2481 50.807 23.5847 50.9706 23.9169C51.1327 24.2491 51.3005 24.5784 51.4726 24.9063C51.6391 24.59 51.8012 24.2664 51.9619 23.9328C52.1226 23.5991 52.2791 23.2582 52.4327 22.9072C52.4626 22.913 52.4939 22.9173 52.5252 22.9202C52.5565 22.9231 52.5906 22.9246 52.6261 22.9246C52.6617 22.9246 52.6958 22.9246 52.7271 22.9202C52.7598 22.9173 52.7897 22.913 52.8182 22.9072L53.0585 24.9525C53.0841 25.1778 53.1083 25.357 53.1282 25.4855C53.1481 25.6141 53.1695 25.7296 53.1922 25.8293C53.124 25.8235 53.06 25.8177 53.0016 25.8148C52.9433 25.8105 52.8879 25.8091 52.8338 25.8091C52.7798 25.8091 52.7243 25.8105 52.666 25.8148C52.6077 25.8192 52.5479 25.8235 52.4853 25.8307C52.4853 25.8206 52.4825 25.8062 52.4811 25.7874C52.4683 25.4884 52.4583 25.3035 52.4498 25.2313L52.3132 23.8678C52.1554 24.174 51.9975 24.4889 51.841 24.8139C51.6831 25.1388 51.5224 25.4768 51.3574 25.8307C51.3475 25.8278 51.3375 25.8264 51.3247 25.8249C51.3133 25.8249 51.2934 25.8235 51.2678 25.8235C51.2451 25.8235 51.228 25.8235 51.2166 25.8249C51.2052 25.8249 51.1953 25.8278 51.1853 25.8307C51.0218 25.4826 50.8625 25.1504 50.706 24.8355C50.5495 24.5206 50.3959 24.2202 50.2452 23.9357L50.1442 24.8225L50.1399 24.8557C50.0887 25.3165 50.0631 25.6415 50.0617 25.8293C50.0304 25.8221 49.9991 25.8177 49.9707 25.8134C49.9408 25.8105 49.9152 25.8076 49.8896 25.8076C49.8626 25.8076 49.8341 25.8091 49.8071 25.8134C49.7801 25.8177 49.7502 25.8221 49.7161 25.8293H49.7246Z" fill="white"/>
<path d="M54.6402 25.5585C54.579 25.6611 54.5008 25.7405 54.4027 25.7968C54.3045 25.8532 54.1936 25.8806 54.0698 25.8806C53.8935 25.8806 53.7541 25.8272 53.6531 25.7203C53.5521 25.6134 53.5023 25.469 53.5023 25.2855C53.5023 25.1497 53.5379 25.0385 53.609 24.9519C53.6801 24.8637 53.7925 24.7944 53.9447 24.7424C53.9944 24.7251 54.0656 24.7034 54.158 24.6731C54.377 24.6066 54.5278 24.5445 54.6089 24.4896C54.6089 24.481 54.6117 24.4723 54.6117 24.4622C54.6117 24.4521 54.6117 24.4362 54.6117 24.4174C54.6117 24.2874 54.5748 24.1849 54.5022 24.1083C54.4297 24.0318 54.333 23.9928 54.2121 23.9928C54.1182 23.9928 54.0314 24.0202 53.9532 24.0736C53.8764 24.1285 53.8039 24.2109 53.7384 24.3221C53.7185 24.2556 53.7 24.2022 53.6872 24.1618C53.673 24.1213 53.6602 24.0838 53.646 24.0491C53.7711 23.9393 53.8935 23.857 54.0158 23.8035C54.1381 23.7501 54.2647 23.7227 54.397 23.7227C54.6487 23.7227 54.8436 23.7819 54.9773 23.9003C55.1124 24.0188 55.1807 24.1878 55.1807 24.4073V24.4275L55.1679 25.1728V25.2537C55.1679 25.4271 55.1864 25.5397 55.2248 25.5888C55.2632 25.6379 55.3357 25.6625 55.4452 25.6625H55.458V25.7694C55.3869 25.7997 55.3129 25.8228 55.2361 25.8387C55.1593 25.8546 55.0854 25.8633 55.0157 25.8633C54.9133 25.8633 54.8308 25.8373 54.7668 25.7853C54.7028 25.7333 54.6587 25.6567 54.6373 25.5571L54.6402 25.5585ZM54.6217 24.702C54.4268 24.7424 54.286 24.8031 54.1993 24.8854C54.1139 24.9677 54.0698 25.0818 54.0698 25.2277C54.0698 25.3505 54.0912 25.4415 54.1353 25.5036C54.1793 25.5643 54.2448 25.5961 54.3301 25.5961C54.424 25.5961 54.4951 25.5614 54.5449 25.4935C54.5947 25.4256 54.6203 25.3274 54.6203 25.1988V24.702H54.6217Z" fill="white"/>
<path d="M56.0369 25.9269L56.0411 25.8937C55.9558 25.8677 55.8904 25.8244 55.8434 25.7666C55.7965 25.7074 55.7723 25.638 55.7723 25.5557C55.7723 25.4604 55.8079 25.3708 55.8804 25.2885C55.953 25.2062 56.0568 25.1354 56.1933 25.0776V25.0256C56.0141 24.9895 55.879 24.9202 55.7866 24.8176C55.6955 24.7151 55.65 24.5822 55.65 24.4175C55.65 24.2095 55.7282 24.0434 55.8847 23.9177C56.0426 23.7921 56.2531 23.7285 56.5176 23.7285C56.5418 23.7285 56.6357 23.7343 56.7978 23.7458C56.96 23.7574 57.1107 23.7632 57.2487 23.7632C57.3056 23.7632 57.3639 23.7632 57.4279 23.7603C57.4905 23.7574 57.5573 23.7545 57.627 23.7502V23.9596C57.5403 23.9553 57.4237 23.951 57.2757 23.9452C57.2444 23.9452 57.2245 23.9437 57.2117 23.9437C57.2843 23.9914 57.3383 24.0506 57.3753 24.1228C57.4109 24.1951 57.4293 24.2803 57.4293 24.3799C57.4293 24.6009 57.3454 24.7743 57.179 24.8985C57.0126 25.0227 56.7793 25.0848 56.4806 25.0848H56.4095C56.3541 25.0906 56.31 25.1123 56.2758 25.1498C56.2417 25.1874 56.2246 25.2336 56.2246 25.2899C56.2246 25.4199 56.4238 25.4921 56.8234 25.5066H56.8462C56.859 25.5066 56.8761 25.5095 56.8974 25.5109C57.1534 25.5239 57.3184 25.5499 57.3924 25.5918C57.4777 25.6424 57.5417 25.7103 57.5872 25.7969C57.6313 25.8836 57.6541 25.9832 57.6541 26.0974C57.6541 26.3602 57.5474 26.5755 57.3326 26.743C57.1193 26.9106 56.8405 26.9943 56.4991 26.9943C56.2175 26.9943 55.9985 26.9452 55.8406 26.847C55.6827 26.7488 55.6045 26.6145 55.6045 26.4426C55.6045 26.3169 55.6401 26.2115 55.7112 26.1277C55.7823 26.0425 55.8904 25.9746 56.034 25.9255L56.0369 25.9269ZM56.2218 25.9515C56.1535 25.9876 56.0995 26.0396 56.0611 26.106C56.0227 26.1725 56.0042 26.249 56.0042 26.3342C56.0042 26.4801 56.0525 26.5971 56.1492 26.6852C56.246 26.7733 56.3754 26.8167 56.539 26.8167C56.7296 26.8167 56.8789 26.7777 56.987 26.6982C57.0951 26.6188 57.1491 26.509 57.1491 26.3689C57.1491 26.2418 57.1136 26.1479 57.0439 26.0858C56.9728 26.0237 56.8604 25.989 56.7082 25.9804L56.2232 25.9529L56.2218 25.9515ZM56.2218 24.4045C56.2218 24.5793 56.2474 24.7093 56.2972 24.7916C56.3469 24.8739 56.4266 24.9144 56.5347 24.9144C56.6428 24.9144 56.7281 24.871 56.7779 24.7844C56.8277 24.6977 56.8519 24.5547 56.8519 24.3568C56.8519 24.2023 56.8263 24.0867 56.7765 24.0116C56.7267 23.9365 56.6499 23.899 56.5475 23.899C56.4451 23.899 56.364 23.9423 56.3085 24.0304C56.2517 24.1185 56.2232 24.2427 56.2232 24.4045H56.2218Z" fill="white"/>
<path d="M58.9285 25.5585C58.8674 25.6611 58.7891 25.7405 58.691 25.7968C58.5928 25.8532 58.4819 25.8806 58.3582 25.8806C58.1818 25.8806 58.0424 25.8272 57.9414 25.7203C57.8404 25.6134 57.7906 25.469 57.7906 25.2855C57.7906 25.1497 57.8262 25.0385 57.8973 24.9519C57.9684 24.8637 58.0808 24.7944 58.233 24.7424C58.2828 24.7251 58.3539 24.7034 58.4463 24.6731C58.6654 24.6066 58.8161 24.5445 58.8972 24.4896C58.8972 24.481 58.9001 24.4723 58.9001 24.4622C58.9001 24.4521 58.9001 24.4362 58.9001 24.4174C58.9001 24.2874 58.8631 24.1849 58.7905 24.1083C58.718 24.0318 58.6213 23.9928 58.5004 23.9928C58.4065 23.9928 58.3198 24.0202 58.2415 24.0736C58.1647 24.1285 58.0922 24.2109 58.0268 24.3221C58.0068 24.2556 57.9884 24.2022 57.9756 24.1618C57.9613 24.1213 57.9485 24.0838 57.9343 24.0491C58.0595 23.9393 58.1818 23.857 58.3041 23.8035C58.4264 23.7501 58.553 23.7227 58.6853 23.7227C58.937 23.7227 59.1319 23.7819 59.2656 23.9003C59.4007 24.0188 59.469 24.1878 59.469 24.4073V24.4275L59.4562 25.1728V25.2537C59.4562 25.4271 59.4747 25.5397 59.5131 25.5888C59.5515 25.6379 59.624 25.6625 59.7336 25.6625H59.7464V25.7694C59.6752 25.7997 59.6013 25.8228 59.5245 25.8387C59.4477 25.8546 59.3737 25.8633 59.304 25.8633C59.2016 25.8633 59.1191 25.8373 59.0551 25.7853C58.9911 25.7333 58.947 25.6567 58.9257 25.5571L58.9285 25.5585ZM58.91 24.702C58.7152 24.7424 58.5744 24.8031 58.4876 24.8854C58.4022 24.9677 58.3582 25.0818 58.3582 25.2277C58.3582 25.3505 58.3795 25.4415 58.4236 25.5036C58.4677 25.5643 58.5331 25.5961 58.6184 25.5961C58.7123 25.5961 58.7834 25.5614 58.8332 25.4935C58.883 25.4256 58.9086 25.3274 58.9086 25.1988V24.702H58.91Z" fill="white"/>
<path d="M59.8004 25.8295V25.7601C59.9569 25.5189 60.2015 25.1405 60.5343 24.6219L60.9269 24.0124C60.8387 24.0081 60.7704 24.0052 60.7221 24.0052C60.6737 24.0052 60.6268 24.0052 60.5813 24.0052C60.4675 24.0052 60.2869 24.0095 60.0408 24.0196C60.0195 24.0196 60.0024 24.0196 59.9938 24.0211C59.9967 24.0052 59.9981 23.9907 59.9995 23.9748C59.9995 23.959 60.0024 23.9358 60.0024 23.9041C60.0024 23.8723 60.0024 23.8477 59.9995 23.8304C59.9995 23.8131 59.9953 23.7986 59.9938 23.7842C60.119 23.79 60.2513 23.7943 60.3893 23.7972C60.5272 23.8001 60.6737 23.8015 60.8302 23.8015C60.9866 23.8015 61.1331 23.8015 61.2683 23.7972C61.402 23.7943 61.53 23.79 61.6509 23.7842V23.8362C61.5527 23.9864 61.4148 24.1987 61.2384 24.4746C61.062 24.749 60.8259 25.1203 60.5286 25.5883C60.6296 25.5926 60.705 25.5955 60.7562 25.5955C60.806 25.5955 60.8529 25.5955 60.8999 25.5955C61.0265 25.5955 61.1516 25.5926 61.2725 25.5883C61.3934 25.5839 61.5129 25.5767 61.6324 25.568C61.6295 25.594 61.6267 25.6171 61.6253 25.6374C61.6253 25.6561 61.6238 25.6749 61.6238 25.6894C61.6238 25.7038 61.6238 25.7226 61.6253 25.7414C61.6253 25.7601 61.6281 25.789 61.6324 25.8266C61.5086 25.8194 61.3749 25.815 61.2327 25.8107C61.089 25.8078 60.9241 25.8049 60.7363 25.8049C60.5486 25.8049 60.3807 25.8064 60.23 25.8107C60.0792 25.815 59.937 25.8194 59.8018 25.8266L59.8004 25.8295Z" fill="white"/>
<path d="M62.0007 23.014C62.0007 22.923 62.032 22.8464 62.0932 22.7843C62.1543 22.7222 62.2312 22.6904 62.3222 22.6904C62.4132 22.6904 62.4843 22.7222 62.5455 22.7858C62.6066 22.8493 62.6365 22.9259 62.6365 23.014C62.6365 23.1021 62.6052 23.1801 62.5441 23.2422C62.4815 23.3043 62.4061 23.3346 62.3179 23.3346C62.2297 23.3346 62.1543 23.3043 62.0932 23.2422C62.032 23.1801 62.0022 23.1035 62.0022 23.014H62.0007ZM62.005 25.8291C62.015 25.611 62.0235 25.4204 62.0278 25.26C62.032 25.0997 62.0349 24.948 62.0349 24.8079C62.0349 24.6462 62.032 24.4815 62.0278 24.314C62.0221 24.1464 62.015 23.9702 62.0064 23.7853C62.0548 23.7896 62.1046 23.7925 62.1572 23.7954C62.2098 23.7969 62.2639 23.7983 62.3179 23.7983C62.372 23.7983 62.4274 23.7983 62.4801 23.7954C62.5327 23.7925 62.5825 23.7896 62.6294 23.7853C62.6194 23.9702 62.6123 24.1464 62.6081 24.314C62.6024 24.4815 62.601 24.6462 62.601 24.8079C62.601 24.948 62.6038 25.0997 62.6081 25.2615C62.6123 25.4233 62.6194 25.6125 62.6294 25.8291C62.5754 25.8219 62.5227 25.8176 62.4715 25.8133C62.4203 25.8104 62.3691 25.8075 62.3179 25.8075C62.2667 25.8075 62.2183 25.8089 62.1657 25.8133C62.1145 25.8176 62.0605 25.8219 62.0064 25.8291H62.005Z" fill="white"/>
<path d="M63.1586 25.8288C63.1699 25.6396 63.1785 25.4619 63.1828 25.2929C63.1884 25.1254 63.1913 24.9636 63.1913 24.8091C63.1913 24.6357 63.1884 24.4624 63.1828 24.292C63.1771 24.1215 63.1685 23.9511 63.1586 23.7835C63.2027 23.7893 63.2482 23.7936 63.2951 23.7965C63.3421 23.7994 63.3933 23.8009 63.4487 23.8009C63.5042 23.8009 63.554 23.8009 63.5995 23.7965C63.645 23.7936 63.6891 23.7893 63.7303 23.7835V24.0782C63.8157 23.9626 63.9138 23.8774 64.0205 23.8211C64.1272 23.7647 64.2467 23.7373 64.3804 23.7373C64.4828 23.7373 64.5766 23.7546 64.662 23.7907C64.7473 23.8269 64.8184 23.8789 64.8782 23.9467C64.9251 24.0031 64.9578 24.071 64.9777 24.1533C64.9976 24.2342 65.0076 24.3743 65.0076 24.5722C65.0076 24.5996 65.0076 24.6733 65.0062 24.7932C65.0048 24.9116 65.0033 25.0171 65.0033 25.1081C65.0033 25.2424 65.0062 25.368 65.0104 25.4865C65.0147 25.6049 65.0218 25.719 65.0318 25.8317C64.9735 25.8245 64.918 25.8201 64.8668 25.8158C64.8156 25.8129 64.7658 25.81 64.7174 25.81C64.6691 25.81 64.6207 25.8115 64.5709 25.8158C64.5212 25.8201 64.4657 25.8245 64.4074 25.8317C64.4173 25.7104 64.4244 25.5659 64.4316 25.3969C64.4372 25.2279 64.4401 25.0416 64.4401 24.8351C64.4401 24.5245 64.4159 24.3237 64.3675 24.2342C64.3192 24.1446 64.231 24.0999 64.103 24.0999C63.975 24.0999 63.884 24.1533 63.8285 24.2602C63.773 24.3671 63.746 24.5491 63.746 24.8033C63.746 24.9232 63.7488 25.0691 63.7517 25.2395C63.7559 25.4114 63.7616 25.6078 63.7687 25.8303C63.7161 25.823 63.6649 25.8187 63.6151 25.8144C63.5639 25.8115 63.5156 25.8086 63.4672 25.8086C63.4189 25.8086 63.3719 25.81 63.3221 25.8144C63.2709 25.8187 63.2169 25.823 63.1614 25.8303L63.1586 25.8288Z" fill="white"/>
<path d="M66.033 24.8123C66.033 25.0593 66.0913 25.2543 66.2066 25.3987C66.3232 25.5432 66.4782 25.6154 66.6745 25.6154C66.7712 25.6154 66.8651 25.5981 66.9547 25.5648C67.0443 25.5316 67.1296 25.4811 67.2136 25.4117L67.2548 25.4435L67.1624 25.6862C67.0742 25.7483 66.9718 25.7974 66.8523 25.8306C66.7342 25.8638 66.6048 25.8812 66.4668 25.8812C66.1397 25.8812 65.8823 25.7829 65.6974 25.5865C65.5125 25.3901 65.4186 25.1185 65.4186 24.7718C65.4186 24.4599 65.511 24.2085 65.6959 24.0164C65.8808 23.8243 66.1255 23.7275 66.4299 23.7275C66.7342 23.7275 66.9405 23.8084 67.0955 23.9716C67.2505 24.1349 67.3273 24.3689 67.3273 24.6736C67.3273 24.7097 67.3273 24.7372 67.3273 24.7574C67.3273 24.7762 67.3259 24.795 67.3245 24.8094H66.0359L66.033 24.8123ZM66.033 24.6014H66.747C66.747 24.5855 66.747 24.5667 66.7499 24.5436C66.7499 24.5205 66.7527 24.5061 66.7527 24.4989C66.7527 24.3053 66.7243 24.1594 66.6688 24.0598C66.6133 23.9615 66.5308 23.911 66.4227 23.911C66.299 23.911 66.2037 23.9673 66.1354 24.08C66.0672 24.1926 66.033 24.353 66.033 24.5624V24.6V24.6014Z" fill="white"/>
<path d="M58.4364 13.9817V14.4439H55.1153V15.2066H54.2448L54.2548 9.94602C54.1168 10.167 53.9774 10.388 53.8295 10.5888L53.5521 10.3779C53.6702 10.1266 53.7797 9.8868 53.8679 9.63547L53.4028 10.0674C53.2549 9.7568 53.0771 9.42459 52.8595 9.11404C52.6817 9.49536 52.4541 9.86658 52.2166 10.1973H52.3844V11.1406H54.0258V11.5927H52.3844V11.9538C52.9775 12.2946 53.5408 12.6456 53.9561 13.0472L53.3729 13.7102C53.0956 13.2884 52.6817 12.7872 52.3844 12.4347V15.2658H51.5339V12.6355C51.1584 13.2075 50.4956 13.9904 49.6848 14.5826L49.4772 14.2908C50.1883 13.5686 50.8611 12.6846 51.3262 11.5898H49.6948V11.1377H51.5339V10.1945H51.7913C52.1967 9.45203 52.4043 8.53772 52.5124 7.62485L53.3132 7.82562C53.2634 8.09717 53.1653 8.3875 53.0458 8.69949C53.3914 8.9306 53.7086 9.18048 53.9348 9.45203C54.2804 8.42794 54.3999 7.34463 54.5478 5.87855L55.4467 6.0591C55.3869 6.72209 55.2689 7.36341 55.0911 7.97584H58.3041V8.42794H56.9202V9.77269H58.0567V10.2248H56.9202V11.7905H58.0666V12.2426H56.9202V13.9788H58.4322L58.4364 13.9817ZM49.8569 10.6495L49.5895 10.4183C50.0546 9.65569 50.4003 8.56083 50.5781 7.58729L51.3788 7.77796C51.329 8.02928 51.2209 8.31961 51.0915 8.6316C51.467 8.89304 51.7941 9.17326 52.0402 9.46503L51.477 10.0067C51.3191 9.68603 51.1313 9.3437 50.9237 9.01293C50.6278 9.62536 50.2324 10.2479 49.8555 10.6495H49.8569ZM54.0087 7.51652H49.7488V7.06442H51.9534C51.5979 6.68309 51.2423 6.3711 50.8668 6.06055L51.0048 5.75C51.558 5.91033 52.2308 6.2021 52.6461 6.50254L52.2507 7.06442H54.0101V7.51652H54.0087ZM56.0739 8.43083H55.1153V9.77558H56.0739V8.43083ZM56.0739 10.2277H55.1153V11.7934H56.0739V10.2277ZM56.0739 12.2455H55.1153V13.9817H56.0739V12.2455ZM56.3314 7.83862C56.2517 7.42696 56.0256 6.55309 55.8179 5.99122L56.1337 5.83089C56.539 6.28299 56.9643 7.06586 57.1421 7.52663L56.3314 7.83718V7.83862Z" fill="white"/>
<path d="M63.8839 8.03928H60.5927V7.58718H62.1046C61.7789 7.01519 61.4119 6.39265 61.1858 6.06188L61.4332 5.81055C61.8983 6.1211 62.5498 6.6642 62.9551 7.18563L62.4417 7.58718H63.8853V8.03928H63.8839ZM60.88 9.40425V8.98248H63.6578V9.40425H60.88ZM63.6578 10.7894H60.88V10.3677H63.6578V10.7894ZM64.6264 11.7225L64.972 11.7933C64.9123 12.8578 64.6847 13.7404 64.231 14.3528L63.5682 13.8502V15.0649H62.8172V14.4727H61.6807V15.205H60.9098V11.7615H63.5682V13.749C64.0717 13.2276 64.4571 12.6253 64.6264 11.7211V11.7225ZM62.8072 12.205H61.6807V14.0321H62.8072V12.205ZM66.1284 8.03928H64.0916V7.58718H66.1284V5.90155H67.0173V7.58718H69.0925V8.03928H67.0173V9.77546H68.9645V10.2276H64.2992V9.77546H66.1284V8.03928ZM67.8878 12.7062C68.3429 14.3528 68.4211 14.9956 66.8793 14.9956C65.4357 14.9956 65.238 14.8844 65.238 13.801V11.191H66.1084V13.6407C66.1084 14.0423 66.198 14.1723 66.8196 14.1723C67.5308 14.1723 67.5407 14.0423 67.5308 12.7062H67.8864H67.8878ZM65.9506 10.2579C66.4342 10.4688 67.3345 10.97 67.71 11.3614L67.1268 12.0345C66.7812 11.5925 66.1582 10.9209 65.7728 10.5497L65.9506 10.2579ZM69.4495 13.4789L68.6686 13.8704C68.4211 13.0673 68.1651 12.374 67.838 11.6922L68.1153 11.5015C68.6686 12.0836 69.1238 12.7567 69.4495 13.4789Z" fill="white"/>
<path d="M46.5969 15.0843C46.3836 14.8388 46.1546 14.69 46.0337 14.6236C46.0038 14.6106 45.9754 14.5961 45.9469 14.5788H45.9455C45.809 14.4994 45.6795 14.3925 45.5288 14.3535C45.2998 14.2928 45.0566 14.3217 44.8247 14.2726C44.5004 14.2018 44.1776 14.1209 43.849 14.0689C43.4394 14.0054 43.0155 13.988 42.6144 14.1094C42.4338 14.1642 42.2176 14.2365 42.0867 14.3824C41.9786 14.5037 41.9801 14.6467 41.9459 14.7969C41.9146 14.9385 41.8961 15.0814 41.8947 15.2259C41.8905 15.7647 42.0953 16.2962 42.357 16.7555C42.4978 17.0011 42.6628 17.2336 42.8448 17.4488C43.0113 17.6467 43.2075 17.9096 43.4223 18.0555C43.6342 18.1985 43.7779 18.301 43.9116 18.5206C44.0055 18.6751 44.0168 18.7199 44.1946 18.7893C44.4848 18.9019 44.8148 18.899 45.1206 18.9221C45.5202 18.951 45.9526 18.9583 46.3495 18.886C46.651 18.8311 46.7079 18.6159 46.9525 18.47C47.1829 18.3343 47.2981 18.3126 47.4048 18.0541C47.8827 16.8971 47.2939 15.9149 46.5955 15.0829L46.5969 15.0843Z" fill="white"/>
</g>
<defs>
<clipPath id="clip0_173_931">
<rect width="83" height="31" fill="white"/>
</clipPath>
</defs>
</svg>
