<svg width="213" height="28" viewBox="0 0 213 28" fill="none" xmlns="http://www.w3.org/2000/svg">
<g clip-path="url(#clip0_173_856)">
<path d="M43.3915 8.97955H16.4839L20.2329 1.68457H47.1404L43.3915 8.97955Z" fill="white"/>
<path d="M26.9076 18.169H0L3.75455 10.874H30.6621L26.9076 18.169Z" fill="white"/>
<path opacity="0.6" d="M22.7077 26.3148L26.9076 18.1689H17.4536L13.2537 26.3148H22.7077Z" fill="white"/>
<path opacity="0.6" d="M39.2085 17.0857L43.3915 8.97949H33.9375L29.7545 17.0857H39.2085Z" fill="white"/>
<path d="M128.635 4.37379H127.294L127.92 3.84624C127.232 3.19389 126.516 2.58125 125.839 1.93457L125.259 2.41107C125.67 3.07476 126.104 3.72144 126.527 4.36812H124.712C124.689 3.73846 124.672 3.09178 124.672 2.43376V2.33733H123.381V2.43376C123.381 3.07476 123.398 3.72144 123.426 4.36812H117.727V5.3041H123.466L123.477 5.531C123.567 8.07801 123.923 9.95564 124.396 11.3227C123.511 12.4459 122.4 13.3932 121.228 14.2158L121.634 14.8511C122.902 14.1023 123.962 13.3082 124.853 12.4062C125.586 13.8697 126.471 14.4483 127.147 14.5221C127.559 14.5618 127.857 14.5561 128.077 14.3349C128.568 13.8414 128.557 12.236 128.241 10.1485L127.514 10.1655C127.587 11.5213 127.491 12.8997 127.311 13.0756C127.288 13.0983 127.26 13.1153 127.181 13.0869C126.899 12.9848 126.347 12.4799 125.834 11.2774C126.786 10.0294 127.497 8.57152 128.032 6.79032L126.623 6.39324C126.335 7.60718 125.952 8.79275 125.371 9.87622C125.084 8.78708 124.853 7.36893 124.768 5.531L124.757 5.3041H128.641V4.36812L128.635 4.37379Z" fill="white"/>
<path d="M123.381 10.75C121.645 11.4818 119.818 12.0377 117.975 12.3951L118.505 13.8302C120.326 13.2119 122.079 12.4177 123.737 11.4534L123.387 10.75H123.381Z" fill="white"/>
<path d="M121.267 10.3577H122.688V6.27344H118.308V10.3577H121.273H121.267ZM121.267 7.20375V9.42174H119.723V7.20375H121.267Z" fill="white"/>
<path d="M130.704 15.3332V0.805664H115.652V16.2692H130.704V15.3332ZM117.225 15.3332V1.74164H129.137V15.3332H117.225Z" fill="white"/>
<path d="M201.928 4.31164H211.608V0.993164H197.875V4.31164H201.928ZM210.035 1.92914V3.37566H207.549V1.92914H210.035ZM205.981 1.92914V3.37566H203.495V1.92914H205.981ZM199.442 1.92914H201.928V3.37566H199.442V1.92914Z" fill="white"/>
<path d="M209.195 7.9129C209.657 7.68033 210.114 7.43073 210.559 7.17546C211.19 6.81809 211.861 6.36995 212.436 5.93316L211.512 4.79297C210.773 5.39427 209.973 5.93316 209.144 6.42668V5.74029H205.175V4.84402H203.608V5.74029H198.636V6.67628H203.608V7.9129H196.437V8.84888H204.284C204.284 8.84888 204.228 8.87157 204.2 8.88292C201.584 10.0004 198.895 10.9704 196.155 11.7249L196.336 12.4567C197.739 12.1333 199.132 11.7533 200.507 11.3278V16.4502H210.288V10.1876H203.862C204.115 10.0969 204.363 10.0118 204.617 9.91533C205.485 9.58065 206.353 9.22328 207.216 8.84321H213.006V7.90723H209.2L209.195 7.9129ZM208.716 15.5199H202.075V13.7897H208.716V15.5199ZM208.716 12.8594H202.075V11.1293H208.716V12.8594ZM205.17 7.9129V6.67628H208.716C207.938 7.11874 207.137 7.52717 206.331 7.9129H205.17Z" fill="white"/>
<path d="M191.645 9.32034H181.357C181.763 8.90624 182.112 8.46378 182.377 7.99295H189.807V1.13477H178.657V7.99295H180.652C180.196 8.66232 179.547 9.28063 178.944 9.77982C178.02 10.54 176.988 11.198 175.889 11.7255L176.187 12.4573C177.467 11.9865 179 11.232 180.28 10.2563H182.377C182.236 10.4322 182.09 10.6024 181.938 10.7669C180.59 12.1623 178.938 13.2628 177.225 14.1874L177.58 14.9646C179.886 13.9946 182.902 12.4233 184.345 10.2563H186.335C185.687 11.3228 184.773 12.2871 183.843 13.121C182.637 14.1818 181.295 15.1348 179.846 15.8268L180.167 16.6153C180.974 16.3147 181.746 15.9346 182.49 15.5092C184.711 14.1988 186.887 12.5481 188.212 10.2506H189.774C189.667 11.3398 189.497 13.0472 189.424 13.5464C189.323 14.2952 189.148 14.9986 188.5 15.2369C187.643 15.5545 185.337 14.8682 185.337 14.8682L185.1 15.5716C185.1 15.5716 187.147 16.326 188.252 16.4622C189.402 16.604 190.377 16.3714 190.738 15.651C191.318 14.4824 191.64 9.309 191.64 9.309L191.645 9.32034ZM180.218 2.07075H188.229V4.09587H180.218V2.07075ZM180.218 5.03185H188.229V7.05697H180.218V5.03185Z" fill="white"/>
<path d="M165.933 4.30535C165.448 5.13355 164.805 5.89368 164.005 6.40989C164.005 6.40989 164.129 6.64247 164.242 6.84101H158.785V13.6481H161.823C161.085 14.1246 160.284 14.5274 159.484 14.8848C158.446 15.3329 157.358 15.73 156.253 15.9512L156.355 16.7C157.561 16.5809 158.723 16.2916 159.873 15.9285C161.034 15.5485 162.15 15.106 163.221 14.4763C163.221 14.4763 162.917 14.0169 162.674 13.6538H165.33C165.307 13.7502 165.178 14.3345 165.178 14.3345C167.432 14.9869 169.659 15.8208 171.813 16.7454L172.326 15.3669C170.116 14.6692 167.9 14.0849 165.628 13.6538H170.285V6.84668H164.794C166.435 5.86532 167.793 4.03874 168.222 2.16111H170.42C170.387 2.8872 170.341 3.85722 170.313 4.27699C170.268 4.98039 170.138 5.46257 169.648 5.45689C169.276 5.45122 167.878 5.0201 167.878 5.0201L167.568 5.66111C167.568 5.66111 169.101 6.56873 170.093 6.59142C171.024 6.60843 171.599 6.1603 171.74 5.21297C171.892 4.15219 171.988 1.27051 171.988 1.27051H164.557V2.16111H166.728C166.615 2.89855 166.294 3.66435 165.927 4.30535H165.933ZM160.352 9.73404H168.723V10.7551H160.352V9.73404ZM160.352 12.7122V11.6911H168.723V12.7122H160.352ZM168.718 8.79806H160.346V7.77699H168.718V8.79806Z" fill="white"/>
<path d="M156.496 7.24387C158.615 6.56316 160.729 5.85975 162.748 4.88974C162.956 5.28682 163.165 5.6839 163.368 6.07531L164.648 5.23576C163.892 4.29411 163.165 3.35246 162.331 2.46186L161.677 2.98941C161.908 3.35813 162.122 3.74387 162.331 4.13528C161.299 4.504 160.239 4.80465 159.174 5.07126L159.117 2.56397C160.594 2.49022 162.071 2.17823 163.419 1.53155L162.618 0.294922C161.97 0.692005 161.265 1.004 160.521 1.2309C159.579 1.52021 158.587 1.66769 157.578 1.73009L157.646 5.42863C157.133 5.54209 156.625 5.64986 156.112 5.75764L156.496 7.24387Z" fill="white"/>
<path d="M103.532 2.34891H99.9408V0.22168H98.289V2.34891H94.9686V3.25653H103.532V2.34891Z" fill="white"/>
<path d="M103.757 7.16982H100.77C101.395 6.29057 101.931 5.33757 102.365 4.33919L100.961 3.60742C100.696 4.83271 100.29 6.0353 99.7097 7.16982H94.4274V8.07744H103.752V7.16982H103.757Z" fill="white"/>
<path d="M97.3589 6.97699L98.6837 6.29628L97.0094 3.5791L96.2089 3.99887L97.3589 6.97699Z" fill="white"/>
<path d="M110.827 2.1957L110.274 1.31078L104.473 1.28809V16.4793H106.041V2.33185H108.848C108.848 2.33185 107.687 5.5936 107.072 6.85859C108.42 8.19732 109.113 9.93881 109.152 11.1811C109.198 12.6333 108.515 13.2459 107.737 13.3254C107.32 13.3707 106.886 13.3424 106.886 13.3424L106.965 13.9267C106.965 13.9267 107.974 14.0004 108.622 13.9493C110.184 13.8246 110.877 12.7865 110.844 11.2889C110.81 9.80834 110.009 8.53768 108.403 6.59198L110.821 2.19003L110.827 2.1957Z" fill="white"/>
<path d="M101.283 10.0293H95.7296V15.7643H102.85V10.0293H101.283ZM97.3025 14.8567V10.9426H101.283V14.8567H97.3025Z" fill="white"/>
<path d="M83.9643 3.96504L81.8671 2.5242L81.3879 3.13684L83.2539 4.81593V8.25353H84.4773V4.62874L86.4335 3.28433L85.819 2.49584H89.9625V1.58822H84.7422V0.204102H83.0905V1.58822H77.8702V2.49584H85.5935L83.9643 3.96504Z" fill="white"/>
<path d="M77.3966 7.85633L77.8814 8.44061C78.4339 8.03785 78.9244 7.52164 79.3077 6.93169C79.6854 6.34741 79.9617 5.68372 80.1251 4.99733H80.8411L80.7622 6.55163C80.7058 7.36281 80.593 7.52732 80.1815 7.64077C79.8884 7.72019 79.2739 7.56135 79.2739 7.56135L79.1329 7.94709C79.1329 7.94709 79.6629 8.31581 80.4634 8.32715C81.2132 8.34417 81.8615 8.08323 81.9742 7.31743C82.0983 6.46087 82.1377 4.1748 82.1377 4.1748H77.7856V4.99733H78.8398C78.6932 6.0808 78.1971 7.0962 77.3966 7.85633Z" fill="white"/>
<path d="M77.2106 6.34165C76.2184 5.63824 75.1811 5.03127 74.1213 4.49805L73.659 5.24116C74.5723 5.94456 75.4348 6.69902 76.2184 7.5102L77.205 6.33597L77.2106 6.34165Z" fill="white"/>
<path d="M77.391 8.81475L76.3931 8.61621C75.7787 11.0441 74.8372 13.3812 73.5237 15.4404L75.074 16.3253C76.2748 13.9428 77.0076 11.3901 77.391 8.81475Z" fill="white"/>
<path d="M86.9521 10.0409H80.6213C80.6382 9.66652 80.6495 9.2978 80.6551 8.94043H79.0822C79.0541 10.2281 79.071 11.5328 78.8793 12.7921C78.6989 14.0401 78.2197 15.1236 77.3572 16.0596L77.8645 16.6041C79.0653 15.844 79.7418 14.6868 80.1308 13.3991H86.9578V16.4737H88.5024V8.94043H86.9578V10.0409H86.9521ZM80.345 12.5369C80.4521 12.0036 80.5198 11.4534 80.5649 10.9145H86.9521V12.5369H80.3394H80.345Z" fill="white"/>
<path d="M77.5432 2.53012C76.551 1.82672 75.5137 1.21975 74.4539 0.686523L73.9916 1.42964C74.9048 2.13304 75.7674 2.8875 76.551 3.69868L77.5375 2.52445L77.5432 2.53012Z" fill="white"/>
<path d="M89.3649 6.22834C89.0493 5.83126 88.7899 5.38879 88.5926 4.91797C89.1 4.83288 89.6074 4.73644 90.1091 4.6003C90.1091 4.6003 90.0753 4.49819 90.064 4.46983L89.4326 3.49414C88.8858 3.71537 88.3051 3.8969 87.7301 4.05573C87.0649 4.23725 86.3827 4.38474 85.7062 4.48685V4.71375V8.25913V8.28182L88.5306 7.70889L88.463 7.05087H86.9465L86.9352 5.11651C87.2284 5.09382 87.5159 5.06545 87.8034 5.03142C88.1698 6.31343 88.9534 7.45929 89.9569 8.33288L90.7799 7.53304C90.25 7.16999 89.7708 6.7332 89.3706 6.22834H89.3649Z" fill="white"/>
<path d="M137.616 1.79777H139.516C139.516 1.79777 138.394 5.77994 138.225 6.30182C139.025 7.87313 139.217 8.72402 139.341 9.7848C139.448 10.7208 139.335 11.4923 138.642 11.6C138.354 11.6454 138.061 11.5036 138.061 11.5036L137.796 11.861C137.796 11.861 138.174 12.3602 138.834 12.6098C140.012 13.0579 140.812 12.0198 140.779 10.613C140.745 9.22321 140.023 7.70863 139.008 6.23942L141.224 1.67297L140.7 0.839097L136.105 0.816406V16.6487H137.61V1.79777H137.616Z" fill="white"/>
<path d="M139.848 15.793C141.573 14.7208 143.197 13.3594 144.341 11.6293L143.09 10.8691C142.661 11.703 142.137 12.4802 141.511 13.1949C140.886 13.9097 140.17 14.562 139.414 15.1803L139.848 15.793Z" fill="white"/>
<path d="M148.474 10.8408L147.949 11.3797C149.161 12.7355 150.266 14.1536 151.315 15.6342L152.442 14.6982C151.191 13.3481 149.866 12.0377 148.474 10.8408Z" fill="white"/>
<path d="M147.07 15.0266V10.4829H151.54V9.54688H141.168V10.4829H145.503V13.8694C145.491 15.0833 145.435 15.4124 144.821 15.435C144.246 15.4577 142.695 15.0209 142.695 15.0209L142.537 15.6676C142.537 15.6676 144.55 16.5525 145.548 16.5582C146.675 16.5639 147.064 15.8775 147.064 15.0323L147.07 15.0266Z" fill="white"/>
<path d="M140.282 6.53522C140.722 6.07007 141.117 5.57655 141.483 5.06034L142.797 6.38773C142.182 7.15353 141.489 7.86261 140.733 8.4866L141.19 9.08789C142.024 8.50929 142.802 7.83425 143.507 7.09113V8.02144H149.201V7.13084C149.872 7.79454 150.627 8.39583 151.433 8.92906L152.409 7.61301C151.242 6.98336 150.148 6.21755 149.235 5.27023C150.159 4.43635 150.982 3.45499 151.648 2.39989L151.18 1.64543H150.452L147.183 1.66812C147.07 1.21998 146.985 0.766176 146.946 0.301022L146.196 0.335057C146.179 3.05791 147.369 5.30994 149.156 7.09113H143.513C144.781 5.7524 145.79 4.16407 146.371 2.39989L145.587 1.71917H145.08H143.383C143.575 1.29373 143.75 0.86261 143.902 0.408801L142.492 0.0117188C142.25 1.07817 141.855 2.14462 141.404 3.15434C140.942 4.16974 140.401 5.16812 139.724 6.04737L140.288 6.54656L140.282 6.53522ZM150.018 2.57574C149.906 2.80264 149.793 3.02387 149.669 3.23943C149.387 3.72728 149.043 4.19243 148.682 4.65759C148.181 4.0336 147.775 3.33587 147.487 2.59843L150.024 2.58141L150.018 2.57574ZM141.9 4.43635C142.047 4.20945 142.182 3.98255 142.323 3.75564L143.812 4.91285C143.704 5.10005 143.597 5.28725 143.479 5.4631L141.906 4.43635H141.9ZM144.832 2.63814C144.697 3.07493 144.527 3.4947 144.336 3.9088L142.684 3.11464C142.769 2.9558 142.853 2.79697 142.938 2.63814H144.832Z" fill="white"/>
<path d="M68.9855 1.54883H59.1256V2.45645H68.9855V1.54883Z" fill="white"/>
<path d="M64.8308 11.4643H68.6473V10.5566H59.4639V11.4643H63.2861V15.0323H58.6803V15.9456H69.2674V15.0323H64.8308V11.4643Z" fill="white"/>
<path d="M56.8425 16.4277V9.63194L57.9643 9.35965C58.1052 9.76808 58.2405 10.1765 58.3533 10.5849L59.7288 10.0857C59.3117 9.20649 58.8438 8.41232 58.342 7.59547C58.1729 7.32886 58.0094 7.06224 57.8177 6.79563L57.1187 7.22675C57.2427 7.48202 57.3555 7.76565 57.4682 8.0436C57.5302 8.20811 57.5922 8.37262 57.6599 8.53712L55.0892 8.86046C56.679 7.23242 58.0151 5.33777 59.12 3.34668L57.8177 2.67732C57.4851 3.40341 57.1243 4.11816 56.7353 4.81589L54.8975 4.97472C55.8108 3.64166 56.6339 2.25187 57.3273 0.776992L55.9687 0.232422C55.6981 1.0663 55.3711 1.88882 55.0103 2.70001C54.6551 3.50552 54.2605 4.29401 53.8377 5.06549L52.7891 5.15625L53.0259 6.60843L56.1321 5.84263C55.4218 6.97715 54.6157 8.04928 53.7024 9.03631L52.4791 9.18947L52.744 10.636L55.5064 9.96095V16.4277H56.8537H56.8425Z" fill="white"/>
<path d="M53.2345 13.5969C53.0147 14.3514 52.7328 15.0945 52.3945 15.8036L53.0879 16.2007C53.9899 14.7485 54.7172 13.1999 55.0441 11.4981L53.6517 11.3506C53.6179 12.0824 53.4318 12.8765 53.2289 13.5969H53.2345Z" fill="white"/>
<path d="M58.545 14.6412L59.7965 14.0115L57.9136 10.8916L57.1976 11.2546L58.545 14.6412Z" fill="white"/>
<path d="M62.4687 3.38134L61.0537 2.80273C60.6703 4.0734 60.0897 5.32137 59.3793 6.45022C60.0897 7.58474 60.6759 8.82704 61.0537 10.1034L62.4687 9.52478C61.8993 8.41295 61.2059 7.39755 60.3997 6.45589C61.2059 5.51424 61.8993 4.49884 62.4687 3.38701V3.38134Z" fill="white"/>
<path d="M65.4678 9.52399C64.8984 8.41216 64.205 7.39676 63.3989 6.45511C64.205 5.51345 64.8984 4.49805 65.4678 3.38622L64.0528 2.80762C63.6695 4.07828 63.0888 5.32626 62.3785 6.45511C63.0888 7.58963 63.6751 8.83193 64.0528 10.1083L65.4678 9.52966V9.52399Z" fill="white"/>
<path d="M67.0463 2.80273C66.6629 4.0734 66.0823 5.32137 65.3719 6.45022C66.0823 7.58474 66.6686 8.82704 67.0463 10.1034L68.4613 9.52478C67.8919 8.41295 67.1985 7.39755 66.3923 6.45589C67.1985 5.51424 67.8919 4.49884 68.4613 3.38701L67.0463 2.80841V2.80273Z" fill="white"/>
<path d="M53.8885 21.2217H52.7779V27.8643H53.8885V21.2217Z" fill="white"/>
<path d="M58.1335 23.0076C57.5134 23.0076 57.0229 23.3083 56.7241 23.7337H56.7072V23.1154H55.7037V27.852H56.7579V25.2199C56.7579 24.3123 57.2315 23.8585 57.8347 23.8585C58.4379 23.8585 58.7874 24.1932 58.7874 25.0441V27.852H59.8416V24.9533C59.8416 23.6543 59.1933 23.002 58.1278 23.002L58.1335 23.0076Z" fill="white"/>
<path d="M62.8013 26.3035V23.9323H63.7202V23.1211H62.8013V21.9355H61.7471V23.1211H60.9578V23.9323H61.7471V26.4623C61.7471 27.5004 62.1812 27.9202 63.1733 27.9202C63.3707 27.9202 63.6074 27.8804 63.7653 27.8351V27.0069C63.692 27.0352 63.5623 27.0522 63.4383 27.0522C62.976 27.0522 62.8013 26.8367 62.8013 26.3035Z" fill="white"/>
<path d="M69.1039 24.5964C68.8446 23.6093 68.0666 22.9854 66.9899 22.9854C65.5636 22.9854 64.7292 24.0405 64.7292 25.4416C64.7292 26.9732 65.5749 28.0056 67.0124 28.0056C68.247 28.0056 69.0081 27.2852 69.1828 26.44H68.1004C68.0102 26.8995 67.6156 27.2228 67.0181 27.2228C66.3585 27.2228 65.8229 26.786 65.7835 25.7139H69.2392C69.2392 25.2544 69.1997 24.9027 69.1095 24.602L69.1039 24.5964ZM65.7947 25.0048C65.8849 24.1823 66.3528 23.7625 66.9899 23.7625C67.6269 23.7625 68.1004 24.1709 68.1737 25.0048H65.7891H65.7947Z" fill="white"/>
<path d="M71.6746 23.8197H71.6577V23.122H70.6768V27.8586H71.731V25.5385C71.731 24.5515 72.1932 24.0069 73.0388 24.0069C73.1572 24.0069 73.2813 24.0182 73.4109 24.0466V23.105C73.2925 23.0766 73.1403 23.0596 73.0219 23.0596C72.4356 23.0596 71.9903 23.3092 71.6802 23.8254L71.6746 23.8197Z" fill="white"/>
<path d="M77.0358 23.0076C76.4157 23.0076 75.9252 23.3083 75.6265 23.7337H75.6095V23.1154H74.6061V27.852H75.6603V25.2199C75.6603 24.3123 76.1338 23.8585 76.737 23.8585C77.3402 23.8585 77.6898 24.1932 77.6898 25.0441V27.852H78.744V24.9533C78.744 23.6543 78.0957 23.002 77.0302 23.002L77.0358 23.0076Z" fill="white"/>
<path d="M84.1954 24.8403C84.1954 23.598 83.502 22.9854 82.2562 22.9854C81.0103 22.9854 80.3394 23.6944 80.2887 24.5907H81.326C81.3542 24.0858 81.6698 23.7625 82.2505 23.7625C82.7861 23.7625 83.1694 24.0405 83.1694 24.7439V24.9311C82.8368 24.9481 82.2787 25.0048 81.901 25.0729C80.548 25.2884 80.0914 25.7933 80.0914 26.5648C80.0914 27.3362 80.7058 27.9716 81.6868 27.9716C82.4027 27.9716 82.927 27.7106 83.2709 27.2058H83.2878C83.2878 27.427 83.3047 27.6653 83.3555 27.8695H84.3082C84.2349 27.5688 84.1898 27.1774 84.1898 26.6215V24.8516L84.1954 24.8403ZM83.1751 25.8443C83.1751 26.3492 83.1018 26.5988 82.8481 26.8597C82.6339 27.0753 82.3182 27.1774 81.9968 27.1774C81.4613 27.1774 81.1625 26.8995 81.1625 26.4797C81.1625 26.0599 81.4105 25.8443 82.087 25.7309C82.4027 25.6742 82.8537 25.6288 83.1694 25.6118V25.8443H83.1751Z" fill="white"/>
<path d="M87.1551 26.3035V23.9323H88.074V23.1211H87.1551V21.9355H86.1009V23.1211H85.3116V23.9323H86.1009V26.4623C86.1009 27.5004 86.535 27.9202 87.5272 27.9202C87.7245 27.9202 87.9612 27.8804 88.1191 27.8351V27.0069C88.0458 27.0352 87.9161 27.0522 87.7921 27.0522C87.3299 27.0522 87.1551 26.8367 87.1551 26.3035Z" fill="white"/>
<path d="M90.4812 21.2217H89.427V22.2371H90.4812V21.2217Z" fill="white"/>
<path d="M90.4812 23.1211H89.427V27.8577H90.4812V23.1211Z" fill="white"/>
<path d="M94.2696 22.9795C92.8433 22.9795 91.9413 23.9495 91.9413 25.4868C91.9413 27.0241 92.8433 27.9941 94.2696 27.9941C95.6958 27.9941 96.5866 27.0241 96.5866 25.4868C96.5866 23.9495 95.6958 22.9795 94.2696 22.9795ZM94.2696 27.1602C93.5198 27.1602 93.0575 26.5135 93.0575 25.4925C93.0575 24.4714 93.5198 23.8247 94.2696 23.8247C95.0193 23.8247 95.4816 24.4657 95.4816 25.4925C95.4816 26.5192 95.0193 27.1602 94.2696 27.1602Z" fill="white"/>
<path d="M100.465 23.0076C99.845 23.0076 99.3545 23.3083 99.0557 23.7337H99.0388V23.1154H98.0353V27.852H99.0895V25.2199C99.0895 24.3123 99.5631 23.8585 100.166 23.8585C100.77 23.8585 101.119 24.1932 101.119 25.0441V27.852H102.173V24.9533C102.173 23.6543 101.525 23.002 100.459 23.002L100.465 23.0076Z" fill="white"/>
<path d="M107.63 24.8403C107.63 23.598 106.937 22.9854 105.691 22.9854C104.445 22.9854 103.774 23.6944 103.724 24.5907H104.761C104.789 24.0858 105.105 23.7625 105.685 23.7625C106.221 23.7625 106.604 24.0405 106.604 24.7439V24.9311C106.272 24.9481 105.714 25.0048 105.336 25.0729C103.983 25.2884 103.526 25.7933 103.526 26.5648C103.526 27.3362 104.141 27.9716 105.122 27.9716C105.838 27.9716 106.362 27.7106 106.706 27.2058H106.723C106.723 27.427 106.74 27.6653 106.79 27.8695H107.743C107.67 27.5688 107.625 27.1774 107.625 26.6215V24.8516L107.63 24.8403ZM106.61 25.8443C106.61 26.3492 106.537 26.5988 106.283 26.8597C106.069 27.0753 105.753 27.1774 105.432 27.1774C104.896 27.1774 104.597 26.8995 104.597 26.4797C104.597 26.0599 104.845 25.8443 105.522 25.7309C105.838 25.6742 106.289 25.6288 106.604 25.6118V25.8443H106.61Z" fill="white"/>
<path d="M110.365 21.2217H109.31V27.8643H110.365V21.2217Z" fill="white"/>
<path d="M115.309 22.1917H117.479V27.8586H118.578V22.1917H120.749V21.2217H115.309V22.1917Z" fill="white"/>
<path d="M122.119 23.8197H122.102V23.122H121.121V27.8586H122.175V25.5385C122.175 24.5515 122.637 24.0069 123.483 24.0069C123.601 24.0069 123.725 24.0182 123.855 24.0466V23.105C123.737 23.0766 123.584 23.0596 123.466 23.0596C122.88 23.0596 122.434 23.3092 122.124 23.8254L122.119 23.8197Z" fill="white"/>
<path d="M128.816 24.8403C128.816 23.598 128.122 22.9854 126.877 22.9854C125.631 22.9854 124.96 23.6944 124.909 24.5907H125.946C125.975 24.0858 126.29 23.7625 126.871 23.7625C127.406 23.7625 127.79 24.0405 127.79 24.7439V24.9311C127.457 24.9481 126.899 25.0048 126.521 25.0729C125.168 25.2884 124.712 25.7933 124.712 26.5648C124.712 27.3362 125.326 27.9716 126.307 27.9716C127.023 27.9716 127.547 27.7106 127.891 27.2058H127.908C127.908 27.427 127.925 27.6653 127.976 27.8695H128.929C128.855 27.5688 128.81 27.1774 128.81 26.6215V24.8516L128.816 24.8403ZM127.795 25.8443C127.795 26.3492 127.722 26.5988 127.469 26.8597C127.254 27.0753 126.939 27.1774 126.617 27.1774C126.082 27.1774 125.783 26.8995 125.783 26.4797C125.783 26.0599 126.031 25.8443 126.707 25.7309C127.023 25.6742 127.474 25.6288 127.79 25.6118V25.8443H127.795Z" fill="white"/>
<path d="M133.574 23.7401H133.557C133.286 23.275 132.762 23.0027 132.176 23.0027C130.981 23.0027 130.22 23.9841 130.22 25.493C130.22 27.0019 130.986 27.9719 132.187 27.9719C132.779 27.9719 133.309 27.6939 133.585 27.2061H133.602V27.8584H134.634V21.2158H133.58V23.7345L133.574 23.7401ZM132.491 27.155C131.776 27.155 131.325 26.5027 131.325 25.493C131.325 24.4832 131.781 23.8309 132.491 23.8309C133.202 23.8309 133.63 24.4549 133.63 25.493C133.63 26.5311 133.174 27.155 132.491 27.155Z" fill="white"/>
<path d="M140.463 24.5964C140.204 23.6093 139.426 22.9854 138.349 22.9854C136.923 22.9854 136.088 24.0405 136.088 25.4416C136.088 26.9732 136.934 28.0056 138.371 28.0056C139.606 28.0056 140.367 27.2852 140.542 26.44H139.459C139.369 26.8995 138.975 27.2228 138.377 27.2228C137.717 27.2228 137.182 26.786 137.142 25.7139H140.598C140.598 25.2544 140.559 24.9027 140.469 24.602L140.463 24.5964ZM137.154 25.0048C137.244 24.1823 137.712 23.7625 138.349 23.7625C138.986 23.7625 139.459 24.1709 139.533 25.0048H137.148H137.154Z" fill="white"/>
<path d="M147.555 21.2217L145.153 27.8643H146.32L146.935 26.0661H149.669L150.283 27.8643H151.45L149.049 21.2217H147.555ZM149.336 25.0904H147.267L147.442 24.5685C147.746 23.6836 148.017 22.8157 148.288 21.9308H148.305C148.575 22.8157 148.863 23.6836 149.156 24.5685L149.331 25.0904H149.336Z" fill="white"/>
<path d="M155.583 23.7401H155.566C155.295 23.275 154.771 23.0027 154.184 23.0027C152.989 23.0027 152.228 23.9841 152.228 25.493C152.228 27.0019 152.995 27.9719 154.196 27.9719C154.788 27.9719 155.318 27.6939 155.594 27.2061H155.611V27.8584H156.642V21.2158H155.588V23.7345L155.583 23.7401ZM154.495 27.155C153.779 27.155 153.328 26.5027 153.328 25.493C153.328 24.4832 153.784 23.8309 154.495 23.8309C155.205 23.8309 155.633 24.4549 155.633 25.493C155.633 26.5311 155.177 27.155 154.495 27.155Z" fill="white"/>
<path d="M163.593 23.0078C162.877 23.0078 162.426 23.3255 162.083 23.8644C161.84 23.3028 161.338 23.0078 160.69 23.0078C160.132 23.0078 159.715 23.229 159.382 23.6885H159.365V23.1213H158.356V27.8579H159.41V25.3222C159.41 24.4089 159.771 23.87 160.403 23.87C160.949 23.87 161.248 24.2615 161.248 24.9308V27.8579H162.302V25.2995C162.302 24.3919 162.674 23.8644 163.295 23.8644C163.824 23.8644 164.146 24.1991 164.146 25.0386V27.8579H165.2V24.9365C165.2 23.6602 164.586 23.0078 163.588 23.0078H163.593Z" fill="white"/>
<path d="M167.962 21.2217H166.908V22.2371H167.962V21.2217Z" fill="white"/>
<path d="M167.962 23.1211H166.908V27.8577H167.962V23.1211Z" fill="white"/>
<path d="M172.1 23.0076C171.48 23.0076 170.99 23.3083 170.691 23.7337H170.674V23.1154H169.671V27.852H170.725V25.2199C170.725 24.3123 171.198 23.8585 171.801 23.8585C172.405 23.8585 172.754 24.1932 172.754 25.0441V27.852H173.808V24.9533C173.808 23.6543 173.16 23.002 172.095 23.002L172.1 23.0076Z" fill="white"/>
<path d="M176.56 21.2217H175.505V22.2371H176.56V21.2217Z" fill="white"/>
<path d="M176.56 23.1211H175.505V27.8577H176.56V23.1211Z" fill="white"/>
<path d="M180.23 24.9991C179.485 24.8119 179.164 24.7268 179.164 24.3184C179.164 23.9724 179.452 23.7568 179.942 23.7568C180.506 23.7568 180.844 24.0291 180.844 24.5964H181.864C181.853 23.5413 181.148 22.9854 179.953 22.9854C178.848 22.9854 178.11 23.564 178.11 24.4035C178.11 25.4643 178.933 25.6458 179.722 25.8387C180.54 26.0429 180.906 26.1393 180.906 26.6215C180.906 26.9732 180.59 27.2114 180.055 27.2114C179.423 27.2114 179.074 26.8824 179.074 26.3038H177.997C178.008 27.4327 178.775 27.9999 180.038 27.9999C181.301 27.9999 182.011 27.41 182.011 26.5534C182.011 25.4246 181.092 25.2204 180.23 24.9935V24.9991Z" fill="white"/>
<path d="M184.79 26.3035V23.9323H185.709V23.1211H184.79V21.9355H183.736V23.1211H182.947V23.9323H183.736V26.4623C183.736 27.5004 184.17 27.9202 185.162 27.9202C185.36 27.9202 185.596 27.8804 185.754 27.8351V27.0069C185.681 27.0352 185.551 27.0522 185.427 27.0522C184.965 27.0522 184.79 26.8367 184.79 26.3035Z" fill="white"/>
<path d="M188.071 23.8197H188.054V23.122H187.073V27.8586H188.128V25.5385C188.128 24.5515 188.59 24.0069 189.435 24.0069C189.554 24.0069 189.678 24.0182 189.808 24.0466V23.105C189.689 23.0766 189.537 23.0596 189.419 23.0596C188.832 23.0596 188.387 23.3092 188.077 23.8254L188.071 23.8197Z" fill="white"/>
<path d="M194.768 24.8403C194.768 23.598 194.075 22.9854 192.829 22.9854C191.583 22.9854 190.912 23.6944 190.862 24.5907H191.899C191.927 24.0858 192.243 23.7625 192.824 23.7625C193.359 23.7625 193.742 24.0405 193.742 24.7439V24.9311C193.41 24.9481 192.852 25.0048 192.474 25.0729C191.121 25.2884 190.664 25.7933 190.664 26.5648C190.664 27.3362 191.279 27.9716 192.26 27.9716C192.976 27.9716 193.5 27.7106 193.844 27.2058H193.861C193.861 27.427 193.878 27.6653 193.929 27.8695H194.881C194.808 27.5688 194.763 27.1774 194.763 26.6215V24.8516L194.768 24.8403ZM193.754 25.8443C193.754 26.3492 193.68 26.5988 193.427 26.8597C193.213 27.0753 192.897 27.1774 192.576 27.1774C192.04 27.1774 191.741 26.8995 191.741 26.4797C191.741 26.0599 191.989 25.8443 192.666 25.7309C192.981 25.6742 193.432 25.6288 193.748 25.6118V25.8443H193.754Z" fill="white"/>
<path d="M197.728 26.3035V23.9323H198.647V23.1211H197.728V21.9355H196.674V23.1211H195.885V23.9323H196.674V26.4623C196.674 27.5004 197.108 27.9202 198.1 27.9202C198.298 27.9202 198.534 27.8804 198.692 27.8351V27.0069C198.619 27.0352 198.489 27.0522 198.365 27.0522C197.903 27.0522 197.728 26.8367 197.728 26.3035Z" fill="white"/>
<path d="M201.054 21.2217H200V22.2371H201.054V21.2217Z" fill="white"/>
<path d="M201.054 23.1211H200V27.8577H201.054V23.1211Z" fill="white"/>
<path d="M204.843 22.9795C203.416 22.9795 202.514 23.9495 202.514 25.4868C202.514 27.0241 203.416 27.9941 204.843 27.9941C206.269 27.9941 207.16 27.0241 207.16 25.4868C207.16 23.9495 206.269 22.9795 204.843 22.9795ZM204.843 27.1602C204.093 27.1602 203.631 26.5135 203.631 25.4925C203.631 24.4714 204.093 23.8247 204.843 23.8247C205.592 23.8247 206.055 24.4657 206.055 25.4925C206.055 26.5192 205.592 27.1602 204.843 27.1602Z" fill="white"/>
<path d="M211.044 23.0076C210.424 23.0076 209.933 23.3083 209.634 23.7337H209.618V23.1154H208.614V27.852H209.668V25.2199C209.668 24.3123 210.142 23.8585 210.745 23.8585C211.348 23.8585 211.698 24.1932 211.698 25.0441V27.852H212.752V24.9533C212.752 23.6543 212.104 23.002 211.038 23.002L211.044 23.0076Z" fill="white"/>
</g>
<defs>
<clipPath id="clip0_173_856">
<rect width="213" height="28" fill="white"/>
</clipPath>
</defs>
</svg>
