<?xml version="1.0" encoding="UTF-8"?>
<svg id="_圖層_1" xmlns="http://www.w3.org/2000/svg" xmlns:xlink="http://www.w3.org/1999/xlink" version="1.1" viewBox="0 0 554 80.9">
  <!-- Generator: Adobe Illustrator 30.5.1, SVG Export Plug-In . SVG Version: 2.1.4 Build 3)  -->
  <defs>
    <style>
      .st0, .st1 {
        fill: none;
      }

      .st1 {
        stroke: #fff;
        stroke-miterlimit: 10;
      }

      .st2, .st3, .st4 {
        isolation: isolate;
      }

      .st5, .st3, .st4 {
        fill: #fff;
      }

      .st6, .st4 {
        opacity: .5;
      }

      .st7 {
        clip-path: url(#clippath);
      }

      .st3 {
        opacity: .6;
      }
    </style>
    <clipPath id="clippath">
      <path class="st0" d="M16.6,78.6c-7.5,0-13.7-6.1-13.7-13.7s6.1-13.7,13.7-13.7,13.7,6.1,13.7,13.7-6.1,13.7-13.7,13.7Z"/>
    </clipPath>
  </defs>
  <path class="st4" d="M16.2,30.6c7.3,0,13.3-5.9,13.3-13.3s-6-13.2-13.3-13.2S2.9,10,2.9,17.4s5.9,13.3,13.3,13.3h0Z"/>
  <path class="st5" d="M16.2,31.1c-7.5,0-13.7-6.1-13.7-13.7S8.8,3.7,16.2,3.7s13.7,6.1,13.7,13.7-6.1,13.7-13.7,13.7ZM16.2,4.5c-7.1,0-12.8,5.8-12.8,12.9s5.8,12.9,12.9,12.9,12.9-5.8,12.9-12.9-5.9-12.9-13-12.9Z"/>
  <path class="st4" d="M17.1,11.4l.8,2.9,3-.7c.9-.2,1.6.9.9,1.6l-2.1,2.2,2.1,2.2c.7.7,0,1.8-.9,1.6l-3-.7-.8,2.9c-.3.9-1.6.9-1.8,0l-.8-2.9-3,.7c-.9.2-1.6-.9-.9-1.6l2.1-2.2-2.1-2.2c-.7-.7,0-1.8.9-1.6l3,.7.8-2.9c.3-.9,1.6-.9,1.8,0Z"/>
  <g class="st2">
    <path class="st5" d="M411.7,54.6c0-1.5.9-2.3,2.8-2.3s2.7.8,2.7,2.3v18.4c0,1.5-.9,2.3-2.8,2.3s-2.7-.8-2.7-2.3v-18.4Z"/>
    <path class="st5" d="M432.5,75.1c-6.7,0-10-2.1-10-6.4v-10c0-4.2,3.3-6.3,9.8-6.3h7.6c6.5,0,9.8,2.1,9.8,6.3v10c0,4.3-3.3,6.4-10,6.4h-7.3.1ZM444.2,58.9c0-1.4-1.4-2.1-4.4-2.1h-7.4c-2.9,0-4.4.7-4.4,2.1v9.6c0,1.5,1.5,2.3,4.4,2.3h7.4c2.9,0,4.4-.8,4.4-2.3v-9.6Z"/>
    <path class="st5" d="M454.9,54.6c0-1.5.9-2.3,2.8-2.3s2.7.8,2.7,2.3v18.4c0,1.5-.9,2.3-2.8,2.3s-2.7-.8-2.7-2.3v-18.4Z"/>
  </g>
  <g>
    <path class="st5" d="M298.7,19.1c0-1.8.2-3.4.7-5s1.1-2.9,1.8-4,1.5-2.1,2.4-3.1l2.6,1.2c-.8.8-1.5,1.8-2.3,2.9s-1.2,2.3-1.7,3.6-.6,2.7-.6,4.4.2,3.1.6,4.4,1,2.5,1.7,3.6,1.4,2,2.3,2.9l-2.6,1.2c-.8-.8-1.7-1.9-2.4-3.1s-1.3-2.5-1.8-4-.7-3.2-.7-5v.2Z"/>
    <path class="st5" d="M307.6,25.2h22.4v3.8h-22.4v-3.8ZM309.8,10.8h18.2v3.7h-18.2v-3.7Z"/>
    <path class="st5" d="M338.8,19.1c0,1.8-.2,3.4-.7,5-.5,1.5-1.1,2.9-1.8,4s-1.5,2.1-2.4,3.1l-2.6-1.2c.8-.8,1.5-1.9,2.3-2.9.7-1.1,1.2-2.3,1.7-3.6s.6-2.7.6-4.4-.2-3.1-.6-4.4-1-2.5-1.7-3.6c-.7-1.1-1.4-2-2.3-2.9l2.6-1.2c.8.8,1.7,1.9,2.4,3.1s1.3,2.5,1.8,4,.7,3.2.7,5v-.2Z"/>
  </g>
  <g>
    <path class="st5" d="M44.9,61.9c0-.3,0-.6-.3-1.1s-.3-.9-.5-1.4-.3-.9-.5-1.2c.4,0,.8-.3,1.2-.6s.8-.6,1.3-1.1c.3-.2.6-.6,1.1-1.1s1-1.1,1.6-1.9c.6-.7,1.2-1.5,1.8-2.4s1.1-1.7,1.6-2.6l3.9,1.7c-.8,1.2-1.8,2.4-2.8,3.6-1,1.2-2,2.3-3.1,3.3s-2.1,2-3.1,2.8h0c-.5.4-.8.6-1.1.8s-.6.4-.8.6c-.2.2-.3.4-.3.6ZM44.9,61.9v-3l2.5-1.4,17.9-.5c0,.5,0,1.1,0,1.9,0,.7,0,1.3.2,1.7-2.8,0-5.2.2-7.2.3-2,0-3.8.2-5.2.2s-2.6,0-3.6.2c-1,0-1.7,0-2.3.2-.6,0-1.1,0-1.4.2-.4,0-.7.2-1,.2ZM45.7,63.7h20.2v13.1h-4.2v-9.4h-12v9.4h-4v-13.1ZM47.6,71.6h16.1v3.8h-16.1v-3.8ZM58.1,53.7l3-2c.9.8,1.8,1.8,2.8,2.8,1,1,1.9,2.1,2.8,3.1s1.6,1.9,2.1,2.8l-3.3,2.4c-.5-.8-1.1-1.8-2-2.8-.8-1-1.7-2.1-2.7-3.2-1-1.1-1.9-2.1-2.8-3h.1Z"/>
    <path class="st5" d="M71,72.4c1.1-.3,2.3-.7,3.8-1.2,1.4-.5,3-1,4.6-1.6s3.2-1.1,4.8-1.7l.7,3.5c-1.4.6-2.8,1.2-4.2,1.7-1.4.6-2.8,1.1-4.2,1.7-1.4.5-2.6,1-3.8,1.5l-1.7-4h0ZM72,55.9h8.8v3.9h-8.8v-3.9ZM78.7,49.5h4.1v22h-4.1v-22ZM86.3,49.6h4.1v20.8c0,.8,0,1.3.2,1.6,0,.2.4.3.9.3h2.4c.4,0,.6-.2.8-.6.2-.4.3-1,.4-2,0-.9,0-2.3.2-4,.3.3.7.5,1.2.7s.9.5,1.4.6c.5.2.9.3,1.2.4,0,2.1-.3,3.7-.6,5-.3,1.3-.8,2.2-1.4,2.7-.6.6-1.5.9-2.7.9h-3.4c-1.1,0-2-.2-2.7-.5s-1.1-.9-1.4-1.8c-.3-.8-.4-2-.4-3.4v-20.7h-.2ZM88.4,55.9h9.5v3.9h-9.5v-3.9Z"/>
    <path class="st5" d="M101.9,50.3h25.4v26.6h-3.9v-23.1h-17.8v23.1h-3.7s0-26.6,0-26.6ZM104.2,72.3h21.3v3.5h-21.3v-3.5ZM106.1,67.5c1.1,0,2.3-.2,3.7-.4,1.4-.2,2.9-.3,4.4-.5v2.6c-1.3.2-2.7.4-4,.6-1.4.2-2.6.4-3.8.5,0,0-.3-2.8-.3-2.8ZM106.4,56.5h16.2v2.7h-16.2s0-2.7,0-2.7ZM107.1,60.3h6.6v5.6h-6.6v-5.6ZM109.6,62.3v1.6h1.6v-1.6h-1.6ZM119.1,59.9l3,.6c-.7,2.5-1.8,4.8-3.2,6.7s-3,3.5-4.9,4.8c0-.2-.3-.4-.6-.7-.2-.3-.5-.6-.8-.9l-.7-.7c1.8-1,3.3-2.4,4.5-4,1.2-1.7,2.1-3.6,2.7-5.7h0ZM114.1,54.2h3.2c0,1.8,0,3.5.3,5.1,0,1.6.3,3.1.5,4.4.2,1.3.5,2.4.8,3.2s.7,1.3,1.1,1.4c.2,0,.3-.2.4-.7,0-.5.2-1.2.3-2,.2.2.4.4.7.7.3.3.6.5.9.7s.6.4.8.5c-.2,1.9-.7,3.1-1.5,3.7s-1.7.7-2.7.2c-.9-.3-1.6-1-2.2-2.1s-1-2.4-1.4-3.9c-.3-1.6-.6-3.3-.8-5.2-.2-1.9-.3-3.9-.4-6ZM118.1,55.2l1.7-1.7c.5.2,1,.5,1.5.9.5.3.9.7,1.2,1l-1.8,1.8c-.3-.3-.7-.7-1.1-1-.5-.4-1-.7-1.4-1h0Z"/>
    <path class="st5" d="M131.1,50.2h6.7v3.5h-3.4v23h-3.3v-26.5ZM136.5,50.2h1.1c0,0,2.4,1.2,2.4,1.2-.3,1.3-.7,2.6-1.1,4s-.8,2.7-1.1,3.8c.8,1.2,1.3,2.2,1.5,3.3.2,1,.3,2,.3,2.8s0,1.8-.3,2.4c-.2.6-.5,1.2-1,1.5-.2.2-.5.3-.8.4s-.6.2-.9.2h-1.8c0-.4,0-1-.2-1.6s-.3-1.2-.6-1.6h1.1c.3,0,.5,0,.7-.2.2,0,.3-.3.4-.6,0-.3.1-.7.1-1.1,0-.7-.1-1.5-.3-2.4s-.7-1.9-1.4-2.9c.2-.6.4-1.4.5-2.1.2-.8.3-1.6.5-2.3.2-.8.3-1.5.5-2.2.1-.7.2-1.2.3-1.7v-1h.1ZM142.3,49.1l2.9.6c-.5,1.6-1.2,3.1-2.1,4.5-.9,1.4-1.8,2.6-2.9,3.5-.2-.3-.6-.6-1.1-1s-.9-.7-1.2-1c1-.8,1.9-1.8,2.6-3,.8-1.2,1.4-2.4,1.8-3.8v.2ZM141.9,69.3l3.5,1.1c-.4.6-.8,1.2-1.2,1.9-.5.7-.9,1.3-1.4,1.9s-.9,1.1-1.4,1.6c-.2-.2-.5-.4-.9-.7-.4-.3-.8-.5-1.1-.7-.4-.2-.7-.4-1-.6.6-.6,1.3-1.3,1.9-2.1.6-.8,1.2-1.6,1.6-2.4h0ZM138.8,58.1c.6,0,1.2,0,1.9-.2.6,0,1.4,0,2.1-.2v2c-.6,0-1.2.3-1.8.4-.6,0-1.2.2-1.8.4l-.4-2.4ZM146,51.2h1c0,0,1.9.6,1.9.6-.4,2-1,3.8-1.8,5.4-.8,1.6-1.7,3.1-2.7,4.3s-2.2,2.3-3.5,3.1c-.2-.4-.5-.8-.9-1.2-.4-.5-.7-.8-1-1.1,1.1-.6,2.1-1.5,3.1-2.6.9-1.1,1.7-2.3,2.4-3.7s1.2-2.8,1.5-4.3v-.5ZM141.3,65.3h14.1v3.1h-14.1v-3.1ZM141.4,55.5l1.6-1.7c.5.4,1.1.8,1.7,1.3.6.5,1.1.9,1.5,1.2l-1.6,1.9c-.3-.4-.8-.8-1.4-1.4-.6-.5-1.2-1-1.7-1.4h-.1ZM142.5,51.2h4.3v2.5h-4.3v-2.5ZM143.9,60.4h8.5v3.1h-8.5v-3.1ZM146.5,66.6h3.6v10.2h-3.6s0-10.2,0-10.2ZM151,51.9c.4,1.5.9,2.8,1.6,4.1.7,1.3,1.5,2.5,2.4,3.5s2,1.9,3.2,2.5c-.4.3-.7.7-1.2,1.2-.4.5-.8,1-1,1.4-1.3-.8-2.5-1.8-3.5-3s-1.9-2.6-2.6-4.1c-.7-1.5-1.3-3.2-1.8-5l2.9-.6h0ZM150.4,50.6h4.8v2.6h-4.8v-2.6ZM151.2,70.6l2.9-1.7c.4.5.9,1,1.4,1.6s1,1.1,1.4,1.7c.5.5.8,1,1.1,1.5l-3,1.9c-.3-.4-.6-.9-1-1.5s-.9-1.2-1.4-1.8c-.5-.6-.9-1.2-1.4-1.7ZM154.1,50.6h1.3c0,0,2.1,1.1,2.1,1.1-.5,1.3-1,2.6-1.7,3.9-.7,1.3-1.4,2.4-2.1,3.2-.2-.3-.6-.7-1-1.1-.4-.4-.8-.8-1.1-1,.4-.5.7-1,1-1.7.3-.6.6-1.3.8-2s.4-1.3.6-1.9v-.6h0Z"/>
    <path class="st5" d="M172.6,48.8l3.4,1.2c-1.1,1.4-2.4,2.6-4,3.8s-3.3,2.1-5.1,2.9c-1.9.8-3.7,1.6-5.7,2.1-.1-.3-.3-.6-.6-1-.2-.4-.5-.8-.7-1.1-.3-.4-.5-.7-.7-.9,1.8-.4,3.6-1,5.3-1.6s3.3-1.5,4.6-2.4c1.4-.9,2.5-1.9,3.4-3h.1ZM163,57.6h20.7v8.2h-20.7v-8.2ZM164.6,66.6h17.6v10.1h-4v-7.6h-9.8v7.7h-3.8s0-10.2,0-10.2ZM166.2,60v3.5h14v-3.5h-14ZM166.8,70.1h13v2.5h-13v-2.5ZM166.8,73.6h13v2.5h-13v-2.5ZM167,60.5l2.7-.7c.2.5.4,1.1.6,1.6.2.6.3,1.1.4,1.5l-2.8.8c0-.5-.1-1-.3-1.6s-.4-1.2-.6-1.6h0ZM168.1,54.2h10.4v2.5h-10.4v-2.5ZM171.6,58.4h3.1v6.2h-3.1v-6.2ZM175.2,50.2c.6.6,1.4,1.2,2.4,1.7s1.9,1.1,3,1.5,2.3.9,3.5,1.2c1.2.4,2.4.7,3.7.9-.4.3-.9.8-1.3,1.4-.5.6-.9,1.1-1.1,1.6-1.2-.3-2.5-.7-3.7-1.2s-2.4-1-3.5-1.7c-1.1-.6-2.2-1.3-3.2-2s-1.8-1.5-2.6-2.3l2.9-1.1h0ZM176.5,59.7l3.2.7c-.3.6-.6,1.2-.9,1.8-.3.6-.5,1.1-.8,1.5l-2.6-.7c.2-.5.4-1,.6-1.6.2-.6.4-1.2.5-1.7Z"/>
    <path class="st5" d="M188.9,54h9.7v3.1h-9.7v-3.1ZM189.9,66.3h2.7v10.1h-2.7v-10.1ZM189.9,58.1h8v2.9h-8v-2.9ZM189.9,62.2h8v2.9h-8v-2.9ZM191.3,66.3h6.5v9h-6.5v-3h3.7v-3h-3.7v-3ZM191.5,50.2l2.7-1c.3.6.7,1.3,1,2.1s.6,1.4.7,1.9l-2.9,1.2c-.1-.5-.4-1.2-.6-2-.3-.8-.6-1.5-.9-2.1h0ZM198.3,69.9c1.2,0,2.6-.2,4.3-.4,1.6,0,3.3-.3,5-.4v2.8c-1.5.2-3.1.3-4.6.5-1.6.2-3,.3-4.3.5l-.4-2.9h0ZM198.5,65.7h17.7v2.8h-17.7v-2.8ZM198.6,58.5h17.7v2.8h-17.7v-2.8ZM205.9,61.4l2,2.2c-.8.2-1.7.4-2.6.6-1,.2-1.9.3-2.9.4-1,0-1.9.2-2.8.2,0-.3-.1-.7-.3-1.1-.1-.4-.3-.8-.5-1.1.8,0,1.7-.2,2.6-.3.9,0,1.7-.2,2.5-.4s1.5-.3,2.1-.5h-.1ZM202.1,63.1h3.4v10.7c0,.7,0,1.3-.3,1.6-.2.4-.5.7-1,.9-.5.2-1.1.3-1.7.4h-2.3c0-.4-.2-.9-.4-1.4s-.4-1-.6-1.4h2.3c.3,0,.5-.2.5-.4v-10.6.2ZM199.5,51.7h16.2v2.6h-16.2v-2.6ZM200.4,55.2h14.3v2.4h-14.3v-2.4ZM201.6,50l2.7-.9c.3.4.7.9,1,1.4s.5,1,.7,1.4l-2.9,1c0-.4-.3-.9-.6-1.4s-.6-1-.9-1.5ZM212.7,68.7l2.6,1.3c-.6.9-1.4,1.8-2.3,2.6-.9.8-1.8,1.6-2.9,2.2-1,.6-2,1.2-3.1,1.6-.2-.3-.4-.6-.8-1-.4-.4-.7-.7-1-1,1-.4,1.9-.9,2.9-1.4.9-.6,1.8-1.2,2.6-1.9.8-.7,1.5-1.5,2-2.4ZM205.5,52.4h3.8v7.3h-3.8v-7.3ZM207.6,61.9h3.2c0,2.5,0,4.7.3,6.5.2,1.8.6,3.2,1,4.2.5,1,1,1.5,1.6,1.5s.4-.2.6-.6c.1-.4.2-1,.3-1.7.3.3.7.6,1.1.8s.8.4,1.1.6c-.2,1.4-.6,2.4-1.1,3.1-.5.6-1.3.9-2.2.9s-2.1-.4-2.9-1.1-1.3-1.8-1.7-3.2c-.4-1.4-.7-3-.9-4.8-.2-1.8-.3-3.8-.3-6v-.2ZM210.6,49.1l3.4.8c-.4.6-.8,1.1-1.1,1.6-.4.5-.7.9-1,1.3l-2.7-.8c.3-.4.5-.9.8-1.5.3-.5.5-1,.6-1.5h0ZM210.9,63.1l2.2-1.5c.5.4,1.1.8,1.6,1.3.6.5,1,1,1.3,1.4l-2.4,1.7c-.3-.4-.7-.9-1.2-1.4s-1.1-1-1.6-1.4h0Z"/>
    <path class="st5" d="M219.9,54.2h24.5v15h-4.1v-11.2h-16.4v11.3h-3.9v-15.2h-.1ZM221.9,63.9h20.6v3.8h-20.6v-3.8ZM230,49.1h4.1v27.7h-4.1v-27.7Z"/>
    <path class="st5" d="M250,59.1l3.8.7c-.1,1.3-.3,2.7-.5,4.2s-.4,3-.7,4.4-.5,2.7-.9,3.9l-4-1.6c.3-1.1.6-2.2.9-3.5.3-1.3.5-2.6.8-4,.2-1.4.4-2.8.5-4.1h0ZM255.4,57.6h4.1v13.4c0,.7,0,1.2.3,1.4.2.2.6.3,1.3.3h3.8c.5,0,.9,0,1.1-.4s.4-.8.5-1.6c.1-.8.2-1.9.2-3.4.3.2.7.4,1.1.7.4.2.9.4,1.3.6.5.2.9.3,1.2.4-.1,1.9-.4,3.3-.7,4.4-.3,1.1-.9,1.8-1.6,2.3s-1.7.7-2.9.7h-4.6c-1.3,0-2.4-.2-3.1-.5-.8-.3-1.3-.9-1.6-1.6s-.4-1.8-.4-3.1v-13.6ZM256.4,52l2.6-2.7c.9.5,1.9,1.2,2.9,1.9,1.1.7,2.1,1.4,3,2.1,1,.7,1.7,1.4,2.3,2l-2.9,3.1c-.5-.6-1.3-1.3-2.2-2-.9-.8-1.9-1.5-2.9-2.3s-2-1.5-2.9-2.1h.1ZM268.3,59.6l3.6-1.5c.5,1.2,1.1,2.4,1.6,3.7s.9,2.6,1.3,3.9c.4,1.3.7,2.4.9,3.4l-3.9,1.6c-.2-1-.4-2.1-.8-3.4-.4-1.3-.8-2.6-1.2-4-.5-1.3-1-2.6-1.5-3.7Z"/>
  </g>
  <g>
    <path class="st5" d="M481.3,48.8l3.4,1.2c-1.1,1.4-2.4,2.6-4,3.8s-3.3,2.1-5.1,2.9c-1.9.8-3.7,1.6-5.7,2.1-.1-.3-.3-.6-.6-1-.2-.4-.5-.8-.8-1.1-.3-.4-.5-.7-.7-.9,1.8-.4,3.6-1,5.3-1.6,1.7-.7,3.3-1.5,4.6-2.4,1.4-.9,2.5-1.9,3.4-3h.2ZM471.7,57.6h20.7v8.2h-20.7v-8.2ZM473.2,66.6h17.6v10.1h-4v-7.6h-9.8v7.7h-3.8v-10.2h0ZM474.9,60v3.5h14v-3.5h-14ZM475.4,70.1h13v2.5h-13v-2.5ZM475.4,73.6h13v2.5h-13v-2.5ZM475.7,60.5l2.7-.7c.2.5.4,1.1.6,1.6.2.6.3,1.1.4,1.5l-2.8.8c0-.5-.1-1-.3-1.6-.2-.6-.4-1.2-.6-1.6h0ZM476.8,54.2h10.4v2.5h-10.4v-2.5ZM480.3,58.4h3.1v6.2h-3.1v-6.2ZM483.9,50.2c.6.6,1.4,1.2,2.4,1.7s1.9,1.1,3,1.5c1.1.5,2.3.9,3.5,1.2,1.2.4,2.4.7,3.7.9-.4.3-.9.8-1.3,1.4-.5.6-.9,1.1-1.1,1.6-1.2-.3-2.5-.7-3.7-1.2s-2.4-1-3.5-1.7c-1.1-.6-2.2-1.3-3.2-2s-1.8-1.5-2.6-2.3l2.9-1.1h0ZM485.2,59.7l3.2.7c-.3.6-.6,1.2-.9,1.8s-.5,1.1-.8,1.5l-2.6-.7c.2-.5.4-1,.6-1.6s.4-1.2.5-1.7h0Z"/>
    <path class="st5" d="M497.6,54h9.7v3.1h-9.7v-3.1ZM498.5,66.3h2.7v10.1h-2.7v-10.1ZM498.6,58.1h8v2.9h-8v-2.9ZM498.6,62.2h8v2.9h-8v-2.9ZM500,66.3h6.5v9h-6.5v-3h3.7v-3h-3.7v-3ZM500.2,50.2l2.7-1c.3.6.7,1.3,1,2.1s.6,1.4.7,1.9l-2.9,1.2c-.1-.5-.4-1.2-.6-2-.3-.8-.6-1.5-.9-2.1h0ZM507,69.9c1.2,0,2.6-.2,4.3-.4,1.6,0,3.3-.3,5-.4v2.8c-1.5.2-3.1.3-4.6.5-1.6.2-3,.3-4.3.5l-.4-2.9h0ZM507.2,65.7h17.7v2.8h-17.7v-2.8ZM507.3,58.5h17.7v2.8h-17.7v-2.8ZM514.6,61.4l2,2.2c-.8.2-1.7.4-2.6.6-1,.2-1.9.3-2.9.4-1,0-1.9.2-2.8.2,0-.3-.1-.7-.3-1.1-.1-.4-.3-.8-.5-1.1.8,0,1.7-.2,2.6-.3s1.7-.2,2.5-.4,1.5-.3,2.1-.5h-.1ZM510.8,63.1h3.3v10.7c0,.7,0,1.3-.3,1.6-.2.4-.5.7-1,.9-.5.2-1.1.3-1.7.4h-2.3c0-.4-.2-.9-.4-1.4-.2-.5-.4-1-.6-1.4h2.3c.3,0,.5-.2.5-.4v-10.6l.2.2ZM508.2,51.7h16.2v2.6h-16.2v-2.6ZM509.1,55.2h14.3v2.4h-14.3v-2.4h0ZM510.2,50l2.7-.9c.3.4.7.9,1,1.4s.5,1,.7,1.4l-2.9,1c0-.4-.3-.9-.6-1.4-.3-.5-.6-1-.9-1.5h0ZM521.4,68.7l2.6,1.3c-.6.9-1.4,1.8-2.3,2.6-.9.8-1.8,1.6-2.9,2.2s-2,1.2-3.1,1.6c-.2-.3-.4-.6-.8-1-.4-.4-.7-.7-1-1,1-.4,1.9-.9,2.9-1.4.9-.6,1.8-1.2,2.6-1.9.8-.7,1.5-1.5,2-2.4ZM514.2,52.4h3.8v7.3h-3.8v-7.3ZM516.3,61.9h3.2c0,2.5,0,4.7.3,6.5.2,1.8.6,3.2,1,4.2.5,1,1,1.5,1.6,1.5s.4-.2.6-.6c0-.4.2-1,.3-1.7.3.3.7.6,1.1.8.4.2.8.4,1.1.6-.2,1.4-.6,2.4-1.1,3.1-.5.6-1.3.9-2.2.9s-2.1-.4-2.9-1.1c-.7-.8-1.3-1.8-1.7-3.2-.4-1.4-.7-3-.9-4.8s-.3-3.8-.3-6v-.2ZM519.3,49.1l3.4.8c-.4.6-.8,1.1-1.1,1.6-.4.5-.7.9-1,1.3l-2.7-.8c.3-.4.5-.9.8-1.5.3-.5.5-1,.6-1.5h0ZM519.6,63.1l2.2-1.5c.5.4,1.1.8,1.6,1.3.6.5,1,1,1.3,1.4l-2.4,1.7c-.3-.4-.7-.9-1.2-1.4s-1.1-1-1.6-1.4h.1Z"/>
    <path class="st5" d="M527.8,72.6h26.2v3.4h-26.2v-3.4ZM527.8,51.4h26v5.8h-4v-2.3h-18.2v2.3h-3.8v-5.8ZM530.3,67.2h21.3v3.3h-21.3v-3.3ZM531.7,66c0-.2-.2-.6-.3-1s-.3-.8-.4-1.2c0-.4-.3-.8-.4-1.1.4,0,.7-.2,1-.4s.7-.4,1.1-.7c.3-.2.7-.5,1.3-1s1.2-1,1.9-1.7,1.4-1.4,2-2.1l2.9,2.1c-1,1-2.1,1.9-3.3,2.9s-2.5,1.8-3.8,2.5h0c-.4.3-.8.5-1,.6-.3.2-.5.3-.7.5s-.3.4-.3.5h0ZM531.1,56.5h19.4v3.3h-19.4v-3.3ZM531.7,66v-2.4l1.8-1.1,14.6-.9c0,.4,0,.9.3,1.5,0,.5.2,1,.3,1.3-2.8.2-5.2.4-7.1.6s-3.4.3-4.6.4c-1.2,0-2.1.2-2.8.3-.7,0-1.2.2-1.6.2s-.7.2-.9.2h0ZM538.3,49.7l3.8-1.1c.3.5.6,1.1.9,1.8.3.6.5,1.2.6,1.7l-4,1.2c0-.5-.2-1-.5-1.7-.2-.7-.5-1.3-.8-1.9ZM538.7,65.2h4v9h-4v-9ZM543.5,60.6l2.8-1.9c.7.5,1.4,1.1,2.1,1.7.7.6,1.4,1.3,2.1,1.9.7.6,1.2,1.2,1.6,1.7l-3.1,2.1c-.4-.5-.8-1.1-1.5-1.7-.6-.6-1.3-1.3-2-2s-1.4-1.3-2.1-1.8h.1Z"/>
  </g>
  <g class="st7">
    <g>
      <path class="st4" d="M16.7,78.2c7.3,0,13.3-5.9,13.3-13.3s-5.9-13.3-13.3-13.3-13.3,5.9-13.3,13.3,5.9,13.3,13.3,13.3Z"/>
      <g class="st6">
        <path class="st3" d="M10.9,50.9L0,80.6l.8.3,10.9-29.7s-.8-.3-.8-.3Z"/>
        <path class="st3" d="M16.3,50.9l-10.9,29.7.8.3,10.9-29.7s-.8-.3-.8-.3Z"/>
        <path class="st3" d="M21.8,50.9l-10.9,29.7.8.3,10.9-29.7s-.8-.3-.8-.3Z"/>
        <path class="st3" d="M27.2,50.9l-10.9,29.7.8.3,10.9-29.7s-.8-.3-.8-.3Z"/>
        <path class="st3" d="M32.6,50.9l-10.9,29.7.8.3,10.9-29.7s-.8-.3-.8-.3Z"/>
        <path class="st3" d="M22.5,50.9l-.8.3,10.9,29.7.8-.3s-10.9-29.7-10.9-29.7Z"/>
        <path class="st3" d="M17.1,50.9l-.8.3,10.9,29.7.8-.3s-10.9-29.7-10.9-29.7Z"/>
        <path class="st3" d="M11.6,50.9l-.8.3,10.9,29.7.8-.3s-10.9-29.7-10.9-29.7Z"/>
        <path class="st3" d="M6.2,50.9l-.8.3,10.9,29.7.8-.3s-10.9-29.7-10.9-29.7Z"/>
        <path class="st3" d="M.8,50.9l-.8.3,10.9,29.7.8-.3L.8,50.9Z"/>
      </g>
      <path class="st5" d="M16.7,78.6c-7.5,0-13.7-6.1-13.7-13.7s6.1-13.7,13.7-13.7,13.7,6.1,13.7,13.7-6.1,13.7-13.7,13.7ZM16.7,52c-7.1,0-12.9,5.8-12.9,12.9s5.8,12.9,12.9,12.9,12.9-5.8,12.9-12.9-5.8-12.9-12.9-12.9Z"/>
    </g>
  </g>
  <line class="st1" x1="293.1" y1="66.6" x2="394.1" y2="66.6"/>
  <g>
    <path class="st5" d="M62,.5c5.9,0,9.2,3,9.2,8.6s-2.2,7-7.1,8.2l-12.7,2.8c-2.1.5-2.5,1.6-2.5,3.3v1.5c0,.5.2.6.6.6h20.9v5.3h-24.3c-1.7,0-2.5-.8-2.5-2.5v-4.6c0-5,1.5-7.6,6.7-8.7l12.8-2.9c2.2-.5,2.8-1.5,2.8-3s-1.3-3.4-3.7-3.4h-17.6V.5h17.4Z"/>
    <path class="st5" d="M102.8,15.7c0,10.2-4.9,15.6-13.8,15.6s-13.8-5.5-13.8-15.6S80.2,0,89,0s13.8,5.5,13.8,15.7ZM80.5,15.6c0,7,2.6,10.4,8.5,10.4s8.5-3.4,8.5-10.4-2.6-10.3-8.5-10.3-8.5,3.4-8.5,10.3Z"/>
    <path class="st5" d="M126.6.5c5.9,0,9.2,3,9.2,8.6s-2.2,7-7.1,8.2l-12.7,2.8c-2.1.5-2.5,1.6-2.5,3.3v1.5c0,.5.2.6.6.6h20.9v5.3h-24.3c-1.7,0-2.5-.8-2.5-2.5v-4.6c0-5,1.5-7.6,6.7-8.7l12.8-2.9c2.2-.5,2.8-1.5,2.8-3s-1.3-3.4-3.7-3.4h-17.6V.5h17.4Z"/>
    <path class="st5" d="M166.2.5v5.3h-11.7c-5,0-7.7,2.2-8.3,7.2h12.8c6.2,0,9,2.7,9,8.3s-2.7,9.7-9.5,9.7h-5.2c-7.7,0-12.5-5-12.5-15.2S145.7.5,154.5.5h11.7ZM146.2,17.2c.4,5.9,2.9,8.3,7.9,8.3h4.2c3,0,4.5-1.8,4.5-4.4s-1.5-3.9-4.3-3.9h-12.3Z"/>
    <path class="st5" d="M177.5,24.8v6.1h-5.1v-6.1h5.1Z"/>
    <path class="st5" d="M208.7,15.7c0,10.2-4.9,15.6-13.8,15.6s-13.8-5.5-13.8-15.6,4.9-15.7,13.8-15.7,13.8,5.5,13.8,15.7ZM186.4,15.6c0,7,2.6,10.4,8.5,10.4s8.5-3.4,8.5-10.4-2.6-10.3-8.5-10.3-8.5,3.4-8.5,10.3Z"/>
    <path class="st5" d="M232.3.5c7.2,0,10.2,3.4,10.2,8.3s-1.5,5.7-4.3,6.8c2.8,1.2,4.5,3.4,4.5,6.9s-3,8.4-10.2,8.4h-7.4c-7.2,0-10.1-3.5-10.1-8.4s1.6-5.7,4.4-6.9c-2.8-1.1-4.3-3.3-4.3-6.8,0-5,3-8.3,10.2-8.3h7.2ZM232.5,25.6c3.2,0,4.7-1.4,4.7-3.9s-1.6-3.8-4.7-3.8h-7.7c-3.1,0-4.7,1.3-4.7,3.8s1.5,3.9,4.7,3.9h7.7ZM232.4,13.3c3.2,0,4.7-1.2,4.7-3.7s-1.4-3.9-4.6-3.9h-7.5c-3.2,0-4.7,1.6-4.7,3.9s1.6,3.7,4.7,3.7h7.4Z"/>
    <path class="st5" d="M251.4,29.4c-1,0-1.9-.4-2.6-1.1s-1-1.7-1-2.8.3-2,1-2.7,1.6-1.1,2.6-1.1,1.9.4,2.6,1.1,1,1.6,1,2.7-.3,2-1,2.8-1.6,1.1-2.6,1.1Z"/>
    <path class="st5" d="M265,.5c5.5,0,7.1,2,7.1,7.3v23.2h-5.3V8.1c0-1.6-.6-2.3-2.2-2.3h-2.8V.5h3.2Z"/>
    <path class="st5" d="M280.1.5c5.5,0,7.1,2,7.1,7.3v23.2h-5.3V8.1c0-1.6-.6-2.3-2.2-2.3h-2.8V.5h3.2Z"/>
  </g>
  <g>
    <path class="st5" d="M368.5,20c0,7.1-3.4,10.9-9.6,10.9s-9.6-3.8-9.6-10.9,3.4-10.9,9.6-10.9,9.6,3.8,9.6,10.9ZM353,20c0,4.9,1.8,7.2,5.9,7.2s5.9-2.4,5.9-7.2-1.8-7.2-5.9-7.2-5.9,2.4-5.9,7.2Z"/>
    <path class="st5" d="M382.3,9.4c5,0,8.3,3,8.3,10.3s-3.4,10.9-9.6,10.9h-7v-3.7h7c3.4,0,5.2-1.5,5.7-5h-8.9c-4.3,0-6.2-1.9-6.2-5.7s1.9-6.7,7-6.7h3.5ZM378.3,18.9h8.6c-.2-4-1.9-5.8-5.5-5.8h-2.9c-2.1,0-3.1,1.3-3.1,3.1s1.1,2.7,3,2.7Z"/>
    <path class="st5" d="M398.5,14.4v4.3h-3.6v-4.3h3.6ZM398.5,26.3v4.3h-3.6v-4.3h3.6Z"/>
    <path class="st5" d="M421.9,20c0,7.1-3.4,10.9-9.6,10.9s-9.6-3.8-9.6-10.9,3.4-10.9,9.6-10.9,9.6,3.8,9.6,10.9ZM406.4,20c0,4.9,1.8,7.2,5.9,7.2s5.9-2.4,5.9-7.2-1.8-7.2-5.9-7.2-5.9,2.4-5.9,7.2Z"/>
    <path class="st5" d="M445.3,20c0,7.1-3.4,10.9-9.6,10.9s-9.6-3.8-9.6-10.9,3.4-10.9,9.6-10.9,9.6,3.8,9.6,10.9ZM429.8,20c0,4.9,1.8,7.2,5.9,7.2s5.9-2.4,5.9-7.2-1.8-7.2-5.9-7.2-5.9,2.4-5.9,7.2Z"/>
    <path class="st5" d="M465.2,19v3.2h-16.4v-3.2h16.4Z"/>
    <path class="st5" d="M469.2,9.4c3.9,0,4.9,1.4,4.9,5.1v16.1h-3.7v-15.9c0-1.1-.4-1.6-1.5-1.6h-1.9v-3.7h2.2Z"/>
    <path class="st5" d="M491.6,9.4c4.1,0,6.4,2.1,6.4,6s-1.5,4.9-4.9,5.7l-8.8,2c-1.5.3-1.8,1.1-1.8,2.3v1.1c0,.3.1.4.4.4h14.5v3.7h-16.9c-1.2,0-1.8-.6-1.8-1.7v-3.2c0-3.5,1-5.3,4.6-6.1l8.9-2c1.5-.3,2-1.1,2-2.1s-.9-2.4-2.6-2.4h-12.2v-3.7h12.1Z"/>
    <path class="st5" d="M505.7,14.4v4.3h-3.6v-4.3h3.6ZM505.7,26.3v4.3h-3.6v-4.3h3.6Z"/>
    <path class="st5" d="M529.1,20c0,7.1-3.4,10.9-9.6,10.9s-9.6-3.8-9.6-10.9,3.4-10.9,9.6-10.9,9.6,3.8,9.6,10.9ZM513.6,20c0,4.9,1.8,7.2,5.9,7.2s5.9-2.4,5.9-7.2-1.8-7.2-5.9-7.2-5.9,2.4-5.9,7.2Z"/>
    <path class="st5" d="M552.6,20c0,7.1-3.4,10.9-9.6,10.9s-9.6-3.8-9.6-10.9,3.4-10.9,9.6-10.9,9.6,3.8,9.6,10.9ZM537.1,20c0,4.9,1.8,7.2,5.9,7.2s5.9-2.4,5.9-7.2-1.8-7.2-5.9-7.2-5.9,2.4-5.9,7.2Z"/>
  </g>
</svg>