<?xml version="1.0" encoding="UTF-8"?>
<svg id="_圖層_1" data-name="圖層_1" xmlns="http://www.w3.org/2000/svg" xmlns:xlink="http://www.w3.org/1999/xlink" version="1.1" viewBox="0 0 333.5 46.5">
  <!-- Generator: Adobe Illustrator 30.5.1, SVG Export Plug-In . SVG Version: 2.1.4 Build 3)  -->
  <defs>
    <style>
      .st0, .st1 {
        fill: none;
      }

      .st1 {
        stroke: #fff;
        stroke-miterlimit: 10;
      }

      .st2, .st3, .st4 {
        isolation: isolate;
      }

      .st5, .st3, .st4 {
        fill: #fff;
      }

      .st6, .st4 {
        opacity: .5;
      }

      .st7 {
        clip-path: url(#clippath);
      }

      .st3 {
        opacity: .6;
      }
    </style>
    <clipPath id="clippath">
      <path class="st0" d="M10,45.1c-4.5,0-8.2-3.7-8.2-8.2s3.7-8.2,8.2-8.2,8.2,3.7,8.2,8.2-3.7,8.2-8.2,8.2Z"/>
    </clipPath>
  </defs>
  <path class="st4" d="M9.8,16.2c4.4,0,8-3.6,8-8S14.1.2,9.8.2,1.7,3.8,1.7,8.2s3.6,8,8,8h0Z"/>
  <path class="st5" d="M9.8,16.5c-4.5,0-8.2-3.7-8.2-8.2S5.3,0,9.8,0s8.2,3.7,8.2,8.2-3.7,8.2-8.2,8.2ZM9.8.5C5.5.5,2,4,2,8.2s3.5,7.8,7.8,7.8,7.8-3.5,7.8-7.8S14,.5,9.8.5Z"/>
  <path class="st4" d="M10.3,4.6l.5,1.7,1.8-.4c.5-.1,1,.5.5,1l-1.3,1.3,1.3,1.3c.4.4,0,1.1-.5,1l-1.8-.4-.5,1.7c-.2.5-1,.5-1.1,0l-.5-1.7-1.8.4c-.5.1-1-.5-.5-1l1.3-1.3-1.3-1.3c-.4-.4,0-1.1.5-1l1.8.4.5-1.7c.2-.5,1-.5,1.1,0Z"/>
  <g class="st2">
    <path class="st5" d="M28.3,14.6c-1,0-1.4-.4-1.4-1v-3.6c0-2.3,2-3.4,6-3.4h5.8c1.5,0,2.2-.4,2.2-1v-1c0-.7-.8-1.1-2.4-1.1h-3.1c-1,0-1.5-.4-1.5-1.3s.5-1.3,1.5-1.3h3.1c3.8,0,5.7,1.1,5.7,3.5v1.4c0,2.2-1.9,3.2-5.7,3.2h-6.1c-1.6,0-2.3.4-2.3,1.1v1.6c0,.1,0,.2.2.2h12.5c1,0,1.5.4,1.5,1.3s-.5,1.3-1.5,1.3h-14.6.1Z"/>
    <path class="st5" d="M53.2,14.6c-4,0-6-1.3-6-3.9v-6c0-2.5,2-3.8,5.9-3.8h4.6c3.9,0,5.9,1.3,5.9,3.8v6c0,2.6-2,3.9-6,3.9h-4.4,0ZM60.3,4.8c0-.8-.8-1.3-2.6-1.3h-4.5c-1.7,0-2.6.4-2.6,1.3v5.8c0,.9.9,1.4,2.6,1.4h4.5c1.7,0,2.6-.5,2.6-1.4v-5.8Z"/>
    <path class="st5" d="M67.8,14.6c-1,0-1.4-.4-1.4-1v-3.6c0-2.3,2-3.4,6-3.4h5.8c1.5,0,2.2-.4,2.2-1v-1c0-.7-.8-1.1-2.4-1.1h-3.1c-1,0-1.5-.4-1.5-1.3s.5-1.3,1.5-1.3h3.1c3.8,0,5.7,1.1,5.7,3.5v1.4c0,2.2-1.9,3.2-5.7,3.2h-6.1c-1.6,0-2.3.4-2.3,1.1v1.6c0,.1,0,.2.2.2h12.5c1,0,1.5.4,1.5,1.3s-.5,1.3-1.5,1.3h-14.6.1Z"/>
    <path class="st5" d="M104.6,10.8c0,2.5-2.1,3.8-6.4,3.8h-5.5c-4,0-6-1.3-6-3.9v-6.1c0-2.5,2-3.7,5.9-3.7h3.2c1,0,1.5.4,1.5,1.3s-.5,1.3-1.5,1.3h-3.1c-1.7,0-2.6.4-2.6,1.1v.8h8.1c4.3,0,6.4,1.3,6.4,3.7v1.6h0ZM90.1,8.1v2.6c0,.9,1,1.4,2.9,1.4h5.4c1.9,0,2.8-.5,2.8-1.3v-1.4c0-.8-1-1.3-2.9-1.3h-8.3,0Z"/>
    <path class="st5" d="M108.7,14.7c-1.1,0-1.7-.5-1.7-1.4s.6-1.4,1.7-1.4,1.7.5,1.7,1.4-.6,1.4-1.8,1.4h0Z"/>
    <path class="st5" d="M118.9,14.6c-4,0-6-1.3-6-3.9v-6c0-2.5,2-3.8,5.9-3.8h4.6c3.9,0,5.9,1.3,5.9,3.8v6c0,2.6-2,3.9-6,3.9h-4.4,0ZM125.9,4.8c0-.8-.8-1.3-2.6-1.3h-4.5c-1.7,0-2.6.4-2.6,1.3v5.8c0,.9.9,1.4,2.6,1.4h4.5c1.7,0,2.6-.5,2.6-1.4v-5.8Z"/>
    <path class="st5" d="M149.8,11.4c0,2.1-1.7,3.1-5.3,3.1h-7.1c-3.5,0-5.3-1-5.3-3.1v-1.4c0-1,.5-1.8,1.6-2.4-.9-.5-1.3-1.3-1.3-2.2v-1c0-2.3,1.8-3.4,5.4-3.4h6.3c3.6,0,5.4,1.1,5.4,3.4v1c0,.9-.5,1.6-1.4,2.2,1,.6,1.6,1.4,1.6,2.4v1.4h.1ZM146.4,9.9c0-.7-.7-1-2-1h-6.9c-1.4,0-2,.3-2,1v1.1c0,.6.7,1,2,1h6.9c1.4,0,2-.3,2-1v-1.1ZM146.2,4.6c0-.7-.7-1-2-1h-6.5c-1.4,0-2,.4-2,1v1c0,.6.7,1,2,1h6.6c1.3,0,2-.3,2-1v-1h0Z"/>
    <path class="st5" d="M153.6,14.7c-1.1,0-1.7-.5-1.7-1.4s.6-1.4,1.7-1.4,1.7.5,1.7,1.4-.6,1.4-1.8,1.4h0Z"/>
    <path class="st5" d="M158.3,2.2c0-.9.5-1.4,1.7-1.4s1.6.5,1.6,1.4v11.1c0,.9-.5,1.4-1.7,1.4s-1.6-.5-1.6-1.4V2.2Z"/>
    <path class="st5" d="M164.9,2.2c0-.9.5-1.4,1.7-1.4s1.6.5,1.6,1.4v11.1c0,.9-.5,1.4-1.7,1.4s-1.6-.5-1.6-1.4V2.2Z"/>
  </g>
  <g class="st2">
    <path class="st5" d="M247.8,30.6c0-.9.5-1.4,1.7-1.4s1.6.5,1.6,1.4v11.1c0,.9-.5,1.4-1.7,1.4s-1.6-.5-1.6-1.4v-11.1Z"/>
    <path class="st5" d="M260.4,43c-4,0-6-1.3-6-3.9v-6c0-2.5,2-3.8,5.9-3.8h4.6c3.9,0,5.9,1.3,5.9,3.8v6c0,2.6-2,3.9-6,3.9h-4.4,0ZM267.4,33.2c0-.8-.8-1.3-2.6-1.3h-4.5c-1.7,0-2.6.4-2.6,1.3v5.8c0,.9.9,1.4,2.6,1.4h4.5c1.7,0,2.6-.5,2.6-1.4v-5.8Z"/>
    <path class="st5" d="M273.8,30.6c0-.9.5-1.4,1.7-1.4s1.6.5,1.6,1.4v11.1c0,.9-.5,1.4-1.7,1.4s-1.6-.5-1.6-1.4v-11.1Z"/>
  </g>
  <g class="st2">
    <path class="st5" d="M207.2,14.3c-3.1,0-4.7-1-4.7-3.1v-4.9c0-2,1.5-3.1,4.6-3.1h3.6c3.1,0,4.6,1,4.6,3.1v4.9c0,2-1.6,3.1-4.7,3.1h-3.4,0ZM213.5,6.3c0-1.2-1-1.7-2.9-1.7h-3.5c-1.9,0-2.9.6-2.9,1.7v4.9c0,1.2,1,1.8,2.9,1.8h3.4c2,0,2.9-.6,2.9-1.8v-4.9h0Z"/>
    <path class="st5" d="M224.2,14.3c-.5,0-.8-.2-.8-.7s.3-.7.8-.7h2.3c1.9,0,2.9-.6,2.9-1.7v-1.1h-6.5c-3.3,0-4.9-1-4.9-3v-.9c0-2,1.6-3,4.9-3h3.5c3.1,0,4.8,1,4.8,3.1v4.9c0,2-1.6,2.9-4.6,2.9h-2.3ZM222.9,8.9h6.6v-2.5c0-1.3-1-1.9-3.1-1.9h-3.5c-2.1,0-3.1.6-3.1,1.7v.8c0,1.2,1.1,1.7,3.2,1.7h0Z"/>
    <path class="st5" d="M234.9,8.8c-.6,0-1-.2-1-.8s.3-.8,1-.8,1,.2,1,.8-.3.8-1,.8ZM234.9,13.4c-.6,0-1-.2-1-.8s.3-.8,1-.8,1,.2,1,.8-.3.8-1,.8Z"/>
    <path class="st5" d="M243.4,14.3c-3.1,0-4.7-1-4.7-3.1v-4.9c0-2,1.5-3.1,4.6-3.1h3.6c3.1,0,4.6,1,4.6,3.1v4.9c0,2-1.6,3.1-4.7,3.1h-3.4,0ZM249.8,6.3c0-1.2-1-1.7-2.9-1.7h-3.5c-1.9,0-2.9.6-2.9,1.7v4.9c0,1.2,1,1.8,2.9,1.8h3.4c2,0,2.9-.6,2.9-1.8v-4.9h0Z"/>
    <path class="st5" d="M259.2,14.3c-3.1,0-4.7-1-4.7-3.1v-4.9c0-2,1.5-3.1,4.6-3.1h3.6c3.1,0,4.6,1,4.6,3.1v4.9c0,2-1.6,3.1-4.7,3.1h-3.4,0ZM265.6,6.3c0-1.2-1-1.7-2.9-1.7h-3.5c-1.9,0-2.9.6-2.9,1.7v4.9c0,1.2,1,1.8,2.9,1.8h3.4c2,0,2.9-.6,2.9-1.8v-4.9h0Z"/>
    <path class="st5" d="M270.6,10c-.5,0-.8-.2-.8-.7s.3-.6.8-.6h5.3c.5,0,.8.2.8.6s-.3.7-.8.7h-5.3Z"/>
    <path class="st5" d="M279.2,3.8c0-.4.3-.7.9-.7s.8.2.8.7v9.9c0,.4-.3.7-.9.7s-.8-.2-.8-.7V3.8Z"/>
    <path class="st5" d="M284.7,14.3c-.5,0-.8-.2-.8-.5v-3c0-1.7,1.5-2.5,4.5-2.5h4.8c1.7,0,2.6-.4,2.6-1.3v-1c0-.9-.9-1.3-2.6-1.3h-2.8c-.5,0-.8-.2-.8-.7s.3-.7.8-.7h2.8c2.9,0,4.4.8,4.4,2.5v1.2c0,1.6-1.4,2.5-4.3,2.5h-4.9c-1.7,0-2.6.4-2.6,1.3v2.1c0,0,0,.1.1.1h10.9c.5,0,.8.2.8.7s-.3.7-.8.7h-12Z"/>
    <path class="st5" d="M301.1,8.8c-.6,0-1-.2-1-.8s.3-.8,1-.8,1,.2,1,.8-.3.8-1,.8ZM301.1,13.4c-.6,0-1-.2-1-.8s.3-.8,1-.8,1,.2,1,.8-.3.8-1,.8Z"/>
    <path class="st5" d="M309.6,14.3c-3.1,0-4.7-1-4.7-3.1v-4.9c0-2,1.5-3.1,4.6-3.1h3.6c3.1,0,4.6,1,4.6,3.1v4.9c0,2-1.6,3.1-4.7,3.1h-3.4,0ZM315.9,6.3c0-1.2-1-1.7-2.9-1.7h-3.5c-1.9,0-2.9.6-2.9,1.7v4.9c0,1.2,1,1.8,2.9,1.8h3.4c2,0,2.9-.6,2.9-1.8v-4.9h0Z"/>
    <path class="st5" d="M325.4,14.3c-3.1,0-4.7-1-4.7-3.1v-4.9c0-2,1.5-3.1,4.6-3.1h3.6c3.1,0,4.6,1,4.6,3.1v4.9c0,2-1.6,3.1-4.7,3.1h-3.4,0ZM331.8,6.3c0-1.2-1-1.7-2.9-1.7h-3.5c-1.9,0-2.9.6-2.9,1.7v4.9c0,1.2,1,1.8,2.9,1.8h3.4c2,0,2.9-.6,2.9-1.8v-4.9h0Z"/>
  </g>
  <g>
    <path class="st5" d="M173.8,8.7c0-.9.1-1.7.4-2.5s.5-1.4.9-2,.8-1.1,1.2-1.6l1.3.6c-.4.4-.8.9-1.1,1.4s-.6,1.1-.8,1.8-.3,1.4-.3,2.2.1,1.6.3,2.2.5,1.3.8,1.8.7,1,1.1,1.4l-1.3.6c-.4-.4-.8-1-1.2-1.6s-.7-1.3-.9-2-.4-1.6-.4-2.5h0Z"/>
    <path class="st5" d="M178.3,11.8h11.3v1.9h-11.3v-1.9ZM179.4,4.5h9.2v1.9h-9.2v-1.9Z"/>
    <path class="st5" d="M194.1,8.7c0,.9-.1,1.7-.4,2.5-.2.8-.5,1.4-.9,2s-.8,1.1-1.2,1.6l-1.3-.6c.4-.4.8-1,1.1-1.4.4-.5.6-1.1.8-1.8s.3-1.4.3-2.2-.1-1.6-.3-2.2-.5-1.3-.8-1.8c-.4-.5-.7-1-1.1-1.4l1.3-.6c.4.4.8,1,1.2,1.6s.7,1.3.9,2,.4,1.6.4,2.5h0Z"/>
  </g>
  <g>
    <path class="st5" d="M27,35c0-.2,0-.4-.2-.7s-.2-.5-.3-.8-.2-.5-.3-.7c.2,0,.5-.2.7-.4s.5-.4.8-.7c.2-.1.4-.4.7-.7s.6-.7,1-1.1c.4-.4.7-.9,1.1-1.4s.7-1,1-1.6l2.3,1c-.5.7-1.1,1.4-1.7,2.2-.6.7-1.2,1.4-1.9,2s-1.3,1.2-1.9,1.7h0c-.3.2-.5.4-.7.5s-.4.2-.5.4c-.1.1-.2.2-.2.4ZM27,35v-1.8l1.5-.8,10.8-.3c0,.3,0,.7,0,1.1,0,.4,0,.8.1,1-1.7,0-3.1.1-4.3.2-1.2,0-2.3.1-3.1.1s-1.6,0-2.2.1c-.6,0-1,0-1.4.1-.4,0-.7,0-.8.1-.2,0-.4.1-.6.1ZM27.5,36.1h12.2v7.9h-2.5v-5.7h-7.2v5.7h-2.4v-7.9ZM28.7,40.9h9.7v2.3h-9.7v-2.3ZM35,30.1l1.8-1.2c.5.5,1.1,1.1,1.7,1.7.6.6,1.1,1.3,1.7,1.9s1,1.1,1.3,1.7l-2,1.4c-.3-.5-.7-1.1-1.2-1.7-.5-.6-1-1.3-1.6-1.9-.6-.7-1.1-1.3-1.7-1.8h0Z"/>
    <path class="st5" d="M42.7,41.4c.7-.2,1.4-.4,2.3-.7.8-.3,1.8-.6,2.8-1s1.9-.7,2.9-1l.4,2.1c-.8.4-1.7.7-2.5,1-.8.4-1.7.7-2.5,1-.8.3-1.6.6-2.3.9l-1-2.4h0ZM43.3,31.4h5.3v2.3h-5.3v-2.3ZM47.4,27.6h2.5v13.2h-2.5v-13.2ZM52,27.6h2.5v12.5c0,.5,0,.8.1,1,0,.1.2.2.5.2h1.4c.2,0,.4-.1.5-.4.1-.2.2-.6.2-1.2,0-.5,0-1.4.1-2.4.2.2.4.3.7.4s.5.3.8.4c.3.1.5.2.7.2,0,1.3-.2,2.2-.4,3-.2.8-.5,1.3-.8,1.6-.4.4-.9.5-1.6.5h-2c-.7,0-1.2-.1-1.6-.3s-.7-.5-.8-1.1c-.2-.5-.2-1.2-.2-2v-12.5h-.1ZM53.2,31.4h5.7v2.3h-5.7v-2.3Z"/>
    <path class="st5" d="M61.3,28.1h15.3v16h-2.3v-13.9h-10.7v13.9h-2.2s0-16,0-16ZM62.7,41.3h12.8v2.1h-12.8v-2.1ZM63.9,38.4c.7,0,1.4-.1,2.2-.2.8-.1,1.7-.2,2.6-.3v1.6c-.8.1-1.6.2-2.4.4-.8.1-1.6.2-2.3.3,0,0-.2-1.7-.2-1.7ZM64.1,31.8h9.8v1.6h-9.8s0-1.6,0-1.6ZM64.5,34.1h4v3.4h-4v-3.4ZM66,35.3v1h1v-1h-1ZM71.7,33.8l1.8.4c-.4,1.5-1.1,2.9-1.9,4s-1.8,2.1-2.9,2.9c0-.1-.2-.2-.4-.4-.1-.2-.3-.4-.5-.5l-.4-.4c1.1-.6,2-1.4,2.7-2.4.7-1,1.3-2.2,1.6-3.4h0ZM68.7,30.4h1.9c0,1.1,0,2.1.2,3.1,0,1,.2,1.9.3,2.6.1.8.3,1.4.5,1.9s.4.8.7.8c.1,0,.2-.1.2-.4,0-.3.1-.7.2-1.2.1.1.2.2.4.4.2.2.4.3.5.4s.4.2.5.3c-.1,1.1-.4,1.9-.9,2.2s-1,.4-1.6.1c-.5-.2-1-.6-1.3-1.3s-.6-1.4-.8-2.3c-.2-1-.4-2-.5-3.1-.1-1.1-.2-2.3-.2-3.6ZM71.1,31l1-1c.3.1.6.3.9.5.3.2.5.4.7.6l-1.1,1.1c-.2-.2-.4-.4-.7-.6-.3-.2-.6-.4-.8-.6h0Z"/>
    <path class="st5" d="M78.9,28h4v2.1h-2v13.8h-2v-16ZM82.2,28h.7c0,0,1.4.7,1.4.7-.2.8-.4,1.6-.7,2.4s-.5,1.6-.7,2.3c.5.7.8,1.3.9,2,.1.6.2,1.2.2,1.7s0,1.1-.2,1.4c-.1.4-.3.7-.6.9-.1.1-.3.2-.5.2s-.4.1-.5.1h-1.1c0-.2,0-.6-.1-1s-.2-.7-.4-1h.7c.2,0,.3,0,.4-.1.1,0,.2-.2.2-.4,0-.2,0-.4,0-.7,0-.4,0-.9-.2-1.4s-.4-1.1-.8-1.7c.1-.4.2-.8.3-1.3.1-.5.2-1,.3-1.4.1-.5.2-.9.3-1.3,0-.4.1-.7.2-1v-.6h0ZM85.7,27.3l1.7.4c-.3,1-.7,1.9-1.3,2.7-.5.8-1.1,1.6-1.7,2.1-.1-.2-.4-.4-.7-.6s-.5-.4-.7-.6c.6-.5,1.1-1.1,1.6-1.8.5-.7.8-1.4,1.1-2.3h0ZM85.4,39.5l2.1.7c-.2.4-.5.7-.7,1.1-.3.4-.5.8-.8,1.1s-.5.7-.8,1c-.1-.1-.3-.2-.5-.4-.2-.2-.5-.3-.7-.4-.2-.1-.4-.2-.6-.4.4-.4.8-.8,1.1-1.3.4-.5.7-1,1-1.4h0ZM83.6,32.7c.4,0,.7,0,1.1-.1.4,0,.8,0,1.3-.1v1.2c-.4,0-.7.2-1.1.2-.4,0-.7.1-1.1.2l-.2-1.4ZM87.9,28.6h.6c0,0,1.1.4,1.1.4-.2,1.2-.6,2.3-1.1,3.3-.5,1-1,1.9-1.6,2.6s-1.3,1.4-2.1,1.9c-.1-.2-.3-.5-.5-.7-.2-.3-.4-.5-.6-.7.7-.4,1.3-.9,1.9-1.6.5-.7,1-1.4,1.4-2.2s.7-1.7.9-2.6v-.3ZM85.1,37.1h8.5v1.9h-8.5v-1.9ZM85.1,31.2l1-1c.3.2.7.5,1,.8.4.3.7.5.9.7l-1,1.1c-.2-.2-.5-.5-.8-.8-.4-.3-.7-.6-1-.8h0ZM85.8,28.6h2.6v1.5h-2.6v-1.5ZM86.6,34.1h5.1v1.9h-5.1v-1.9ZM88.2,37.9h2.2v6.1h-2.2s0-6.1,0-6.1ZM90.9,29c.2.9.5,1.7,1,2.5.4.8.9,1.5,1.4,2.1s1.2,1.1,1.9,1.5c-.2.2-.4.4-.7.7-.2.3-.5.6-.6.8-.8-.5-1.5-1.1-2.1-1.8s-1.1-1.6-1.6-2.5c-.4-.9-.8-1.9-1.1-3l1.7-.4h0ZM90.5,28.2h2.9v1.6h-2.9v-1.6ZM91,40.3l1.7-1c.2.3.5.6.8,1s.6.7.8,1c.3.3.5.6.7.9l-1.8,1.1c-.2-.2-.4-.5-.6-.9s-.5-.7-.8-1.1c-.3-.4-.5-.7-.8-1ZM92.8,28.2h.8c0,0,1.3.7,1.3.7-.3.8-.6,1.6-1,2.3-.4.8-.8,1.4-1.3,1.9-.1-.2-.4-.4-.6-.7-.2-.2-.5-.5-.7-.6.2-.3.4-.6.6-1,.2-.4.4-.8.5-1.2s.2-.8.4-1.1v-.4h0Z"/>
    <path class="st5" d="M103.9,27.1l2,.7c-.7.8-1.4,1.6-2.4,2.3s-2,1.3-3.1,1.7c-1.1.5-2.2,1-3.4,1.3,0-.2-.2-.4-.4-.6-.1-.2-.3-.5-.4-.7-.2-.2-.3-.4-.4-.5,1.1-.2,2.2-.6,3.2-1s2-.9,2.8-1.4c.8-.5,1.5-1.1,2-1.8h0ZM98.1,32.4h12.5v4.9h-12.5v-4.9ZM99.1,37.9h10.6v6.1h-2.4v-4.6h-5.9v4.6h-2.3s0-6.1,0-6.1ZM100.1,33.9v2.1h8.4v-2.1h-8.4ZM100.4,40h7.8v1.5h-7.8v-1.5ZM100.4,42.1h7.8v1.5h-7.8v-1.5ZM100.5,34.2l1.6-.4c.1.3.2.7.4,1,.1.4.2.7.2.9l-1.7.5c0-.3,0-.6-.2-1s-.2-.7-.4-1h0ZM101.2,30.4h6.3v1.5h-6.3v-1.5ZM103.3,32.9h1.9v3.7h-1.9v-3.7ZM105.5,28c.4.4.8.7,1.4,1s1.1.7,1.8.9,1.4.5,2.1.7c.7.2,1.4.4,2.2.5-.2.2-.5.5-.8.8-.3.4-.5.7-.7,1-.7-.2-1.5-.4-2.2-.7s-1.4-.6-2.1-1c-.7-.4-1.3-.8-1.9-1.2s-1.1-.9-1.6-1.4l1.7-.7h0ZM106.3,33.7l1.9.4c-.2.4-.4.7-.5,1.1-.2.4-.3.7-.5.9l-1.6-.4c.1-.3.2-.6.4-1,.1-.4.2-.7.3-1Z"/>
    <path class="st5" d="M113.7,30.3h5.8v1.9h-5.8v-1.9ZM114.3,37.7h1.6v6.1h-1.6v-6.1ZM114.3,32.7h4.8v1.7h-4.8v-1.7ZM114.3,35.2h4.8v1.7h-4.8v-1.7ZM115.2,37.7h3.9v5.4h-3.9v-1.8h2.2v-1.8h-2.2v-1.8ZM115.3,28l1.6-.6c.2.4.4.8.6,1.3s.4.8.4,1.1l-1.7.7c0-.3-.2-.7-.4-1.2-.2-.5-.4-.9-.5-1.3h0ZM119.4,39.9c.7,0,1.6-.1,2.6-.2,1,0,2-.2,3-.2v1.7c-.9.1-1.9.2-2.8.3-1,.1-1.8.2-2.6.3l-.2-1.7h0ZM119.5,37.3h10.7v1.7h-10.7v-1.7ZM119.6,33h10.7v1.7h-10.7v-1.7ZM124,34.7l1.2,1.3c-.5.1-1,.2-1.6.4-.6.1-1.1.2-1.7.2-.6,0-1.1.1-1.7.1,0-.2,0-.4-.2-.7,0-.2-.2-.5-.3-.7.5,0,1-.1,1.6-.2.5,0,1-.1,1.5-.2s.9-.2,1.3-.3h0ZM121.7,35.8h2v6.4c0,.4,0,.8-.2,1-.1.2-.3.4-.6.5-.3.1-.7.2-1,.2h-1.4c0-.2-.1-.5-.2-.8s-.2-.6-.4-.8h1.4c.2,0,.3-.1.3-.2v-6.4h0ZM120.1,28.9h9.8v1.6h-9.8v-1.6ZM120.6,31h8.6v1.4h-8.6v-1.4ZM121.4,27.9l1.6-.5c.2.2.4.5.6.8s.3.6.4.8l-1.7.6c0-.2-.2-.5-.4-.8s-.4-.6-.5-.9ZM128,39.1l1.6.8c-.4.5-.8,1.1-1.4,1.6-.5.5-1.1,1-1.7,1.3-.6.4-1.2.7-1.9,1-.1-.2-.2-.4-.5-.6-.2-.2-.4-.4-.6-.6.6-.2,1.1-.5,1.7-.8.5-.4,1.1-.7,1.6-1.1.5-.4.9-.9,1.2-1.4ZM123.7,29.3h2.3v4.4h-2.3v-4.4ZM125,35h1.9c0,1.5,0,2.8.2,3.9.1,1.1.4,1.9.6,2.5.3.6.6.9,1,.9s.2-.1.4-.4c0-.2.1-.6.2-1,.2.2.4.4.7.5s.5.2.7.4c-.1.8-.4,1.4-.7,1.9-.3.4-.8.5-1.3.5s-1.3-.2-1.7-.7-.8-1.1-1-1.9c-.2-.8-.4-1.8-.5-2.9-.1-1.1-.2-2.3-.2-3.6h0ZM126.8,27.3l2,.5c-.2.4-.5.7-.7,1-.2.3-.4.5-.6.8l-1.6-.5c.2-.2.3-.5.5-.9.2-.3.3-.6.4-.9h0ZM127,35.8l1.3-.9c.3.2.7.5,1,.8.4.3.6.6.8.8l-1.4,1c-.2-.2-.4-.5-.7-.8s-.7-.6-1-.8h0Z"/>
    <path class="st5" d="M132.4,30.4h14.7v9h-2.5v-6.7h-9.9v6.8h-2.3v-9.2h0ZM133.6,36.2h12.4v2.3h-12.4v-2.3ZM138.5,27.3h2.5v16.7h-2.5v-16.7Z"/>
    <path class="st5" d="M150.5,33.4l2.3.4c0,.8-.2,1.6-.3,2.5s-.2,1.8-.4,2.6-.3,1.6-.5,2.3l-2.4-1c.2-.7.4-1.3.5-2.1.2-.8.3-1.6.5-2.4.1-.8.2-1.7.3-2.5h0ZM153.7,32.4h2.5v8.1c0,.4,0,.7.2.8.1.1.4.2.8.2h2.3c.3,0,.5,0,.7-.2s.2-.5.3-1c0-.5.1-1.1.1-2,.2.1.4.2.7.4.2.1.5.2.8.4.3.1.5.2.7.2,0,1.1-.2,2-.4,2.6-.2.7-.5,1.1-1,1.4s-1,.4-1.7.4h-2.8c-.8,0-1.4-.1-1.9-.3-.5-.2-.8-.5-1-1s-.2-1.1-.2-1.9v-8.1h0ZM154.4,29.1l1.6-1.6c.5.3,1.1.7,1.7,1.1.7.4,1.3.8,1.8,1.3.6.4,1,.8,1.4,1.2l-1.7,1.9c-.3-.4-.8-.8-1.3-1.2-.5-.5-1.1-.9-1.7-1.4s-1.2-.9-1.7-1.3h0ZM161.5,33.7l2.2-.9c.3.7.7,1.4,1,2.2s.5,1.6.8,2.3c.2.8.4,1.4.5,2l-2.3,1c-.1-.6-.2-1.3-.5-2-.2-.8-.5-1.6-.7-2.4-.3-.8-.6-1.6-.9-2.2Z"/>
  </g>
  <g>
    <path class="st5" d="M289.7,27.1l2,.7c-.7.8-1.4,1.6-2.4,2.3s-2,1.3-3.1,1.7c-1.1.5-2.2,1-3.4,1.3,0-.2-.2-.4-.4-.6-.1-.2-.3-.5-.5-.7-.2-.2-.3-.4-.4-.5,1.1-.2,2.2-.6,3.2-1,1-.4,2-.9,2.8-1.4.8-.5,1.5-1.1,2-1.8h.1ZM284,32.4h12.5v4.9h-12.5v-4.9ZM284.9,37.9h10.6v6.1h-2.4v-4.6h-5.9v4.6h-2.3v-6.1h0ZM285.9,33.9v2.1h8.4v-2.1h-8.4ZM286.2,40h7.8v1.5h-7.8v-1.5ZM286.2,42.1h7.8v1.5h-7.8v-1.5ZM286.4,34.2l1.6-.4c.1.3.2.7.4,1,.1.4.2.7.2.9l-1.7.5c0-.3,0-.6-.2-1-.1-.4-.2-.7-.4-1h0ZM287,30.4h6.3v1.5h-6.3v-1.5ZM289.1,32.9h1.9v3.7h-1.9v-3.7ZM291.3,28c.4.4.8.7,1.4,1s1.1.7,1.8.9c.7.3,1.4.5,2.1.7.7.2,1.4.4,2.2.5-.2.2-.5.5-.8.8-.3.4-.5.7-.7,1-.7-.2-1.5-.4-2.2-.7s-1.4-.6-2.1-1c-.7-.4-1.3-.8-1.9-1.2s-1.1-.9-1.6-1.4l1.7-.7h0ZM292.1,33.7l1.9.4c-.2.4-.4.7-.5,1.1s-.3.7-.5.9l-1.6-.4c.1-.3.2-.6.4-1s.2-.7.3-1h0Z"/>
    <path class="st5" d="M299.6,30.3h5.8v1.9h-5.8v-1.9ZM300.1,37.7h1.6v6.1h-1.6v-6.1ZM300.2,32.7h4.8v1.7h-4.8v-1.7ZM300.2,35.2h4.8v1.7h-4.8v-1.7ZM301,37.7h3.9v5.4h-3.9v-1.8h2.2v-1.8h-2.2v-1.8ZM301.1,28l1.6-.6c.2.4.4.8.6,1.3s.4.8.4,1.1l-1.7.7c0-.3-.2-.7-.4-1.2-.2-.5-.4-.9-.5-1.3h0ZM305.2,39.9c.7,0,1.6-.1,2.6-.2,1,0,2-.2,3-.2v1.7c-.9.1-1.9.2-2.8.3-1,.1-1.8.2-2.6.3l-.2-1.7h0ZM305.3,37.3h10.7v1.7h-10.7v-1.7ZM305.4,33h10.7v1.7h-10.7v-1.7ZM309.8,34.7l1.2,1.3c-.5.1-1,.2-1.6.4-.6.1-1.1.2-1.7.2-.6,0-1.1.1-1.7.1,0-.2,0-.4-.2-.7,0-.2-.2-.5-.3-.7.5,0,1-.1,1.6-.2s1-.1,1.5-.2.9-.2,1.3-.3h0ZM307.5,35.8h2v6.4c0,.4,0,.8-.2,1-.1.2-.3.4-.6.5-.3.1-.7.2-1,.2h-1.4c0-.2-.1-.5-.2-.8-.1-.3-.2-.6-.4-.8h1.4c.2,0,.3-.1.3-.2v-6.4h.1ZM305.9,28.9h9.8v1.6h-9.8v-1.6ZM306.5,31h8.6v1.4h-8.6v-1.4h0ZM307.1,27.9l1.6-.5c.2.2.4.5.6.8s.3.6.4.8l-1.7.6c0-.2-.2-.5-.4-.8-.2-.3-.4-.6-.5-.9h0ZM313.9,39.1l1.6.8c-.4.5-.8,1.1-1.4,1.6-.5.5-1.1,1-1.7,1.3s-1.2.7-1.9,1c-.1-.2-.2-.4-.5-.6-.2-.2-.4-.4-.6-.6.6-.2,1.1-.5,1.7-.8.5-.4,1.1-.7,1.6-1.1.5-.4.9-.9,1.2-1.4ZM309.5,29.3h2.3v4.4h-2.3v-4.4ZM310.8,35h1.9c0,1.5,0,2.8.2,3.9.1,1.1.4,1.9.6,2.5.3.6.6.9,1,.9s.2-.1.4-.4c0-.2.1-.6.2-1,.2.2.4.4.7.5.2.1.5.2.7.4-.1.8-.4,1.4-.7,1.9-.3.4-.8.5-1.3.5s-1.3-.2-1.7-.7c-.4-.5-.8-1.1-1-1.9-.2-.8-.4-1.8-.5-2.9s-.2-2.3-.2-3.6h0ZM312.6,27.3l2,.5c-.2.4-.5.7-.7,1-.2.3-.4.5-.6.8l-1.6-.5c.2-.2.3-.5.5-.9.2-.3.3-.6.4-.9h0ZM312.8,35.8l1.3-.9c.3.2.7.5,1,.8.4.3.6.6.8.8l-1.4,1c-.2-.2-.4-.5-.7-.8s-.7-.6-1-.8h0Z"/>
    <path class="st5" d="M317.7,41.5h15.8v2h-15.8v-2ZM317.7,28.7h15.7v3.5h-2.4v-1.4h-11v1.4h-2.3v-3.5ZM319.2,38.2h12.8v2h-12.8v-2ZM320.1,37.5c0-.1-.1-.4-.2-.6s-.2-.5-.2-.7c0-.2-.2-.5-.2-.7.2,0,.4-.1.6-.2s.4-.2.7-.4c.2-.1.4-.3.8-.6s.7-.6,1.1-1,.8-.8,1.2-1.3l1.7,1.3c-.6.6-1.3,1.1-2,1.7s-1.5,1.1-2.3,1.5h0c-.2.2-.5.3-.6.4-.2.1-.3.2-.4.3s-.2.2-.2.3h0ZM319.7,31.8h11.7v2h-11.7v-2ZM320.1,37.5v-1.4l1.1-.7,8.8-.5c0,.2,0,.5.2.9,0,.3.1.6.2.8-1.7.1-3.1.2-4.3.4s-2,.2-2.8.2c-.7,0-1.3.1-1.7.2-.4,0-.7.1-1,.1s-.4.1-.5.1h0ZM324.1,27.7l2.3-.7c.2.3.4.7.5,1.1.2.4.3.7.4,1l-2.4.7c0-.3-.1-.6-.3-1-.1-.4-.3-.8-.5-1.1ZM324.3,37h2.4v5.4h-2.4v-5.4ZM327.2,34.3l1.7-1.1c.4.3.8.7,1.3,1,.4.4.8.8,1.3,1.1.4.4.7.7,1,1l-1.9,1.3c-.2-.3-.5-.7-.9-1-.4-.4-.8-.8-1.2-1.2s-.8-.8-1.3-1.1h0Z"/>
  </g>
  <g class="st7">
    <g>
      <path class="st4" d="M10.1,44.8c4.4,0,8-3.6,8-8s-3.6-8-8-8-8,3.6-8,8,3.6,8,8,8Z"/>
      <g class="st6">
        <path class="st3" d="M6.6,28.4L0,46.3l.5.2,6.6-17.9s-.5-.2-.5-.2Z"/>
        <path class="st3" d="M9.8,28.4l-6.6,17.9.5.2,6.6-17.9s-.5-.2-.5-.2Z"/>
        <path class="st3" d="M13.1,28.4l-6.6,17.9.5.2,6.6-17.9s-.5-.2-.5-.2Z"/>
        <path class="st3" d="M16.4,28.4l-6.6,17.9.5.2,6.6-17.9s-.5-.2-.5-.2Z"/>
        <path class="st3" d="M19.6,28.4l-6.6,17.9.5.2,6.6-17.9s-.5-.2-.5-.2Z"/>
        <path class="st3" d="M13.5,28.4l-.5.2,6.6,17.9.5-.2s-6.6-17.9-6.6-17.9Z"/>
        <path class="st3" d="M10.3,28.4l-.5.2,6.6,17.9.5-.2s-6.6-17.9-6.6-17.9Z"/>
        <path class="st3" d="M7,28.4l-.5.2,6.6,17.9.5-.2s-6.6-17.9-6.6-17.9Z"/>
        <path class="st3" d="M3.7,28.4l-.5.2,6.6,17.9.5-.2S3.7,28.4,3.7,28.4Z"/>
        <path class="st3" d="M.5,28.4l-.5.2,6.6,17.9.5-.2L.5,28.4Z"/>
      </g>
      <path class="st5" d="M10.1,45.1c-4.5,0-8.2-3.7-8.2-8.2s3.7-8.2,8.2-8.2,8.2,3.7,8.2,8.2-3.7,8.2-8.2,8.2ZM10.1,29.1c-4.3,0-7.8,3.5-7.8,7.8s3.5,7.8,7.8,7.8,7.8-3.5,7.8-7.8-3.5-7.8-7.8-7.8Z"/>
    </g>
  </g>
  <line class="st1" x1="176.4" y1="37.9" x2="237.2" y2="37.9"/>
</svg>