<svg width="330" height="90" viewBox="0 0 330 90" fill="none" xmlns="http://www.w3.org/2000/svg">
<g clip-path="url(#clip0_267_274)">
<path d="M6.98821 19.8375H1.05199V0.601136H7.25121C9.11723 0.601136 10.7141 0.986239 12.0416 1.75645C13.3691 2.52039 14.3866 3.61934 15.0942 5.05331C15.8018 6.48101 16.1556 8.19049 16.1556 10.1818C16.1556 12.1856 15.7987 13.9107 15.0848 15.3572C14.371 16.7974 13.3315 17.9057 11.9664 18.6822C10.6013 19.4524 8.9419 19.8375 6.98821 19.8375ZM3.38139 17.7711H6.83793C8.42843 17.7711 9.74655 17.4643 10.7923 16.8506C11.8381 16.237 12.6177 15.3634 13.1311 14.23C13.6446 13.0967 13.9013 11.7472 13.9013 10.1818C13.9013 8.62882 13.6477 7.29191 13.1405 6.17104C12.6333 5.04391 11.8756 4.17978 10.8675 3.57864C9.85926 2.97124 8.60376 2.66755 7.10092 2.66755H3.38139V17.7711ZM19.7624 19.8375V5.41023H21.904V7.58935H22.0542C22.3172 6.8755 22.7931 6.29628 23.4819 5.85169C24.1707 5.4071 24.9472 5.1848 25.8113 5.1848C25.9742 5.1848 26.1777 5.18794 26.4219 5.1942C26.6661 5.20046 26.8508 5.20985 26.976 5.22238V7.47664C26.9009 7.45785 26.7287 7.42967 26.4594 7.3921C26.1964 7.34827 25.9178 7.32635 25.6235 7.32635C24.9222 7.32635 24.296 7.47351 23.7449 7.76781C23.2002 8.05586 22.7681 8.45661 22.4487 8.97009C22.1356 9.47729 21.9791 10.0565 21.9791 10.7078V19.8375H19.7624ZM29.6037 19.8375V5.41023H31.8204V19.8375H29.6037ZM30.7308 3.00569C30.2987 3.00569 29.9262 2.85853 29.6131 2.56423C29.3062 2.26992 29.1528 1.91613 29.1528 1.50284C29.1528 1.08956 29.3062 0.735766 29.6131 0.441459C29.9262 0.147153 30.2987 0 30.7308 0C31.1629 0 31.5323 0.147153 31.8391 0.441459C32.1522 0.735766 32.3088 1.08956 32.3088 1.50284C32.3088 1.91613 32.1522 2.26992 31.8391 2.56423C31.5323 2.85853 31.1629 3.00569 30.7308 3.00569ZM47.6777 5.41023L42.3425 19.8375H40.0882L34.7532 5.41023H37.1577L41.1403 16.907H41.2906L45.273 5.41023H47.6777ZM50.6035 19.8375V5.41023H52.8201V19.8375H50.6035ZM51.7306 3.00569C51.2985 3.00569 50.926 2.85853 50.6129 2.56423C50.3061 2.26992 50.1526 1.91613 50.1526 1.50284C50.1526 1.08956 50.3061 0.735766 50.6129 0.441459C50.926 0.147153 51.2985 0 51.7306 0C52.1626 0 52.5322 0.147153 52.839 0.441459C53.1521 0.735766 53.3085 1.08956 53.3085 1.50284C53.3085 1.91613 53.1521 2.26992 52.839 2.56423C52.5322 2.85853 52.1626 3.00569 51.7306 3.00569ZM59.0969 11.1586V19.8375H56.8801V5.41023H59.0218V7.66449H59.2095C59.5477 6.93186 60.0612 6.34325 60.75 5.89865C61.4388 5.4478 62.3279 5.22238 63.4175 5.22238C64.3943 5.22238 65.2492 5.42275 65.9818 5.82351C66.7144 6.21801 67.2843 6.81914 67.6913 7.62692C68.0983 8.42844 68.3018 9.44285 68.3018 10.6702V19.8375H66.0851V10.8205C66.0851 9.68707 65.7908 8.80415 65.2022 8.1717C64.6136 7.53299 63.8058 7.21364 62.7789 7.21364C62.0713 7.21364 61.4388 7.36705 60.8815 7.67388C60.3305 7.98072 59.8953 8.42844 59.576 9.01705C59.2566 9.60566 59.0969 10.3195 59.0969 11.1586ZM78.176 25.5483C77.1052 25.5483 76.1847 25.4106 75.4145 25.135C74.6443 24.8658 74.0024 24.5089 73.489 24.0643C72.9818 23.6259 72.5779 23.1563 72.2773 22.6554L74.0431 21.4155C74.2435 21.6785 74.4971 21.9791 74.804 22.3172C75.1108 22.6616 75.5303 22.9591 76.0626 23.2095C76.6011 23.4663 77.3056 23.5946 78.176 23.5946C79.3407 23.5946 80.3019 23.3128 81.0595 22.7493C81.8172 22.1857 82.1961 21.3028 82.1961 20.1005V17.17H82.0082C81.8454 17.433 81.6137 17.7586 81.3131 18.1468C81.0188 18.5288 80.593 18.8701 80.0357 19.1706C79.4847 19.4649 78.7395 19.6121 77.8003 19.6121C76.6355 19.6121 75.5898 19.3366 74.6631 18.7855C73.7426 18.2345 73.0131 17.433 72.4746 16.381C71.9423 15.329 71.6762 14.0516 71.6762 12.5487C71.6762 11.071 71.936 9.78412 72.4558 8.6883C72.9755 7.58622 73.6987 6.73461 74.6255 6.13347C75.5523 5.52608 76.623 5.22238 77.8378 5.22238C78.7771 5.22238 79.5222 5.37892 80.0732 5.69201C80.6305 5.99884 81.0564 6.34951 81.3507 6.744C81.6513 7.13224 81.883 7.45159 82.0458 7.70206H82.2712V5.41023H84.4128V20.2508C84.4128 21.4906 84.131 22.4988 83.5674 23.2753C83.0101 24.058 82.2587 24.631 81.3131 24.9941C80.3739 25.3636 79.3281 25.5483 78.176 25.5483ZM78.1008 17.6208C78.99 17.6208 79.7414 17.4173 80.3551 17.0103C80.9687 16.6033 81.4352 16.0178 81.7546 15.2539C82.074 14.4899 82.2336 13.5757 82.2336 12.5112C82.2336 11.4717 82.0771 10.5544 81.764 9.75908C81.4509 8.96382 80.9875 8.34077 80.3739 7.88992C79.7602 7.43907 79.0025 7.21364 78.1008 7.21364C77.1615 7.21364 76.3788 7.45159 75.7526 7.92749C75.1327 8.40339 74.6662 9.0421 74.3531 9.84361C74.0463 10.6451 73.8929 11.5343 73.8929 12.5112C73.8929 13.5131 74.0493 14.3991 74.3624 15.1693C74.6818 15.9333 75.1515 16.5344 75.7714 16.9727C76.3976 17.4048 77.1741 17.6208 78.1008 17.6208ZM102.184 5.41023V7.28878H94.7072V5.41023H102.184ZM96.8863 1.9537H99.103V15.7047C99.103 16.3309 99.1938 16.8005 99.3754 17.1136C99.5633 17.4205 99.8012 17.6271 100.089 17.7335C100.383 17.8337 100.693 17.8838 101.019 17.8838C101.263 17.8838 101.464 17.8713 101.62 17.8463C101.777 17.815 101.902 17.7899 101.996 17.7711L102.447 19.7624C102.296 19.8187 102.087 19.8751 101.817 19.9315C101.548 19.9941 101.207 20.0254 100.794 20.0254C100.167 20.0254 99.5539 19.8908 98.9527 19.6215C98.3579 19.3522 97.8632 18.9421 97.4687 18.391C97.0804 17.84 96.8863 17.1449 96.8863 16.3058V1.9537ZM108.045 11.1586V19.8375H105.828V0.601136H108.045V7.66449H108.233C108.571 6.91933 109.078 6.32759 109.754 5.88926C110.437 5.44467 111.345 5.22238 112.478 5.22238C113.461 5.22238 114.322 5.41962 115.061 5.81412C115.8 6.20235 116.373 6.80036 116.78 7.60814C117.193 8.40965 117.4 9.43033 117.4 10.6702V19.8375H115.183V10.8205C115.183 9.67454 114.886 8.78849 114.291 8.16231C113.702 7.52986 112.885 7.21364 111.839 7.21364C111.113 7.21364 110.462 7.36705 109.886 7.67388C109.316 7.98072 108.865 8.42844 108.533 9.01705C108.208 9.60566 108.045 10.3195 108.045 11.1586ZM127.504 20.1381C126.114 20.1381 124.915 19.8313 123.907 19.2176C122.905 18.5977 122.132 17.7335 121.587 16.6252C121.048 15.5106 120.779 14.2144 120.779 12.7366C120.779 11.2588 121.048 9.95632 121.587 8.82919C122.132 7.6958 122.889 6.81288 123.86 6.18044C124.837 5.54173 125.976 5.22238 127.279 5.22238C128.03 5.22238 128.772 5.34761 129.505 5.59809C130.238 5.84856 130.904 6.25558 131.506 6.81914C132.107 7.37645 132.586 8.11534 132.943 9.03583C133.3 9.95632 133.478 11.0897 133.478 12.436V13.3753H122.357V11.4592H131.224C131.224 10.6451 131.061 9.91875 130.735 9.28005C130.416 8.64134 129.959 8.13726 129.364 7.76781C128.775 7.39836 128.08 7.21364 127.279 7.21364C126.396 7.21364 125.632 7.4328 124.987 7.87113C124.348 8.3032 123.857 8.86677 123.512 9.56183C123.168 10.2569 122.996 11.0021 122.996 11.7973V13.0747C122.996 14.1643 123.184 15.0879 123.559 15.8456C123.941 16.597 124.47 17.17 125.147 17.5645C125.823 17.9527 126.609 18.1468 127.504 18.1468C128.087 18.1468 128.613 18.0654 129.082 17.9026C129.558 17.7335 129.968 17.4831 130.313 17.1512C130.657 16.8131 130.923 16.3935 131.111 15.8926L133.253 16.4937C133.027 17.2201 132.648 17.8588 132.116 18.4098C131.584 18.9546 130.926 19.3804 130.144 19.6872C129.361 19.9878 128.481 20.1381 127.504 20.1381ZM144.59 19.8375V0.601136H156.124V2.66755H146.919V9.16733H155.26V11.2338H146.919V19.8375H144.59ZM168.001 13.9389V5.41023H170.218V19.8375H168.001V17.3954H167.851C167.513 18.128 166.987 18.7511 166.273 19.2646C165.559 19.7718 164.657 20.0254 163.568 20.0254C162.666 20.0254 161.865 19.8281 161.163 19.4336C160.462 19.0329 159.911 18.4317 159.51 17.6302C159.109 16.8224 158.909 15.8049 158.909 14.5776V5.41023H161.126V14.4273C161.126 15.4793 161.42 16.3184 162.009 16.9446C162.603 17.5707 163.361 17.8838 164.282 17.8838C164.833 17.8838 165.393 17.7429 165.963 17.4612C166.539 17.1794 167.021 16.7473 167.409 16.165C167.804 15.5826 168.001 14.8406 168.001 13.9389ZM180.552 5.41023V7.28878H173.076V5.41023H180.552ZM175.255 1.9537H177.471V15.7047C177.471 16.3309 177.562 16.8005 177.744 17.1136C177.932 17.4205 178.17 17.6271 178.458 17.7335C178.752 17.8337 179.062 17.8838 179.388 17.8838C179.632 17.8838 179.832 17.8713 179.989 17.8463C180.145 17.815 180.27 17.7899 180.364 17.7711L180.815 19.7624C180.665 19.8187 180.455 19.8751 180.186 19.9315C179.917 19.9941 179.575 20.0254 179.162 20.0254C178.536 20.0254 177.922 19.8908 177.321 19.6215C176.726 19.3522 176.232 18.9421 175.837 18.391C175.449 17.84 175.255 17.1449 175.255 16.3058V1.9537ZM192.979 13.9389V5.41023H195.196V19.8375H192.979V17.3954H192.829C192.49 18.128 191.964 18.7511 191.251 19.2646C190.537 19.7718 189.635 20.0254 188.545 20.0254C187.644 20.0254 186.842 19.8281 186.141 19.4336C185.44 19.0329 184.889 18.4317 184.488 17.6302C184.087 16.8224 183.887 15.8049 183.887 14.5776V5.41023H186.103V14.4273C186.103 15.4793 186.398 16.3184 186.986 16.9446C187.581 17.5707 188.339 17.8838 189.259 17.8838C189.81 17.8838 190.371 17.7429 190.941 17.4612C191.517 17.1794 191.999 16.7473 192.387 16.165C192.782 15.5826 192.979 14.8406 192.979 13.9389ZM199.256 19.8375V5.41023H201.397V7.58935H201.547C201.81 6.8755 202.286 6.29628 202.975 5.85169C203.664 5.4071 204.44 5.1848 205.304 5.1848C205.467 5.1848 205.671 5.18794 205.915 5.1942C206.159 5.20046 206.344 5.20985 206.469 5.22238V7.47664C206.394 7.45785 206.222 7.42967 205.953 7.3921C205.69 7.34827 205.411 7.32635 205.117 7.32635C204.415 7.32635 203.789 7.47351 203.238 7.76781C202.693 8.05586 202.261 8.45661 201.942 8.97009C201.629 9.47729 201.472 10.0565 201.472 10.7078V19.8375H199.256ZM214.707 20.1381C213.316 20.1381 212.117 19.8313 211.109 19.2176C210.107 18.5977 209.334 17.7335 208.789 16.6252C208.251 15.5106 207.981 14.2144 207.981 12.7366C207.981 11.2588 208.251 9.95632 208.789 8.82919C209.334 7.6958 210.092 6.81288 211.062 6.18044C212.039 5.54173 213.179 5.22238 214.481 5.22238C215.233 5.22238 215.975 5.34761 216.707 5.59809C217.44 5.84856 218.107 6.25558 218.708 6.81914C219.309 7.37645 219.788 8.11534 220.145 9.03583C220.502 9.95632 220.68 11.0897 220.68 12.436V13.3753H209.559V11.4592H218.426C218.426 10.6451 218.263 9.91875 217.938 9.28005C217.618 8.64134 217.161 8.13726 216.566 7.76781C215.978 7.39836 215.283 7.21364 214.481 7.21364C213.598 7.21364 212.834 7.4328 212.189 7.87113C211.551 8.3032 211.059 8.86677 210.715 9.56183C210.37 10.2569 210.198 11.0021 210.198 11.7973V13.0747C210.198 14.1643 210.386 15.0879 210.762 15.8456C211.144 16.597 211.673 17.17 212.349 17.5645C213.025 17.9527 213.811 18.1468 214.707 18.1468C215.289 18.1468 215.815 18.0654 216.285 17.9026C216.76 17.7335 217.171 17.4831 217.515 17.1512C217.859 16.8131 218.126 16.3935 218.313 15.8926L220.455 16.4937C220.23 17.2201 219.851 17.8588 219.318 18.4098C218.786 18.9546 218.129 19.3804 217.346 19.6872C216.563 19.9878 215.683 20.1381 214.707 20.1381ZM233.107 19.9878C232.644 19.9878 232.246 19.8219 231.914 19.49C231.582 19.1581 231.416 18.7605 231.416 18.2971C231.416 17.8337 231.582 17.4361 231.914 17.1042C232.246 16.7724 232.644 16.6064 233.107 16.6064C233.57 16.6064 233.968 16.7724 234.3 17.1042C234.632 17.4361 234.798 17.8337 234.798 18.2971C234.798 18.6039 234.719 18.8857 234.563 19.1425C234.413 19.3992 234.209 19.6058 233.952 19.7624C233.702 19.9127 233.42 19.9878 233.107 19.9878ZM233.107 9.28005C232.644 9.28005 232.246 9.11411 231.914 8.78223C231.582 8.45035 231.416 8.05273 231.416 7.58935C231.416 7.12597 231.582 6.72835 231.914 6.39647C232.246 6.06459 232.644 5.89865 233.107 5.89865C233.57 5.89865 233.968 6.06459 234.3 6.39647C234.632 6.72835 234.798 7.12597 234.798 7.58935C234.798 7.89618 234.719 8.17796 234.563 8.4347C234.413 8.69143 234.209 8.89807 233.952 9.05462C233.702 9.2049 233.42 9.28005 233.107 9.28005ZM0 34.6676V32.6012H14.4273V34.6676H8.37834V51.8375H6.04893V34.6676H0ZM19.9385 43.1586V51.8375H17.7218V32.6012H19.9385V39.6645H20.1264C20.4645 38.9194 20.9717 38.3276 21.648 37.8893C22.3305 37.4447 23.2385 37.2224 24.3719 37.2224C25.355 37.2224 26.216 37.4196 26.9549 37.8141C27.6938 38.2024 28.2668 38.8004 28.6738 39.6082C29.0871 40.4097 29.2937 41.4304 29.2937 42.6702V51.8375H27.077V42.8205C27.077 41.6746 26.7796 40.7885 26.1847 40.1623C25.5961 39.5299 24.7789 39.2137 23.7332 39.2137C23.0068 39.2137 22.3556 39.3671 21.7795 39.6739C21.2097 39.9807 20.7588 40.4285 20.4269 41.0171C20.1013 41.6057 19.9385 42.3195 19.9385 43.1586ZM39.3979 52.1381C38.0077 52.1381 36.8086 51.8313 35.8004 51.2176C34.7985 50.5977 34.0252 49.7335 33.4804 48.6252C32.9419 47.5106 32.6726 46.2144 32.6726 44.7366C32.6726 43.2588 32.9419 41.9563 33.4804 40.8292C34.0252 39.6958 34.783 38.8129 35.7536 38.1805C36.7304 37.5417 37.8701 37.2224 39.1725 37.2224C39.924 37.2224 40.6659 37.3476 41.3985 37.5981C42.1312 37.8486 42.7981 38.2556 43.3993 38.8192C44.0004 39.3765 44.4793 40.1154 44.8363 41.0359C45.1932 41.9563 45.3717 43.0897 45.3717 44.436V45.3753H34.2506V43.4592H43.1175C43.1175 42.6451 42.9547 41.9188 42.6291 41.2801C42.3097 40.6414 41.8525 40.1373 41.2576 39.7678C40.669 39.3984 39.9741 39.2137 39.1725 39.2137C38.2896 39.2137 37.5256 39.4328 36.8806 39.8712C36.2419 40.3032 35.7503 40.8668 35.4059 41.5618C35.0615 42.2569 34.8894 43.0021 34.8894 43.7973V45.0747C34.8894 46.1643 35.0772 47.0879 35.4529 47.8456C35.8349 48.597 36.364 49.17 37.0403 49.5645C37.7166 49.9527 38.5024 50.1468 39.3979 50.1468C39.9802 50.1468 40.5062 50.0654 40.9758 49.9026C41.4517 49.7335 41.8619 49.4831 42.2063 49.1512C42.5507 48.8131 42.8168 48.3935 43.0047 47.8926L45.1462 48.4937C44.9208 49.2201 44.5421 49.8588 44.0098 50.4098C43.4775 50.9546 42.8201 51.3804 42.0373 51.6872C41.2546 51.9878 40.3747 52.1381 39.3979 52.1381ZM71.7372 32.6012V51.8375H69.483L59.0005 36.734H58.8127V51.8375H56.4833V32.6012H58.7375L69.2575 47.7423H69.4454V32.6012H71.7372ZM82.1467 52.1381C80.7566 52.1381 79.5575 51.8313 78.5493 51.2176C77.5474 50.5977 76.7741 49.7335 76.2293 48.6252C75.6908 47.5106 75.4215 46.2144 75.4215 44.7366C75.4215 43.2588 75.6908 41.9563 76.2293 40.8292C76.7741 39.6958 77.5317 38.8129 78.5023 38.1805C79.4791 37.5417 80.6189 37.2224 81.9213 37.2224C82.6727 37.2224 83.4148 37.3476 84.1474 37.5981C84.88 37.8486 85.5469 38.2556 86.1481 38.8192C86.7492 39.3765 87.2282 40.1154 87.5851 41.0359C87.9421 41.9563 88.1205 43.0897 88.1205 44.436V45.3753H76.9995V43.4592H85.8663C85.8663 42.6451 85.7035 41.9188 85.3778 41.2801C85.0585 40.6414 84.6014 40.1373 84.0065 39.7678C83.4179 39.3984 82.7228 39.2137 81.9213 39.2137C81.0384 39.2137 80.2745 39.4328 79.6295 39.8712C78.9908 40.3032 78.4992 40.8668 78.1548 41.5618C77.8104 42.2569 77.6382 43.0021 77.6382 43.7973V45.0747C77.6382 46.1643 77.8261 47.0879 78.2018 47.8456C78.5838 48.597 79.1129 49.17 79.7892 49.5645C80.4654 49.9527 81.2513 50.1468 82.1467 50.1468C82.7291 50.1468 83.2551 50.0654 83.7247 49.9026C84.2006 49.7335 84.6108 49.4831 84.9552 49.1512C85.2996 48.8131 85.5657 48.3935 85.7536 47.8926L87.8951 48.4937C87.6697 49.2201 87.2908 49.8588 86.7586 50.4098C86.2263 50.9546 85.5688 51.3804 84.7861 51.6872C84.0034 51.9878 83.1236 52.1381 82.1467 52.1381ZM92.7582 37.4103L96.2147 43.3089L99.6713 37.4103H102.226L97.5673 44.6239L102.226 51.8375H99.6713L96.2147 46.2394L92.7582 51.8375H90.2034L94.787 44.6239L90.2034 37.4103H92.7582ZM111.663 37.4103V39.2888H104.187V37.4103H111.663ZM106.366 33.9537H108.583V47.7047C108.583 48.3309 108.673 48.8005 108.855 49.1136C109.043 49.4205 109.281 49.6271 109.569 49.7335C109.863 49.8337 110.173 49.8838 110.499 49.8838C110.743 49.8838 110.943 49.8713 111.1 49.8463C111.256 49.815 111.382 49.7899 111.476 49.7711L111.926 51.7624C111.776 51.8187 111.566 51.8751 111.297 51.9315C111.028 51.9941 110.687 52.0254 110.273 52.0254C109.647 52.0254 109.033 51.8908 108.432 51.6215C107.837 51.3522 107.343 50.9421 106.948 50.391C106.56 49.84 106.366 49.1449 106.366 48.3058V33.9537ZM128.674 51.8375H122.737V32.6012H128.937C130.803 32.6012 132.399 32.9863 133.727 33.7565C135.054 34.5204 136.072 35.6194 136.78 37.0533C137.487 38.481 137.841 40.1905 137.841 42.1818C137.841 44.1856 137.484 45.9107 136.77 47.3572C136.056 48.7974 135.017 49.9057 133.652 50.6822C132.287 51.4524 130.627 51.8375 128.674 51.8375ZM125.067 49.7711H128.523C130.114 49.7711 131.432 49.4643 132.478 48.8506C133.523 48.237 134.303 47.3634 134.817 46.23C135.33 45.0967 135.587 43.7472 135.587 42.1818C135.587 40.6288 135.333 39.2919 134.826 38.1711C134.319 37.0439 133.561 36.1798 132.553 35.5787C131.545 34.9713 130.289 34.6676 128.786 34.6676H125.067V49.7711ZM147.497 52.1381C146.107 52.1381 144.907 51.8313 143.899 51.2176C142.897 50.5977 142.124 49.7335 141.579 48.6252C141.041 47.5106 140.772 46.2144 140.772 44.7366C140.772 43.2588 141.041 41.9563 141.579 40.8292C142.124 39.6958 142.882 38.8129 143.852 38.1805C144.829 37.5417 145.969 37.2224 147.271 37.2224C148.023 37.2224 148.765 37.3476 149.497 37.5981C150.23 37.8486 150.897 38.2556 151.498 38.8192C152.099 39.3765 152.578 40.1154 152.935 41.0359C153.292 41.9563 153.471 43.0897 153.471 44.436V45.3753H142.35V43.4592H151.216C151.216 42.6451 151.053 41.9188 150.728 41.2801C150.409 40.6414 149.951 40.1373 149.357 39.7678C148.768 39.3984 148.073 39.2137 147.271 39.2137C146.388 39.2137 145.624 39.4328 144.979 39.8712C144.341 40.3032 143.849 40.8668 143.505 41.5618C143.16 42.2569 142.988 43.0021 142.988 43.7973V45.0747C142.988 46.1643 143.176 47.0879 143.552 47.8456C143.934 48.597 144.463 49.17 145.139 49.5645C145.815 49.9527 146.601 50.1468 147.497 50.1468C148.079 50.1468 148.605 50.0654 149.075 49.9026C149.551 49.7335 149.961 49.4831 150.305 49.1512C150.65 48.8131 150.916 48.3935 151.104 47.8926L153.245 48.4937C153.02 49.2201 152.641 49.8588 152.109 50.4098C151.576 50.9546 150.919 51.3804 150.136 51.6872C149.353 51.9878 148.474 52.1381 147.497 52.1381ZM162.704 52.1381C161.351 52.1381 160.186 51.8187 159.21 51.18C158.233 50.5413 157.481 49.6615 156.955 48.5407C156.429 47.4198 156.166 46.1393 156.166 44.699C156.166 43.2338 156.436 41.9407 156.974 40.8198C157.519 39.6927 158.277 38.8129 159.247 38.1805C160.224 37.5417 161.364 37.2224 162.666 37.2224C163.68 37.2224 164.595 37.4103 165.409 37.786C166.223 38.1617 166.89 38.6877 167.409 39.3639C167.929 40.0402 168.252 40.8292 168.377 41.7309H166.16C165.991 41.0734 165.615 40.4911 165.033 39.9839C164.457 39.4704 163.68 39.2137 162.704 39.2137C161.839 39.2137 161.082 39.4391 160.431 39.8899C159.786 40.3345 159.282 40.9638 158.918 41.7779C158.561 42.5857 158.383 43.5343 158.383 44.6239C158.383 45.7385 158.558 46.7091 158.909 47.5356C159.266 48.3622 159.767 49.004 160.412 49.4612C161.063 49.9183 161.827 50.1468 162.704 50.1468C163.28 50.1468 163.803 50.0466 164.272 49.8463C164.742 49.6459 165.139 49.3578 165.465 48.9821C165.791 48.6064 166.022 48.1556 166.16 47.6296H168.377C168.252 48.4812 167.942 49.2483 167.447 49.9308C166.959 50.6071 166.31 51.1456 165.503 51.5463C164.701 51.9408 163.768 52.1381 162.704 52.1381ZM175.863 52.1757C174.949 52.1757 174.119 52.0035 173.374 51.6591C172.629 51.3084 172.037 50.8043 171.599 50.1468C171.16 49.4831 170.941 48.6816 170.941 47.7423C170.941 46.9157 171.104 46.2457 171.429 45.7322C171.755 45.2125 172.19 44.8055 172.735 44.5112C173.28 44.2169 173.881 43.9977 174.538 43.8537C175.202 43.7034 175.869 43.5844 176.539 43.4968C177.416 43.384 178.127 43.2995 178.671 43.2432C179.222 43.1805 179.623 43.0772 179.874 42.9332C180.13 42.7892 180.259 42.5387 180.259 42.1818V42.1066C180.259 41.1799 180.005 40.4598 179.498 39.9463C178.997 39.4328 178.236 39.1761 177.215 39.1761C176.157 39.1761 175.327 39.4078 174.726 39.8712C174.125 40.3345 173.703 40.8292 173.458 41.3552L171.354 40.6038C171.73 39.7271 172.231 39.0446 172.857 38.5562C173.49 38.0615 174.178 37.7171 174.924 37.523C175.675 37.3226 176.414 37.2224 177.14 37.2224C177.604 37.2224 178.136 37.2788 178.737 37.3915C179.344 37.4979 179.93 37.7202 180.493 38.0584C181.063 38.3965 181.536 38.9068 181.912 39.5894C182.288 40.2719 182.475 41.1861 182.475 42.3321V51.8375H180.259V49.8838H180.146C179.996 50.1969 179.745 50.5319 179.395 50.8889C179.044 51.2458 178.577 51.5495 177.995 51.8C177.413 52.0504 176.702 52.1757 175.863 52.1757ZM176.201 50.1844C177.078 50.1844 177.817 50.0122 178.418 49.6678C179.025 49.3234 179.482 48.8788 179.789 48.334C180.102 47.7892 180.259 47.2163 180.259 46.6152V44.5863C180.165 44.699 179.958 44.8023 179.639 44.8963C179.326 44.9839 178.962 45.0622 178.549 45.1311C178.142 45.1937 177.745 45.2501 177.356 45.3002C176.974 45.344 176.664 45.3816 176.426 45.4129C175.85 45.488 175.312 45.6101 174.811 45.7792C174.316 45.942 173.915 46.1893 173.609 46.5212C173.308 46.8468 173.158 47.2914 173.158 47.855C173.158 48.6252 173.443 49.2076 174.012 49.602C174.589 49.9903 175.318 50.1844 176.201 50.1844ZM191.969 52.1381C190.767 52.1381 189.705 51.8344 188.785 51.227C187.864 50.6133 187.144 49.7492 186.625 48.6346C186.105 47.5137 185.845 46.1893 185.845 44.6615C185.845 43.1461 186.105 41.8311 186.625 40.7165C187.144 39.6019 187.868 38.7409 188.794 38.1335C189.721 37.5261 190.792 37.2224 192.007 37.2224C192.946 37.2224 193.688 37.3789 194.233 37.692C194.784 37.9989 195.203 38.3495 195.491 38.744C195.786 39.1323 196.014 39.4516 196.177 39.7021H196.365V32.6012H198.582V51.8375H196.44V49.6208H196.177C196.014 49.8838 195.783 50.2157 195.482 50.6165C195.181 51.011 194.752 51.3648 194.195 51.6778C193.638 51.9847 192.896 52.1381 191.969 52.1381ZM192.27 50.1468C193.159 50.1468 193.91 49.9151 194.524 49.4518C195.138 48.9821 195.604 48.334 195.923 47.5075C196.243 46.6746 196.402 45.7134 196.402 44.6239C196.402 43.5469 196.246 42.6044 195.933 41.7967C195.62 40.9826 195.156 40.3502 194.543 39.8993C193.929 39.4422 193.171 39.2137 192.27 39.2137C191.33 39.2137 190.548 39.4547 189.921 39.9369C189.302 40.4128 188.835 41.0609 188.522 41.8812C188.215 42.6952 188.062 43.6095 188.062 44.6239C188.062 45.6508 188.218 46.5838 188.531 47.4229C188.851 48.2558 189.32 48.9195 189.94 49.4142C190.566 49.9026 191.343 50.1468 192.27 50.1468ZM208.998 52.1381C207.608 52.1381 206.409 51.8313 205.401 51.2176C204.399 50.5977 203.626 49.7335 203.081 48.6252C202.542 47.5106 202.273 46.2144 202.273 44.7366C202.273 43.2588 202.542 41.9563 203.081 40.8292C203.626 39.6958 204.383 38.8129 205.354 38.1805C206.331 37.5417 207.47 37.2224 208.773 37.2224C209.524 37.2224 210.266 37.3476 210.999 37.5981C211.731 37.8486 212.398 38.2556 212.999 38.8192C213.601 39.3765 214.08 40.1154 214.437 41.0359C214.793 41.9563 214.972 43.0897 214.972 44.436V45.3753H203.851V43.4592H212.718C212.718 42.6451 212.555 41.9188 212.229 41.2801C211.91 40.6414 211.453 40.1373 210.858 39.7678C210.269 39.3984 209.574 39.2137 208.773 39.2137C207.89 39.2137 207.126 39.4328 206.481 39.8712C205.842 40.3032 205.351 40.8668 205.006 41.5618C204.662 42.2569 204.49 43.0021 204.49 43.7973V45.0747C204.49 46.1643 204.677 47.0879 205.053 47.8456C205.435 48.597 205.964 49.17 206.641 49.5645C207.317 49.9527 208.103 50.1468 208.998 50.1468C209.581 50.1468 210.107 50.0654 210.576 49.9026C211.052 49.7335 211.462 49.4831 211.807 49.1512C212.151 48.8131 212.417 48.3935 212.605 47.8926L214.747 48.4937C214.521 49.2201 214.142 49.8588 213.61 50.4098C213.078 50.9546 212.42 51.3804 211.638 51.6872C210.855 51.9878 209.975 52.1381 208.998 52.1381ZM231.644 52.1381C230.342 52.1381 229.199 51.8281 228.216 51.2082C227.239 50.5883 226.475 49.721 225.924 48.6064C225.379 47.4918 225.107 46.1893 225.107 44.699C225.107 43.1962 225.379 41.8843 225.924 40.7635C226.475 39.6426 227.239 38.7722 228.216 38.1523C229.199 37.5324 230.342 37.2224 231.644 37.2224C232.947 37.2224 234.086 37.5324 235.063 38.1523C236.046 38.7722 236.81 39.6426 237.355 40.7635C237.906 41.8843 238.181 43.1962 238.181 44.699C238.181 46.1893 237.906 47.4918 237.355 48.6064C236.81 49.721 236.046 50.5883 235.063 51.2082C234.086 51.8281 232.947 52.1381 231.644 52.1381ZM231.644 50.1468C232.633 50.1468 233.448 49.8932 234.086 49.386C234.725 48.8788 235.198 48.2119 235.505 47.3854C235.811 46.5588 235.965 45.6634 235.965 44.699C235.965 43.7347 235.811 42.8361 235.505 42.0033C235.198 41.1705 234.725 40.4973 234.086 39.9839C233.448 39.4704 232.633 39.2137 231.644 39.2137C230.655 39.2137 229.841 39.4704 229.202 39.9839C228.563 40.4973 228.091 41.1705 227.784 42.0033C227.477 42.8361 227.323 43.7347 227.323 44.699C227.323 45.6634 227.477 46.5588 227.784 47.3854C228.091 48.2119 228.563 48.8788 229.202 49.386C229.841 49.8932 230.655 50.1468 231.644 50.1468ZM247.99 37.4103V39.2888H240.213V37.4103H247.99ZM242.542 51.8375V35.419C242.542 34.5924 242.736 33.9036 243.124 33.3526C243.513 32.8015 244.017 32.3883 244.637 32.1127C245.257 31.8372 245.911 31.6995 246.6 31.6995C247.144 31.6995 247.589 31.7433 247.933 31.831C248.278 31.9186 248.535 32 248.704 32.0752L248.065 33.9913C247.952 33.9537 247.796 33.9068 247.595 33.8504C247.401 33.794 247.144 33.7659 246.825 33.7659C246.093 33.7659 245.563 33.9506 245.238 34.32C244.918 34.6895 244.759 35.2311 244.759 35.945V51.8375H242.542ZM0 66.6676V64.6012H14.4273V66.6676H8.37834V83.8375H6.04893V66.6676H0ZM20.0043 84.1757C19.09 84.1757 18.2603 84.0035 17.5152 83.6591C16.77 83.3084 16.1783 82.8043 15.74 82.1468C15.3016 81.4831 15.0825 80.6816 15.0825 79.7423C15.0825 78.9157 15.2453 78.2457 15.5709 77.7322C15.8965 77.2125 16.3317 76.8055 16.8765 76.5112C17.4213 76.2169 18.0224 75.9977 18.6799 75.8537C19.3436 75.7034 20.0105 75.5844 20.6805 75.4968C21.5572 75.384 22.2679 75.2995 22.8127 75.2432C23.3637 75.1805 23.7645 75.0772 24.015 74.9332C24.2717 74.7892 24.4001 74.5387 24.4001 74.1818V74.1066C24.4001 73.1799 24.1465 72.4598 23.6393 71.9463C23.1383 71.4328 22.3775 71.1761 21.3568 71.1761C20.2986 71.1761 19.4689 71.4078 18.8677 71.8712C18.2666 72.3345 17.8439 72.8292 17.5997 73.3552L15.4957 72.6038C15.8715 71.7271 16.3724 71.0446 16.9986 70.5562C17.631 70.0615 18.3198 69.7171 19.065 69.523C19.8164 69.3226 20.5553 69.2224 21.2817 69.2224C21.7451 69.2224 22.2773 69.2788 22.8785 69.3915C23.4859 69.4979 24.0713 69.7202 24.6349 70.0584C25.2047 70.3965 25.6775 70.9068 26.0532 71.5894C26.4289 72.2719 26.6168 73.1861 26.6168 74.3321V83.8375H24.4001V81.8838H24.2874C24.1371 82.1969 23.8866 82.5319 23.5359 82.8889C23.1853 83.2458 22.7188 83.5495 22.1364 83.8C21.5541 84.0504 20.8434 84.1757 20.0043 84.1757ZM20.3424 82.1844C21.2191 82.1844 21.958 82.0122 22.5591 81.6678C23.1665 81.3234 23.6236 80.8788 23.9304 80.334C24.2435 79.7892 24.4001 79.2163 24.4001 78.6152V76.5863C24.3062 76.699 24.0995 76.8023 23.7802 76.8963C23.4671 76.9839 23.1039 77.0622 22.6906 77.1311C22.2836 77.1937 21.886 77.2501 21.4977 77.3002C21.1157 77.344 20.8058 77.3816 20.5678 77.4129C19.9917 77.488 19.4532 77.6101 18.9523 77.7792C18.4576 77.942 18.0568 78.1893 17.75 78.5212C17.4494 78.8468 17.2992 79.2914 17.2992 79.855C17.2992 80.6252 17.5841 81.2076 18.1539 81.602C18.73 81.9903 19.4595 82.1844 20.3424 82.1844ZM30.6627 83.8375V69.4103H32.8793V83.8375H30.6627ZM31.7898 67.0057C31.3578 67.0057 30.9852 66.8586 30.6721 66.5642C30.3653 66.2699 30.2118 65.9161 30.2118 65.5029C30.2118 65.0896 30.3653 64.7358 30.6721 64.4415C30.9852 64.1472 31.3578 64 31.7898 64C32.2219 64 32.5913 64.1472 32.8982 64.4415C33.2113 64.7358 33.3677 65.0896 33.3677 65.5029C33.3677 65.9161 33.2113 66.2699 32.8982 66.5642C32.5913 66.8586 32.2219 67.0057 31.7898 67.0057ZM40.208 83.8375L35.8122 69.4103H38.1417L41.26 80.4561H41.4104L44.4911 69.4103H46.8582L49.9013 80.4186H50.0517L53.17 69.4103H55.4995L51.1036 83.8375H48.9245L45.7686 72.7541H45.5431L42.3871 83.8375H40.208ZM62.6755 84.1757C61.7612 84.1757 60.9316 84.0035 60.1865 83.6591C59.4413 83.3084 58.8495 82.8043 58.4111 82.1468C57.9728 81.4831 57.7537 80.6816 57.7537 79.7423C57.7537 78.9157 57.9165 78.2457 58.2421 77.7322C58.5677 77.2125 59.0029 76.8055 59.5477 76.5112C60.0925 76.2169 60.6937 75.9977 61.3512 75.8537C62.0149 75.7034 62.6817 75.5844 63.3517 75.4968C64.2284 75.384 64.9392 75.2995 65.484 75.2432C66.035 75.1805 66.4358 75.0772 66.6863 74.9332C66.943 74.7892 67.0714 74.5387 67.0714 74.1818V74.1066C67.0714 73.1799 66.8178 72.4598 66.3106 71.9463C65.8096 71.4328 65.0488 71.1761 64.0281 71.1761C62.9699 71.1761 62.1401 71.4078 61.5389 71.8712C60.9378 72.3345 60.5152 72.8292 60.271 73.3552L58.167 72.6038C58.5427 71.7271 59.0436 71.0446 59.6698 70.5562C60.3022 70.0615 60.991 69.7171 61.7362 69.523C62.4876 69.3226 63.2265 69.2224 63.9529 69.2224C64.4163 69.2224 64.9486 69.2788 65.5497 69.3915C66.1571 69.4979 66.7426 69.7202 67.3062 70.0584C67.876 70.3965 68.3488 70.9068 68.7245 71.5894C69.1002 72.2719 69.2881 73.1861 69.2881 74.3321V83.8375H67.0714V81.8838H66.9587C66.8084 82.1969 66.5579 82.5319 66.2072 82.8889C65.8566 83.2458 65.3901 83.5495 64.8077 83.8C64.2254 84.0504 63.5145 84.1757 62.6755 84.1757ZM63.0136 82.1844C63.8903 82.1844 64.6293 82.0122 65.2304 81.6678C65.8378 81.3234 66.2949 80.8788 66.6017 80.334C66.9148 79.7892 67.0714 79.2163 67.0714 78.6152V76.5863C66.9774 76.699 66.7708 76.8023 66.4514 76.8963C66.1384 76.9839 65.7752 77.0622 65.3619 77.1311C64.9549 77.1937 64.5572 77.2501 64.169 77.3002C63.787 77.344 63.477 77.3816 63.239 77.4129C62.6629 77.488 62.1245 77.6101 61.6236 77.7792C61.1289 77.942 60.728 78.1893 60.4212 78.5212C60.1206 78.8468 59.9703 79.2914 59.9703 79.855C59.9703 80.6252 60.2553 81.2076 60.8251 81.602C61.4012 81.9903 62.1307 82.1844 63.0136 82.1844ZM75.5507 75.1586V83.8375H73.334V69.4103H75.4755V71.6645H75.6634C76.0015 70.9319 76.515 70.3433 77.2038 69.8987C77.8926 69.4478 78.7818 69.2224 79.8713 69.2224C80.8482 69.2224 81.7029 69.4228 82.4356 69.8235C83.1682 70.218 83.738 70.8192 84.1451 71.6269C84.5521 72.4285 84.7556 73.4429 84.7556 74.6702V83.8375H82.5389V74.8205C82.5389 73.6871 82.2446 72.8042 81.656 72.1717C81.0674 71.533 80.2596 71.2137 79.2326 71.2137C78.5251 71.2137 77.8926 71.3671 77.3353 71.6739C76.7843 71.9807 76.3491 72.4285 76.0297 73.0171C75.7104 73.6057 75.5507 74.3195 75.5507 75.1586ZM90.7599 64.6012V66.2919C90.7599 66.8053 90.666 67.3532 90.4781 67.9356C90.2965 68.5117 90.0272 69.0721 89.6702 69.6169C89.3196 70.1554 88.8939 70.625 88.3929 71.0258L87.1907 70.049C87.5852 69.4854 87.9264 68.8999 88.2145 68.2925C88.5088 67.6789 88.6559 67.0245 88.6559 66.3294V64.6012H90.7599ZM101.867 72.6414L99.8756 73.2049C99.7503 72.873 99.5656 72.5506 99.3214 72.2375C99.0835 71.9181 98.7578 71.6551 98.3446 71.4485C97.9313 71.2418 97.4021 71.1385 96.7572 71.1385C95.8743 71.1385 95.1385 71.342 94.5499 71.749C93.9675 72.1498 93.6764 72.6601 93.6764 73.2801C93.6764 73.8311 93.8767 74.2663 94.2775 74.5857C94.6782 74.905 95.3044 75.1711 96.156 75.384L98.2976 75.91C99.5875 76.2231 100.549 76.7022 101.181 77.3471C101.814 77.9858 102.13 78.8093 102.13 79.8174C102.13 80.644 101.892 81.3829 101.416 82.0341C100.946 82.6853 100.289 83.1988 99.4435 83.5745C98.5982 83.9502 97.6151 84.1381 96.4942 84.1381C95.0226 84.1381 93.8047 83.8187 92.8404 83.18C91.8761 82.5413 91.2655 81.6083 91.0088 80.381L93.1128 79.855C93.3132 80.6315 93.692 81.2138 94.2493 81.602C94.8129 81.9903 95.5486 82.1844 96.4566 82.1844C97.4898 82.1844 98.31 81.9652 98.9174 81.5269C99.5311 81.0823 99.838 80.5501 99.838 79.9301C99.838 79.4292 99.6627 79.0096 99.312 78.6715C98.9613 78.3271 98.4228 78.0704 97.6965 77.9013L95.2919 77.3377C93.9707 77.0246 93 76.5394 92.3801 75.8819C91.7664 75.2181 91.4597 74.3884 91.4597 73.3928C91.4597 72.5787 91.6882 71.8586 92.1453 71.2324C92.6087 70.6063 93.238 70.1147 94.0333 69.7578C94.8348 69.4009 95.7428 69.2224 96.7572 69.2224C98.1849 69.2224 99.3057 69.5355 100.12 70.1617C100.94 70.7879 101.522 71.6144 101.867 72.6414ZM113.206 83.8375V64.6012H124.74V66.6676H115.536V73.1674H123.876V75.2338H115.536V83.8375H113.206ZM132.675 84.1757C131.761 84.1757 130.931 84.0035 130.186 83.6591C129.441 83.3084 128.849 82.8043 128.411 82.1468C127.972 81.4831 127.753 80.6816 127.753 79.7423C127.753 78.9157 127.916 78.2457 128.242 77.7322C128.567 77.2125 129.002 76.8055 129.547 76.5112C130.092 76.2169 130.693 75.9977 131.351 75.8537C132.014 75.7034 132.681 75.5844 133.351 75.4968C134.228 75.384 134.939 75.2995 135.483 75.2432C136.034 75.1805 136.435 75.0772 136.686 74.9332C136.942 74.7892 137.071 74.5387 137.071 74.1818V74.1066C137.071 73.1799 136.817 72.4598 136.31 71.9463C135.809 71.4328 135.048 71.1761 134.028 71.1761C132.969 71.1761 132.14 71.4078 131.538 71.8712C130.937 72.3345 130.515 72.8292 130.27 73.3552L128.166 72.6038C128.542 71.7271 129.043 71.0446 129.669 70.5562C130.302 70.0615 130.991 69.7171 131.736 69.523C132.487 69.3226 133.226 69.2224 133.952 69.2224C134.416 69.2224 134.948 69.2788 135.549 69.3915C136.157 69.4979 136.742 69.7202 137.306 70.0584C137.875 70.3965 138.348 70.9068 138.724 71.5894C139.1 72.2719 139.287 73.1861 139.287 74.3321V83.8375H137.071V81.8838H136.958C136.808 82.1969 136.557 82.5319 136.207 82.8889C135.856 83.2458 135.389 83.5495 134.807 83.8C134.225 84.0504 133.514 84.1757 132.675 84.1757ZM133.013 82.1844C133.89 82.1844 134.629 82.0122 135.23 81.6678C135.837 81.3234 136.294 80.8788 136.601 80.334C136.914 79.7892 137.071 79.2163 137.071 78.6152V76.5863C136.977 76.699 136.77 76.8023 136.451 76.8963C136.138 76.9839 135.775 77.0622 135.361 77.1311C134.954 77.1937 134.557 77.2501 134.168 77.3002C133.786 77.344 133.476 77.3816 133.239 77.4129C132.662 77.488 132.124 77.6101 131.623 77.7792C131.128 77.942 130.728 78.1893 130.421 78.5212C130.12 78.8468 129.97 79.2914 129.97 79.855C129.97 80.6252 130.255 81.2076 130.825 81.602C131.401 81.9903 132.13 82.1844 133.013 82.1844ZM153.553 72.6414L151.561 73.2049C151.436 72.873 151.251 72.5506 151.007 72.2375C150.769 71.9181 150.444 71.6551 150.03 71.4485C149.617 71.2418 149.088 71.1385 148.443 71.1385C147.56 71.1385 146.824 71.342 146.236 71.749C145.653 72.1498 145.362 72.6601 145.362 73.2801C145.362 73.8311 145.563 74.2663 145.963 74.5857C146.364 74.905 146.99 75.1711 147.842 75.384L149.983 75.91C151.273 76.2231 152.235 76.7022 152.867 77.3471C153.499 77.9858 153.816 78.8093 153.816 79.8174C153.816 80.644 153.578 81.3829 153.102 82.0341C152.632 82.6853 151.975 83.1988 151.129 83.5745C150.284 83.9502 149.301 84.1381 148.18 84.1381C146.709 84.1381 145.491 83.8187 144.526 83.18C143.562 82.5413 142.951 81.6083 142.695 80.381L144.799 79.855C144.999 80.6315 145.378 81.2138 145.935 81.602C146.499 81.9903 147.235 82.1844 148.142 82.1844C149.176 82.1844 149.996 81.9652 150.603 81.5269C151.217 81.0823 151.524 80.5501 151.524 79.9301C151.524 79.4292 151.349 79.0096 150.998 78.6715C150.647 78.3271 150.109 78.0704 149.382 77.9013L146.978 77.3377C145.657 77.0246 144.686 76.5394 144.066 75.8819C143.452 75.2181 143.146 74.3884 143.146 73.3928C143.146 72.5787 143.374 71.8586 143.831 71.2324C144.295 70.6063 144.924 70.1147 145.719 69.7578C146.521 69.4009 147.429 69.2224 148.443 69.2224C149.871 69.2224 150.992 69.5355 151.806 70.1617C152.626 70.7879 153.208 71.6144 153.553 72.6414ZM163.427 69.4103V71.2888H155.95V69.4103H163.427ZM158.129 65.9537H160.346V79.7047C160.346 80.3309 160.437 80.8005 160.618 81.1136C160.806 81.4205 161.044 81.6271 161.332 81.7335C161.627 81.8337 161.937 81.8838 162.262 81.8838C162.506 81.8838 162.707 81.8713 162.863 81.8463C163.02 81.815 163.145 81.7899 163.239 81.7711L163.69 83.7624C163.54 83.8187 163.33 83.8751 163.061 83.9315C162.791 83.9941 162.45 84.0254 162.037 84.0254C161.411 84.0254 160.797 83.8908 160.196 83.6215C159.601 83.3522 159.106 82.9421 158.712 82.391C158.323 81.84 158.129 81.1449 158.129 80.3058V65.9537ZM172.655 84.1381C171.265 84.1381 170.066 83.8313 169.058 83.2176C168.056 82.5977 167.283 81.7335 166.738 80.6252C166.199 79.5106 165.93 78.2144 165.93 76.7366C165.93 75.2588 166.199 73.9563 166.738 72.8292C167.283 71.6958 168.04 70.8129 169.011 70.1805C169.988 69.5417 171.127 69.2224 172.43 69.2224C173.181 69.2224 173.923 69.3476 174.656 69.5981C175.389 69.8486 176.055 70.2556 176.657 70.8192C177.258 71.3765 177.737 72.1154 178.094 73.0359C178.451 73.9563 178.629 75.0897 178.629 76.436V77.3753H167.508V75.4592H176.375C176.375 74.6451 176.212 73.9188 175.886 73.2801C175.567 72.6414 175.11 72.1373 174.515 71.7678C173.926 71.3984 173.231 71.2137 172.43 71.2137C171.547 71.2137 170.783 71.4328 170.138 71.8712C169.499 72.3032 169.008 72.8668 168.663 73.5618C168.319 74.2569 168.147 75.0021 168.147 75.7973V77.0747C168.147 78.1643 168.335 79.0879 168.71 79.8456C169.092 80.597 169.621 81.17 170.298 81.5645C170.974 81.9527 171.76 82.1468 172.655 82.1468C173.238 82.1468 173.764 82.0654 174.233 81.9026C174.709 81.7335 175.119 81.4831 175.464 81.1512C175.808 80.8131 176.074 80.3935 176.262 79.8926L178.404 80.4937C178.178 81.2201 177.799 81.8588 177.267 82.4098C176.735 82.9546 176.077 83.3804 175.295 83.6872C174.512 83.9878 173.632 84.1381 172.655 84.1381ZM184.218 75.1586V83.8375H182.001V69.4103H184.143V71.6645H184.33C184.669 70.9319 185.182 70.3433 185.871 69.8987C186.56 69.4478 187.449 69.2224 188.538 69.2224C189.515 69.2224 190.37 69.4228 191.103 69.8235C191.835 70.218 192.405 70.8192 192.812 71.6269C193.219 72.4285 193.423 73.4429 193.423 74.6702V83.8375H191.206V74.8205C191.206 73.6871 190.912 72.8042 190.323 72.1717C189.734 71.533 188.927 71.2137 187.9 71.2137C187.192 71.2137 186.56 71.3671 186.002 71.6739C185.451 71.9807 185.016 72.4285 184.697 73.0171C184.377 73.6057 184.218 74.3195 184.218 75.1586ZM203.522 84.1381C202.132 84.1381 200.933 83.8313 199.925 83.2176C198.923 82.5977 198.15 81.7335 197.605 80.6252C197.066 79.5106 196.797 78.2144 196.797 76.7366C196.797 75.2588 197.066 73.9563 197.605 72.8292C198.15 71.6958 198.907 70.8129 199.878 70.1805C200.855 69.5417 201.994 69.2224 203.297 69.2224C204.048 69.2224 204.79 69.3476 205.523 69.5981C206.255 69.8486 206.922 70.2556 207.523 70.8192C208.125 71.3765 208.604 72.1154 208.961 73.0359C209.318 73.9563 209.496 75.0897 209.496 76.436V77.3753H198.375V75.4592H207.242C207.242 74.6451 207.079 73.9188 206.753 73.2801C206.434 72.6414 205.977 72.1373 205.382 71.7678C204.793 71.3984 204.098 71.2137 203.297 71.2137C202.414 71.2137 201.65 71.4328 201.005 71.8712C200.366 72.3032 199.875 72.8668 199.53 73.5618C199.186 74.2569 199.014 75.0021 199.014 75.7973V77.0747C199.014 78.1643 199.202 79.0879 199.577 79.8456C199.959 80.597 200.488 81.17 201.165 81.5645C201.841 81.9527 202.627 82.1468 203.522 82.1468C204.105 82.1468 204.631 82.0654 205.1 81.9026C205.576 81.7335 205.986 81.4831 206.331 81.1512C206.675 80.8131 206.941 80.3935 207.129 79.8926L209.271 80.4937C209.045 81.2201 208.666 81.8588 208.134 82.4098C207.602 82.9546 206.944 83.3804 206.162 83.6872C205.379 83.9878 204.499 84.1381 203.522 84.1381ZM212.868 83.8375V69.4103H215.01V71.5894H215.16C215.423 70.8755 215.899 70.2963 216.588 69.8517C217.276 69.4071 218.053 69.1848 218.917 69.1848C219.08 69.1848 219.283 69.188 219.527 69.1942C219.772 69.2005 219.956 69.2099 220.082 69.2224V71.4767C220.006 71.4579 219.834 71.4297 219.565 71.3921C219.302 71.3483 219.023 71.3264 218.729 71.3264C218.028 71.3264 217.402 71.4735 216.851 71.7678C216.306 72.0559 215.874 72.4566 215.554 72.9701C215.241 73.4773 215.085 74.0565 215.085 74.7078V83.8375H212.868ZM232.778 64.6012V83.8375H230.449V64.6012H232.778ZM239.365 75.1586V83.8375H237.148V69.4103H239.29V71.6645H239.478C239.816 70.9319 240.329 70.3433 241.018 69.8987C241.707 69.4478 242.596 69.2224 243.686 69.2224C244.662 69.2224 245.517 69.4228 246.25 69.8235C246.982 70.218 247.552 70.8192 247.959 71.6269C248.366 72.4285 248.57 73.4429 248.57 74.6702V83.8375H246.353V74.8205C246.353 73.6871 246.059 72.8042 245.47 72.1717C244.882 71.533 244.074 71.2137 243.047 71.2137C242.339 71.2137 241.707 71.3671 241.15 71.6739C240.599 71.9807 240.163 72.4285 239.844 73.0171C239.525 73.6057 239.365 74.3195 239.365 75.1586ZM258.068 84.1381C256.866 84.1381 255.805 83.8344 254.884 83.227C253.964 82.6133 253.244 81.7492 252.724 80.6346C252.204 79.5137 251.944 78.1893 251.944 76.6615C251.944 75.1461 252.204 73.8311 252.724 72.7165C253.244 71.6019 253.967 70.7409 254.894 70.1335C255.82 69.5261 256.891 69.2224 258.106 69.2224C259.045 69.2224 259.787 69.3789 260.332 69.692C260.883 69.9989 261.303 70.3495 261.591 70.744C261.885 71.1323 262.113 71.4516 262.276 71.7021H262.464V64.6012H264.681V83.8375H262.539V81.6208H262.276C262.113 81.8838 261.882 82.2157 261.581 82.6165C261.281 83.011 260.852 83.3648 260.294 83.6778C259.737 83.9847 258.995 84.1381 258.068 84.1381ZM258.369 82.1468C259.258 82.1468 260.009 81.9151 260.623 81.4518C261.237 80.9821 261.703 80.334 262.023 79.5075C262.342 78.6746 262.502 77.7134 262.502 76.6239C262.502 75.5469 262.345 74.6044 262.032 73.7967C261.719 72.9826 261.256 72.3502 260.642 71.8993C260.028 71.4422 259.271 71.2137 258.369 71.2137C257.43 71.2137 256.647 71.4547 256.021 71.9369C255.401 72.4128 254.934 73.0609 254.621 73.8812C254.314 74.6952 254.161 75.6095 254.161 76.6239C254.161 77.6508 254.317 78.5838 254.631 79.4229C254.95 80.2558 255.42 80.9195 256.039 81.4142C256.666 81.9026 257.442 82.1468 258.369 82.1468ZM278.141 77.9389V69.4103H280.357V83.8375H278.141V81.3954H277.99C277.652 82.128 277.126 82.7511 276.412 83.2646C275.698 83.7718 274.797 84.0254 273.707 84.0254C272.805 84.0254 272.004 83.8281 271.303 83.4336C270.601 83.0329 270.05 82.4317 269.65 81.6302C269.249 80.8224 269.048 79.8049 269.048 78.5776V69.4103H271.265V78.4273C271.265 79.4793 271.559 80.3184 272.148 80.9446C272.743 81.5707 273.501 81.8838 274.421 81.8838C274.972 81.8838 275.533 81.7429 276.102 81.4612C276.678 81.1794 277.161 80.7473 277.549 80.165C277.943 79.5826 278.141 78.8406 278.141 77.9389ZM294.637 72.6414L292.645 73.2049C292.52 72.873 292.335 72.5506 292.091 72.2375C291.853 71.9181 291.528 71.6551 291.114 71.4485C290.701 71.2418 290.172 71.1385 289.527 71.1385C288.644 71.1385 287.908 71.342 287.32 71.749C286.737 72.1498 286.446 72.6601 286.446 73.2801C286.446 73.8311 286.647 74.2663 287.047 74.5857C287.448 74.905 288.074 75.1711 288.926 75.384L291.067 75.91C292.357 76.2231 293.318 76.7022 293.951 77.3471C294.583 77.9858 294.9 78.8093 294.9 79.8174C294.9 80.644 294.662 81.3829 294.186 82.0341C293.716 82.6853 293.059 83.1988 292.213 83.5745C291.368 83.9502 290.385 84.1381 289.264 84.1381C287.792 84.1381 286.574 83.8187 285.61 83.18C284.646 82.5413 284.035 81.6083 283.779 80.381L285.883 79.855C286.083 80.6315 286.462 81.2138 287.019 81.602C287.583 81.9903 288.318 82.1844 289.226 82.1844C290.26 82.1844 291.08 81.9652 291.687 81.5269C292.301 81.0823 292.608 80.5501 292.608 79.9301C292.608 79.4292 292.432 79.0096 292.082 78.6715C291.731 78.3271 291.193 78.0704 290.466 77.9013L288.062 77.3377C286.74 77.0246 285.77 76.5394 285.15 75.8819C284.536 75.2181 284.229 74.3884 284.229 73.3928C284.229 72.5787 284.458 71.8586 284.915 71.2324C285.378 70.6063 286.008 70.1147 286.803 69.7578C287.605 69.4009 288.513 69.2224 289.527 69.2224C290.955 69.2224 292.076 69.5355 292.89 70.1617C293.71 70.7879 294.292 71.6144 294.637 72.6414ZM304.511 69.4103V71.2888H297.034V69.4103H304.511ZM299.213 65.9537H301.43V79.7047C301.43 80.3309 301.521 80.8005 301.702 81.1136C301.89 81.4205 302.128 81.6271 302.416 81.7335C302.71 81.8337 303.02 81.8838 303.346 81.8838C303.59 81.8838 303.791 81.8713 303.947 81.8463C304.104 81.815 304.229 81.7899 304.323 81.7711L304.774 83.7624C304.623 83.8187 304.414 83.8751 304.144 83.9315C303.875 83.9941 303.534 84.0254 303.121 84.0254C302.494 84.0254 301.881 83.8908 301.28 83.6215C300.685 83.3522 300.19 82.9421 299.796 82.391C299.407 81.84 299.213 81.1449 299.213 80.3058V65.9537ZM307.845 83.8375V69.4103H309.987V71.5894H310.137C310.4 70.8755 310.876 70.2963 311.565 69.8517C312.254 69.4071 313.03 69.1848 313.894 69.1848C314.057 69.1848 314.26 69.188 314.505 69.1942C314.749 69.2005 314.934 69.2099 315.059 69.2224V71.4767C314.984 71.4579 314.811 71.4297 314.542 71.3921C314.279 71.3483 314.001 71.3264 313.706 71.3264C313.005 71.3264 312.379 71.4735 311.828 71.7678C311.283 72.0559 310.851 72.4566 310.532 72.9701C310.218 73.4773 310.062 74.0565 310.062 74.7078V83.8375H307.845ZM319.553 89.2478C319.178 89.2478 318.843 89.2164 318.548 89.1538C318.254 89.0975 318.05 89.0411 317.938 88.9848L318.501 87.0311C319.04 87.1688 319.516 87.2189 319.929 87.1813C320.342 87.1438 320.709 86.9591 321.028 86.6272C321.354 86.3016 321.651 85.7724 321.92 85.0398L322.334 83.9127L316.998 69.4103H319.403L323.385 80.907H323.536L327.518 69.4103H329.923L323.799 85.9415C323.523 86.6867 323.182 87.3035 322.775 87.7919C322.368 88.2866 321.895 88.6529 321.357 88.8908C320.824 89.1288 320.223 89.2478 319.553 89.2478Z" fill="url(#paint0_linear_267_274)"/>
</g>
<defs>
<linearGradient id="paint0_linear_267_274" x1="331.723" y1="41.8373" x2="-1.27742" y2="41.8373" gradientUnits="userSpaceOnUse">
<stop stop-color="#A36F37"/>
<stop offset="0.4375" stop-color="#E7D380"/>
<stop offset="0.663462" stop-color="#F6EBAB"/>
<stop offset="1" stop-color="#A36F37"/>
</linearGradient>
<clipPath id="clip0_267_274">
<rect width="330" height="90" fill="white"/>
</clipPath>
</defs>
</svg>
