<?xml version="1.0" encoding="UTF-8"?>
<svg xmlns="http://www.w3.org/2000/svg" xmlns:xlink="http://www.w3.org/1999/xlink" version="1.1" viewBox="0 0 319 65.8">
  <!-- Generator: Adobe Illustrator 30.5.1, SVG Export Plug-In . SVG Version: 2.1.4 Build 3)  -->
  <defs>
    <style>
      .st0 {
        mix-blend-mode: multiply;
        opacity: .6;
      }

      .st1 {
        isolation: isolate;
      }

      .st2 {
        fill: #fff;
      }
    </style>
  </defs>
  <g class="st1">
    <g id="_圖層_1" data-name="圖層_1">
      <g>
        <image class="st0" width="3324" height="686" transform="scale(0)" xlink:href="hero-title-m-2-1.png"/>
        <path class="st2" d="M17.2,27.5h-2.1l3.9-9.9c.4-1,1.2-1.4,2.3-1.4s1.9.4,2.3,1.4l3.7,9.9h-2.2l-3.4-8.9c0-.3-.3-.4-.5-.4s-.4.1-.6.4l-3.5,8.9Z"/>
        <path class="st2" d="M36.1,27.5h-1.9v-8.9c0-1.4.8-2.4,2.5-2.4s2.2.8,2.7,2.1l3.2,7.1c.1.3.3.5.7.5s.7-.2.7-.6v-8.8h2v8.9c0,1.5-.8,2.4-2.5,2.4s-2.3-.8-2.7-2.1l-3.2-7.1c-.1-.3-.3-.5-.7-.5s-.7.2-.7.6v8.8Z"/>
        <path class="st2" d="M54.5,18.8c2.1,0,2.9,1,2.9,2.7s-.8,2.5-2.9,2.5h-4.1v.6c0,.7.4,1.2,1.3,1.2h5.3v1.7h-5.3c-2.2,0-3-1.2-3-2.9v-3c0-1.6.9-2.9,3-2.9h2.8ZM50.4,22.6h4.1c.9,0,1.3-.4,1.3-1s-.4-1.1-1.2-1.1h-2.8c-1,0-1.3.5-1.3,1.2v.9Z"/>
        <path class="st2" d="M60.8,18.8l.8,6.8c0,.4.2.6.6.6s.6-.2.6-.5l1.2-5.3c.3-1.2,1-1.8,2.4-1.8s2.1.6,2.3,1.8l1.2,5.3c0,.3.3.5.7.5s.5-.2.6-.6l.9-6.8h1.9l-1,6.9c-.2,1.2-.9,2-2.4,2s-2.1-.6-2.3-1.8l-1.2-5.3c0-.3-.3-.4-.6-.4s-.6.1-.6.4l-1.2,5.3c-.3,1.2-1,1.8-2.4,1.8s-2.2-.8-2.4-2l-.9-6.9h1.9Z"/>
        <path class="st2" d="M89.9,16.4v1.9h-5.6c-1.2,0-1.7.5-1.7,1.4s.6,1.3,1.7,1.3h5.5v1.8h-5.5c-1.1,0-1.7.4-1.7,1.3s.5,1.4,1.7,1.4h5.6v1.9h-5.6c-2.6,0-3.7-1.3-3.7-3s.6-2.1,1.6-2.5c-1-.4-1.6-1.3-1.6-2.5,0-1.8,1.1-3,3.7-3h5.6Z"/>
        <path class="st2" d="M98.6,18.8v1.7h-3.1c-.8,0-1.1.4-1.1,1.1v5.9h-1.7v-6.1c0-1.7.6-2.5,2.4-2.5h3.6Z"/>
        <path class="st2" d="M106.2,18.8c2.2,0,3,1.2,3,2.9v4.1c0,1.2-.3,1.7-1.8,1.7h-4.1c-2.1,0-2.9-1-2.9-2.6s.8-2.5,2.9-2.5h4.1v-.7c0-.7-.4-1.2-1.3-1.2h-5.2v-1.7h5.2ZM107.5,25.4v-1.6h-4.1c-.9,0-1.2.4-1.2,1s.3,1.1,1.2,1.1h3.7c.3,0,.5-.1.5-.4Z"/>
        <path class="st2" d="M122,18.8c2.3,0,3.8,1.4,3.8,4.3s-1.5,4.3-3.8,4.3h-1.8c-2.3,0-3.8-1.4-3.8-4.3s1.4-4.3,3.8-4.3h1.8ZM120.4,20.5c-1.5,0-2.2.8-2.2,2.7s.7,2.6,2.2,2.6h1.5c1.5,0,2.2-.8,2.2-2.6s-.7-2.7-2.2-2.7h-1.5Z"/>
        <path class="st2" d="M128.6,18.8v-.8c0-2.3.8-3,2.6-3h1.6v1.6h-1.2c-.8,0-1.2.3-1.2,1.3v.9h2.4v1.7h-2.4v7h-1.8v-7h-1.2v-1.7h1.2Z"/>
        <path class="st2" d="M140.8,27.5h-2.1l3.9-9.9c.4-1,1.2-1.4,2.3-1.4s1.9.4,2.3,1.4l3.7,9.9h-2.2l-3.4-8.9c0-.3-.3-.4-.5-.4s-.4.1-.6.4l-3.5,8.9Z"/>
        <path class="st2" d="M154.9,16.4v11.1h-1.9v-11.1h1.9Z"/>
        <path class="st2" d="M164.7,16.4v4.5h5.7v-4.5h2v11.1h-2v-4.6h-5.7v4.6h-1.9v-11.1h1.9Z"/>
        <path class="st2" d="M180.9,18.8c2.1,0,2.9,1,2.9,2.7s-.8,2.5-2.9,2.5h-4.1v.6c0,.7.4,1.2,1.3,1.2h5.3v1.7h-5.3c-2.2,0-3-1.2-3-2.9v-3c0-1.6.9-2.9,3-2.9h2.8ZM176.8,22.6h4.1c.9,0,1.3-.4,1.3-1s-.4-1.1-1.2-1.1h-2.8c-1,0-1.3.5-1.3,1.2v.9Z"/>
        <path class="st2" d="M191.9,18.8c2.2,0,3,1.2,3,2.9v4.1c0,1.2-.3,1.7-1.8,1.7h-4.1c-2.1,0-2.9-1-2.9-2.6s.8-2.5,2.9-2.5h4.1v-.7c0-.7-.4-1.2-1.3-1.2h-5.2v-1.7h5.2ZM193.2,25.4v-1.6h-4.1c-.9,0-1.2.4-1.2,1s.3,1.1,1.2,1.1h3.7c.3,0,.5-.1.5-.4Z"/>
        <path class="st2" d="M199.5,15.1v12.4h-1.7v-12.4h1.7Z"/>
        <path class="st2" d="M202.7,18.8v-2.1h1.8v2.1h2.4v1.7h-2.4v4.1c0,1,.3,1.3,1.2,1.3h1.2v1.6h-1.6c-1.8,0-2.6-.7-2.6-3v-4h-1.2v-1.7h1.2Z"/>
        <path class="st2" d="M210.7,15.1v3.8h3.1c2.9,0,4.4,1.4,4.4,3.8v4.9h-1.8v-4.9c0-1.3-.8-2.1-2.6-2.1h-3.1v7h-1.7v-12.4h1.7Z"/>
        <path class="st2" d="M228.8,18.8v1.7h-4.3c-1.5,0-2.2.8-2.2,2.7s.7,2.6,2.2,2.6h4.3v1.7h-4.5c-2.3,0-3.8-1.4-3.8-4.3s1.4-4.3,3.8-4.3h4.5Z"/>
        <path class="st2" d="M236.8,18.8c2.2,0,3,1.2,3,2.9v4.1c0,1.2-.3,1.7-1.8,1.7h-4.1c-2.1,0-2.9-1-2.9-2.6s.8-2.5,2.9-2.5h4.1v-.7c0-.7-.4-1.2-1.3-1.2h-5.2v-1.7h5.2ZM238.1,25.4v-1.6h-4.1c-.9,0-1.2.4-1.2,1s.3,1.1,1.2,1.1h3.7c.3,0,.5-.1.5-.4Z"/>
        <path class="st2" d="M248.6,18.8v1.7h-3.1c-.8,0-1.1.4-1.1,1.1v5.9h-1.7v-6.1c0-1.7.6-2.5,2.4-2.5h3.6Z"/>
        <path class="st2" d="M256.3,18.8c2.1,0,2.9,1,2.9,2.7s-.8,2.5-2.9,2.5h-4.1v.6c0,.7.4,1.2,1.3,1.2h5.3v1.7h-5.3c-2.2,0-3-1.2-3-2.9v-3c0-1.6.9-2.9,3-2.9h2.8ZM252.2,22.6h4.1c.9,0,1.3-.4,1.3-1s-.4-1.1-1.2-1.1h-2.8c-1,0-1.3.5-1.3,1.2v.9Z"/>
        <path class="st2" d="M263.7,19.1v2.2h-1.9v-2.2h1.9ZM263.7,25.3v2.2h-1.9v-2.2h1.9Z"/>
        <path class="st2" d="M25,36.2v1.9h-4.3c-2.1,0-3.1,1.1-3.1,3.6s.9,3.6,3.1,3.6h4.3v1.9h-4.3c-3.2,0-5-1.8-5-5.5s1.8-5.6,5-5.6h4.3Z"/>
        <path class="st2" d="M32.8,38.6c2.3,0,3.8,1.4,3.8,4.3s-1.5,4.3-3.8,4.3h-1.8c-2.3,0-3.8-1.4-3.8-4.3s1.4-4.3,3.8-4.3h1.8ZM31.1,40.3c-1.5,0-2.2.8-2.2,2.7s.7,2.6,2.2,2.6h1.5c1.5,0,2.2-.8,2.2-2.6s-.7-2.7-2.2-2.7h-1.5Z"/>
        <path class="st2" d="M43.8,38.6c2.9,0,4.4,1.4,4.4,3.8v4.9h-1.8v-4.9c0-1.4-.8-2.1-2.6-2.1h-2.8c-.1,0-.2,0-.2.2v6.8h-1.7v-7.3c0-1,.3-1.3,1.2-1.3h3.6Z"/>
        <path class="st2" d="M55.8,38.6c2.9,0,4.4,1.4,4.4,3.8v4.9h-1.8v-4.9c0-1.4-.8-2.1-2.6-2.1h-2.8c-.1,0-.2,0-.2.2v6.8h-1.7v-7.3c0-1,.3-1.3,1.2-1.3h3.6Z"/>
        <path class="st2" d="M68.7,38.6c2.1,0,2.9,1,2.9,2.7s-.8,2.5-2.9,2.5h-4.1v.6c0,.7.4,1.2,1.3,1.2h5.3v1.7h-5.3c-2.2,0-3-1.2-3-2.9v-3c0-1.6.9-2.9,3-2.9h2.8ZM64.5,42.4h4.1c.9,0,1.3-.4,1.3-1s-.4-1.1-1.2-1.1h-2.8c-1,0-1.3.5-1.3,1.2v.9Z"/>
        <path class="st2" d="M82,38.6v1.7h-4.3c-1.5,0-2.2.8-2.2,2.7s.7,2.6,2.2,2.6h4.3v1.7h-4.5c-2.3,0-3.8-1.4-3.8-4.3s1.4-4.3,3.8-4.3h4.5Z"/>
        <path class="st2" d="M84.7,38.6v-2.1h1.8v2.1h2.4v1.7h-2.4v4.1c0,1,.3,1.3,1.2,1.3h1.2v1.6h-1.6c-1.8,0-2.6-.7-2.6-3v-4h-1.2v-1.7h1.2Z"/>
        <path class="st2" d="M92.7,35.3v2h-1.8v-2h1.8ZM92.7,38.6v8.7h-1.7v-8.7h1.7Z"/>
        <path class="st2" d="M100.4,38.6c2.9,0,4.4,1.4,4.4,3.8v4.9h-1.8v-4.9c0-1.4-.8-2.1-2.6-2.1h-2.8c-.1,0-.2,0-.2.2v6.8h-1.7v-7.3c0-1,.3-1.3,1.2-1.3h3.6Z"/>
        <path class="st2" d="M113.3,38.6c2.1,0,3.2,1.2,3.2,3.7v5c0,2.5-.9,3.4-3.3,3.4h-5.2v-1.7h5c1.3,0,1.7-.5,1.7-1.8v-.4h-3.8c-2.3,0-3.8-1.4-3.8-4.2s1.4-4.1,3.8-4.1h2.4ZM111.1,45.3h3.7v-3c0-1.4-.5-2-1.9-2h-1.7c-1.5,0-2.2.8-2.2,2.5s.7,2.5,2.2,2.5Z"/>
        <path class="st2" d="M131.8,36.2v1.9h-3.2v9.2h-2v-9.2h-3.2v-1.9h8.4Z"/>
        <path class="st2" d="M139.1,38.6c2.2,0,3,1.2,3,2.9v4.1c0,1.2-.3,1.7-1.8,1.7h-4.1c-2.1,0-2.9-1-2.9-2.6s.8-2.5,2.9-2.5h4.1v-.7c0-.7-.4-1.2-1.3-1.2h-5.2v-1.7h5.2ZM140.4,45.1v-1.6h-4.1c-.9,0-1.2.4-1.2,1s.3,1.1,1.2,1.1h3.7c.3,0,.5-.1.5-.4Z"/>
        <path class="st2" d="M146.7,35.3v2h-1.8v-2h1.8ZM146.7,38.6v8.7h-1.7v-8.7h1.7Z"/>
        <path class="st2" d="M150.7,38.6l.8,6.8c0,.4.2.6.6.6s.6-.2.6-.5l1.2-5.3c.3-1.2,1-1.8,2.4-1.8s2.1.6,2.3,1.8l1.2,5.3c0,.3.3.5.7.5s.5-.2.6-.6l.9-6.8h1.9l-1,6.9c-.2,1.2-.9,2-2.4,2s-2.1-.6-2.3-1.8l-1.2-5.3c0-.3-.3-.4-.6-.4s-.6.1-.6.4l-1.2,5.3c-.3,1.2-1,1.8-2.4,1.8s-2.2-.8-2.4-2l-.9-6.9h1.9Z"/>
        <path class="st2" d="M171.6,38.6c2.2,0,3,1.2,3,2.9v4.1c0,1.2-.3,1.7-1.8,1.7h-4.1c-2.1,0-2.9-1-2.9-2.6s.8-2.5,2.9-2.5h4.1v-.7c0-.7-.4-1.2-1.3-1.2h-5.2v-1.7h5.2ZM172.9,45.1v-1.6h-4.1c-.9,0-1.2.4-1.2,1s.3,1.1,1.2,1.1h3.7c.3,0,.5-.1.5-.4Z"/>
        <path class="st2" d="M182.3,38.6c2.9,0,4.4,1.4,4.4,3.8v4.9h-1.8v-4.9c0-1.4-.8-2.1-2.6-2.1h-2.8c-.1,0-.2,0-.2.2v6.8h-1.7v-7.3c0-1,.3-1.3,1.2-1.3h3.6Z"/>
        <path class="st2" d="M194.5,38.6v-2.1h1.8v2.1h2.4v1.7h-2.4v4.1c0,1,.3,1.3,1.2,1.3h1.2v1.6h-1.6c-1.8,0-2.6-.7-2.6-3v-4h-1.2v-1.7h1.2Z"/>
        <path class="st2" d="M206,38.6c2.3,0,3.8,1.4,3.8,4.3s-1.5,4.3-3.8,4.3h-1.8c-2.3,0-3.8-1.4-3.8-4.3s1.4-4.3,3.8-4.3h1.8ZM204.3,40.3c-1.5,0-2.2.8-2.2,2.7s.7,2.6,2.2,2.6h1.5c1.5,0,2.2-.8,2.2-2.6s-.7-2.7-2.2-2.7h-1.5Z"/>
        <path class="st2" d="M217.3,38.6v-2.1h1.8v2.1h2.4v1.7h-2.4v4.1c0,1,.3,1.3,1.2,1.3h1.2v1.6h-1.6c-1.8,0-2.6-.7-2.6-3v-4h-1.2v-1.7h1.2Z"/>
        <path class="st2" d="M225.2,34.8v3.8h3.1c2.9,0,4.4,1.4,4.4,3.8v4.9h-1.8v-4.9c0-1.3-.8-2.1-2.6-2.1h-3.1v7h-1.7v-12.4h1.7Z"/>
        <path class="st2" d="M241.2,38.6c2.1,0,2.9,1,2.9,2.7s-.8,2.5-2.9,2.5h-4.1v.6c0,.7.4,1.2,1.3,1.2h5.3v1.7h-5.3c-2.2,0-3-1.2-3-2.9v-3c0-1.6.9-2.9,3-2.9h2.8ZM237,42.4h4.1c.9,0,1.3-.4,1.3-1s-.4-1.1-1.2-1.1h-2.8c-1,0-1.3.5-1.3,1.2v.9Z"/>
        <path class="st2" d="M252.5,36.2l3.3,8.9c.1.3.3.5.6.5s.6-.2.6-.6v-6.6c0-1.4.8-2.4,2.4-2.4s2.2.8,2.6,2.1l2.7,7.1c0,.3.3.5.6.5s.6-.2.6-.6v-8.8h2v8.9c0,1.5-.8,2.4-2.5,2.4s-2.2-.8-2.6-2.1l-2.7-7.1c0-.3-.3-.5-.6-.5s-.6.2-.6.6v6.5c0,1.5-.8,2.4-2.5,2.4s-2.2-.8-2.6-2.1l-3.4-9.2h2.1Z"/>
        <path class="st2" d="M276.1,38.6c2.3,0,3.8,1.4,3.8,4.3s-1.5,4.3-3.8,4.3h-1.8c-2.3,0-3.8-1.4-3.8-4.3s1.4-4.3,3.8-4.3h1.8ZM274.4,40.3c-1.5,0-2.2.8-2.2,2.7s.7,2.6,2.2,2.6h1.5c1.5,0,2.2-.8,2.2-2.6s-.7-2.7-2.2-2.7h-1.5Z"/>
        <path class="st2" d="M288.2,38.6v1.7h-3.1c-.8,0-1.1.4-1.1,1.1v5.9h-1.7v-6.1c0-1.7.6-2.5,2.4-2.5h3.6Z"/>
        <path class="st2" d="M292,34.8v12.4h-1.7v-12.4h1.7Z"/>
        <path class="st2" d="M303.8,34.8v8.7c0,2.5-1.1,3.7-3.2,3.7h-2.4c-2.3,0-3.8-1.4-3.8-4.3s1.4-4.3,3.8-4.3h3.8v-3.8h1.8ZM302.1,43.5v-3.2h-3.7c-1.5,0-2.2.8-2.2,2.7s.7,2.6,2.2,2.6h1.7c1.4,0,1.9-.6,1.9-2.1Z"/>
      </g>
    </g>
  </g>
</svg>