<?xml version="1.0" encoding="UTF-8"?>
<svg id="_圖層_1" data-name="圖層_1" xmlns="http://www.w3.org/2000/svg" version="1.1" viewBox="0 0 697.6 238.4">
  <!-- Generator: Adobe Illustrator 30.5.1, SVG Export Plug-In . SVG Version: 2.1.4 Build 3)  -->
  <defs>
    <style>
      .st0 {
        fill: #fff;
      }
    </style>
  </defs>
  <path class="st0" d="M107.2,95.1l26.2-82h19.4l26.2,82h-17.3l-11.6-42.7c-1.3-4.3-2.5-8.7-3.6-13.3-1.1-4.6-2.3-9.1-3.6-13.4h-.4c-1,4.4-2.2,8.9-3.4,13.5-1.2,4.6-2.4,9-3.6,13.3l-11.7,42.7h-16.6ZM123.4,74.1v-12.7h39v12.7h-39Z"/>
  <path class="st0" d="M196.9,95.1V13.1h16.4v82h-16.4Z"/>
  <path class="st0" d="M235.1,54.4h103.6v8.5h-103.6v-8.5ZM237.2,4.3h50.5v7.5h-50.5v-7.5ZM240.9,9.2h10v29.7c0,1.9.3,3.3.9,4,.6.8,1.9,1.2,3.8,1.2h20.4c1.7,0,3.7,0,6-.2,2.3-.1,4.1-.3,5.3-.6.1,1.3.3,2.6.4,4,.1,1.4.3,2.7.4,3.7-1,.3-2.6.5-4.8.6-2.2.1-4.3.2-6.5.2h-22.1c-3.6,0-6.4-.4-8.4-1.3s-3.4-2.3-4.2-4.3c-.8-2-1.2-4.5-1.2-7.7V9.2ZM246.1,66.2h81.7v38.6h-12.5v-31.7h-57.2v31.7h-12v-38.6ZM259,11.3l7.4,1.9c-.8,2.2-2,4.4-3.5,6.6-1.5,2.2-3.1,4-4.7,5.6-.7-.5-1.8-1.2-3.1-2-1.3-.8-2.5-1.4-3.4-1.9,3.3-2.9,5.8-6.3,7.3-10.2ZM265.7,18.6h8.2v7.6c0,1.9-.4,4-1.2,6.3-.8,2.3-2.3,4.4-4.5,6.5-2.3,2.1-5.6,3.9-10,5.5-.6-1-1.4-2-2.4-3.2-1-1.1-2-2.1-2.9-2.8,3.8-1,6.7-2.2,8.5-3.6,1.8-1.4,3-3,3.5-4.5.6-1.6.8-3,.8-4.4v-7.4ZM252.8,25.3h33.1v6.4h-33.1v-6.4ZM254.6,94.8h64v6.9h-64v-6.9ZM274.6,59.3h10v11.3c0,1.9-.4,3.7-1.1,5.2-.7,1.5-2,2.9-3.7,4.2-1.7,1.2-3.9,2.3-6.8,3.2-2.8.9-6.3,1.7-10.4,2.3-.5-1.1-1.3-2.4-2.4-3.8-1.1-1.4-2.1-2.6-3.1-3.6,3.5-.3,6.4-.6,8.7-1.1,2.3-.4,4-.9,5.3-1.5,1.3-.6,2.2-1.3,2.7-2.2.5-.8.8-1.7.8-2.7v-11.3ZM259,15.6h25.1v6.1h-25.1v-6.1ZM265.3,85.3h44.2v6.5h-44.2v-6.5ZM266.3,33.9l4.9-4.8c2.4,1.3,5,2.8,7.7,4.6,2.7,1.8,4.9,3.5,6.4,4.9l-5.1,5.4c-1.5-1.5-3.7-3.2-6.3-5.1-2.7-1.9-5.2-3.6-7.6-5.1ZM295.1,3.8h10.1v6c0,2.1-.4,4.3-1.1,6.5-.7,2.2-2,4.2-3.8,6.1-1.8,1.9-4.5,3.6-8,5-.4-.7-1.1-1.6-1.9-2.7-.8-1-1.7-2-2.7-3-.9-1-1.8-1.7-2.5-2.1,2.9-1,5-2.1,6.4-3.2,1.4-1.1,2.3-2.2,2.8-3.4.4-1.2.7-2.4.7-3.7V3.8ZM321.1,24.7h2l1.9-.3,6.3,2.5c-2.1,5.2-5.1,9.7-8.9,13.4-3.8,3.7-8.2,6.8-13.2,9.1-5,2.4-10.4,4.2-16.2,5.5-.5-1.2-1.3-2.5-2.3-4-1-1.5-2-2.8-2.9-3.8,5.1-.9,9.9-2.3,14.3-4.2,4.4-1.9,8.3-4.2,11.6-7.1,3.3-2.8,5.8-6.2,7.4-10v-1.2ZM290.7,39.1l4.4-6.4c3,1,6.2,2.2,9.6,3.4,3.5,1.3,7,2.6,10.5,3.9,3.5,1.4,6.8,2.7,10,4,3.1,1.3,5.8,2.5,8,3.5l-4.6,7.4c-2.1-1-4.7-2.2-7.7-3.6-3-1.4-6.3-2.8-9.7-4.2-3.5-1.4-7-2.8-10.5-4.2-3.5-1.4-6.8-2.6-9.9-3.8ZM291,24.7h31.4v7.5h-31.4v-7.5ZM291.7,59.2h10.3v14.9c0,1.3.2,2,.6,2.3.4.3,1.2.4,2.5.4h9c.9,0,1.5,0,1.9-.1.4,0,.6-.3.7-.6,1,.4,2.3.9,3.9,1.3,1.5.4,2.9.7,4.1.8-.3,1.8-1.1,3-2.5,3.7-1.4.7-3.6,1-6.5,1h-12c-3.1,0-5.5-.2-7.3-.7-1.7-.5-2.9-1.4-3.6-2.7-.7-1.3-1-3.1-1-5.4v-14.9ZM299.9,3.8h19.4v8.9h-19.4V3.8ZM314.5,3.8h10.2v8c0,1,0,1.8.3,2.2.2.4.6.7,1.3.7h3.9c.8,0,1.7,0,2.8-.1,1,0,1.9-.2,2.5-.4.1,1.3.3,2.7.3,4.3,0,1.6.2,3.1.4,4.3-.7.2-1.5.4-2.6.4-1.1,0-2.1.1-3.2.1h-5.6c-2.9,0-5.1-.4-6.5-1.2-1.5-.8-2.5-2.1-3-3.8-.5-1.7-.8-3.9-.8-6.6V3.8Z"/>
  <path class="st0" d="M352.7,62.3c2.6-1.1,5.6-2.5,9.1-4.3,3.5-1.7,7.1-3.5,10.9-5.4l3,10c-3.1,2-6.3,4-9.6,6-3.3,2-6.5,3.9-9.6,5.6l-3.8-12ZM353.7,24l9.7-3.9c.8,2.4,1.7,4.9,2.5,7.5s1.7,5.2,2.4,7.6c.7,2.4,1.2,4.6,1.6,6.4l-10.2,4.6c-.4-1.8-.9-4.1-1.5-6.6-.7-2.6-1.4-5.2-2.2-8-.8-2.7-1.6-5.3-2.4-7.7ZM369.5,10h12.3v35.8c0,4.4-.2,9.3-.7,14.5-.4,5.2-1.2,10.6-2.4,15.9-1.1,5.4-2.8,10.6-5,15.6-2.2,5-5,9.4-8.6,13.2-.6-.9-1.5-1.9-2.7-3-1.2-1.1-2.4-2.3-3.5-3.3-1.2-1.1-2.2-1.9-3.1-2.4,3.2-3.5,5.7-7.4,7.5-11.6,1.8-4.2,3.2-8.5,4-13,.9-4.5,1.5-8.9,1.7-13.3.3-4.4.4-8.6.4-12.6V10ZM375.9,10h81.5v11.1h-81.5v-11.1ZM393.4,80l11.8,4.1c-1.5,2.1-3.2,4.2-5,6.5-1.9,2.3-3.8,4.5-5.8,6.6-2,2.1-3.8,3.9-5.5,5.5-.7-.7-1.7-1.6-2.9-2.5-1.2-.9-2.5-1.9-3.7-2.8-1.3-1-2.4-1.7-3.4-2.2,2.6-2,5.2-4.4,7.9-7.1,2.7-2.8,4.9-5.4,6.6-8ZM411.1,20.5l12.2,1.7c-1.8,5.6-4.2,11-7.2,16.2-3.1,5.2-6.9,10.1-11.6,14.6-4.6,4.5-10.3,8.5-17,12.1-.8-1.4-2-3-3.5-4.8-1.5-1.8-3-3.1-4.4-4,6.2-2.9,11.4-6.2,15.7-10.1,4.2-3.8,7.7-8,10.3-12.3,2.6-4.4,4.5-8.8,5.7-13.3ZM384.4,44.4l6.8-5.9c1.9,1.3,4,2.7,6.3,4.4,2.3,1.7,4.1,3.2,5.4,4.5l-7.1,6.4c-1.2-1.3-2.9-2.8-5.1-4.6-2.3-1.8-4.3-3.4-6.3-4.8ZM385.5,28.1h70.8v10h-70.8v-10ZM394.1,47.9h51.3v31.4h-51.3v-31.4ZM413,75.3h12.8v18.3c0,2.7-.3,4.9-1,6.4-.7,1.5-2,2.7-4,3.6-2,.8-4.2,1.3-6.8,1.4-2.5.1-5.5.2-8.9.2-.4-1.6-1-3.5-1.8-5.5-.8-2-1.6-3.7-2.3-5.1,2.1,0,4.1.1,6.1.1h4c.7,0,1.2-.1,1.4-.4.2-.3.3-.6.3-1.2v-17.8ZM404.3,3.2l13.5-2.7c.9,2.3,1.8,4.8,2.7,7.6.9,2.8,1.6,5.2,2,7.3l-14.1,3.2c-.3-2.1-.9-4.5-1.7-7.4-.8-2.9-1.7-5.5-2.5-8ZM405.1,55.8v4.1h28.7v-4.1h-28.7ZM405.1,67.2v4.3h28.7v-4.3h-28.7ZM432.1,32.3c1.7,3.2,3.9,6.2,6.6,9.2,2.7,3,5.8,5.6,9.3,7.9,3.5,2.3,7.1,4.2,11,5.6-1.3,1.1-2.7,2.6-4.2,4.4-1.5,1.8-2.7,3.5-3.5,4.9-4.1-1.8-7.9-4.2-11.6-7.2-3.7-3-7-6.3-9.9-10-3-3.7-5.5-7.6-7.5-11.7l9.9-3.1ZM430.7,85.5l9.6-5.6c1.7,1.7,3.5,3.6,5.5,5.6,2,2.1,3.9,4.1,5.7,6,1.8,2,3.4,3.7,4.5,5.3l-10.3,6.3c-1-1.5-2.4-3.2-4.2-5.3-1.7-2-3.6-4.1-5.5-6.3-2-2.2-3.7-4.2-5.4-6ZM448.4,37.7l7.6,5.6c-1.8,1.7-3.7,3.3-5.7,4.9-2,1.5-3.9,2.9-5.5,4l-6.8-5.2c1.6-1.2,3.4-2.7,5.4-4.5,2-1.8,3.6-3.4,4.9-4.8Z"/>
  <path class="st0" d="M482.3,70.7l10.2,3.1c-1.3,3.8-3,7.9-5.1,12.1-2.1,4.2-4.1,7.7-6,10.6-1-.8-2.5-1.8-4.3-3.1-1.8-1.3-3.3-2.2-4.5-2.9,1.9-2.7,3.7-5.8,5.5-9.3,1.7-3.5,3.2-7,4.3-10.5ZM473.9,36.7h53.4v10.8h-53.4v-10.8ZM474.5,56.1h50.8v11.2h-50.8v-11.2ZM475.5,12.1h49.9v10.7h-49.9v-10.7ZM481.4,25l10.6-2.5c.8,1.9,1.5,4,2.2,6.2.7,2.2,1.1,4.1,1.4,5.8l-11,3c-.2-1.7-.6-3.7-1.3-6-.6-2.3-1.3-4.4-2-6.4ZM491.3,3.2l13.3-3.2c1.1,2.4,2.2,5,3.4,7.8,1.1,2.8,2,5.3,2.6,7.4l-14.1,3.7c-.4-2.1-1.1-4.6-2.1-7.5-1-3-2.1-5.6-3.1-8.1ZM495.2,42.8h12.8v61.3h-12.8v-61.3ZM508.6,22.4l12,2.2c-1.2,3-2.3,5.8-3.4,8.6-1.1,2.8-2.2,5.1-3.2,7l-10.7-2.2c.6-1.5,1.2-3.1,1.9-4.9.7-1.8,1.4-3.7,2-5.6.6-1.9,1.1-3.6,1.5-5.1ZM510.4,74.3l8.6-4.8c1.8,2.4,3.5,5.1,5.1,8.1,1.7,3,3,5.6,3.9,7.7l-9.1,5.5c-.9-2.2-2.2-4.9-3.8-8-1.7-3.1-3.3-6-4.8-8.6ZM530.9,11.6h12.4v39.6c0,4.1-.1,8.5-.4,13.2-.3,4.7-.8,9.5-1.5,14.3-.8,4.8-1.9,9.5-3.3,13.9s-3.3,8.5-5.7,12c-.7-.8-1.6-1.7-2.9-2.8-1.3-1-2.6-2-3.9-3-1.3-1-2.5-1.7-3.4-2.1,2.7-4.2,4.7-8.9,6-14.2,1.3-5.2,2-10.6,2.4-16.1.3-5.5.5-10.6.5-15.4V11.6ZM564.6,2l10.2,9.9c-3.8,1.5-8,2.8-12.6,4.1-4.5,1.3-9.2,2.3-13.8,3.3-4.7.9-9.2,1.7-13.6,2.4-.3-1.4-.8-3.1-1.7-5-.8-2-1.6-3.6-2.3-4.9,4.1-.8,8.3-1.7,12.4-2.7,4.1-1,8-2,11.7-3.3,3.7-1.2,6.9-2.5,9.6-3.7ZM535.9,37.6h41v12.3h-41v-12.3ZM553.6,43.1h12.8v61.4h-12.8v-61.4Z"/>
  <path class="st0" d="M604.2,6.2h13.2v27.2c0,4.8-.2,10.2-.6,16.2-.4,6-1.1,12.1-2.2,18.4-1.1,6.3-2.6,12.3-4.7,18.2-2.1,5.9-4.8,11.2-8.2,16-.7-.9-1.8-1.9-3.1-3-1.3-1.1-2.7-2.2-4-3.2-1.4-1-2.6-1.8-3.6-2.2,3.1-4.4,5.5-9.1,7.3-14.2,1.8-5.1,3.1-10.4,4-15.8.9-5.4,1.4-10.7,1.7-15.9s.3-10,.3-14.4V6.2ZM612.1,6.2h71.2v31.9h-71.2v-11.2h57.9v-9.5h-57.9V6.2ZM612.5,45.1h69.8v11.6h-69.8v-11.6ZM622.1,63.2h12.2v37.4h-12.2v-37.4ZM629.1,63.2h36.9v30.8h-36.9v-10.4h24.6v-10h-24.6v-10.4ZM678.1,45.1h13.4c0,1.3-.1,2.4-.1,3.3s0,1.6-.1,2.1c-.2,8.1-.5,15-.8,20.8-.3,5.7-.7,10.5-1.2,14.3-.4,3.8-.9,6.9-1.5,9.1-.6,2.2-1.2,3.8-2,4.9-1.3,1.7-2.5,2.9-3.9,3.5-1.3.6-2.9,1.1-4.6,1.4-1.6.2-3.7.4-6.1.4-2.4,0-5,0-7.7,0,0-1.9-.4-4-1.1-6.4-.7-2.3-1.5-4.4-2.5-6.1,2.2.2,4.3.4,6.1.4,1.9,0,3.3,0,4.4,0,.9,0,1.6,0,2.2-.3.6-.3,1.1-.7,1.6-1.3.7-.9,1.3-2.8,1.8-5.9.5-3,.9-7.6,1.3-13.7.4-6.1.7-14.2,1-24.2v-2.3Z"/>
  <path class="st0" d="M0,139.4h98.4v8.3H0v-8.3ZM.8,226.7h97v8.9H.8v-8.9ZM1.1,182.2h96v16.6h-12.5v-8.3H13.1v8.3H1.1v-16.6ZM8.9,151.2h80.5v7.7H8.9v-7.7ZM11.6,215.3h76.4v7.7H11.6v-7.7ZM12.8,193.6h71.4v7.1H12.8v-7.1ZM13,162.2h72.9v16.8H13v-16.8ZM17.3,213.6c-.3-.9-.7-2.2-1.2-4-.5-1.8-1-3.2-1.5-4.3,1.8-.2,3.7-.7,5.9-1.3.8-.4,2.1-.9,3.8-1.6,1.7-.7,3.6-1.6,5.6-2.7,2.1-1.1,4-2.3,5.8-3.6l9.1,3c-3.5,2.4-7.2,4.4-10.8,6.2-3.7,1.8-7.2,3.1-10.5,4h0c-2,1-3.5,1.8-4.5,2.4-1,.6-1.5,1.3-1.5,1.9ZM17.3,213.6v-5.9l5.3-2.7,53.1-.8c.1,1,.4,2.2.6,3.5.3,1.3.5,2.4.7,3.3-10.2.2-18.7.4-25.5.6-6.8.2-12.4.3-16.6.4-4.2.1-7.5.2-9.8.4-2.3.1-4,.3-5.1.5-1.1.2-2,.4-2.7.5ZM25.1,168.6v3.9h47.8v-3.9H25.1ZM42,133.7h13.4v22.5h-13.4v-22.5ZM42,208.4h13.4v22.7h-13.4v-22.7ZM59.1,201.1l7.6-5.6c2.6,1.2,5.2,2.6,8,4.2,2.7,1.6,5.3,3.3,7.7,5,2.4,1.7,4.5,3.2,6.2,4.6l-7.9,6.4c-1.6-1.5-3.7-3.1-6.1-4.9-2.4-1.8-5-3.6-7.7-5.3-2.7-1.7-5.4-3.2-7.9-4.4Z"/>
  <path class="st0" d="M115.2,173.6l7.3-9.2c1.9.9,3.9,1.9,6,3.2,2.1,1.2,4,2.5,5.9,3.7,1.9,1.3,3.4,2.4,4.6,3.5l-7.7,10.2c-1-1.2-2.5-2.5-4.3-3.8-1.8-1.4-3.8-2.7-5.8-4.1-2-1.4-4-2.5-5.9-3.5ZM117.6,144.2l7.5-9c1.9,1,3.9,2.1,6,3.4,2.1,1.3,4,2.6,5.8,4,1.8,1.4,3.3,2.6,4.4,3.8l-8,10c-1-1.3-2.4-2.6-4.2-4-1.8-1.4-3.7-2.9-5.7-4.3-2-1.4-4-2.7-5.8-3.8ZM117.7,229.9c1.4-3,2.9-6.4,4.5-10.2,1.6-3.9,3.3-8,4.9-12.4,1.7-4.4,3.2-8.8,4.5-13.1l10.5,6.9c-1.2,3.9-2.5,7.9-3.9,12-1.4,4.1-2.8,8.1-4.3,12.1-1.4,4-2.9,7.8-4.4,11.4l-12-6.6ZM141,175.2l6.4,1.7c-.4,2.7-1.1,5.3-1.8,8-.8,2.7-1.7,5-2.7,6.8-.7-.6-1.5-1.3-2.7-2.1-1.1-.8-2.1-1.4-2.9-1.9,1-1.8,1.8-3.7,2.4-5.9.6-2.2,1-4.4,1.3-6.6ZM141,157.4c-.2-.5-.6-1.3-1.1-2.5-.5-1.1-1-2.1-1.4-2.8.7-.1,1.4-.5,1.9-1,.5-.5,1.1-1.2,1.7-2.1.4-.4,1.1-1.4,1.9-2.9.8-1.5,1.7-3.3,2.7-5.3.9-2,1.6-3.9,2.2-5.9l7.2,2.5c-1.3,3-2.9,5.9-4.9,9-2,3-4,5.7-6.1,8h0c-1.3.8-2.3,1.3-3,1.8-.7.4-1,.8-1,1.2ZM141.5,172.3c-.1-.6-.5-1.5-1.1-2.6-.6-1.1-1.1-2.1-1.5-2.8,1-.1,1.8-.6,2.7-1.3.8-.7,1.7-1.6,2.7-2.6.7-.7,1.9-2.1,3.4-4,1.5-1.9,3.1-4.2,4.8-6.8,1.7-2.6,3.1-5.2,4.4-7.9l6.8,3.1c-2.2,3.8-4.8,7.7-7.9,11.5-3,3.8-6.2,7.2-9.4,10.1v.2c-1.5.7-2.7,1.2-3.5,1.7-.8.4-1.2.9-1.2,1.3ZM141,157.4l-.3-5.5,4.3-2.1,12.4-.6c-.2,1-.5,2.1-.7,3.3-.3,1.2-.4,2.2-.4,3.1-3.6.1-6.4.3-8.5.6-2,.2-3.5.4-4.5.6-1,.2-1.8.4-2.3.6ZM141.5,172.3l-.6-5.8,3.9-2.1,16.7-1.8c0,.8.3,1.8.6,3,.3,1.2.6,2.1.8,2.9-5.5.7-9.6,1.2-12.5,1.7-2.8.5-4.9.9-6.1,1.2-1.3.3-2.2.6-2.9.9ZM150.4,202.9h12.2c-.7,3.2-1.5,6.6-2.4,10-.8,3.4-1.7,6.4-2.5,9h-12.3c.9-2.7,1.8-5.8,2.7-9.2s1.7-6.7,2.3-9.8ZM154.2,202.9h43.8v-3.5h-50.9v-7.5h63.2v18.5h-56.1v-7.4ZM148.7,176.8l5.8-1.5c.7,2,1.2,4.2,1.6,6.5.4,2.3.6,4.3.7,5.9l-6.1,2c0-1.7-.3-3.7-.6-6.1-.3-2.4-.8-4.6-1.4-6.7ZM152.8,213.9h54.8v8.1h-54.8v-8.1ZM156.5,160.3l5.4-2c1,1.8,2,3.9,2.9,6,.9,2.2,1.6,4,1.9,5.6l-5.5,2.4c-.4-1.6-1-3.6-1.9-5.9-.9-2.3-1.8-4.4-2.9-6.2ZM157.3,175.1l5.2-1.9c.8,1.8,1.5,3.7,2.2,5.9.7,2.1,1.1,4,1.2,5.5l-5.5,2.3c-.2-1.5-.6-3.4-1.2-5.6-.6-2.2-1.2-4.3-1.9-6.2ZM165,144.9h26.6v6.9h-26.6v-6.9ZM168.1,172.3h21.3v16.6h-21.3v-16.6ZM168.3,154.6h21.1v6.1h-21.1v-6.1ZM168.3,163.3h21.1v6.1h-21.1v-6.1ZM172.2,136.9l8.5-1.8c.7,1.3,1.5,2.7,2.3,4.4.8,1.7,1.4,3.1,1.8,4.2l-9,2.2c-.4-1.3-.9-2.7-1.6-4.4-.7-1.7-1.4-3.2-2-4.6ZM175.9,178.2v4.9h5.5v-4.9h-5.5ZM203.2,213.9h12.4c-.1,2.4-.4,3.9-.7,4.6-.9,4.5-1.8,8-2.9,10.6-1,2.6-2.3,4.5-3.9,5.8-1.4,1-2.9,1.7-4.5,2.1-1.6.4-3.5.6-5.8.8-1.8,0-4.2,0-7.4,0-3.2,0-6.5-.1-10-.2,0-1.5-.4-3.1-1.1-4.9-.6-1.8-1.4-3.4-2.4-4.8,3.3.3,6.6.5,9.8.6,3.2.1,5.5.2,6.9.2s2,0,2.8-.2c.7-.1,1.4-.4,2-.7.9-.7,1.7-2,2.5-4,.8-2,1.5-4.8,2-8.5v-1.3ZM193.6,174.9l6.3,1.7c-.4,2.6-1,5.2-1.8,7.9-.8,2.7-1.7,5-2.8,6.9-.6-.6-1.5-1.3-2.6-2.1-1.1-.8-2.1-1.4-2.8-1.9,1-1.8,1.8-3.8,2.3-6,.5-2.2,1-4.4,1.3-6.5ZM193.5,157.4c-.1-.5-.5-1.3-1-2.5-.5-1.1-1-2.1-1.4-2.8.6,0,1.2-.4,1.7-.9.6-.6,1.1-1.2,1.7-2,.4-.5,1.1-1.5,1.9-3,.8-1.5,1.7-3.2,2.7-5.2.9-2,1.6-4,2.2-6l7.2,2.7c-1.2,3-2.8,5.9-4.8,9-2,3-4,5.6-6.1,7.9h0c-1.3.8-2.3,1.4-3,1.8-.7.4-1.1.8-1.1,1.2ZM194,172.3c-.1-.5-.5-1.4-1.1-2.5-.6-1.2-1.1-2.1-1.6-2.9,1-.1,1.8-.6,2.7-1.2.8-.7,1.7-1.5,2.7-2.7.7-.7,1.9-2.1,3.4-4,1.5-1.9,3.1-4.2,4.8-6.8,1.7-2.6,3.1-5.2,4.3-7.9l7,3.1c-2.2,3.8-4.9,7.7-7.9,11.5-3.1,3.8-6.2,7.2-9.5,10.2h0c-1.5.8-2.7,1.4-3.5,1.9-.8.4-1.2.8-1.2,1.2ZM193.5,157.4l-.2-5.4,4.3-2.1,12.3-.6c-.2,1-.5,2-.7,3.3-.3,1.2-.4,2.2-.4,3-3.6.2-6.4.4-8.5.7-2,.2-3.5.4-4.5.6-1,.1-1.7.3-2.3.6ZM194,172.3l-.6-5.6,3.9-2.1,16.6-1.9c.1,1,.4,2,.7,3.2.3,1.1.6,2,.9,2.7-5.5.8-9.6,1.4-12.5,1.9s-4.9.8-6.1,1.1c-1.2.3-2.2.5-2.8.8ZM200.9,176.9l5.6-1.5c.7,2.2,1.2,4.6,1.7,7.1.5,2.5.8,4.7.8,6.4l-6.1,2c0-1.8-.2-4-.6-6.6-.4-2.7-.9-5.1-1.5-7.3ZM209,160.3l5.3-1.9c1.1,1.8,2.1,3.8,3.1,6.1,1,2.3,1.6,4.2,2,5.8l-5.5,2.3c-.4-1.6-1-3.6-1.9-5.9-.9-2.3-1.9-4.4-2.9-6.4ZM209.7,175.2l5.3-2c1,2.1,1.8,4.5,2.5,7,.7,2.5,1.2,4.7,1.4,6.5l-5.5,2.4c-.2-1.8-.7-4.1-1.3-6.7-.7-2.6-1.5-5-2.4-7.3Z"/>
  <path class="st0" d="M252.9,133.2l9.7,3.4c-1.8,4.2-4,8.4-6.6,12.6-2.6,4.2-5.4,8.2-8.5,11.8-3,3.7-6.1,6.9-9.3,9.7-.2-.8-.6-2-1.2-3.4-.6-1.5-1.1-3-1.8-4.5-.6-1.5-1.2-2.8-1.7-3.7,3.8-3.2,7.4-7,10.8-11.6,3.5-4.6,6.3-9.4,8.4-14.4ZM235.3,223.2c4.6-.8,10.1-1.9,16.6-3.2,6.5-1.3,13.1-2.6,19.8-4l1,10.4c-6,1.5-12,3-18,4.5-6.1,1.5-11.6,2.9-16.5,4.1l-2.9-11.8ZM237.4,180.3h33.8v10.7h-33.8v-10.7ZM238.2,197.7l7.2-2.2c.9,3.2,1.7,6.6,2.3,10.2.7,3.6,1.1,6.8,1.4,9.5l-7.6,2.3c-.1-2.7-.6-5.8-1.2-9.6-.7-3.7-1.4-7.1-2.1-10.2ZM243,161.8h25v10.4h-25v-10.4ZM250.1,166.4h9.4v59.2l-9.4,2.1v-61.3ZM250.7,147.3l4.9-9.1c2.4,1.4,4.9,3,7.3,4.8,2.4,1.8,4.6,3.6,6.6,5.4,2,1.8,3.6,3.5,4.9,5.1l-4.5,10.4c-1.4-1.8-3.2-3.8-5.3-5.8-2.1-2-4.4-4-6.8-5.9-2.4-1.9-4.7-3.6-7-5ZM263.1,194.4l8.6,2.2c-.9,3.3-1.8,6.8-2.7,10.3-.9,3.5-1.8,6.5-2.6,9l-6.9-2c.4-1.8.9-3.8,1.4-6.1.5-2.3.9-4.6,1.3-7,.4-2.3.7-4.4.8-6.4ZM284,185.4h4.2l1.9-.3,4.4,2.2c-1.4,11.6-3.7,21.8-6.8,30.6-3.1,8.8-6.9,15.6-11.5,20.6-.4-.8-1.1-1.8-2.1-2.8-1-1.1-2-2.1-3-3-1-1-2-1.7-2.8-2.2,4.2-4.3,7.6-10.2,10.2-17.7,2.6-7.5,4.4-15.9,5.4-25.3v-2ZM274.7,197.9c-.2-.9-.6-1.9-1.1-3.1-.5-1.2-1-2.4-1.4-3.6-.5-1.2-.9-2.2-1.4-2.8.9-.3,1.7-.7,2.3-1.2.7-.5,1.3-1.3,2-2.4.4-.7,1.1-2.2,1.9-4.3.8-2.1,1.7-4.4,2.7-7,1-2.6,1.9-5.1,2.7-7.6.8-2.5,1.5-4.5,2-6v-.3l2.7-1.1,7.4,2c-.7,1.9-1.6,4.2-2.5,7-1,2.7-2,5.6-3.2,8.6-1.1,3-2.3,5.8-3.3,8.5-1.1,2.7-2.1,5-3,6.8-1.5.8-2.8,1.6-3.9,2.3-1,.7-1.9,1.5-2.7,2.2-.8.7-1.2,1.4-1.2,2.1ZM272.3,159.3h16.1v11.3h-16.1v-11.3ZM272.9,138.8l9.7-3.4c1.7,2.7,3.4,5.6,5.1,8.7,1.7,3.2,3.1,5.9,4,8.3l-10.1,4.1c-.9-2.4-2.2-5.2-3.9-8.6-1.7-3.4-3.4-6.4-4.9-9.1ZM274.7,197.9v-10.1l4.6-2.4h9.3v10.8h-7.9c-1,0-2.1.1-3.4.4-1.3.3-2.2.7-2.7,1.2ZM287.7,208.7c1.7,4.9,3.9,8.5,6.6,10.9,2.7,2.4,5.9,4,9.6,4.8,3.7.8,7.8,1.2,12.3,1.2s4.7,0,7.4-.2c2.7-.1,5.5-.3,8.4-.4,2.8-.2,5.4-.4,7.7-.6-.5.9-1,2-1.5,3.4-.5,1.4-.9,2.8-1.2,4.2-.3,1.4-.6,2.7-.7,3.8-3.1.1-6.5.3-10.1.4-3.6.1-7.2.2-10.6.2-6,0-11.3-.6-15.8-1.8-4.6-1.2-8.5-3.6-11.8-7.1-3.3-3.5-6-8.7-8.2-15.6l8-3.1ZM293.3,201.7h42.5v10.3h-42.5v-10.3ZM293.4,143.2h42.3v10.1h-42.3v-10.1ZM295.8,159.1h38.2v36.4h-38.2v-36.4ZM304.5,167.3v6.1h20.4v-6.1h-20.4ZM304.5,181.1v6.3h20.4v-6.3h-20.4ZM309.2,133.8h11.2v29.6h-2v26.5h-7.2v-26.5h-2v-29.6ZM309.5,189.7h11.2v33.8h-11.2v-33.8Z"/>
  <path class="st0" d="M357.2,177.9c-.2-.8-.6-1.9-1-3.3-.4-1.4-.9-2.8-1.4-4.3-.5-1.4-1-2.7-1.4-3.7,1.1-.4,2.2-1.1,3.2-2,1-1,2.1-2.3,3.3-3.9.6-.8,1.4-2.1,2.5-3.9,1.1-1.8,2.3-4,3.7-6.5,1.4-2.5,2.7-5.2,4-8.2,1.3-3,2.5-5.9,3.5-8.7l11.7,4.9c-2.7,6-6,12-9.7,17.9-3.7,6-7.5,11.1-11.2,15.5v.2c-1.4.8-2.6,1.5-3.5,2.2-1,.7-1.8,1.3-2.5,2-.7.7-1.1,1.3-1.1,1.9ZM358.3,207l10.5,1.7c-.4,5-1.1,10-1.9,15-.8,5-1.9,9.2-3,12.6-1.1-.7-2.7-1.4-4.9-2.1-2.1-.7-3.9-1.2-5.2-1.5,1.3-3.2,2.2-7.2,2.9-11.8.7-4.6,1.2-9.2,1.6-13.7ZM358.1,203.6c-.2-.8-.6-1.9-1.1-3.4-.5-1.4-1-2.9-1.5-4.4-.6-1.5-1.1-2.8-1.5-3.9,1.5-.3,2.9-1.1,4.2-2.3,1.3-1.2,2.9-2.8,4.6-4.8,1-1,2.3-2.7,4-5,1.7-2.3,3.7-5,5.9-8.1,2.2-3.1,4.4-6.5,6.5-10.2,2.2-3.7,4.2-7.3,5.9-11l10.8,6.8c-2.8,4.8-5.9,9.6-9.2,14.4-3.3,4.8-6.8,9.4-10.5,13.8-3.7,4.4-7.3,8.4-11,11.9v.2c-1.5.8-2.7,1.5-3.7,2.2-1,.7-1.8,1.3-2.5,2-.7.7-1.1,1.3-1.1,1.9ZM357.2,177.9l-.3-9.1,5.3-3.3,19.3-1.4c-.3,1.5-.6,3.3-.8,5.3-.2,2-.4,3.7-.4,5-4.3.4-7.8.7-10.6,1.1-2.8.4-5,.7-6.6.9-1.6.2-2.9.5-3.8.7-.9.3-1.6.5-2.1.8ZM358.1,203.6l-.6-9.5,5.5-3.7,29.1-3.5c-.3,1.6-.5,3.5-.7,5.5-.1,2.1-.2,3.7-.1,5-6.6,1-11.9,1.8-16,2.4-4.1.6-7.3,1.2-9.5,1.6-2.3.4-3.9.8-5.1,1.2-1.1.3-2,.7-2.7,1.1ZM371.2,208.5l9.4-1.9c.8,4,1.5,8.3,2.1,13,.6,4.6,1,8.7,1.2,12.2l-10.1,2c0-2.3-.2-4.9-.5-7.8-.3-2.9-.6-5.9-.9-8.9-.4-3-.8-5.9-1.2-8.5ZM381.7,179.4l9.5-2.9c1,2.4,1.9,5.1,2.8,7.9.9,2.8,1.8,5.6,2.5,8.2.8,2.7,1.3,5,1.6,7l-10.1,3.5c-.3-2-.8-4.4-1.4-7.1-.7-2.8-1.4-5.6-2.3-8.5-.8-2.9-1.8-5.6-2.7-8.2ZM382.9,206.2l8.9-2.9c1.3,3.4,2.6,7.1,3.8,11.2,1.2,4.1,2.1,7.6,2.7,10.5l-9.4,3.2c-.4-3-1.2-6.5-2.4-10.6-1.1-4.1-2.3-7.9-3.5-11.4ZM396.8,147.4h59.8v12.3h-59.8v-12.3ZM399.9,172.3h54v12.2h-54v-12.2ZM402.1,193.2h49.1v44.2h-13v-32.2h-23.9v32.7h-12.3v-44.6ZM409.3,221.1h35.3v12h-35.3v-12ZM419.3,133.7h13.6v45.1h-13.6v-45.1Z"/>
  <path class="st0" d="M519.6,137.3l9.7,6.8c-2.7,3.8-6,7.7-9.8,11.5-3.8,3.8-7.9,7.5-12.3,11.1-4.4,3.6-8.9,6.9-13.4,10-4.6,3.1-9.1,5.7-13.5,7.8-1-1.6-2.2-3.5-3.7-5.5-1.5-2.1-3-3.8-4.5-5.2,4.4-1.8,8.8-4,13.4-6.7,4.6-2.7,9-5.7,13.3-9,4.3-3.3,8.2-6.7,11.7-10.2,3.5-3.5,6.6-7,9.1-10.5ZM478.1,223.4h94.6v11.8h-94.6v-11.8ZM489,198.4h71.7v11.5h-71.7v-11.5ZM493.9,137.3h37.1v12.3h-37.1v-12.3ZM494.4,173.9h61v11.7h-61v-11.7ZM517.5,137.3h14.6c2.4,3.5,5.2,7,8.5,10.4,3.3,3.4,7,6.6,11.1,9.7,4.1,3.1,8.3,5.9,12.8,8.5,4.5,2.5,9.1,4.7,13.8,6.4-.9,1-1.9,2.2-3,3.6-1.1,1.4-2.3,2.9-3.3,4.4-1.1,1.5-1.9,2.9-2.6,4.2-6.4-3-12.6-6.7-18.7-11-6-4.3-11.6-9-16.6-13.9-5.1-5-9.5-9.9-13.2-14.9h-3.4v-7.3ZM517.7,179.1h13.9v50.8h-13.9v-50.8Z"/>
  <path class="st0" d="M591,214.7c3.2-.8,6.8-1.8,10.8-2.9,4-1.1,8.3-2.4,12.8-3.7,4.5-1.3,9-2.7,13.4-4l2,11.8c-6.1,2-12.4,4-18.7,6-6.3,2-12.2,3.8-17.5,5.5l-2.8-12.7ZM592.7,140.2h35.2v12.3h-35.2v-12.3ZM593.2,172.1h33.1v12.2h-33.1v-12.2ZM604.3,145.2h12.4v68l-12.4,2.1v-70.1ZM625,214.4c2.6-1.8,5.7-4.1,9.3-6.9,3.6-2.7,7.5-5.7,11.5-9,4.1-3.2,8-6.5,12-9.6l4.4,9.4c-4.8,4.9-9.8,9.7-14.9,14.6-5.1,4.9-9.9,9.3-14.3,13.3l-8-11.8ZM630.1,151.8h65.5v12.2h-65.5v-12.2ZM630.7,173.5l10.2-4.5c1.5,2,2.9,4.2,4.3,6.5,1.4,2.3,2.7,4.6,3.9,6.9,1.2,2.3,2.1,4.3,2.7,6l-11,5.1c-.4-1.8-1.2-3.8-2.3-6.1-1.1-2.3-2.3-4.7-3.7-7.1-1.3-2.4-2.7-4.6-4.1-6.7ZM655.6,133.9h12.8v89c0,3.3-.4,5.9-1.2,7.9-.8,1.9-2.1,3.4-4,4.4-1.9,1.1-4.3,1.8-7.3,2.2-2.9.4-6.4.6-10.6.6-.1-1.3-.5-2.6-1-4.2-.5-1.5-1.1-3-1.7-4.6-.6-1.5-1.2-2.9-1.8-4.1,2.7,0,5.3.1,7.6.2,2.3,0,3.9,0,4.7,0,.9,0,1.5-.2,1.9-.5.4-.3.6-.9.6-1.7v-89.1ZM667.9,166c1.2,6.7,2.6,12.7,4.2,18,1.6,5.3,3.5,10,5.9,14.2,2.3,4.2,5.1,8,8.3,11.3,3.2,3.4,7,6.6,11.3,9.6-1.5,1.2-3.1,2.7-4.6,4.6-1.5,1.9-2.7,3.7-3.5,5.6-4.8-3.6-8.9-7.5-12.5-11.5-3.5-4.1-6.5-8.5-9-13.3-2.5-4.8-4.6-10.3-6.4-16.3-1.8-6-3.3-12.7-4.5-20.2l11-2ZM683.5,168.5l11.5,5.9c-2,2.7-4.1,5.4-6.4,8.1-2.3,2.7-4.5,5.3-6.6,7.7-2.2,2.4-4.2,4.6-6.1,6.5l-9.2-5.3c1.8-2,3.8-4.3,5.9-6.9,2.1-2.6,4.1-5.3,6-8.2,2-2.8,3.6-5.4,4.9-7.8ZM671.8,141.4l7.3-6.9c2.4,1.5,4.8,3.4,7.4,5.5,2.6,2.1,4.5,4,5.9,5.6l-7.7,7.7c-1.3-1.8-3.1-3.8-5.6-6.1-2.5-2.3-4.9-4.2-7.3-5.9Z"/>
</svg>