<?xml version="1.0" encoding="UTF-8"?>
<svg id="_圖層_1" data-name="圖層_1" xmlns="http://www.w3.org/2000/svg" version="1.1" viewBox="0 0 319 35.9">
  <!-- Generator: Adobe Illustrator 30.5.1, SVG Export Plug-In . SVG Version: 2.1.4 Build 3)  -->
  <defs>
    <style>
      .st0 {
        fill: #fff;
      }
    </style>
  </defs>
  <g>
    <path class="st0" d="M10.3,19.8v2.1h-4.7c-2.4,0-3.4,1.2-3.4,4s1,4,3.4,4h4.7v2.1h-4.7c-3.6,0-5.5-2-5.5-6.1s2-6.1,5.5-6.1h4.7Z"/>
    <path class="st0" d="M18.9,22.5c2.5,0,4.2,1.6,4.2,4.8s-1.6,4.8-4.2,4.8h-2c-2.6,0-4.2-1.6-4.2-4.8s1.6-4.8,4.2-4.8h2ZM17.1,24.3c-1.7,0-2.4.9-2.4,2.9s.7,2.9,2.4,2.9h1.7c1.7,0,2.4-.9,2.4-2.9s-.7-2.9-2.4-2.9h-1.7Z"/>
    <path class="st0" d="M31.1,22.5c3.3,0,4.8,1.5,4.8,4.2v5.4h-1.9v-5.4c0-1.5-.9-2.3-2.9-2.3h-3.1c-.2,0-.2,0-.2.3v7.5h-1.9v-8.1c0-1.1.4-1.5,1.3-1.5h4Z"/>
    <path class="st0" d="M44.4,22.5c3.3,0,4.8,1.5,4.8,4.2v5.4h-1.9v-5.4c0-1.5-.9-2.3-2.9-2.3h-3.1c-.2,0-.2,0-.2.3v7.5h-1.9v-8.1c0-1.1.4-1.5,1.3-1.5h4Z"/>
    <path class="st0" d="M58.6,22.5c2.3,0,3.2,1.1,3.2,2.9s-.9,2.8-3.3,2.8h-4.6v.7c0,.8.4,1.3,1.5,1.3h5.9v1.9h-5.9c-2.4,0-3.3-1.3-3.3-3.2v-3.3c0-1.8.9-3.2,3.3-3.2h3.1ZM54,26.7h4.5c1,0,1.4-.4,1.4-1.1s-.4-1.2-1.4-1.2h-3.1c-1.1,0-1.5.6-1.5,1.3v1Z"/>
    <path class="st0" d="M73.2,22.5v1.9h-4.8c-1.7,0-2.4.9-2.4,2.9s.7,2.9,2.4,2.9h4.8v1.9h-4.9c-2.6,0-4.2-1.6-4.2-4.8s1.6-4.8,4.2-4.8h4.9Z"/>
    <path class="st0" d="M76.3,22.5v-2.3h1.9v2.3h2.7v1.9h-2.7v4.5c0,1.1.4,1.4,1.3,1.4h1.3v1.8h-1.7c-2,0-2.8-.8-2.8-3.3v-4.4h-1.3v-1.9h1.3Z"/>
    <path class="st0" d="M85.1,18.8v2.2h-1.9v-2.2h1.9ZM85.1,22.5v9.6h-1.9v-9.6h1.9Z"/>
    <path class="st0" d="M93.6,22.5c3.3,0,4.8,1.5,4.8,4.2v5.4h-1.9v-5.4c0-1.5-.9-2.3-2.9-2.3h-3.1c-.2,0-.2,0-.2.3v7.5h-1.9v-8.1c0-1.1.4-1.5,1.3-1.5h4Z"/>
    <path class="st0" d="M107.9,22.5c2.3,0,3.5,1.3,3.5,4.1v5.5c0,2.7-.9,3.8-3.6,3.8h-5.7v-1.9h5.5c1.4,0,1.9-.6,1.9-1.9v-.4h-4.2c-2.6,0-4.2-1.5-4.2-4.6s1.6-4.6,4.2-4.6h2.7ZM105.4,29.9h4.1v-3.4c0-1.6-.6-2.2-2.1-2.2h-1.9c-1.7,0-2.4.8-2.4,2.8s.7,2.8,2.4,2.8Z"/>
    <path class="st0" d="M128.3,19.8v2.1h-3.6v10.1h-2.2v-10.1h-3.6v-2.1h9.3Z"/>
    <path class="st0" d="M136.4,22.5c2.4,0,3.3,1.3,3.3,3.2v4.5c0,1.4-.4,1.9-2,1.9h-4.5c-2.3,0-3.2-1.1-3.2-2.9s.9-2.8,3.2-2.8h4.6v-.7c0-.7-.4-1.3-1.5-1.3h-5.7v-1.9h5.8ZM137.9,29.7v-1.8h-4.5c-1,0-1.4.4-1.4,1.1s.4,1.2,1.3,1.2h4c.4,0,.5-.1.5-.5Z"/>
    <path class="st0" d="M144.8,18.8v2.2h-1.9v-2.2h1.9ZM144.8,22.5v9.6h-1.9v-9.6h1.9Z"/>
    <path class="st0" d="M149.2,22.5l.9,7.5c0,.4.2.6.7.6s.6-.2.7-.5l1.4-5.8c.3-1.3,1.1-1.9,2.6-1.9s2.3.7,2.6,1.9l1.3,5.8c0,.3.3.5.7.5s.6-.2.7-.6l1-7.5h2.1l-1.1,7.6c-.2,1.3-.9,2.2-2.7,2.2s-2.3-.7-2.6-2l-1.3-5.8c0-.3-.3-.5-.7-.5s-.6.1-.7.5l-1.4,5.8c-.3,1.3-1.1,2-2.7,2s-2.4-.9-2.6-2.2l-1-7.6h2.1Z"/>
    <path class="st0" d="M172.3,22.5c2.4,0,3.3,1.3,3.3,3.2v4.5c0,1.4-.4,1.9-2,1.9h-4.5c-2.3,0-3.2-1.1-3.2-2.9s.9-2.8,3.2-2.8h4.6v-.7c0-.7-.4-1.3-1.5-1.3h-5.7v-1.9h5.8ZM173.8,29.7v-1.8h-4.5c-1,0-1.4.4-1.4,1.1s.4,1.2,1.3,1.2h4c.4,0,.5-.1.5-.5Z"/>
    <path class="st0" d="M184.1,22.5c3.3,0,4.8,1.5,4.8,4.2v5.4h-1.9v-5.4c0-1.5-.9-2.3-2.9-2.3h-3.1c-.2,0-.2,0-.2.3v7.5h-1.9v-8.1c0-1.1.4-1.5,1.3-1.5h4Z"/>
  </g>
  <g>
    <path class="st0" d="M198.2,22.7v-2.3h1.9v2.3h2.7v1.9h-2.7v4.5c0,1.1.4,1.4,1.3,1.4h1.3v1.8h-1.7c-2,0-2.8-.8-2.8-3.3v-4.4h-1.3v-1.9h1.3Z"/>
    <path class="st0" d="M210.8,22.7c2.5,0,4.2,1.6,4.2,4.8s-1.6,4.8-4.2,4.8h-2c-2.6,0-4.2-1.6-4.2-4.8s1.6-4.8,4.2-4.8h2ZM209,24.5c-1.7,0-2.4.9-2.4,2.9s.7,2.9,2.4,2.9h1.7c1.7,0,2.4-.9,2.4-2.9s-.7-2.9-2.4-2.9h-1.7Z"/>
    <path class="st0" d="M223.3,22.7v-2.3h1.9v2.3h2.7v1.9h-2.7v4.5c0,1.1.4,1.4,1.3,1.4h1.3v1.8h-1.7c-2,0-2.8-.8-2.8-3.3v-4.4h-1.3v-1.9h1.3Z"/>
    <path class="st0" d="M232.1,18.5v4.2h3.4c3.2,0,4.8,1.6,4.8,4.2v5.4h-1.9v-5.4c0-1.5-.9-2.3-2.9-2.3h-3.4v7.7h-1.9v-13.8h1.9Z"/>
    <path class="st0" d="M249.7,22.7c2.3,0,3.2,1.1,3.2,2.9s-.9,2.8-3.3,2.8h-4.6v.7c0,.8.4,1.3,1.5,1.3h5.9v1.9h-5.9c-2.4,0-3.3-1.3-3.3-3.2v-3.3c0-1.8.9-3.2,3.3-3.2h3.1ZM245.1,26.9h4.5c1,0,1.4-.4,1.4-1.1s-.4-1.2-1.4-1.2h-3.1c-1.1,0-1.5.6-1.5,1.3v1Z"/>
    <path class="st0" d="M262.3,20l3.7,9.9c.1.3.3.5.7.5s.6-.3.6-.7v-7.3c0-1.6.9-2.7,2.7-2.7s2.4.9,2.9,2.3l3,7.8c.1.3.4.5.7.5s.6-.3.6-.7v-9.7h2.2v9.8c0,1.6-.9,2.7-2.7,2.7s-2.4-.9-2.9-2.3l-3-7.8c-.1-.3-.4-.5-.7-.5s-.6.3-.6.7v7.2c0,1.6-.9,2.7-2.7,2.7s-2.4-.9-2.9-2.3l-3.8-10.2h2.3Z"/>
    <path class="st0" d="M288.3,22.7c2.5,0,4.2,1.6,4.2,4.8s-1.6,4.8-4.2,4.8h-2c-2.6,0-4.2-1.6-4.2-4.8s1.6-4.8,4.2-4.8h2ZM286.4,24.5c-1.7,0-2.4.9-2.4,2.9s.7,2.9,2.4,2.9h1.7c1.7,0,2.4-.9,2.4-2.9s-.7-2.9-2.4-2.9h-1.7Z"/>
    <path class="st0" d="M301.7,22.7v1.9h-3.4c-.9,0-1.2.4-1.2,1.2v6.5h-1.9v-6.8c0-1.9.7-2.8,2.6-2.8h3.9Z"/>
    <path class="st0" d="M305.9,18.5v13.8h-1.9v-13.8h1.9Z"/>
    <path class="st0" d="M319,18.5v9.7c0,2.8-1.2,4.1-3.5,4.1h-2.7c-2.6,0-4.2-1.6-4.2-4.8s1.6-4.8,4.2-4.8h4.2v-4.2h1.9ZM317.1,28.1v-3.5h-4.1c-1.7,0-2.4.9-2.4,2.9s.7,2.9,2.4,2.9h1.9c1.5,0,2.1-.7,2.1-2.3Z"/>
  </g>
  <g>
    <path class="st0" d="M118.9,4.2c2.5,0,4.2,1.6,4.2,4.8s-1.6,4.8-4.2,4.8h-2c-2.6,0-4.2-1.6-4.2-4.8s1.6-4.8,4.2-4.8h2ZM117.1,6c-1.7,0-2.4.9-2.4,2.9s.7,2.9,2.4,2.9h1.7c1.7,0,2.4-.9,2.4-2.9s-.7-2.9-2.4-2.9h-1.7Z"/>
    <path class="st0" d="M126.2,4.2v-.9c0-2.5.9-3.3,2.8-3.3h1.7v1.8h-1.3c-.9,0-1.3.4-1.3,1.4v1h2.7v1.9h-2.7v7.7h-1.9v-7.7h-1.3v-1.9h1.3Z"/>
    <path class="st0" d="M155.3,1.5v12.3h-2.1V1.5h2.1Z"/>
    <path class="st0" d="M166.1,1.5v5h6.3V1.5h2.2v12.3h-2.2v-5.1h-6.3v5.1h-2.1V1.5h2.1Z"/>
    <path class="st0" d="M184,4.2c2.3,0,3.2,1.1,3.2,2.9s-.9,2.8-3.3,2.8h-4.6v.7c0,.8.4,1.3,1.5,1.3h5.9v1.9h-5.9c-2.4,0-3.3-1.3-3.3-3.2v-3.3c0-1.8.9-3.2,3.3-3.2h3.1ZM179.4,8.4h4.5c1,0,1.4-.4,1.4-1.1s-.4-1.2-1.4-1.2h-3.1c-1.1,0-1.5.6-1.5,1.3v1Z"/>
    <path class="st0" d="M196.2,4.2c2.4,0,3.3,1.3,3.3,3.2v4.5c0,1.4-.4,1.9-2,1.9h-4.5c-2.3,0-3.2-1.1-3.2-2.9s.9-2.8,3.2-2.8h4.6v-.7c0-.7-.4-1.3-1.5-1.3h-5.7v-1.9h5.8ZM197.6,11.4v-1.8h-4.5c-1,0-1.4.4-1.4,1.1s.4,1.2,1.3,1.2h4c.4,0,.5-.1.5-.5Z"/>
    <path class="st0" d="M204.6,0v13.8h-1.9V0h1.9Z"/>
    <path class="st0" d="M208.1,4.2V1.9h1.9v2.3h2.7v1.9h-2.7v4.5c0,1.1.4,1.4,1.3,1.4h1.3v1.8h-1.7c-2,0-2.8-.8-2.8-3.3v-4.4h-1.3v-1.9h1.3Z"/>
    <path class="st0" d="M216.9,0v4.2h3.4c3.2,0,4.8,1.6,4.8,4.2v5.4h-1.9v-5.4c0-1.5-.9-2.3-2.9-2.3h-3.4v7.7h-1.9V0h1.9Z"/>
    <path class="st0" d="M236.9,4.2v1.9h-4.8c-1.7,0-2.4.9-2.4,2.9s.7,2.9,2.4,2.9h4.8v1.9h-4.9c-2.6,0-4.2-1.6-4.2-4.8s1.6-4.8,4.2-4.8h4.9Z"/>
    <path class="st0" d="M245.8,4.2c2.4,0,3.3,1.3,3.3,3.2v4.5c0,1.4-.4,1.9-2,1.9h-4.5c-2.3,0-3.2-1.1-3.2-2.9s.9-2.8,3.2-2.8h4.6v-.7c0-.7-.4-1.3-1.5-1.3h-5.7v-1.9h5.8ZM247.2,11.4v-1.8h-4.5c-1,0-1.4.4-1.4,1.1s.4,1.2,1.3,1.2h4c.4,0,.5-.1.5-.5Z"/>
    <path class="st0" d="M258.8,4.2v1.9h-3.4c-.9,0-1.2.4-1.2,1.2v6.5h-1.9v-6.8c0-1.9.7-2.8,2.6-2.8h3.9Z"/>
    <path class="st0" d="M267.4,4.2c2.3,0,3.2,1.1,3.2,2.9s-.9,2.8-3.3,2.8h-4.6v.7c0,.8.4,1.3,1.5,1.3h5.9v1.9h-5.9c-2.4,0-3.3-1.3-3.3-3.2v-3.3c0-1.8.9-3.2,3.3-3.2h3.1ZM262.8,8.4h4.5c1,0,1.4-.4,1.4-1.1s-.4-1.2-1.4-1.2h-3.1c-1.1,0-1.5.6-1.5,1.3v1Z"/>
    <path class="st0" d="M275.5,4.4v2.5h-2.1v-2.5h2.1ZM275.5,11.3v2.5h-2.1v-2.5h2.1Z"/>
    <path class="st0" d="M141.4,10.2l-1.5,3.5h-2.1l5.3-12.5h2.5l5.5,12.5h-2.2l-1.6-3.5h-5.9ZM146.6,8.5c-1.4-3.3-2.1-4.9-2.4-5.8h0c-.3.8-1.1,2.9-2.2,5.8h4.7Z"/>
  </g>
  <g>
    <path class="st0" d="M23.1,13.5h-2.1V3.7c0-1.6.9-2.7,2.8-2.7s2.5.9,3,2.3l3.6,7.8c.1.3.4.5.8.5s.7-.3.7-.7V1.3h2.2v9.8c0,1.6-.9,2.7-2.8,2.7s-2.5-.9-3-2.3l-3.6-7.8c-.2-.4-.4-.5-.8-.5s-.7.3-.7.7v9.7Z"/>
    <path class="st0" d="M43.5,3.9c2.3,0,3.2,1.1,3.2,2.9s-.9,2.8-3.3,2.8h-4.6v.7c0,.8.4,1.3,1.5,1.3h5.9v1.9h-5.9c-2.4,0-3.3-1.3-3.3-3.2v-3.3c0-1.8.9-3.2,3.3-3.2h3.1ZM38.9,8.1h4.5c1,0,1.4-.4,1.4-1.1s-.4-1.2-1.4-1.2h-3.1c-1.1,0-1.5.6-1.5,1.3v1Z"/>
    <path class="st0" d="M50.4,3.9l.9,7.5c0,.4.2.6.7.6s.6-.2.7-.5l1.4-5.8c.3-1.3,1.1-1.9,2.6-1.9s2.3.7,2.6,1.9l1.3,5.8c0,.3.3.5.7.5s.6-.2.7-.6l1-7.5h2.1l-1.1,7.6c-.2,1.3-.9,2.2-2.7,2.2s-2.3-.7-2.6-2l-1.3-5.8c0-.3-.3-.5-.7-.5s-.6.1-.7.5l-1.4,5.8c-.3,1.3-1.1,2-2.7,2s-2.4-.9-2.6-2.2l-1-7.6h2.1Z"/>
    <path class="st0" d="M82.5,1.3v2.1h-6.1c-1.3,0-1.9.6-1.9,1.5s.6,1.5,1.9,1.5h6v1.9h-6.1c-1.2,0-1.9.5-1.9,1.5s.6,1.5,1.9,1.5h6.2v2.1h-6.2c-2.9,0-4.1-1.4-4.1-3.3s.6-2.3,1.8-2.8c-1.1-.5-1.7-1.4-1.7-2.8,0-2,1.2-3.3,4.1-3.3h6.1Z"/>
    <path class="st0" d="M92.2,3.9v1.9h-3.4c-.9,0-1.2.4-1.2,1.2v6.5h-1.9v-6.8c0-1.9.7-2.8,2.6-2.8h3.9Z"/>
    <path class="st0" d="M100.6,3.9c2.4,0,3.3,1.3,3.3,3.2v4.5c0,1.4-.4,1.9-2,1.9h-4.5c-2.3,0-3.2-1.1-3.2-2.9s.9-2.8,3.2-2.8h4.6v-.7c0-.7-.4-1.3-1.5-1.3h-5.7v-1.9h5.8ZM102.1,11.2v-1.8h-4.5c-1,0-1.4.4-1.4,1.1s.4,1.2,1.3,1.2h4c.4,0,.5-.1.5-.5Z"/>
    <path class="st0" d="M3.6,10.1l-1.5,3.5H0L5.3,1.2h2.5l5.5,12.5h-2.2l-1.6-3.5H3.6ZM8.9,8.4c-1.4-3.3-2.1-4.9-2.4-5.8h0c-.3.8-1.1,2.9-2.2,5.8h4.7Z"/>
  </g>
</svg>