<?xml version="1.0" encoding="UTF-8"?>
<svg id="_圖層_1" xmlns="http://www.w3.org/2000/svg" xmlns:xlink="http://www.w3.org/1999/xlink" version="1.1" viewBox="0 0 553.9 77.2">
  <!-- Generator: Adobe Illustrator 30.5.1, SVG Export Plug-In . SVG Version: 2.1.4 Build 3)  -->
  <defs>
    <style>
      .st0, .st1 {
        fill: none;
      }

      .st1 {
        stroke: #fff;
        stroke-miterlimit: 10;
      }

      .st2, .st3, .st4 {
        isolation: isolate;
      }

      .st5, .st3, .st4 {
        fill: #fff;
      }

      .st6, .st4 {
        opacity: .5;
      }

      .st7 {
        clip-path: url(#clippath);
      }

      .st3 {
        opacity: .6;
      }
    </style>
    <clipPath id="clippath">
      <path class="st0" d="M16.6,74.9c-7.5,0-13.7-6.1-13.7-13.7s6.1-13.7,13.7-13.7,13.7,6.1,13.7,13.7-6.1,13.7-13.7,13.7Z"/>
    </clipPath>
  </defs>
  <path class="st4" d="M16.2,26.9c7.3,0,13.3-5.9,13.3-13.3S23.5.4,16.2.4,2.9,6.3,2.9,13.7s5.9,13.3,13.3,13.3h0Z"/>
  <path class="st5" d="M16.2,27.4c-7.5,0-13.7-6.1-13.7-13.7S8.8,0,16.2,0s13.7,6.1,13.7,13.7-6.1,13.7-13.7,13.7ZM16.2.8C9.1.8,3.4,6.6,3.4,13.7s5.8,12.9,12.9,12.9,12.9-5.8,12.9-12.9S23.3.8,16.2.8Z"/>
  <path class="st4" d="M17.1,7.7l.8,2.9,3-.7c.9-.2,1.6.9.9,1.6l-2.1,2.2,2.1,2.2c.7.7,0,1.8-.9,1.6l-3-.7-.8,2.9c-.3.9-1.6.9-1.8,0l-.8-2.9-3,.7c-.9.2-1.6-.9-.9-1.6l2.1-2.2-2.1-2.2c-.7-.7,0-1.8.9-1.6l3,.7.8-2.9c.3-.9,1.6-.9,1.8,0Z"/>
  <g class="st2">
    <path class="st5" d="M47,24.3c-1.6,0-2.4-.6-2.4-1.7v-5.9c0-3.8,3.3-5.7,10-5.7h9.7c2.5,0,3.7-.6,3.7-1.6v-1.6c0-1.2-1.3-1.8-4-1.8h-5.1c-1.6,0-2.5-.7-2.5-2.2s.8-2.2,2.5-2.2h5.1c6.3,0,9.5,1.9,9.5,5.8v2.4c0,3.6-3.1,5.3-9.4,5.3h-10.2c-2.6,0-3.9.6-3.9,1.9v2.7c0,.2,0,.3.3.3h20.7c1.7,0,2.5.7,2.5,2.1s-.8,2.2-2.5,2.2h-24.2Z"/>
    <path class="st5" d="M88.3,24.3c-6.7,0-10-2.1-10-6.4V7.9c0-4.2,3.3-6.3,9.8-6.3h7.6c6.5,0,9.8,2.1,9.8,6.3v10c0,4.3-3.3,6.4-10,6.4h-7.3ZM100.1,8c0-1.4-1.4-2.1-4.4-2.1h-7.4c-2.9,0-4.4.7-4.4,2.1v9.6c0,1.5,1.5,2.3,4.4,2.3h7.4c2.9,0,4.4-.8,4.4-2.3v-9.6Z"/>
    <path class="st5" d="M112.7,24.3c-1.6,0-2.4-.6-2.4-1.7v-5.9c0-3.8,3.3-5.7,10-5.7h9.7c2.5,0,3.7-.6,3.7-1.6v-1.6c0-1.2-1.3-1.8-4-1.8h-5.1c-1.6,0-2.5-.7-2.5-2.2s.8-2.2,2.5-2.2h5.1c6.3,0,9.5,1.9,9.5,5.8v2.4c0,3.6-3.1,5.3-9.4,5.3h-10.2c-2.6,0-3.9.6-3.9,1.9v2.7c0,.2,0,.3.3.3h20.7c1.7,0,2.5.7,2.5,2.1s-.8,2.2-2.5,2.2h-24.2Z"/>
    <path class="st5" d="M173.7,18c0,4.2-3.5,6.3-10.6,6.3h-9.1c-6.7,0-10-2.1-10-6.4V7.7c0-4.1,3.3-6.1,9.8-6.1h5.3c1.6,0,2.5.7,2.5,2.1s-.9,2.2-2.5,2.2h-5.2c-2.9,0-4.4.7-4.4,1.9v1.3h13.5c7.1,0,10.6,2.1,10.6,6.2v2.6ZM149.6,13.4v4.3c0,1.5,1.6,2.3,4.9,2.3h9c3.2,0,4.7-.8,4.7-2.2v-2.3c0-1.4-1.6-2.2-4.8-2.2h-13.8Z"/>
    <path class="st5" d="M180.6,24.4c-1.9,0-2.9-.8-2.9-2.4s1-2.4,2.9-2.4,2.9.8,2.9,2.4-1,2.4-3,2.4Z"/>
    <path class="st5" d="M197.5,24.3c-6.7,0-10-2.1-10-6.4V7.9c0-4.2,3.3-6.3,9.8-6.3h7.6c6.5,0,9.8,2.1,9.8,6.3v10c0,4.3-3.3,6.4-10,6.4h-7.3ZM209.2,8c0-1.4-1.4-2.1-4.4-2.1h-7.4c-2.9,0-4.4.7-4.4,2.1v9.6c0,1.5,1.5,2.3,4.4,2.3h7.4c2.9,0,4.4-.8,4.4-2.3v-9.6Z"/>
    <path class="st5" d="M248.8,19c0,3.5-2.9,5.2-8.8,5.2h-11.8c-5.8,0-8.8-1.7-8.8-5.2v-2.3c0-1.6.9-3,2.6-4-1.5-.9-2.2-2.2-2.2-3.7v-1.7c0-3.8,3-5.7,9-5.7h10.5c6,0,9,1.9,9,5.7v1.7c0,1.5-.8,2.7-2.3,3.7,1.7,1,2.6,2.4,2.6,4v2.3ZM243.2,16.5c0-1.1-1.1-1.6-3.4-1.6h-11.4c-2.3,0-3.4.5-3.4,1.6v1.9c0,1,1.1,1.6,3.4,1.6h11.4c2.3,0,3.4-.5,3.4-1.6v-1.9ZM242.9,7.6c0-1.1-1.1-1.7-3.4-1.7h-10.8c-2.3,0-3.4.6-3.4,1.7v1.7c0,1,1.1,1.6,3.3,1.6h11c2.2,0,3.3-.5,3.3-1.6v-1.7Z"/>
    <path class="st5" d="M255.2,24.4c-1.9,0-2.9-.8-2.9-2.4s1-2.4,2.9-2.4,2.9.8,2.9,2.4-1,2.4-3,2.4Z"/>
    <path class="st5" d="M263,3.7c0-1.5.9-2.3,2.8-2.3s2.7.8,2.7,2.3v18.4c0,1.5-.9,2.3-2.8,2.3s-2.7-.8-2.7-2.3V3.7Z"/>
    <path class="st5" d="M273.9,3.7c0-1.5.9-2.3,2.8-2.3s2.7.8,2.7,2.3v18.4c0,1.5-.9,2.3-2.8,2.3s-2.7-.8-2.7-2.3V3.7Z"/>
  </g>
  <g class="st2">
    <path class="st5" d="M411.7,50.9c0-1.5.9-2.3,2.8-2.3s2.7.8,2.7,2.3v18.4c0,1.5-.9,2.3-2.8,2.3s-2.7-.8-2.7-2.3v-18.4Z"/>
    <path class="st5" d="M432.5,71.4c-6.7,0-10-2.1-10-6.4v-10c0-4.2,3.3-6.3,9.8-6.3h7.6c6.5,0,9.8,2.1,9.8,6.3v10c0,4.3-3.3,6.4-10,6.4h-7.3ZM444.2,55.2c0-1.4-1.4-2.1-4.4-2.1h-7.4c-2.9,0-4.4.7-4.4,2.1v9.6c0,1.5,1.5,2.3,4.4,2.3h7.4c2.9,0,4.4-.8,4.4-2.3v-9.6Z"/>
    <path class="st5" d="M454.9,50.9c0-1.5.9-2.3,2.8-2.3s2.7.8,2.7,2.3v18.4c0,1.5-.9,2.3-2.8,2.3s-2.7-.8-2.7-2.3v-18.4Z"/>
  </g>
  <g class="st2">
    <path class="st5" d="M344.2,23.7c-5.2,0-7.8-1.7-7.8-5.1v-8.2c0-3.4,2.5-5.1,7.6-5.1h5.9c5.1,0,7.6,1.7,7.6,5.1v8.2c0,3.4-2.6,5.1-7.8,5.1h-5.6ZM354.7,10.4c0-2-1.6-2.9-4.8-2.9h-5.8c-3.2,0-4.8,1-4.8,2.9v8.1c0,2,1.6,3,4.9,3h5.7c3.3,0,4.9-1,4.9-3v-8.1Z"/>
    <path class="st5" d="M372.4,23.7c-.8,0-1.3-.4-1.3-1.1s.5-1.1,1.3-1.1h3.8c3.2,0,4.9-1,4.9-2.8v-1.8h-10.8c-5.5,0-8.2-1.7-8.2-5v-1.5c0-3.4,2.7-5,8.2-5h5.8c5.2,0,7.9,1.7,7.9,5.2v8.2c0,3.3-2.6,4.9-7.7,4.9h-3.8ZM370.2,14.8h10.9v-4.2c0-2.1-1.7-3.1-5.1-3.1h-5.8c-3.5,0-5.2,1-5.2,2.9v1.4c0,2,1.8,2.9,5.3,2.9Z"/>
    <path class="st5" d="M390.2,14.6c-1,0-1.6-.4-1.6-1.3s.5-1.3,1.6-1.3,1.6.4,1.6,1.3-.5,1.3-1.6,1.3ZM390.2,22.2c-1,0-1.6-.4-1.6-1.3s.5-1.3,1.6-1.3,1.6.4,1.6,1.3-.5,1.3-1.6,1.3Z"/>
    <path class="st5" d="M404.4,23.7c-5.2,0-7.8-1.7-7.8-5.1v-8.2c0-3.4,2.5-5.1,7.6-5.1h5.9c5.1,0,7.6,1.7,7.6,5.1v8.2c0,3.4-2.6,5.1-7.8,5.1h-5.6ZM415,10.4c0-2-1.6-2.9-4.8-2.9h-5.8c-3.2,0-4.8,1-4.8,2.9v8.1c0,2,1.6,3,4.9,3h5.7c3.3,0,4.9-1,4.9-3v-8.1Z"/>
    <path class="st5" d="M430.6,23.7c-5.2,0-7.8-1.7-7.8-5.1v-8.2c0-3.4,2.5-5.1,7.6-5.1h5.9c5.1,0,7.6,1.7,7.6,5.1v8.2c0,3.4-2.6,5.1-7.8,5.1h-5.6ZM441.2,10.4c0-2-1.6-2.9-4.8-2.9h-5.8c-3.2,0-4.8,1-4.8,2.9v8.1c0,2,1.6,3,4.9,3h5.7c3.3,0,4.9-1,4.9-3v-8.1Z"/>
    <path class="st5" d="M449.5,16.6c-.8,0-1.3-.4-1.3-1.1s.5-1,1.3-1h8.8c.9,0,1.3.3,1.3,1s-.5,1.1-1.3,1.1h-8.8Z"/>
    <path class="st5" d="M463.8,6.3c0-.7.5-1.1,1.5-1.1s1.4.4,1.4,1.1v16.4c0,.7-.5,1.1-1.5,1.1s-1.4-.4-1.4-1.1V6.3Z"/>
    <path class="st5" d="M472.9,23.7c-.9,0-1.3-.3-1.3-.9v-5c0-2.8,2.5-4.2,7.5-4.2h7.9c2.9,0,4.3-.7,4.3-2.1v-1.7c0-1.5-1.5-2.2-4.4-2.2h-4.6c-.9,0-1.3-.4-1.3-1.1s.5-1.1,1.3-1.1h4.6c4.8,0,7.3,1.4,7.3,4.2v2c0,2.7-2.4,4.1-7.2,4.1h-8.1c-2.9,0-4.4.7-4.4,2.2v3.5c0,.1,0,.2.2.2h18.1c.9,0,1.4.4,1.4,1.1s-.5,1.1-1.4,1.1h-19.9Z"/>
    <path class="st5" d="M500.1,14.6c-1,0-1.6-.4-1.6-1.3s.5-1.3,1.6-1.3,1.6.4,1.6,1.3-.5,1.3-1.6,1.3ZM500.1,22.2c-1,0-1.6-.4-1.6-1.3s.5-1.3,1.6-1.3,1.6.4,1.6,1.3-.5,1.3-1.6,1.3Z"/>
    <path class="st5" d="M514.3,23.7c-5.2,0-7.8-1.7-7.8-5.1v-8.2c0-3.4,2.5-5.1,7.6-5.1h5.9c5.1,0,7.6,1.7,7.6,5.1v8.2c0,3.4-2.6,5.1-7.8,5.1h-5.6ZM524.8,10.4c0-2-1.6-2.9-4.8-2.9h-5.8c-3.2,0-4.8,1-4.8,2.9v8.1c0,2,1.6,3,4.9,3h5.7c3.3,0,4.9-1,4.9-3v-8.1Z"/>
    <path class="st5" d="M540.5,23.7c-5.2,0-7.8-1.7-7.8-5.1v-8.2c0-3.4,2.5-5.1,7.6-5.1h5.9c5.1,0,7.6,1.7,7.6,5.1v8.2c0,3.4-2.6,5.1-7.8,5.1h-5.6ZM551.1,10.4c0-2-1.6-2.9-4.8-2.9h-5.8c-3.2,0-4.8,1-4.8,2.9v8.1c0,2,1.6,3,4.9,3h5.7c3.3,0,4.9-1,4.9-3v-8.1Z"/>
  </g>
  <g>
    <path class="st5" d="M288.7,14.5c0-1.5.2-2.9.6-4.2.4-1.3.9-2.4,1.5-3.4.6-1,1.3-1.8,2-2.6l2.2,1c-.7.7-1.3,1.5-1.9,2.4-.6.9-1,1.9-1.4,3s-.5,2.3-.5,3.7.2,2.6.5,3.7.8,2.1,1.4,3c.6.9,1.2,1.7,1.9,2.4l-2.2,1c-.7-.7-1.4-1.6-2-2.6-.6-1-1.1-2.1-1.5-3.4-.4-1.3-.6-2.7-.6-4.2Z"/>
    <path class="st5" d="M296.2,19.6h18.8v3.2h-18.8v-3.2ZM298,7.5h15.3v3.1h-15.3v-3.1Z"/>
    <path class="st5" d="M322.4,14.5c0,1.5-.2,2.9-.6,4.2-.4,1.3-.9,2.4-1.5,3.4-.6,1-1.3,1.8-2,2.6l-2.2-1c.7-.7,1.3-1.6,1.9-2.4.6-.9,1-1.9,1.4-3s.5-2.3.5-3.7-.2-2.6-.5-3.7-.8-2.1-1.4-3c-.6-.9-1.2-1.7-1.9-2.4l2.2-1c.7.7,1.4,1.6,2,2.6.6,1,1.1,2.1,1.5,3.4s.6,2.7.6,4.2Z"/>
  </g>
  <g>
    <path class="st5" d="M44.9,58.2c0-.3-.1-.6-.3-1.1s-.3-.9-.5-1.4-.3-.9-.5-1.2c.4,0,.8-.3,1.2-.6.4-.3.8-.6,1.3-1.1.3-.2.6-.6,1.1-1.1.5-.5,1-1.1,1.6-1.9.6-.7,1.2-1.5,1.8-2.4.6-.9,1.1-1.7,1.6-2.6l3.9,1.7c-.8,1.2-1.8,2.4-2.8,3.6-1,1.2-2,2.3-3.1,3.3-1.1,1-2.1,2-3.1,2.8h0c-.5.4-.8.6-1.1.8-.3.2-.6.4-.8.6-.2.2-.3.4-.3.6ZM44.9,58.2v-3c0,0,2.5-1.4,2.5-1.4l17.9-.5c0,.5,0,1.1.1,1.9,0,.7.1,1.3.2,1.7-2.8.1-5.2.2-7.2.3-2,0-3.8.2-5.2.2-1.4,0-2.6.1-3.6.2-1,0-1.7.1-2.3.2-.6,0-1.1.1-1.4.2-.4,0-.7.2-1,.2ZM45.7,60h20.2v13.1h-4.2v-9.4h-12v9.4h-4v-13.1ZM47.6,67.9h16.1v3.8h-16.1v-3.8ZM58.1,50l3-2c.9.8,1.8,1.8,2.8,2.8,1,1,1.9,2.1,2.8,3.1.9,1,1.6,1.9,2.1,2.8l-3.3,2.4c-.5-.8-1.1-1.8-2-2.8-.8-1-1.7-2.1-2.7-3.2-1-1.1-1.9-2.1-2.8-3Z"/>
    <path class="st5" d="M71,68.7c1.1-.3,2.3-.7,3.8-1.2,1.4-.5,3-1,4.6-1.6,1.6-.6,3.2-1.1,4.8-1.7l.7,3.5c-1.4.6-2.8,1.2-4.2,1.7-1.4.6-2.8,1.1-4.2,1.7-1.4.5-2.6,1-3.8,1.5l-1.7-4ZM72,52.2h8.8v3.9h-8.8v-3.9ZM78.7,45.8h4.1v22h-4.1v-22ZM86.3,45.9h4.1v20.8c0,.8,0,1.3.2,1.6.1.2.4.3.9.3h2.4c.4,0,.6-.2.8-.6.2-.4.3-1,.4-2,0-.9.1-2.3.2-4,.3.3.7.5,1.2.7s.9.5,1.4.6c.5.2.9.3,1.2.4,0,2.1-.3,3.7-.6,5-.3,1.3-.8,2.2-1.4,2.7-.6.6-1.5.9-2.7.9h-3.4c-1.1,0-2-.2-2.7-.5s-1.1-.9-1.4-1.8c-.3-.8-.4-2-.4-3.4v-20.7ZM88.4,52.2h9.5v3.9h-9.5v-3.9Z"/>
    <path class="st5" d="M101.9,46.6h25.4v26.6h-3.9v-23.1h-17.8v23.1h-3.7v-26.6ZM104.2,68.6h21.3v3.5h-21.3v-3.5ZM106.1,63.8c1.1,0,2.3-.2,3.7-.4,1.4-.2,2.9-.3,4.4-.5v2.6c-1.3.2-2.7.4-4,.6-1.4.2-2.6.4-3.8.5l-.3-2.8ZM106.4,52.8h16.2v2.7h-16.2v-2.7ZM107.1,56.6h6.6v5.6h-6.6v-5.6ZM109.6,58.6v1.6h1.6v-1.6h-1.6ZM119.1,56.2l3,.6c-.7,2.5-1.8,4.8-3.2,6.7s-3,3.5-4.9,4.8c-.1-.2-.3-.4-.6-.7-.2-.3-.5-.6-.8-.9-.3-.3-.5-.5-.7-.7,1.8-1,3.3-2.4,4.5-4,1.2-1.7,2.1-3.6,2.7-5.7ZM114.1,50.5h3.2c0,1.8.1,3.5.3,5.1.1,1.6.3,3.1.5,4.4.2,1.3.5,2.4.8,3.2s.7,1.3,1.1,1.4c.2,0,.3-.2.4-.7,0-.5.2-1.2.3-2,.2.2.4.4.7.7.3.3.6.5.9.7.3.2.6.4.8.5-.2,1.9-.7,3.1-1.5,3.7-.8.6-1.7.7-2.7.2-.9-.3-1.6-1-2.2-2.1-.6-1.1-1-2.4-1.4-3.9-.3-1.6-.6-3.3-.8-5.2-.2-1.9-.3-3.9-.4-6ZM118.1,51.5l1.7-1.7c.5.2,1,.5,1.5.9.5.3.9.7,1.2,1l-1.8,1.8c-.3-.3-.7-.7-1.1-1-.5-.4-1-.7-1.4-1Z"/>
    <path class="st5" d="M131.1,46.5h6.7v3.5h-3.4v23h-3.3v-26.5ZM136.5,46.5h1.1c0-.1,2.4,1.2,2.4,1.2-.3,1.3-.7,2.6-1.1,4s-.8,2.7-1.1,3.8c.8,1.2,1.3,2.2,1.5,3.3.2,1,.3,2,.3,2.8s0,1.8-.3,2.4c-.2.6-.5,1.2-1,1.5-.2.2-.5.3-.8.4-.3.1-.6.2-.9.2-.3,0-.5,0-.8,0-.3,0-.6,0-1,0,0-.4,0-1-.2-1.6s-.3-1.2-.6-1.6c.2,0,.4,0,.6,0h.5c.3,0,.5,0,.7-.2.2-.1.3-.3.4-.6,0-.3.1-.7.1-1.1,0-.7-.1-1.5-.3-2.4-.2-.9-.7-1.9-1.4-2.9.2-.6.4-1.4.5-2.1.2-.8.3-1.6.5-2.3.2-.8.3-1.5.5-2.2.1-.7.2-1.2.3-1.7v-1ZM142.3,45.4l2.9.6c-.5,1.6-1.2,3.1-2.1,4.5-.9,1.4-1.8,2.6-2.9,3.5-.2-.3-.6-.6-1.1-1-.5-.4-.9-.7-1.2-1,1-.8,1.9-1.8,2.6-3,.8-1.2,1.4-2.4,1.8-3.8ZM141.9,65.6l3.5,1.1c-.4.6-.8,1.2-1.2,1.9-.5.7-.9,1.3-1.4,1.9-.5.6-.9,1.1-1.4,1.6-.2-.2-.5-.4-.9-.7-.4-.3-.8-.5-1.1-.7-.4-.2-.7-.4-1-.6.6-.6,1.3-1.3,1.9-2.1.6-.8,1.2-1.6,1.6-2.4ZM138.8,54.4c.6,0,1.2,0,1.9-.2.6,0,1.4-.1,2.1-.2v2c-.6.1-1.2.3-1.8.4-.6.1-1.2.2-1.8.4l-.4-2.4ZM146,47.5h1c0-.1,1.9.6,1.9.6-.4,2-1,3.8-1.8,5.4-.8,1.6-1.7,3.1-2.7,4.3-1,1.2-2.2,2.3-3.5,3.1-.2-.4-.5-.8-.9-1.2-.4-.5-.7-.8-1-1.1,1.1-.6,2.1-1.5,3.1-2.6.9-1.1,1.7-2.3,2.4-3.7.7-1.4,1.2-2.8,1.5-4.3v-.5ZM141.3,61.6h14.1v3.1h-14.1v-3.1ZM141.4,51.8l1.6-1.7c.5.4,1.1.8,1.7,1.3.6.5,1.1.9,1.5,1.2l-1.6,1.9c-.3-.4-.8-.8-1.4-1.4-.6-.5-1.2-1-1.7-1.4ZM142.5,47.5h4.3v2.5h-4.3v-2.5ZM143.9,56.7h8.5v3.1h-8.5v-3.1ZM146.5,62.9h3.6v10.2h-3.6v-10.2ZM151,48.2c.4,1.5.9,2.8,1.6,4.1.7,1.3,1.5,2.5,2.4,3.5.9,1,2,1.9,3.2,2.5-.4.3-.7.7-1.2,1.2-.4.5-.8,1-1,1.4-1.3-.8-2.5-1.8-3.5-3-1-1.2-1.9-2.6-2.6-4.1-.7-1.5-1.3-3.2-1.8-5l2.9-.6ZM150.4,46.9h4.8v2.6h-4.8v-2.6ZM151.2,66.9l2.9-1.7c.4.5.9,1,1.4,1.6.5.6,1,1.1,1.4,1.7.5.5.8,1,1.1,1.5l-3,1.9c-.3-.4-.6-.9-1-1.5-.4-.6-.9-1.2-1.4-1.8-.5-.6-.9-1.2-1.4-1.7ZM154.1,46.9h1.3c0-.1,2.1,1.1,2.1,1.1-.5,1.3-1,2.6-1.7,3.9-.7,1.3-1.4,2.4-2.1,3.2-.2-.3-.6-.7-1-1.1-.4-.4-.8-.8-1.1-1,.4-.5.7-1,1-1.7.3-.6.6-1.3.8-2,.2-.7.4-1.3.6-1.9v-.6Z"/>
    <path class="st5" d="M172.6,45.1l3.4,1.2c-1.1,1.4-2.4,2.6-4,3.8s-3.3,2.1-5.1,2.9c-1.9.8-3.7,1.6-5.7,2.1-.1-.3-.3-.6-.6-1-.2-.4-.5-.8-.7-1.1-.3-.4-.5-.7-.7-.9,1.8-.4,3.6-1,5.3-1.6s3.3-1.5,4.6-2.4c1.4-.9,2.5-1.9,3.4-3ZM163,53.9h20.7v8.2h-20.7v-8.2ZM164.6,62.9h17.6v10.1h-4v-7.6h-9.8v7.7h-3.8v-10.2ZM166.2,56.3v3.5h14v-3.5h-14ZM166.8,66.4h13v2.5h-13v-2.5ZM166.8,69.9h13v2.5h-13v-2.5ZM167,56.8l2.7-.7c.2.5.4,1.1.6,1.6.2.6.3,1.1.4,1.5l-2.8.8c0-.5-.1-1-.3-1.6s-.4-1.2-.6-1.6ZM168.1,50.5h10.4v2.5h-10.4v-2.5ZM171.6,54.7h3.1v6.2h-3.1v-6.2ZM175.2,46.5c.6.6,1.4,1.2,2.4,1.7s1.9,1.1,3,1.5,2.3.9,3.5,1.2c1.2.4,2.4.7,3.7.9-.4.3-.9.8-1.3,1.4-.5.6-.9,1.1-1.1,1.6-1.2-.3-2.5-.7-3.7-1.2-1.2-.5-2.4-1-3.5-1.7-1.1-.6-2.2-1.3-3.2-2-1-.7-1.8-1.5-2.6-2.3l2.9-1.1ZM176.5,56l3.2.7c-.3.6-.6,1.2-.9,1.8-.3.6-.5,1.1-.8,1.5l-2.6-.7c.2-.5.4-1,.6-1.6.2-.6.4-1.2.5-1.7Z"/>
    <path class="st5" d="M188.9,50.3h9.7v3.1h-9.7v-3.1ZM189.9,62.6h2.7v10.1h-2.7v-10.1ZM189.9,54.4h8v2.9h-8v-2.9ZM189.9,58.5h8v2.9h-8v-2.9ZM191.3,62.6h6.5v9h-6.5v-3h3.7v-3h-3.7v-3ZM191.5,46.5l2.7-1c.3.6.7,1.3,1,2.1s.6,1.4.7,1.9l-2.9,1.2c-.1-.5-.4-1.2-.6-2-.3-.8-.6-1.5-.9-2.1ZM198.3,66.2c1.2,0,2.6-.2,4.3-.4,1.6-.1,3.3-.3,5-.4v2.8c-1.5.2-3.1.3-4.6.5-1.6.2-3,.3-4.3.5l-.4-2.9ZM198.5,62h17.7v2.8h-17.7v-2.8ZM198.6,54.8h17.7v2.8h-17.7v-2.8ZM205.9,57.7l2,2.2c-.8.2-1.7.4-2.6.6-1,.2-1.9.3-2.9.4-1,0-1.9.2-2.8.2,0-.3-.1-.7-.3-1.1-.1-.4-.3-.8-.5-1.1.8,0,1.7-.2,2.6-.3.9,0,1.7-.2,2.5-.4.8-.2,1.5-.3,2.1-.5ZM202.1,59.4h3.4v10.7c0,.7,0,1.3-.3,1.6-.2.4-.5.7-1,.9-.5.2-1.1.3-1.7.4-.7,0-1.4,0-2.3,0,0-.4-.2-.9-.4-1.4-.2-.5-.4-1-.6-1.4.5,0,.9,0,1.4,0,.5,0,.8,0,.9,0,.3,0,.5-.2.5-.4v-10.6ZM199.5,48h16.2v2.6h-16.2v-2.6ZM200.4,51.5h14.3v2.4h-14.3v-2.4ZM201.6,46.3l2.7-.9c.3.4.7.9,1,1.4.3.5.5,1,.7,1.4l-2.9,1c0-.4-.3-.9-.6-1.4-.3-.5-.6-1-.9-1.5ZM212.7,65l2.6,1.3c-.6.9-1.4,1.8-2.3,2.6-.9.8-1.8,1.6-2.9,2.2-1,.6-2,1.2-3.1,1.6-.2-.3-.4-.6-.8-1-.4-.4-.7-.7-1-1,1-.4,1.9-.9,2.9-1.4.9-.6,1.8-1.2,2.6-1.9.8-.7,1.5-1.5,2-2.4ZM205.5,48.7h3.8v7.3h-3.8v-7.3ZM207.6,58.2h3.2c0,2.5,0,4.7.3,6.5.2,1.8.6,3.2,1,4.2.5,1,1,1.5,1.6,1.5s.4-.2.6-.6c.1-.4.2-1,.3-1.7.3.3.7.6,1.1.8.4.2.8.4,1.1.6-.2,1.4-.6,2.4-1.1,3.1-.5.6-1.3.9-2.2.9s-2.1-.4-2.9-1.1-1.3-1.8-1.7-3.2c-.4-1.4-.7-3-.9-4.8-.2-1.8-.3-3.8-.3-6ZM210.6,45.4l3.4.8c-.4.6-.8,1.1-1.1,1.6-.4.5-.7.9-1,1.3l-2.7-.8c.3-.4.5-.9.8-1.5.3-.5.5-1,.6-1.5ZM210.9,59.4l2.2-1.5c.5.4,1.1.8,1.6,1.3.6.5,1,1,1.3,1.4l-2.4,1.7c-.3-.4-.7-.9-1.2-1.4-.5-.5-1.1-1-1.6-1.4Z"/>
    <path class="st5" d="M219.9,50.5h24.5v15h-4.1v-11.2h-16.4v11.3h-3.9v-15.2ZM221.9,60.2h20.6v3.8h-20.6v-3.8ZM230,45.4h4.1v27.7h-4.1v-27.7Z"/>
    <path class="st5" d="M250,55.4l3.8.7c-.1,1.3-.3,2.7-.5,4.2-.2,1.5-.4,3-.7,4.4-.3,1.4-.5,2.7-.9,3.9l-4-1.6c.3-1.1.6-2.2.9-3.5.3-1.3.5-2.6.8-4,.2-1.4.4-2.8.5-4.1ZM255.4,53.9h4.1v13.4c0,.7,0,1.2.3,1.4.2.2.6.3,1.3.3h3.8c.5,0,.9-.1,1.1-.4.2-.3.4-.8.5-1.6.1-.8.2-1.9.2-3.4.3.2.7.4,1.1.7.4.2.9.4,1.3.6.5.2.9.3,1.2.4-.1,1.9-.4,3.3-.7,4.4-.3,1.1-.9,1.8-1.6,2.3-.7.5-1.7.7-2.9.7h-4.6c-1.3,0-2.4-.2-3.1-.5-.8-.3-1.3-.9-1.6-1.6s-.4-1.8-.4-3.1v-13.4ZM256.4,48.3l2.6-2.7c.9.5,1.9,1.2,2.9,1.9,1.1.7,2.1,1.4,3,2.1,1,.7,1.7,1.4,2.3,2l-2.9,3.1c-.5-.6-1.3-1.3-2.2-2-.9-.8-1.9-1.5-2.9-2.3-1-.8-2-1.5-2.9-2.1ZM268.3,55.9l3.6-1.5c.5,1.2,1.1,2.4,1.6,3.7s.9,2.6,1.3,3.9c.4,1.3.7,2.4.9,3.4l-3.9,1.6c-.2-1-.4-2.1-.8-3.4-.4-1.3-.8-2.6-1.2-4-.5-1.3-1-2.6-1.5-3.7Z"/>
  </g>
  <g>
    <path class="st5" d="M481.3,45.1l3.4,1.2c-1.1,1.4-2.4,2.6-4,3.8s-3.3,2.1-5.1,2.9c-1.9.8-3.7,1.6-5.7,2.1-.1-.3-.3-.6-.6-1-.2-.4-.5-.8-.8-1.1-.3-.4-.5-.7-.7-.9,1.8-.4,3.6-1,5.3-1.6,1.7-.7,3.3-1.5,4.6-2.4,1.4-.9,2.5-1.9,3.4-3ZM471.7,53.9h20.7v8.2h-20.7v-8.2ZM473.2,62.9h17.6v10.1h-4v-7.6h-9.8v7.7h-3.8v-10.2ZM474.9,56.3v3.5h14v-3.5h-14ZM475.4,66.4h13v2.5h-13v-2.5ZM475.4,69.9h13v2.5h-13v-2.5ZM475.7,56.8l2.7-.7c.2.5.4,1.1.6,1.6.2.6.3,1.1.4,1.5l-2.8.8c0-.5-.1-1-.3-1.6-.2-.6-.4-1.2-.6-1.6ZM476.8,50.5h10.4v2.5h-10.4v-2.5ZM480.3,54.7h3.1v6.2h-3.1v-6.2ZM483.9,46.5c.6.6,1.4,1.2,2.4,1.7s1.9,1.1,3,1.5c1.1.5,2.3.9,3.5,1.2,1.2.4,2.4.7,3.7.9-.4.3-.9.8-1.3,1.4-.5.6-.9,1.1-1.1,1.6-1.2-.3-2.5-.7-3.7-1.2-1.2-.5-2.4-1-3.5-1.7-1.1-.6-2.2-1.3-3.2-2-1-.7-1.8-1.5-2.6-2.3l2.9-1.1ZM485.2,56l3.2.7c-.3.6-.6,1.2-.9,1.8-.3.6-.5,1.1-.8,1.5l-2.6-.7c.2-.5.4-1,.6-1.6s.4-1.2.5-1.7Z"/>
    <path class="st5" d="M497.6,50.3h9.7v3.1h-9.7v-3.1ZM498.5,62.6h2.7v10.1h-2.7v-10.1ZM498.6,54.4h8v2.9h-8v-2.9ZM498.6,58.5h8v2.9h-8v-2.9ZM500,62.6h6.5v9h-6.5v-3h3.7v-3h-3.7v-3ZM500.2,46.5l2.7-1c.3.6.7,1.3,1,2.1s.6,1.4.7,1.9l-2.9,1.2c-.1-.5-.4-1.2-.6-2-.3-.8-.6-1.5-.9-2.1ZM507,66.2c1.2,0,2.6-.2,4.3-.4,1.6-.1,3.3-.3,5-.4v2.8c-1.5.2-3.1.3-4.6.5-1.6.2-3,.3-4.3.5l-.4-2.9ZM507.2,62h17.7v2.8h-17.7v-2.8ZM507.3,54.8h17.7v2.8h-17.7v-2.8ZM514.6,57.7l2,2.2c-.8.2-1.7.4-2.6.6-1,.2-1.9.3-2.9.4-1,0-1.9.2-2.8.2,0-.3-.1-.7-.3-1.1-.1-.4-.3-.8-.5-1.1.8,0,1.7-.2,2.6-.3s1.7-.2,2.5-.4c.8-.2,1.5-.3,2.1-.5ZM510.8,59.4h3.3v10.7c0,.7,0,1.3-.3,1.6-.2.4-.5.7-1,.9-.5.2-1.1.3-1.7.4-.7,0-1.4,0-2.3,0,0-.4-.2-.9-.4-1.4-.2-.5-.4-1-.6-1.4.5,0,.9,0,1.4,0,.5,0,.8,0,.9,0,.3,0,.5-.2.5-.4v-10.6ZM508.2,48h16.2v2.6h-16.2v-2.6ZM509.1,51.5h14.3v2.4h-14.3v-2.4ZM510.2,46.3l2.7-.9c.3.4.7.9,1,1.4.3.5.5,1,.7,1.4l-2.9,1c0-.4-.3-.9-.6-1.4-.3-.5-.6-1-.9-1.5ZM521.4,65l2.6,1.3c-.6.9-1.4,1.8-2.3,2.6-.9.8-1.8,1.6-2.9,2.2s-2,1.2-3.1,1.6c-.2-.3-.4-.6-.8-1-.4-.4-.7-.7-1-1,1-.4,1.9-.9,2.9-1.4.9-.6,1.8-1.2,2.6-1.9.8-.7,1.5-1.5,2-2.4ZM514.2,48.7h3.8v7.3h-3.8v-7.3ZM516.3,58.2h3.2c0,2.5,0,4.7.3,6.5.2,1.8.6,3.2,1,4.2.5,1,1,1.5,1.6,1.5s.4-.2.6-.6c.1-.4.2-1,.3-1.7.3.3.7.6,1.1.8.4.2.8.4,1.1.6-.2,1.4-.6,2.4-1.1,3.1-.5.6-1.3.9-2.2.9s-2.1-.4-2.9-1.1c-.7-.8-1.3-1.8-1.7-3.2-.4-1.4-.7-3-.9-4.8s-.3-3.8-.3-6ZM519.3,45.4l3.4.8c-.4.6-.8,1.1-1.1,1.6-.4.5-.7.9-1,1.3l-2.7-.8c.3-.4.5-.9.8-1.5.3-.5.5-1,.6-1.5ZM519.6,59.4l2.2-1.5c.5.4,1.1.8,1.6,1.3.6.5,1,1,1.3,1.4l-2.4,1.7c-.3-.4-.7-.9-1.2-1.4-.5-.5-1.1-1-1.6-1.4Z"/>
    <path class="st5" d="M527.8,68.9h26.2v3.4h-26.2v-3.4ZM527.8,47.7h26v5.8h-4v-2.3h-18.2v2.3h-3.8v-5.8ZM530.3,63.5h21.3v3.3h-21.3v-3.3ZM531.7,62.3c0-.2-.2-.6-.3-1-.1-.4-.3-.8-.4-1.2-.1-.4-.3-.8-.4-1.1.4,0,.7-.2,1-.4.3-.2.7-.4,1.1-.7.3-.2.7-.5,1.3-1,.6-.5,1.2-1,1.9-1.7.7-.7,1.4-1.4,2-2.1l2.9,2.1c-1,1-2.1,1.9-3.3,2.9s-2.5,1.8-3.8,2.5h0c-.4.3-.8.5-1,.6-.3.2-.5.3-.7.5-.2.2-.3.4-.3.5ZM531.1,52.8h19.4v3.3h-19.4v-3.3ZM531.7,62.3v-2.4c0,0,1.8-1.1,1.8-1.1l14.6-.9c0,.4.1.9.3,1.5.1.5.2,1,.3,1.3-2.8.2-5.2.4-7.1.6s-3.4.3-4.6.4c-1.2.1-2.1.2-2.8.3-.7,0-1.2.2-1.6.2-.4,0-.7.2-.9.2ZM538.3,46l3.8-1.1c.3.5.6,1.1.9,1.8.3.6.5,1.2.6,1.7l-4,1.2c0-.5-.2-1-.5-1.7-.2-.7-.5-1.3-.8-1.9ZM538.7,61.5h4v9h-4v-9ZM543.5,56.9l2.8-1.9c.7.5,1.4,1.1,2.1,1.7.7.6,1.4,1.3,2.1,1.9.7.6,1.2,1.2,1.6,1.7l-3.1,2.1c-.4-.5-.8-1.1-1.5-1.7-.6-.6-1.3-1.3-2-2-.7-.7-1.4-1.3-2.1-1.8Z"/>
  </g>
  <g class="st7">
    <path class="st4" d="M16.7,74.5c7.3,0,13.3-5.9,13.3-13.3s-5.9-13.3-13.3-13.3-13.3,5.9-13.3,13.3,5.9,13.3,13.3,13.3Z"/>
    <g class="st6">
      <path class="st3" d="M10.9,47.2L0,76.9l.8.3,10.9-29.7-.8-.3Z"/>
      <path class="st3" d="M16.3,47.2l-10.9,29.7.8.3,10.9-29.7-.8-.3Z"/>
      <path class="st3" d="M21.8,47.2l-10.9,29.7.8.3,10.9-29.7-.8-.3Z"/>
      <path class="st3" d="M27.2,47.2l-10.9,29.7.8.3,10.9-29.7-.8-.3Z"/>
      <path class="st3" d="M32.6,47.2l-10.9,29.7.8.3,10.9-29.7-.8-.3Z"/>
      <path class="st3" d="M22.5,47.2l-.8.3,10.9,29.7.8-.3s-10.9-29.7-10.9-29.7Z"/>
      <path class="st3" d="M17.1,47.2l-.8.3,10.9,29.7.8-.3-10.9-29.7Z"/>
      <path class="st3" d="M11.6,47.2l-.8.3,10.9,29.7.8-.3-10.9-29.7Z"/>
      <path class="st3" d="M6.2,47.2l-.8.3,10.9,29.7.8-.3s-10.9-29.7-10.9-29.7Z"/>
      <path class="st3" d="M.8,47.2l-.8.3,10.9,29.7.8-.3L.8,47.2Z"/>
    </g>
    <path class="st5" d="M16.7,74.9c-7.5,0-13.7-6.1-13.7-13.7s6.1-13.7,13.7-13.7,13.7,6.1,13.7,13.7-6.1,13.7-13.7,13.7ZM16.7,48.3c-7.1,0-12.9,5.8-12.9,12.9s5.8,12.9,12.9,12.9,12.9-5.8,12.9-12.9-5.8-12.9-12.9-12.9Z"/>
  </g>
  <line class="st1" x1="293.1" y1="62.9" x2="394.1" y2="62.9"/>
</svg>