<?xml version="1.0" encoding="UTF-8"?>
<svg xmlns="http://www.w3.org/2000/svg" xmlns:xlink="http://www.w3.org/1999/xlink" version="1.1" viewBox="0 0 392.4 152.5">
  <!-- Generator: Adobe Illustrator 30.5.1, SVG Export Plug-In . SVG Version: 2.1.4 Build 3)  -->
  <defs>
    <style>
      .st0 {
        mix-blend-mode: multiply;
        opacity: .6;
      }

      .st1 {
        isolation: isolate;
      }

      .st2 {
        fill: #fff;
      }
    </style>
  </defs>
  <g class="st1">
    <g id="_圖層_1" data-name="圖層_1">
      <g>
        <image class="st0" width="3306" height="1285" transform="scale(.1)" xlink:href="hero-title-m-1-1.png"/>
        <path class="st2" d="M14.9,63.8l13.5-42.2h10l13.5,42.2h-8.9l-6-22c-.6-2.2-1.3-4.5-1.9-6.9-.6-2.4-1.2-4.7-1.9-6.9h-.2c-.5,2.3-1.1,4.6-1.7,7-.6,2.4-1.2,4.6-1.9,6.8l-6,22h-8.5ZM23.3,53v-6.6h20.1v6.6h-20.1Z"/>
        <path class="st2" d="M61.1,63.8V21.6h8.4v42.2h-8.4Z"/>
        <path class="st2" d="M80.8,42.9h53.3v4.4h-53.3v-4.4ZM81.9,17.1h26v3.9h-26v-3.9ZM83.8,19.6h5.1v15.3c0,1,.2,1.7.5,2.1.3.4,1,.6,2,.6h10.5c.9,0,1.9,0,3.1-.1,1.2,0,2.1-.2,2.7-.3,0,.6.2,1.3.2,2.1,0,.7.2,1.4.2,1.9-.5.2-1.4.3-2.5.3-1.1,0-2.2,0-3.3,0h-11.4c-1.9,0-3.3-.2-4.3-.7-1-.5-1.7-1.2-2.2-2.2-.4-1-.6-2.3-.6-4v-15.1ZM86.4,49h42.1v19.9h-6.4v-16.3h-29.5v16.3h-6.2v-19.9ZM93.1,20.7l3.8,1c-.4,1.1-1,2.3-1.8,3.4-.8,1.1-1.6,2.1-2.4,2.9-.4-.3-.9-.6-1.6-1-.7-.4-1.3-.7-1.8-1,1.7-1.5,3-3.2,3.8-5.2ZM96.5,24.5h4.2v3.9c0,1-.2,2.1-.6,3.2-.4,1.2-1.2,2.3-2.3,3.3-1.2,1.1-2.9,2-5.2,2.8-.3-.5-.7-1-1.2-1.6-.5-.6-1-1.1-1.5-1.5,2-.5,3.4-1.1,4.4-1.9.9-.7,1.5-1.5,1.8-2.3.3-.8.4-1.6.4-2.3v-3.8ZM89.9,27.9h17v3.3h-17v-3.3ZM90.8,63.7h32.9v3.5h-32.9v-3.5ZM101.1,45.4h5.1v5.8c0,1-.2,1.9-.6,2.7-.4.8-1,1.5-1.9,2.1-.9.6-2,1.2-3.5,1.7-1.4.5-3.2.9-5.4,1.2-.3-.6-.7-1.2-1.3-2-.6-.7-1.1-1.4-1.6-1.9,1.8-.2,3.3-.3,4.5-.5,1.2-.2,2.1-.5,2.7-.8.7-.3,1.1-.7,1.4-1.1.3-.4.4-.9.4-1.4v-5.8ZM93.1,22.9h12.9v3.1h-12.9v-3.1ZM96.4,58.8h22.7v3.4h-22.7v-3.4ZM96.9,32.3l2.5-2.5c1.3.6,2.6,1.4,4,2.4,1.4.9,2.5,1.8,3.3,2.5l-2.6,2.8c-.8-.8-1.9-1.6-3.2-2.6-1.4-1-2.7-1.9-3.9-2.6ZM111.7,16.8h5.2v3.1c0,1.1-.2,2.2-.5,3.3-.4,1.1-1,2.2-2,3.1-1,1-2.3,1.8-4.1,2.6-.2-.4-.6-.8-1-1.4-.4-.5-.9-1-1.4-1.5-.5-.5-.9-.9-1.3-1.1,1.5-.5,2.6-1.1,3.3-1.6.7-.6,1.2-1.1,1.4-1.7.2-.6.3-1.2.3-1.9v-2.9ZM125.1,27.6h1l1-.2,3.2,1.3c-1.1,2.7-2.6,5-4.6,6.9-2,1.9-4.2,3.5-6.8,4.7-2.6,1.2-5.3,2.2-8.3,2.8-.3-.6-.7-1.3-1.2-2.1-.5-.8-1-1.4-1.5-2,2.6-.5,5.1-1.2,7.4-2.1,2.3-1,4.3-2.2,6-3.6,1.7-1.5,3-3.2,3.8-5.2v-.6ZM109.4,35l2.3-3.3c1.5.5,3.2,1.1,5,1.8,1.8.6,3.6,1.3,5.4,2,1.8.7,3.5,1.4,5.1,2.1,1.6.7,3,1.3,4.1,1.8l-2.4,3.8c-1.1-.5-2.4-1.1-4-1.9-1.6-.7-3.2-1.4-5-2.2-1.8-.7-3.6-1.5-5.4-2.2-1.8-.7-3.5-1.4-5.1-2ZM109.6,27.6h16.2v3.9h-16.2v-3.9ZM109.9,45.4h5.3v7.7c0,.6,0,1,.3,1.2.2.1.6.2,1.3.2h4.6c.5,0,.8,0,1,0,.2,0,.3-.1.3-.3.5.2,1.2.4,2,.7.8.2,1.5.4,2.1.4-.2.9-.6,1.5-1.3,1.9-.7.3-1.8.5-3.4.5h-6.2c-1.6,0-2.8-.1-3.7-.4-.9-.2-1.5-.7-1.9-1.4-.3-.7-.5-1.6-.5-2.8v-7.7ZM114.1,16.8h10v4.6h-10v-4.6ZM121.6,16.8h5.2v4.1c0,.5,0,.9.1,1.1,0,.2.3.3.7.3h2c.4,0,.9,0,1.4,0,.5,0,1-.1,1.3-.2,0,.6.1,1.4.2,2.2,0,.8.1,1.6.2,2.2-.3.1-.8.2-1.3.2-.6,0-1.1,0-1.6,0h-2.9c-1.5,0-2.6-.2-3.4-.6-.8-.4-1.3-1.1-1.5-1.9-.3-.9-.4-2-.4-3.4v-4Z"/>
        <path class="st2" d="M141.3,47c1.3-.6,2.9-1.3,4.7-2.2,1.8-.9,3.7-1.8,5.6-2.8l1.5,5.1c-1.6,1-3.2,2.1-5,3.1-1.7,1-3.4,2-5,2.9l-1.9-6.2ZM141.8,27.3l5-2c.4,1.2.9,2.5,1.3,3.9.5,1.4.9,2.7,1.2,3.9.4,1.3.6,2.4.8,3.3l-5.2,2.4c-.2-.9-.5-2.1-.8-3.4-.3-1.3-.7-2.7-1.1-4.1-.4-1.4-.8-2.7-1.2-4ZM150,20h6.3v18.4c0,2.3-.1,4.8-.3,7.5-.2,2.7-.6,5.4-1.2,8.2-.6,2.8-1.4,5.4-2.6,8-1.1,2.6-2.6,4.8-4.4,6.8-.3-.5-.8-1-1.4-1.6-.6-.6-1.2-1.2-1.8-1.7-.6-.6-1.1-1-1.6-1.2,1.6-1.8,2.9-3.8,3.8-6,.9-2.1,1.6-4.4,2.1-6.7.5-2.3.7-4.6.9-6.9.1-2.3.2-4.4.2-6.5v-18.4ZM153.3,20h41.9v5.7h-41.9v-5.7ZM162.3,56.1l6.1,2.1c-.8,1.1-1.6,2.2-2.6,3.4-1,1.2-2,2.3-3,3.4-1,1.1-1.9,2-2.8,2.8-.4-.4-.9-.8-1.5-1.3-.6-.5-1.3-1-1.9-1.5-.6-.5-1.2-.9-1.8-1.1,1.3-1,2.7-2.3,4-3.7,1.4-1.4,2.5-2.8,3.4-4.1ZM171.4,25.4l6.3.9c-.9,2.9-2.2,5.7-3.7,8.3-1.6,2.7-3.6,5.2-6,7.5-2.4,2.3-5.3,4.4-8.8,6.2-.4-.7-1-1.5-1.8-2.5-.8-.9-1.6-1.6-2.3-2.1,3.2-1.5,5.9-3.2,8.1-5.2,2.2-2,4-4.1,5.3-6.4,1.3-2.3,2.3-4.5,2.9-6.9ZM157.7,37.7l3.5-3c1,.6,2.1,1.4,3.2,2.3,1.2.9,2.1,1.6,2.8,2.3l-3.6,3.3c-.6-.6-1.5-1.4-2.6-2.4-1.2-.9-2.2-1.8-3.2-2.5ZM158.2,29.4h36.5v5.1h-36.5v-5.1ZM162.6,39.6h26.4v16.2h-26.4v-16.2ZM172.4,53.6h6.6v9.4c0,1.4-.2,2.5-.5,3.3-.3.8-1,1.4-2.1,1.9-1,.4-2.2.7-3.5.7-1.3,0-2.8.1-4.6.1-.2-.8-.5-1.8-.9-2.8-.4-1-.8-1.9-1.2-2.6,1.1,0,2.1,0,3.1,0h2.1c.4,0,.6,0,.7-.2.1-.1.2-.3.2-.6v-9.2ZM167.9,16.6l7-1.4c.5,1.2.9,2.5,1.4,3.9.5,1.4.8,2.7,1.1,3.7l-7.2,1.7c-.2-1.1-.4-2.3-.9-3.8-.4-1.5-.9-2.8-1.3-4.1ZM168.3,43.6v2.1h14.8v-2.1h-14.8ZM168.3,49.5v2.2h14.8v-2.2h-14.8ZM182.2,31.5c.9,1.6,2,3.2,3.4,4.7,1.4,1.5,3,2.9,4.8,4.1,1.8,1.2,3.7,2.2,5.6,2.9-.7.6-1.4,1.3-2.2,2.3-.8.9-1.4,1.8-1.8,2.5-2.1-.9-4.1-2.2-6-3.7-1.9-1.5-3.6-3.2-5.1-5.2-1.5-1.9-2.8-3.9-3.9-6l5.1-1.6ZM181.5,58.9l5-2.9c.9.9,1.8,1.8,2.8,2.9,1,1.1,2,2.1,2.9,3.1.9,1,1.7,1.9,2.3,2.7l-5.3,3.2c-.5-.8-1.2-1.7-2.1-2.7-.9-1-1.8-2.1-2.8-3.2-1-1.1-1.9-2.2-2.8-3.1ZM190.6,34.3l3.9,2.9c-.9.9-1.9,1.7-2.9,2.5-1,.8-2,1.5-2.8,2.1l-3.5-2.7c.8-.6,1.8-1.4,2.8-2.3,1-.9,1.9-1.8,2.5-2.5Z"/>
        <path class="st2" d="M208,51.3l5.2,1.6c-.7,2-1.6,4-2.6,6.2s-2.1,4-3.1,5.5c-.5-.4-1.3-.9-2.2-1.6-.9-.6-1.7-1.1-2.3-1.5,1-1.4,1.9-3,2.8-4.8.9-1.8,1.6-3.6,2.2-5.4ZM203.7,33.8h27.5v5.6h-27.5v-5.6ZM204,43.8h26.2v5.8h-26.2v-5.8ZM204.6,21.1h25.7v5.5h-25.7v-5.5ZM207.6,27.8l5.5-1.3c.4,1,.8,2.1,1.1,3.2s.6,2.1.7,3l-5.6,1.5c-.1-.9-.3-1.9-.7-3.1-.3-1.2-.7-2.3-1.1-3.3ZM212.6,16.6l6.8-1.7c.6,1.2,1.1,2.6,1.7,4,.6,1.5,1,2.7,1.3,3.8l-7.2,1.9c-.2-1.1-.6-2.4-1.1-3.9-.5-1.5-1.1-2.9-1.6-4.2ZM214.7,37h6.6v31.6h-6.6v-31.6ZM221.6,26.4l6.2,1.1c-.6,1.5-1.2,3-1.8,4.4-.6,1.4-1.1,2.6-1.7,3.6l-5.5-1.1c.3-.8.6-1.6,1-2.5.4-.9.7-1.9,1-2.9.3-1,.6-1.9.8-2.6ZM222.5,53.1l4.4-2.5c.9,1.3,1.8,2.6,2.6,4.2.9,1.5,1.5,2.9,2,4l-4.7,2.8c-.5-1.1-1.1-2.5-2-4.1-.9-1.6-1.7-3.1-2.5-4.4ZM233,20.9h6.4v20.4c0,2.1,0,4.4-.2,6.8-.1,2.4-.4,4.9-.8,7.4-.4,2.5-1,4.9-1.7,7.2-.7,2.3-1.7,4.4-2.9,6.2-.3-.4-.8-.9-1.5-1.4-.7-.5-1.3-1-2-1.5-.7-.5-1.3-.9-1.8-1.1,1.4-2.2,2.4-4.6,3.1-7.3.6-2.7,1.1-5.5,1.2-8.3.2-2.8.3-5.5.3-7.9v-20.4ZM250.4,15.9l5.2,5.1c-2,.8-4.1,1.5-6.5,2.1-2.3.6-4.7,1.2-7.1,1.7-2.4.5-4.7.9-7,1.2-.2-.7-.4-1.6-.9-2.6-.4-1-.8-1.9-1.2-2.5,2.1-.4,4.3-.9,6.4-1.4,2.1-.5,4.1-1.1,6-1.7,1.9-.6,3.6-1.3,5-1.9ZM235.6,34.3h21.1v6.3h-21.1v-6.3ZM244.7,37.1h6.6v31.6h-6.6v-31.6Z"/>
        <path class="st2" d="M270.8,18.1h6.8v14c0,2.5-.1,5.2-.3,8.3-.2,3.1-.6,6.2-1.1,9.5-.6,3.2-1.4,6.4-2.4,9.4-1.1,3-2.5,5.8-4.2,8.2-.4-.5-.9-1-1.6-1.5-.7-.6-1.4-1.1-2.1-1.7-.7-.5-1.3-.9-1.9-1.1,1.6-2.2,2.8-4.7,3.8-7.3.9-2.6,1.6-5.4,2.1-8.1.5-2.8.7-5.5.9-8.2.1-2.7.2-5.2.2-7.4v-14ZM274.9,18.1h36.6v16.4h-36.6v-5.8h29.8v-4.9h-29.8v-5.8ZM275,38.1h36v6h-36v-6ZM280,47.4h6.3v19.3h-6.3v-19.3ZM283.6,47.4h19v15.8h-19v-5.4h12.6v-5.1h-12.6v-5.4ZM308.8,38.1h6.9c0,.7,0,1.3,0,1.7s0,.8,0,1.1c-.1,4.2-.3,7.7-.4,10.7-.2,2.9-.4,5.4-.6,7.4-.2,2-.5,3.5-.8,4.7s-.6,2-1.1,2.5c-.6.9-1.3,1.5-2,1.8-.7.3-1.5.6-2.4.7-.8.1-1.9.2-3.1.2-1.3,0-2.6,0-4,0,0-1-.2-2.1-.6-3.3-.3-1.2-.8-2.3-1.3-3.2,1.1.1,2.2.2,3.2.2,1,0,1.7,0,2.3,0,.5,0,.8,0,1.1-.1.3-.1.6-.4.8-.7.4-.5.7-1.5.9-3,.2-1.6.5-3.9.7-7.1.2-3.2.4-7.3.5-12.5v-1.2Z"/>
        <path class="st2" d="M18.4,86.6h50.7v4.3H18.4v-4.3ZM18.8,131.6h49.9v4.6H18.8v-4.6ZM19,108.7h49.4v8.5h-6.4v-4.3H25.1v4.3h-6.2v-8.5ZM23,92.7h41.4v4H23v-4ZM24.4,125.7h39.3v4H24.4v-4ZM25,114.6h36.8v3.6H25v-3.6ZM25.1,98.4h37.6v8.7H25.1v-8.7ZM27.3,124.9c-.2-.5-.4-1.1-.6-2.1-.3-.9-.5-1.7-.8-2.2.9-.1,1.9-.3,3-.7.4-.2,1.1-.5,1.9-.8.9-.4,1.8-.8,2.9-1.4,1.1-.6,2.1-1.2,3-1.9l4.7,1.5c-1.8,1.2-3.7,2.3-5.6,3.2-1.9.9-3.7,1.6-5.4,2.1h0c-1,.5-1.8.9-2.3,1.2-.5.3-.8.7-.8,1ZM27.3,124.9v-3l2.7-1.4,27.4-.4c0,.5.2,1.1.3,1.8.1.7.3,1.3.4,1.7-5.2.1-9.6.2-13.1.3-3.5,0-6.4.2-8.5.2-2.2,0-3.9.1-5,.2-1.2,0-2.1.2-2.6.3-.6,0-1.1.2-1.4.3ZM31.3,101.7v2h24.6v-2h-24.6ZM40,83.7h6.9v11.6h-6.9v-11.6ZM40,122.2h6.9v11.7h-6.9v-11.7ZM48.8,118.4l3.9-2.9c1.3.6,2.7,1.3,4.1,2.2,1.4.8,2.7,1.7,4,2.6,1.3.9,2.3,1.7,3.2,2.4l-4,3.3c-.8-.8-1.9-1.6-3.1-2.5-1.3-.9-2.6-1.8-4-2.7-1.4-.9-2.8-1.6-4-2.3Z"/>
        <path class="st2" d="M77.7,104.2l3.8-4.7c1,.5,2,1,3.1,1.6,1.1.6,2.1,1.3,3,1.9,1,.6,1.8,1.3,2.4,1.8l-4,5.2c-.5-.6-1.3-1.3-2.2-2-1-.7-1.9-1.4-3-2.1-1-.7-2.1-1.3-3-1.8ZM78.9,89.1l3.9-4.6c1,.5,2,1.1,3.1,1.7,1.1.7,2.1,1.3,3,2.1.9.7,1.7,1.4,2.3,2l-4.1,5.1c-.5-.6-1.3-1.3-2.2-2.1s-1.9-1.5-2.9-2.2c-1-.7-2-1.4-3-2ZM79,133.2c.7-1.5,1.5-3.3,2.3-5.3.8-2,1.7-4.1,2.5-6.4.9-2.3,1.6-4.5,2.3-6.8l5.4,3.5c-.6,2-1.3,4.1-2,6.2-.7,2.1-1.5,4.2-2.2,6.2-.7,2.1-1.5,4-2.3,5.9l-6.2-3.4ZM91,105.1l3.3.9c-.2,1.4-.5,2.7-.9,4.1-.4,1.4-.9,2.6-1.4,3.5-.3-.3-.8-.7-1.4-1.1-.6-.4-1.1-.7-1.5-1,.5-.9.9-1.9,1.2-3,.3-1.1.5-2.3.7-3.4ZM91,95.9c-.1-.3-.3-.7-.6-1.3-.3-.6-.5-1.1-.7-1.5.4,0,.7-.2,1-.5.3-.3.6-.6.9-1.1.2-.2.6-.7,1-1.5.4-.8.9-1.7,1.4-2.7.5-1,.8-2,1.1-3l3.7,1.3c-.6,1.5-1.5,3.1-2.5,4.6-1,1.6-2.1,2.9-3.1,4.1h0c-.7.4-1.2.7-1.5.9-.3.2-.5.4-.5.6ZM91.2,103.6c0-.3-.3-.7-.5-1.3-.3-.6-.5-1.1-.8-1.5.5,0,.9-.3,1.4-.7.4-.4.9-.8,1.4-1.3.4-.4,1-1.1,1.7-2.1.8-1,1.6-2.1,2.5-3.5.9-1.3,1.6-2.7,2.3-4l3.5,1.6c-1.1,2-2.5,3.9-4,5.9-1.6,2-3.2,3.7-4.8,5.2h0c-.8.5-1.4.7-1.8,1-.4.2-.6.5-.6.7ZM91,95.9l-.2-2.8,2.2-1.1,6.4-.3c-.1.5-.2,1.1-.4,1.7-.1.6-.2,1.1-.2,1.6-1.9,0-3.3.2-4.4.3-1,.1-1.8.2-2.3.3-.5,0-.9.2-1.2.3ZM91.2,103.6l-.3-3,2-1.1,8.6-.9c0,.4.1.9.3,1.5.2.6.3,1.1.4,1.5-2.8.3-4.9.6-6.4.9-1.5.2-2.5.4-3.2.6-.6.2-1.1.3-1.5.5ZM95.8,119.3h6.3c-.4,1.7-.8,3.4-1.2,5.2-.4,1.8-.9,3.3-1.3,4.6h-6.3c.5-1.4.9-3,1.4-4.8.5-1.8.9-3.4,1.2-5ZM97.8,119.3h22.6v-1.8h-26.2v-3.9h32.5v9.5h-28.9v-3.8ZM94.9,105.9l3-.8c.3,1,.6,2.1.8,3.3.2,1.2.3,2.2.4,3l-3.1,1c0-.9-.1-1.9-.3-3.2-.2-1.2-.4-2.4-.7-3.4ZM97,125h28.2v4.2h-28.2v-4.2ZM99,97.4l2.8-1c.5.9,1,2,1.5,3.1.5,1.1.8,2.1,1,2.9l-2.8,1.3c-.2-.8-.5-1.8-1-3-.5-1.2-1-2.2-1.5-3.2ZM99.4,105l2.7-1c.4.9.8,1.9,1.1,3,.3,1.1.6,2.1.6,2.8l-2.8,1.2c-.1-.8-.3-1.8-.6-2.9s-.6-2.2-1-3.2ZM103.4,89.5h13.7v3.5h-13.7v-3.5ZM105,103.6h10.9v8.5h-10.9v-8.5ZM105,94.5h10.9v3.1h-10.9v-3.1ZM105,98.9h10.9v3.1h-10.9v-3.1ZM107.1,85.4l4.4-.9c.4.6.8,1.4,1.2,2.3.4.9.7,1.6.9,2.2l-4.6,1.1c-.2-.6-.5-1.4-.8-2.3-.4-.9-.7-1.7-1.1-2.4ZM108.9,106.6v2.5h2.8v-2.5h-2.8ZM123,125h6.4c0,1.2-.2,2-.3,2.4-.5,2.3-1,4.1-1.5,5.5-.5,1.3-1.2,2.3-2,3-.7.5-1.5.9-2.3,1.1-.8.2-1.8.3-3,.4-.9,0-2.2,0-3.8,0-1.6,0-3.3,0-5.1-.1,0-.8-.2-1.6-.5-2.5-.3-.9-.7-1.8-1.2-2.5,1.7.2,3.4.3,5,.3,1.7,0,2.8,0,3.6,0s1,0,1.4,0c.4,0,.7-.2,1-.4.5-.3.9-1,1.3-2.1.4-1,.7-2.5,1.1-4.4v-.7ZM118.1,104.9l3.2.9c-.2,1.3-.5,2.7-.9,4.1-.4,1.4-.9,2.6-1.4,3.6-.3-.3-.8-.7-1.3-1.1-.6-.4-1.1-.7-1.5-1,.5-.9.9-1.9,1.2-3.1.3-1.1.5-2.3.7-3.4ZM118,95.9c0-.3-.2-.7-.5-1.3-.3-.6-.5-1.1-.7-1.5.3,0,.6-.2.9-.5.3-.3.6-.6.9-1.1.2-.3.6-.8,1-1.5.4-.8.9-1.7,1.4-2.7.5-1,.8-2.1,1.1-3.1l3.7,1.4c-.6,1.5-1.4,3.1-2.5,4.6-1,1.6-2.1,2.9-3.1,4h0c-.7.4-1.2.7-1.6.9-.4.2-.5.4-.5.6ZM118.3,103.6c0-.3-.3-.7-.5-1.3-.3-.6-.6-1.1-.8-1.5.5,0,.9-.3,1.4-.6.4-.3.9-.8,1.4-1.4.4-.4,1-1.1,1.7-2.1.8-1,1.6-2.1,2.5-3.5.9-1.3,1.6-2.7,2.2-4l3.6,1.6c-1.1,2-2.5,4-4.1,5.9-1.6,2-3.2,3.7-4.9,5.2h0c-.8.4-1.4.7-1.8,1-.4.2-.6.4-.6.6ZM118,95.9v-2.8c-.1,0,2.1-1.1,2.1-1.1l6.3-.3c-.1.5-.2,1.1-.4,1.7-.1.6-.2,1.1-.2,1.6-1.9.1-3.3.2-4.4.3-1,.1-1.8.2-2.3.3-.5,0-.9.2-1.2.3ZM118.3,103.6l-.3-2.9,2-1.1,8.5-1c0,.5.2,1,.3,1.6.2.6.3,1.1.5,1.4-2.8.4-5,.7-6.4,1-1.5.2-2.5.4-3.2.5-.6.1-1.1.3-1.5.4ZM121.8,106l2.9-.8c.3,1.1.6,2.4.9,3.7.2,1.3.4,2.4.4,3.3l-3.1,1c0-.9-.1-2.1-.3-3.4-.2-1.4-.5-2.6-.8-3.8ZM126,97.4l2.7-1c.6.9,1.1,2,1.6,3.1.5,1.2.8,2.2,1,3l-2.8,1.2c-.2-.8-.5-1.9-1-3-.5-1.2-1-2.3-1.5-3.3ZM126.3,105.1l2.7-1c.5,1.1.9,2.3,1.3,3.6.4,1.3.6,2.4.7,3.4l-2.8,1.3c-.1-.9-.3-2.1-.7-3.4-.3-1.3-.8-2.6-1.3-3.7Z"/>
        <path class="st2" d="M148.6,83.4l5,1.8c-.9,2.2-2,4.3-3.4,6.5-1.3,2.2-2.8,4.2-4.4,6.1-1.6,1.9-3.2,3.6-4.8,5-.1-.4-.3-1-.6-1.8-.3-.8-.6-1.5-.9-2.3-.3-.8-.6-1.4-.9-1.9,1.9-1.6,3.8-3.6,5.6-6,1.8-2.4,3.2-4.8,4.3-7.4ZM139.5,129.8c2.4-.4,5.2-1,8.5-1.6,3.3-.7,6.7-1.4,10.2-2.1l.5,5.4c-3.1.8-6.2,1.5-9.3,2.3-3.1.8-5.9,1.5-8.5,2.1l-1.5-6.1ZM140.6,107.7h17.4v5.5h-17.4v-5.5ZM141,116.7l3.7-1.1c.5,1.6.9,3.4,1.2,5.2.3,1.9.6,3.5.7,4.9l-3.9,1.2c0-1.4-.3-3-.6-4.9-.3-1.9-.7-3.7-1.1-5.3ZM143.5,98.2h12.9v5.4h-12.9v-5.4ZM147.1,100.5h4.8v30.5l-4.8,1.1v-31.6ZM147.5,90.7l2.5-4.7c1.3.7,2.5,1.5,3.7,2.5,1.2.9,2.4,1.9,3.4,2.8,1,.9,1.9,1.8,2.5,2.6l-2.3,5.4c-.7-.9-1.6-1.9-2.7-3-1.1-1-2.2-2.1-3.5-3-1.2-1-2.4-1.8-3.6-2.6ZM153.8,115l4.4,1.1c-.5,1.7-.9,3.5-1.4,5.3-.5,1.8-.9,3.4-1.3,4.6l-3.5-1c.2-.9.5-2,.7-3.2.2-1.2.5-2.4.7-3.6.2-1.2.4-2.3.4-3.3ZM164.6,110.3h2.2l1-.2,2.3,1.1c-.7,6-1.9,11.2-3.5,15.7-1.6,4.5-3.6,8.1-5.9,10.6-.2-.4-.6-.9-1.1-1.5-.5-.6-1-1.1-1.5-1.6-.5-.5-1-.9-1.4-1.1,2.2-2.2,3.9-5.2,5.3-9.1,1.3-3.9,2.3-8.2,2.8-13v-1ZM159.8,116.8c-.1-.5-.3-1-.5-1.6-.2-.6-.5-1.2-.7-1.9-.2-.6-.5-1.1-.7-1.5.5-.2.9-.4,1.2-.6.3-.3.7-.7,1-1.3.2-.4.6-1.1,1-2.2.4-1.1.9-2.3,1.4-3.6.5-1.3,1-2.6,1.4-3.9.4-1.3.8-2.3,1.1-3.1v-.2l1.4-.6,3.8,1c-.4,1-.8,2.2-1.3,3.6-.5,1.4-1,2.9-1.6,4.4-.6,1.5-1.2,3-1.7,4.4-.6,1.4-1.1,2.6-1.6,3.5-.8.4-1.5.8-2,1.2-.5.4-1,.8-1.4,1.1-.4.4-.6.7-.6,1.1ZM158.6,96.9h8.3v5.8h-8.3v-5.8ZM158.9,86.4l5-1.8c.9,1.4,1.8,2.9,2.6,4.5.9,1.6,1.6,3.1,2.1,4.3l-5.2,2.1c-.5-1.2-1.1-2.7-2-4.4-.9-1.7-1.7-3.3-2.5-4.7ZM159.8,116.8v-5.2l2.4-1.3h4.8v5.6h-4c-.5,0-1.1,0-1.8.2-.7.2-1.1.4-1.4.6ZM166.5,122.3c.9,2.5,2,4.4,3.4,5.6,1.4,1.2,3,2.1,5,2.5,1.9.4,4,.6,6.4.6s2.4,0,3.8,0c1.4,0,2.8-.1,4.3-.2,1.5,0,2.8-.2,4-.3-.3.5-.5,1-.8,1.7-.2.7-.5,1.4-.6,2.2s-.3,1.4-.4,2c-1.6,0-3.3.1-5.2.2-1.9,0-3.7,0-5.5,0-3.1,0-5.8-.3-8.1-.9-2.4-.6-4.4-1.8-6.1-3.6-1.7-1.8-3.1-4.5-4.2-8l4.1-1.6ZM169.4,118.7h21.9v5.3h-21.9v-5.3ZM169.5,88.6h21.8v5.2h-21.8v-5.2ZM170.7,96.8h19.7v18.7h-19.7v-18.7ZM175.2,101v3.1h10.5v-3.1h-10.5ZM175.2,108.1v3.2h10.5v-3.2h-10.5ZM177.5,83.8h5.8v15.2h-1v13.6h-3.7v-13.6h-1v-15.2ZM177.7,112.6h5.8v17.4h-5.8v-17.4Z"/>
        <path class="st2" d="M202.3,106.5c-.1-.4-.3-1-.5-1.7-.2-.7-.5-1.5-.7-2.2-.3-.7-.5-1.4-.7-1.9.6-.2,1.1-.5,1.6-1.1.5-.5,1.1-1.2,1.7-2,.3-.4.7-1.1,1.3-2,.6-.9,1.2-2,1.9-3.3.7-1.3,1.4-2.7,2.1-4.2.7-1.5,1.3-3,1.8-4.5l6,2.5c-1.4,3.1-3.1,6.2-5,9.2-1.9,3.1-3.8,5.7-5.8,8h0c-.7.5-1.3.9-1.8,1.3-.5.3-.9.7-1.3,1-.4.3-.6.7-.6,1ZM202.8,121.5l5.4.9c-.2,2.6-.6,5.2-1,7.7-.4,2.6-1,4.7-1.6,6.5-.6-.4-1.4-.7-2.5-1.1-1.1-.3-2-.6-2.7-.8.6-1.7,1.1-3.7,1.5-6.1.4-2.4.6-4.7.8-7.1ZM202.7,119.7c-.1-.4-.3-1-.5-1.7-.2-.7-.5-1.5-.8-2.3-.3-.8-.5-1.5-.8-2,.8-.2,1.5-.5,2.2-1.2.7-.6,1.5-1.5,2.4-2.5.5-.5,1.2-1.4,2.1-2.6.9-1.2,1.9-2.6,3-4.2,1.1-1.6,2.2-3.4,3.4-5.2,1.1-1.9,2.1-3.8,3-5.7l5.6,3.5c-1.4,2.5-3,4.9-4.7,7.4-1.7,2.5-3.5,4.8-5.4,7.1-1.9,2.3-3.8,4.3-5.7,6.1h0c-.8.5-1.4.9-1.9,1.3-.5.3-1,.7-1.3,1-.4.3-.5.7-.5,1ZM202.3,106.5l-.2-4.7,2.7-1.7,9.9-.7c-.2.8-.3,1.7-.4,2.7s-.2,1.9-.2,2.6c-2.2.2-4,.4-5.4.6-1.4.2-2.6.3-3.4.5-.8.1-1.5.2-1.9.4-.5.1-.8.3-1.1.4ZM202.7,119.7l-.3-4.9,2.8-1.9,15-1.8c-.2.8-.3,1.8-.3,2.8,0,1.1,0,1.9,0,2.6-3.4.5-6.1.9-8.2,1.2-2.1.3-3.7.6-4.9.8-1.2.2-2,.4-2.6.6-.6.2-1.1.4-1.4.5ZM209.5,122.3l4.8-1c.4,2.1.8,4.3,1.1,6.7.3,2.4.5,4.5.6,6.3l-5.2,1c0-1.2-.1-2.5-.3-4-.1-1.5-.3-3-.5-4.6-.2-1.6-.4-3-.6-4.4ZM214.9,107.3l4.9-1.5c.5,1.3,1,2.6,1.5,4.1.5,1.5.9,2.9,1.3,4.2.4,1.4.7,2.6.8,3.6l-5.2,1.8c-.2-1-.4-2.3-.7-3.7-.3-1.4-.7-2.9-1.2-4.4-.4-1.5-.9-2.9-1.4-4.2ZM215.5,121.1l4.6-1.5c.7,1.7,1.3,3.7,1.9,5.8.6,2.1,1.1,3.9,1.4,5.4l-4.8,1.7c-.2-1.5-.6-3.3-1.2-5.5-.6-2.1-1.2-4.1-1.8-5.9ZM222.7,90.8h30.8v6.3h-30.8v-6.3ZM224.3,103.6h27.8v6.3h-27.8v-6.3ZM225.4,114.3h25.3v22.7h-6.7v-16.6h-12.3v16.8h-6.3v-23ZM229.1,128.7h18.2v6.2h-18.2v-6.2ZM234.2,83.7h7v23.2h-7v-23.2Z"/>
        <path class="st2" d="M285.9,85.6l5,3.5c-1.4,2-3.1,4-5,5.9-2,2-4.1,3.9-6.3,5.7-2.3,1.8-4.6,3.6-6.9,5.1-2.4,1.6-4.7,2.9-7,4-.5-.8-1.1-1.8-1.9-2.8-.8-1.1-1.5-2-2.3-2.7,2.2-.9,4.5-2.1,6.9-3.4,2.4-1.4,4.6-2.9,6.8-4.6,2.2-1.7,4.2-3.4,6-5.3s3.4-3.6,4.7-5.4ZM264.5,129.9h48.7v6.1h-48.7v-6.1ZM270.1,117h36.9v5.9h-36.9v-5.9ZM272.6,85.6h19.1v6.3h-19.1v-6.3ZM272.9,104.4h31.4v6h-31.4v-6ZM284.8,85.6h7.5c1.2,1.8,2.7,3.6,4.4,5.4,1.7,1.7,3.6,3.4,5.7,5,2.1,1.6,4.3,3,6.6,4.4,2.3,1.3,4.7,2.4,7.1,3.3-.5.5-1,1.1-1.6,1.9-.6.7-1.2,1.5-1.7,2.3-.6.8-1,1.5-1.3,2.1-3.3-1.6-6.5-3.4-9.6-5.7-3.1-2.2-5.9-4.6-8.5-7.2-2.6-2.6-4.9-5.1-6.8-7.7h-1.8v-3.8ZM284.9,107.1h7.2v26.2h-7.2v-26.2Z"/>
        <path class="st2" d="M322.6,125.4c1.6-.4,3.5-.9,5.6-1.5,2.1-.6,4.3-1.2,6.6-1.9,2.3-.7,4.6-1.4,6.9-2.1l1,6.1c-3.2,1-6.4,2.1-9.6,3.1-3.3,1-6.3,2-9,2.8l-1.4-6.6ZM323.5,87.1h18.1v6.3h-18.1v-6.3ZM323.8,103.5h17v6.3h-17v-6.3ZM329.5,89.7h6.4v35l-6.4,1.1v-36.1ZM340.1,125.3c1.3-.9,2.9-2.1,4.8-3.5,1.9-1.4,3.8-2.9,5.9-4.6,2.1-1.7,4.1-3.3,6.2-5l2.3,4.8c-2.5,2.5-5,5-7.7,7.5-2.6,2.5-5.1,4.8-7.4,6.8l-4.1-6.1ZM342.7,93h33.7v6.3h-33.7v-6.3ZM343.1,104.2l5.2-2.3c.8,1,1.5,2.1,2.2,3.3.7,1.2,1.4,2.4,2,3.5.6,1.2,1.1,2.2,1.4,3.1l-5.6,2.6c-.2-.9-.6-2-1.2-3.2-.6-1.2-1.2-2.4-1.9-3.6-.7-1.2-1.4-2.4-2.1-3.4ZM355.9,83.8h6.6v45.8c0,1.7-.2,3.1-.6,4-.4,1-1.1,1.7-2.1,2.3-1,.6-2.2.9-3.7,1.1-1.5.2-3.3.3-5.4.3,0-.6-.2-1.4-.5-2.1-.3-.8-.6-1.6-.9-2.4-.3-.8-.6-1.5-.9-2.1,1.4,0,2.7,0,3.9,0,1.2,0,2,0,2.4,0,.5,0,.8,0,1-.3.2-.2.3-.5.3-.9v-45.9ZM362.2,100.4c.6,3.5,1.3,6.5,2.1,9.3.8,2.7,1.8,5.1,3,7.3,1.2,2.1,2.6,4.1,4.3,5.8,1.7,1.7,3.6,3.4,5.8,5-.8.6-1.6,1.4-2.4,2.4-.8,1-1.4,1.9-1.8,2.9-2.5-1.9-4.6-3.8-6.4-5.9-1.8-2.1-3.4-4.4-4.6-6.9-1.3-2.5-2.4-5.3-3.3-8.4-.9-3.1-1.7-6.6-2.3-10.4l5.6-1ZM370.3,101.6l5.9,3c-1,1.4-2.1,2.8-3.3,4.2-1.2,1.4-2.3,2.7-3.4,4-1.1,1.3-2.2,2.4-3.2,3.4l-4.7-2.7c.9-1,2-2.2,3-3.6,1.1-1.3,2.1-2.8,3.1-4.2,1-1.5,1.9-2.8,2.5-4ZM364.2,87.7l3.8-3.5c1.2.8,2.5,1.7,3.8,2.8,1.3,1.1,2.3,2,3,2.9l-4,4c-.6-.9-1.6-2-2.9-3.1-1.3-1.2-2.5-2.2-3.7-3Z"/>
      </g>
    </g>
  </g>
</svg>