<?xml version="1.0" encoding="UTF-8"?>
<svg id="_圖層_1" xmlns="http://www.w3.org/2000/svg" xmlns:xlink="http://www.w3.org/1999/xlink" version="1.1" viewBox="0 0 334.6 47.7">
  <!-- Generator: Adobe Illustrator 30.5.1, SVG Export Plug-In . SVG Version: 2.1.4 Build 3)  -->
  <defs>
    <style>
      .st0, .st1 {
        fill: none;
      }

      .st1 {
        stroke: #fff;
        stroke-miterlimit: 10;
      }

      .st2, .st3, .st4 {
        isolation: isolate;
      }

      .st5, .st3, .st4 {
        fill: #fff;
      }

      .st6, .st4 {
        opacity: .5;
      }

      .st7 {
        clip-path: url(#clippath);
      }

      .st3 {
        opacity: .6;
      }
    </style>
    <clipPath id="clippath">
      <path class="st0" d="M8.6,47.7c-4.6,0-8.3-3.7-8.3-8.3s3.7-8.3,8.3-8.3,8.3,3.7,8.3,8.3-3.7,8.3-8.3,8.3Z"/>
    </clipPath>
  </defs>
  <path class="st4" d="M8.3,18.5c4.4,0,8.1-3.6,8.1-8.1S12.7,2.5,8.3,2.5.2,6,.2,10.5s3.6,8.1,8.1,8.1h0Z"/>
  <path class="st5" d="M8.3,18.8C3.8,18.8,0,15.1,0,10.5S3.8,2.2,8.3,2.2s8.3,3.7,8.3,8.3-3.7,8.3-8.3,8.3ZM8.3,2.7C4,2.7.5,6.2.5,10.5s3.5,7.8,7.8,7.8,7.8-3.5,7.8-7.8-3.6-7.8-7.9-7.8Z"/>
  <path class="st4" d="M8.9,6.9l.5,1.8,1.8-.4c.5-.1,1,.5.5,1l-1.3,1.3,1.3,1.3c.4.4,0,1.1-.5,1l-1.8-.4-.5,1.8c-.2.5-1,.5-1.1,0l-.5-1.8-1.8.4c-.5.1-1-.5-.5-1l1.3-1.3-1.3-1.3c-.4-.4,0-1.1.5-1l1.8.4.5-1.8c.2-.5,1-.5,1.1,0Z"/>
  <g class="st2">
    <path class="st5" d="M248.3,33.1c0-.9.5-1.4,1.7-1.4s1.6.5,1.6,1.4v11.2c0,.9-.5,1.4-1.7,1.4s-1.6-.5-1.6-1.4v-11.2Z"/>
    <path class="st5" d="M260.9,45.5c-4.1,0-6.1-1.3-6.1-3.9v-6.1c0-2.5,2-3.8,5.9-3.8h4.6c3.9,0,5.9,1.3,5.9,3.8v6.1c0,2.6-2,3.9-6.1,3.9h-4.4,0ZM268,35.7c0-.8-.8-1.3-2.7-1.3h-4.5c-1.8,0-2.7.4-2.7,1.3v5.8c0,.9.9,1.4,2.7,1.4h4.5c1.8,0,2.7-.5,2.7-1.4v-5.8Z"/>
    <path class="st5" d="M274.5,33.1c0-.9.5-1.4,1.7-1.4s1.6.5,1.6,1.4v11.2c0,.9-.5,1.4-1.7,1.4s-1.6-.5-1.6-1.4v-11.2Z"/>
  </g>
  <g>
    <path class="st5" d="M179.7,11.6c0-1.1.1-2.1.4-3s.6-1.7,1.1-2.5.9-1.3,1.4-1.9l1.6.7c-.5.5-.9,1.1-1.4,1.7s-.7,1.4-1,2.2-.4,1.7-.4,2.7.1,1.9.4,2.7.6,1.5,1,2.2.9,1.2,1.4,1.7l-1.6.7c-.5-.5-1-1.2-1.4-1.9s-.8-1.5-1.1-2.5-.4-1.9-.4-3h0Z"/>
    <path class="st5" d="M185.1,15.3h13.6v2.3h-13.6v-2.3ZM186.4,6.6h11v2.2h-11v-2.2Z"/>
    <path class="st5" d="M204,11.6c0,1.1-.1,2.1-.4,3-.3.9-.6,1.7-1.1,2.5s-.9,1.3-1.4,1.9l-1.6-.7c.5-.5.9-1.2,1.4-1.7.4-.6.7-1.4,1-2.2s.4-1.7.4-2.7-.1-1.9-.4-2.7-.6-1.5-1-2.2c-.4-.6-.9-1.2-1.4-1.7l1.6-.7c.5.5,1,1.2,1.4,1.9s.8,1.5,1.1,2.5.4,1.9.4,3h0Z"/>
  </g>
  <g>
    <path class="st5" d="M25.7,37.5c0-.2,0-.4-.2-.7s-.2-.5-.3-.8-.2-.5-.3-.7c.2,0,.5-.2.7-.4s.5-.4.8-.7c.2-.1.4-.4.7-.7s.6-.7,1-1.2c.4-.4.7-.9,1.1-1.5s.7-1,1-1.6l2.4,1c-.5.7-1.1,1.5-1.7,2.2-.6.7-1.2,1.4-1.9,2s-1.3,1.2-1.9,1.7h0c-.3.2-.5.4-.7.5s-.4.2-.5.4c-.1.1-.2.2-.2.4ZM25.7,37.5v-1.8l1.5-.8,10.9-.3c0,.3,0,.7,0,1.2,0,.4,0,.8.1,1-1.7,0-3.2.1-4.4.2-1.2,0-2.3.1-3.2.1s-1.6,0-2.2.1c-.6,0-1,0-1.4.1-.4,0-.7,0-.8.1-.2,0-.4.1-.6.1ZM26.2,38.6h12.3v7.9h-2.5v-5.7h-7.3v5.7h-2.4v-7.9ZM27.4,43.4h9.8v2.3h-9.8v-2.3ZM33.7,32.6l1.8-1.2c.5.5,1.1,1.1,1.7,1.7.6.6,1.2,1.3,1.7,1.9s1,1.2,1.3,1.7l-2,1.5c-.3-.5-.7-1.1-1.2-1.7-.5-.6-1-1.3-1.6-1.9-.6-.7-1.2-1.3-1.7-1.8h0Z"/>
    <path class="st5" d="M41.6,43.9c.7-.2,1.4-.4,2.3-.7.8-.3,1.8-.6,2.8-1s1.9-.7,2.9-1l.4,2.1c-.8.4-1.7.7-2.5,1-.8.4-1.7.7-2.5,1-.8.3-1.6.6-2.3.9l-1-2.4h0ZM42.2,33.9h5.3v2.4h-5.3v-2.4ZM46.2,30h2.5v13.3h-2.5v-13.3ZM50.8,30.1h2.5v12.6c0,.5,0,.8.1,1,0,.1.2.2.5.2h1.5c.2,0,.4-.1.5-.4.1-.2.2-.6.2-1.2,0-.5,0-1.4.1-2.4.2.2.4.3.7.4s.5.3.8.4c.3.1.5.2.7.2,0,1.3-.2,2.2-.4,3-.2.8-.5,1.3-.8,1.6-.4.4-.9.5-1.6.5h-2.1c-.7,0-1.2-.1-1.6-.3s-.7-.5-.8-1.1c-.2-.5-.2-1.2-.2-2.1v-12.6h-.1ZM52.1,33.9h5.8v2.4h-5.8v-2.4Z"/>
    <path class="st5" d="M60.3,30.5h15.4v16.1h-2.4v-14h-10.8v14h-2.2s0-16.1,0-16.1ZM61.7,43.8h12.9v2.1h-12.9v-2.1ZM62.9,40.9c.7,0,1.4-.1,2.2-.2.8-.1,1.8-.2,2.7-.3v1.6c-.8.1-1.6.2-2.4.4-.8.1-1.6.2-2.3.3,0,0-.2-1.7-.2-1.7ZM63,34.3h9.8v1.6h-9.8s0-1.6,0-1.6ZM63.5,36.6h4v3.4h-4v-3.4ZM65,37.8v1h1v-1h-1ZM70.7,36.3l1.8.4c-.4,1.5-1.1,2.9-1.9,4.1s-1.8,2.1-3,2.9c0-.1-.2-.2-.4-.4-.1-.2-.3-.4-.5-.5l-.4-.4c1.1-.6,2-1.5,2.7-2.4.7-1,1.3-2.2,1.6-3.5h0ZM67.7,32.9h1.9c0,1.1,0,2.1.2,3.1,0,1,.2,1.9.3,2.7.1.8.3,1.5.5,1.9s.4.8.7.8c.1,0,.2-.1.2-.4,0-.3.1-.7.2-1.2.1.1.2.2.4.4.2.2.4.3.5.4s.4.2.5.3c-.1,1.2-.4,1.9-.9,2.2s-1,.4-1.6.1c-.5-.2-1-.6-1.3-1.3s-.6-1.5-.8-2.4c-.2-1-.4-2-.5-3.2-.1-1.2-.2-2.4-.2-3.6ZM70.1,33.5l1-1c.3.1.6.3.9.5.3.2.5.4.7.6l-1.1,1.1c-.2-.2-.4-.4-.7-.6-.3-.2-.6-.4-.8-.6h0Z"/>
    <path class="st5" d="M78,30.4h4.1v2.1h-2.1v14h-2v-16.1ZM81.3,30.4h.7c0,0,1.5.7,1.5.7-.2.8-.4,1.6-.7,2.4s-.5,1.6-.7,2.3c.5.7.8,1.3.9,2,.1.6.2,1.2.2,1.7s0,1.1-.2,1.5c-.1.4-.3.7-.6.9-.1.1-.3.2-.5.2s-.4.1-.5.1h-1.1c0-.2,0-.6-.1-1s-.2-.7-.4-1h.7c.2,0,.3,0,.4-.1.1,0,.2-.2.2-.4,0-.2,0-.4,0-.7,0-.4,0-.9-.2-1.5s-.4-1.2-.8-1.8c.1-.4.2-.8.3-1.3.1-.5.2-1,.3-1.4.1-.5.2-.9.3-1.3,0-.4.1-.7.2-1v-.6h0ZM84.8,29.8l1.8.4c-.3,1-.7,1.9-1.3,2.7-.5.8-1.1,1.6-1.8,2.1-.1-.2-.4-.4-.7-.6s-.5-.4-.7-.6c.6-.5,1.2-1.1,1.6-1.8.5-.7.8-1.5,1.1-2.3h0ZM84.6,42l2.1.7c-.2.4-.5.7-.7,1.2-.3.4-.5.8-.8,1.2s-.5.7-.8,1c-.1-.1-.3-.2-.5-.4-.2-.2-.5-.3-.7-.4-.2-.1-.4-.2-.6-.4.4-.4.8-.8,1.2-1.3.4-.5.7-1,1-1.5h0ZM82.7,35.2c.4,0,.7,0,1.2-.1.4,0,.8,0,1.3-.1v1.2c-.4,0-.7.2-1.1.2-.4,0-.7.1-1.1.2l-.2-1.5ZM87.1,31h.6c0,0,1.2.4,1.2.4-.2,1.2-.6,2.3-1.1,3.3-.5,1-1,1.9-1.6,2.6s-1.3,1.4-2.1,1.9c-.1-.2-.3-.5-.5-.7-.2-.3-.4-.5-.6-.7.7-.4,1.3-.9,1.9-1.6.5-.7,1-1.4,1.5-2.2s.7-1.7.9-2.6v-.3ZM84.2,39.6h8.6v1.9h-8.6v-1.9ZM84.3,33.7l1-1c.3.2.7.5,1,.8.4.3.7.5.9.7l-1,1.2c-.2-.2-.5-.5-.8-.8-.4-.3-.7-.6-1-.8h0ZM84.9,31h2.6v1.5h-2.6v-1.5ZM85.8,36.6h5.2v1.9h-5.2v-1.9ZM87.4,40.4h2.2v6.2h-2.2s0-6.2,0-6.2ZM90.1,31.5c.2.9.5,1.7,1,2.5.4.8.9,1.5,1.5,2.1s1.2,1.2,1.9,1.5c-.2.2-.4.4-.7.7-.2.3-.5.6-.6.8-.8-.5-1.5-1.1-2.1-1.8s-1.2-1.6-1.6-2.5c-.4-.9-.8-1.9-1.1-3l1.8-.4h0ZM89.7,30.7h2.9v1.6h-2.9v-1.6ZM90.2,42.8l1.8-1c.2.3.5.6.8,1s.6.7.8,1c.3.3.5.6.7.9l-1.8,1.2c-.2-.2-.4-.5-.6-.9s-.5-.7-.8-1.1c-.3-.4-.5-.7-.8-1ZM92,30.7h.8c0,0,1.3.7,1.3.7-.3.8-.6,1.6-1,2.4-.4.8-.8,1.5-1.3,1.9-.1-.2-.4-.4-.6-.7-.2-.2-.5-.5-.7-.6.2-.3.4-.6.6-1,.2-.4.4-.8.5-1.2s.2-.8.4-1.2v-.4h0Z"/>
    <path class="st5" d="M103.2,29.6l2.1.7c-.7.8-1.5,1.6-2.4,2.3s-2,1.3-3.1,1.8c-1.2.5-2.2,1-3.5,1.3,0-.2-.2-.4-.4-.6-.1-.2-.3-.5-.4-.7-.2-.2-.3-.4-.4-.5,1.1-.2,2.2-.6,3.2-1s2-.9,2.8-1.5c.8-.5,1.5-1.2,2.1-1.8h0ZM97.4,34.9h12.6v5h-12.6v-5ZM98.3,40.4h10.7v6.1h-2.4v-4.6h-5.9v4.7h-2.3s0-6.2,0-6.2ZM99.3,36.4v2.1h8.5v-2.1h-8.5ZM99.7,42.5h7.9v1.5h-7.9v-1.5ZM99.7,44.6h7.9v1.5h-7.9v-1.5ZM99.8,36.7l1.6-.4c.1.3.2.7.4,1,.1.4.2.7.2.9l-1.7.5c0-.3,0-.6-.2-1s-.2-.7-.4-1h0ZM100.5,32.9h6.3v1.5h-6.3v-1.5ZM102.6,35.4h1.9v3.8h-1.9v-3.8ZM104.8,30.4c.4.4.8.7,1.5,1s1.2.7,1.8.9,1.4.5,2.1.7c.7.2,1.5.4,2.2.5-.2.2-.5.5-.8.8-.3.4-.5.7-.7,1-.7-.2-1.5-.4-2.2-.7s-1.5-.6-2.1-1c-.7-.4-1.3-.8-1.9-1.2s-1.1-.9-1.6-1.4l1.8-.7h0ZM105.6,36.2l1.9.4c-.2.4-.4.7-.5,1.1-.2.4-.3.7-.5.9l-1.6-.4c.1-.3.2-.6.4-1,.1-.4.2-.7.3-1Z"/>
    <path class="st5" d="M113.1,32.7h5.9v1.9h-5.9v-1.9ZM113.7,40.2h1.6v6.1h-1.6v-6.1ZM113.7,35.2h4.9v1.8h-4.9v-1.8ZM113.7,37.7h4.9v1.8h-4.9v-1.8ZM114.5,40.2h3.9v5.5h-3.9v-1.8h2.2v-1.8h-2.2v-1.8ZM114.7,30.4l1.6-.6c.2.4.4.8.6,1.3s.4.8.4,1.2l-1.8.7c0-.3-.2-.7-.4-1.2-.2-.5-.4-.9-.5-1.3h0ZM118.8,42.4c.7,0,1.6-.1,2.6-.2,1,0,2-.2,3-.2v1.7c-.9.1-1.9.2-2.8.3-1,.1-1.8.2-2.6.3l-.2-1.8h0ZM118.9,39.8h10.7v1.7h-10.7v-1.7ZM119,35.5h10.7v1.7h-10.7v-1.7ZM123.4,37.2l1.2,1.3c-.5.1-1,.2-1.6.4-.6.1-1.2.2-1.8.2-.6,0-1.2.1-1.7.1,0-.2,0-.4-.2-.7,0-.2-.2-.5-.3-.7.5,0,1-.1,1.6-.2.5,0,1-.1,1.5-.2s.9-.2,1.3-.3h0ZM121.1,38.3h2.1v6.5c0,.4,0,.8-.2,1-.1.2-.3.4-.6.5-.3.1-.7.2-1,.2h-1.4c0-.2-.1-.5-.2-.8s-.2-.6-.4-.8h1.4c.2,0,.3-.1.3-.2v-6.4h0ZM119.5,31.3h9.8v1.6h-9.8v-1.6ZM120.1,33.5h8.7v1.5h-8.7v-1.5ZM120.8,30.3l1.6-.5c.2.2.4.5.6.8s.3.6.4.8l-1.8.6c0-.2-.2-.5-.4-.8s-.4-.6-.5-.9ZM127.5,41.7l1.6.8c-.4.5-.8,1.1-1.4,1.6-.5.5-1.1,1-1.8,1.3-.6.4-1.2.7-1.9,1-.1-.2-.2-.4-.5-.6-.2-.2-.4-.4-.6-.6.6-.2,1.2-.5,1.8-.8.5-.4,1.1-.7,1.6-1.2.5-.4.9-.9,1.2-1.5ZM123.2,31.8h2.3v4.4h-2.3v-4.4ZM124.4,37.5h1.9c0,1.5,0,2.9.2,3.9.1,1.1.4,1.9.6,2.5.3.6.6.9,1,.9s.2-.1.4-.4c0-.2.1-.6.2-1,.2.2.4.4.7.5s.5.2.7.4c-.1.8-.4,1.5-.7,1.9-.3.4-.8.5-1.3.5s-1.3-.2-1.8-.7-.8-1.1-1-1.9c-.2-.8-.4-1.8-.5-2.9-.1-1.1-.2-2.3-.2-3.6h0ZM126.3,29.8l2.1.5c-.2.4-.5.7-.7,1-.2.3-.4.5-.6.8l-1.6-.5c.2-.2.3-.5.5-.9.2-.3.3-.6.4-.9h0ZM126.4,38.3l1.3-.9c.3.2.7.5,1,.8.4.3.6.6.8.8l-1.5,1c-.2-.2-.4-.5-.7-.8s-.7-.6-1-.8h0Z"/>
    <path class="st5" d="M131.9,32.9h14.9v9.1h-2.5v-6.8h-10v6.9h-2.4v-9.2h0ZM133.1,38.7h12.5v2.3h-12.5v-2.3ZM138,29.8h2.5v16.8h-2.5v-16.8Z"/>
    <path class="st5" d="M150.2,35.8l2.3.4c0,.8-.2,1.6-.3,2.5s-.2,1.8-.4,2.7-.3,1.6-.5,2.4l-2.4-1c.2-.7.4-1.3.5-2.1.2-.8.3-1.6.5-2.4.1-.8.2-1.7.3-2.5h0ZM153.4,34.9h2.5v8.1c0,.4,0,.7.2.8.1.1.4.2.8.2h2.3c.3,0,.5,0,.7-.2s.2-.5.3-1c0-.5.1-1.2.1-2.1.2.1.4.2.7.4.2.1.5.2.8.4.3.1.5.2.7.2,0,1.2-.2,2-.4,2.7-.2.7-.5,1.1-1,1.4s-1,.4-1.8.4h-2.8c-.8,0-1.5-.1-1.9-.3-.5-.2-.8-.5-1-1s-.2-1.1-.2-1.9v-8.1h0ZM154,31.5l1.6-1.6c.5.3,1.2.7,1.8,1.2.7.4,1.3.8,1.8,1.3.6.4,1,.8,1.4,1.2l-1.8,1.9c-.3-.4-.8-.8-1.3-1.2-.5-.5-1.2-.9-1.8-1.4s-1.2-.9-1.8-1.3h0ZM161.3,36.1l2.2-.9c.3.7.7,1.5,1,2.2s.5,1.6.8,2.4c.2.8.4,1.5.5,2.1l-2.4,1c-.1-.6-.2-1.3-.5-2.1-.2-.8-.5-1.6-.7-2.4-.3-.8-.6-1.6-.9-2.2Z"/>
  </g>
  <g>
    <path class="st5" d="M290.5,29.6l2.1.7c-.7.8-1.5,1.6-2.4,2.3s-2,1.3-3.1,1.8c-1.2.5-2.2,1-3.5,1.3,0-.2-.2-.4-.4-.6-.1-.2-.3-.5-.5-.7-.2-.2-.3-.4-.4-.5,1.1-.2,2.2-.6,3.2-1,1-.4,2-.9,2.8-1.5.8-.5,1.5-1.2,2.1-1.8h.1ZM284.7,34.9h12.6v5h-12.6v-5ZM285.6,40.4h10.7v6.1h-2.4v-4.6h-5.9v4.7h-2.3v-6.2h0ZM286.6,36.4v2.1h8.5v-2.1h-8.5ZM286.9,42.5h7.9v1.5h-7.9v-1.5ZM286.9,44.6h7.9v1.5h-7.9v-1.5ZM287.1,36.7l1.6-.4c.1.3.2.7.4,1,.1.4.2.7.2.9l-1.7.5c0-.3,0-.6-.2-1-.1-.4-.2-.7-.4-1h0ZM287.8,32.9h6.3v1.5h-6.3v-1.5ZM289.9,35.4h1.9v3.8h-1.9v-3.8ZM292.1,30.4c.4.4.8.7,1.5,1s1.2.7,1.8.9c.7.3,1.4.5,2.1.7.7.2,1.5.4,2.2.5-.2.2-.5.5-.8.8-.3.4-.5.7-.7,1-.7-.2-1.5-.4-2.2-.7s-1.5-.6-2.1-1c-.7-.4-1.3-.8-1.9-1.2s-1.1-.9-1.6-1.4l1.8-.7h0ZM292.9,36.2l1.9.4c-.2.4-.4.7-.5,1.1s-.3.7-.5.9l-1.6-.4c.1-.3.2-.6.4-1s.2-.7.3-1h0Z"/>
    <path class="st5" d="M300.4,32.7h5.9v1.9h-5.9v-1.9ZM300.9,40.2h1.6v6.1h-1.6v-6.1ZM301,35.2h4.9v1.8h-4.9v-1.8ZM301,37.7h4.9v1.8h-4.9v-1.8ZM301.8,40.2h3.9v5.5h-3.9v-1.8h2.2v-1.8h-2.2v-1.8ZM302,30.4l1.6-.6c.2.4.4.8.6,1.3s.4.8.4,1.2l-1.8.7c0-.3-.2-.7-.4-1.2-.2-.5-.4-.9-.5-1.3h0ZM306.1,42.4c.7,0,1.6-.1,2.6-.2,1,0,2-.2,3-.2v1.7c-.9.1-1.9.2-2.8.3-1,.1-1.8.2-2.6.3l-.2-1.8h0ZM306.2,39.8h10.7v1.7h-10.7v-1.7ZM306.3,35.5h10.7v1.7h-10.7v-1.7ZM310.7,37.2l1.2,1.3c-.5.1-1,.2-1.6.4-.6.1-1.2.2-1.8.2-.6,0-1.2.1-1.7.1,0-.2,0-.4-.2-.7,0-.2-.2-.5-.3-.7.5,0,1-.1,1.6-.2s1-.1,1.5-.2.9-.2,1.3-.3h0ZM308.4,38.3h2v6.5c0,.4,0,.8-.2,1-.1.2-.3.4-.6.5-.3.1-.7.2-1,.2h-1.4c0-.2-.1-.5-.2-.8-.1-.3-.2-.6-.4-.8h1.4c.2,0,.3-.1.3-.2v-6.4h.1ZM306.8,31.3h9.8v1.6h-9.8v-1.6ZM307.4,33.5h8.7v1.5h-8.7v-1.5h0ZM308,30.3l1.6-.5c.2.2.4.5.6.8s.3.6.4.8l-1.8.6c0-.2-.2-.5-.4-.8-.2-.3-.4-.6-.5-.9h0ZM314.8,41.7l1.6.8c-.4.5-.8,1.1-1.4,1.6-.5.5-1.1,1-1.8,1.3s-1.2.7-1.9,1c-.1-.2-.2-.4-.5-.6-.2-.2-.4-.4-.6-.6.6-.2,1.2-.5,1.8-.8.5-.4,1.1-.7,1.6-1.2.5-.4.9-.9,1.2-1.5ZM310.5,31.8h2.3v4.4h-2.3v-4.4ZM311.7,37.5h1.9c0,1.5,0,2.9.2,3.9.1,1.1.4,1.9.6,2.5.3.6.6.9,1,.9s.2-.1.4-.4c0-.2.1-.6.2-1,.2.2.4.4.7.5.2.1.5.2.7.4-.1.8-.4,1.5-.7,1.9-.3.4-.8.5-1.3.5s-1.3-.2-1.8-.7c-.4-.5-.8-1.1-1-1.9-.2-.8-.4-1.8-.5-2.9s-.2-2.3-.2-3.6h0ZM313.5,29.8l2.1.5c-.2.4-.5.7-.7,1-.2.3-.4.5-.6.8l-1.6-.5c.2-.2.3-.5.5-.9.2-.3.3-.6.4-.9h0ZM313.7,38.3l1.3-.9c.3.2.7.5,1,.8.4.3.6.6.8.8l-1.5,1c-.2-.2-.4-.5-.7-.8s-.7-.6-1-.8h0Z"/>
    <path class="st5" d="M318.7,44h15.9v2.1h-15.9v-2.1ZM318.7,31.2h15.8v3.5h-2.4v-1.4h-11v1.4h-2.3v-3.5ZM320.2,40.8h12.9v2h-12.9v-2ZM321.1,40c0-.1-.1-.4-.2-.6s-.2-.5-.2-.7c0-.2-.2-.5-.2-.7.2,0,.4-.1.6-.2s.4-.2.7-.4c.2-.1.4-.3.8-.6s.7-.6,1.2-1,.8-.8,1.2-1.3l1.8,1.3c-.6.6-1.3,1.2-2,1.8s-1.5,1.1-2.3,1.5h0c-.2.2-.5.3-.6.4-.2.1-.3.2-.4.3s-.2.2-.2.3h0ZM320.7,34.3h11.8v2h-11.8v-2ZM321.1,40v-1.5l1.1-.7,8.9-.5c0,.2,0,.5.2.9,0,.3.1.6.2.8-1.7.1-3.2.2-4.3.4s-2.1.2-2.8.2c-.7,0-1.3.1-1.7.2-.4,0-.7.1-1,.1s-.4.1-.5.1h0ZM325.1,30.1l2.3-.7c.2.3.4.7.5,1.1.2.4.3.7.4,1l-2.4.7c0-.3-.1-.6-.3-1-.1-.4-.3-.8-.5-1.2ZM325.3,39.5h2.4v5.5h-2.4v-5.5ZM328.2,36.7l1.7-1.2c.4.3.8.7,1.3,1,.4.4.8.8,1.3,1.2.4.4.7.7,1,1l-1.9,1.3c-.2-.3-.5-.7-.9-1-.4-.4-.8-.8-1.2-1.2s-.8-.8-1.3-1.1h0Z"/>
  </g>
  <g class="st7">
    <g>
      <path class="st4" d="M8.6,47.4c4.4,0,8.1-3.6,8.1-8.1s-3.6-8.1-8.1-8.1S.5,34.9.5,39.4s3.6,8.1,8.1,8.1Z"/>
      <g class="st6">
        <path class="st3" d="M5.1,30.9L-1.5,48.9l.5.2,6.6-18s-.5-.2-.5-.2Z"/>
        <path class="st3" d="M8.4,30.9L1.8,48.9l.5.2,6.6-18s-.5-.2-.5-.2Z"/>
        <path class="st3" d="M11.7,30.9l-6.6,18,.5.2,6.6-18s-.5-.2-.5-.2Z"/>
        <path class="st3" d="M15,30.9l-6.6,18,.5.2,6.6-18s-.5-.2-.5-.2Z"/>
        <path class="st3" d="M18.3,30.9l-6.6,18,.5.2,6.6-18s-.5-.2-.5-.2Z"/>
        <path class="st3" d="M12.1,30.9l-.5.2,6.6,18,.5-.2s-6.6-18-6.6-18Z"/>
        <path class="st3" d="M8.9,30.9l-.5.2,6.6,18,.5-.2s-6.6-18-6.6-18Z"/>
        <path class="st3" d="M5.5,30.9l-.5.2,6.6,18,.5-.2s-6.6-18-6.6-18Z"/>
        <path class="st3" d="M2.2,30.9l-.5.2,6.6,18,.5-.2S2.2,30.9,2.2,30.9Z"/>
        <path class="st3" d="M-1,30.9l-.5.2,6.6,18,.5-.2L-1,30.9Z"/>
      </g>
      <path class="st5" d="M8.6,47.7c-4.6,0-8.3-3.7-8.3-8.3s3.7-8.3,8.3-8.3,8.3,3.7,8.3,8.3-3.7,8.3-8.3,8.3ZM8.6,31.5c-4.3,0-7.8,3.5-7.8,7.8s3.5,7.8,7.8,7.8,7.8-3.5,7.8-7.8-3.5-7.8-7.8-7.8Z"/>
    </g>
  </g>
  <line class="st1" x1="176.3" y1="40.4" x2="237.6" y2="40.4"/>
  <g>
    <path class="st5" d="M36.1.3c3.6,0,5.6,1.8,5.6,5.2s-1.3,4.3-4.3,5l-7.7,1.7c-1.3.3-1.5,1-1.5,2v.9c0,.3.1.4.4.4h12.7v3.2h-14.7c-1,0-1.5-.5-1.5-1.5v-2.8c0-3,.9-4.6,4-5.3l7.8-1.8c1.3-.3,1.7-.9,1.7-1.8s-.8-2.1-2.3-2.1h-10.7V.3h10.6Z"/>
    <path class="st5" d="M60.9,9.5c0,6.2-3,9.5-8.3,9.5s-8.3-3.3-8.3-9.5S47.1,0,52.5,0s8.3,3.3,8.3,9.5ZM47.3,9.5c0,4.2,1.6,6.3,5.2,6.3s5.1-2.1,5.1-6.3-1.6-6.3-5.1-6.3-5.2,2.1-5.2,6.3Z"/>
    <path class="st5" d="M75.3.3c3.6,0,5.6,1.8,5.6,5.2s-1.3,4.3-4.3,5l-7.7,1.7c-1.3.3-1.5,1-1.5,2v.9c0,.3.1.4.4.4h12.7v3.2h-14.7c-1,0-1.5-.5-1.5-1.5v-2.8c0-3,.9-4.6,4-5.3l7.8-1.8c1.3-.3,1.7-.9,1.7-1.8s-.8-2.1-2.3-2.1h-10.7V.3h10.6Z"/>
    <path class="st5" d="M99.3.3v3.2h-7.1c-3.1,0-4.6,1.3-5,4.3h7.7c3.8,0,5.4,1.6,5.4,5s-1.6,5.9-5.7,5.9h-3.1c-4.6,0-7.6-3-7.6-9.2S86.9.3,92.2.3h7.1ZM87.2,10.4c.2,3.6,1.8,5.1,4.8,5.1h2.6c1.8,0,2.7-1.1,2.7-2.7s-.9-2.4-2.6-2.4h-7.5Z"/>
    <path class="st5" d="M106.2,15v3.7h-3.1v-3.7h3.1Z"/>
    <path class="st5" d="M125.1,9.5c0,6.2-3,9.5-8.3,9.5s-8.3-3.3-8.3-9.5,3-9.5,8.3-9.5,8.3,3.3,8.3,9.5ZM111.6,9.5c0,4.2,1.6,6.3,5.2,6.3s5.1-2.1,5.1-6.3-1.6-6.3-5.1-6.3-5.2,2.1-5.2,6.3Z"/>
    <path class="st5" d="M139.4.3c4.3,0,6.2,2.1,6.2,5.1s-.9,3.4-2.6,4.1c1.7.7,2.7,2.1,2.7,4.2s-1.8,5.1-6.2,5.1h-4.5c-4.3,0-6.2-2.1-6.2-5.1s1-3.5,2.7-4.2c-1.7-.7-2.6-2-2.6-4.1,0-3,1.8-5.1,6.2-5.1h4.3ZM139.6,15.5c1.9,0,2.8-.9,2.8-2.4s-1-2.3-2.8-2.3h-4.7c-1.9,0-2.8.8-2.8,2.3s.9,2.4,2.8,2.4h4.7ZM139.5,8.1c1.9,0,2.8-.7,2.8-2.2s-.8-2.4-2.8-2.4h-4.5c-2,0-2.8,1-2.8,2.4s1,2.2,2.9,2.2h4.5Z"/>
    <path class="st5" d="M151,17.9c-.6,0-1.2-.2-1.6-.7s-.6-1-.6-1.7.2-1.2.6-1.6.9-.7,1.6-.7,1.2.2,1.6.7.6,1,.6,1.6-.2,1.2-.6,1.7-1,.7-1.6.7Z"/>
    <path class="st5" d="M159.2.3c3.4,0,4.3,1.2,4.3,4.4v14.1h-3.2V4.9c0-1-.4-1.4-1.3-1.4h-1.7V.3h1.9Z"/>
    <path class="st5" d="M168.5.3c3.4,0,4.3,1.2,4.3,4.4v14.1h-3.2V4.9c0-1-.4-1.4-1.3-1.4h-1.7V.3h1.9Z"/>
  </g>
  <g>
    <path class="st5" d="M222.1,12.1c0,4.3-2.1,6.6-5.8,6.6s-5.8-2.3-5.8-6.6,2.1-6.6,5.8-6.6,5.8,2.3,5.8,6.6ZM212.6,12.1c0,3,1.1,4.4,3.6,4.4s3.6-1.4,3.6-4.4-1.1-4.4-3.6-4.4-3.6,1.4-3.6,4.4Z"/>
    <path class="st5" d="M230.4,5.7c3,0,5.1,1.8,5.1,6.2s-2.1,6.6-5.8,6.6h-4.2v-2.2h4.2c2.1,0,3.2-.9,3.5-3h-5.4c-2.6,0-3.8-1.1-3.8-3.5s1.1-4.1,4.3-4.1h2.2ZM228,11.5h5.2c-.1-2.4-1.2-3.5-3.3-3.5h-1.8c-1.3,0-1.9.8-1.9,1.9s.6,1.7,1.8,1.7Z"/>
    <path class="st5" d="M240.2,8.8v2.6h-2.2v-2.6h2.2ZM240.2,16v2.6h-2.2v-2.6h2.2Z"/>
    <path class="st5" d="M254.4,12.1c0,4.3-2.1,6.6-5.8,6.6s-5.8-2.3-5.8-6.6,2.1-6.6,5.8-6.6,5.8,2.3,5.8,6.6ZM245,12.1c0,3,1.1,4.4,3.6,4.4s3.6-1.4,3.6-4.4-1.1-4.4-3.6-4.4-3.6,1.4-3.6,4.4Z"/>
    <path class="st5" d="M268.7,12.1c0,4.3-2.1,6.6-5.8,6.6s-5.8-2.3-5.8-6.6,2.1-6.6,5.8-6.6,5.8,2.3,5.8,6.6ZM259.3,12.1c0,3,1.1,4.4,3.6,4.4s3.6-1.4,3.6-4.4-1.1-4.4-3.6-4.4-3.6,1.4-3.6,4.4Z"/>
    <path class="st5" d="M280.7,11.5v1.9h-9.9v-1.9h9.9Z"/>
    <path class="st5" d="M283.2,5.7c2.3,0,3,.8,3,3.1v9.8h-2.2v-9.6c0-.7-.2-1-.9-1h-1.2v-2.2h1.4Z"/>
    <path class="st5" d="M296.7,5.7c2.5,0,3.9,1.3,3.9,3.6s-.9,3-3,3.4l-5.4,1.2c-.9.2-1.1.7-1.1,1.4v.6c0,.2,0,.3.2.3h8.8v2.2h-10.2c-.7,0-1.1-.3-1.1-1v-1.9c0-2.1.6-3.2,2.8-3.7l5.4-1.2c.9-.2,1.2-.6,1.2-1.3s-.6-1.4-1.6-1.4h-7.4v-2.2h7.4Z"/>
    <path class="st5" d="M305.3,8.8v2.6h-2.2v-2.6h2.2ZM305.3,16v2.6h-2.2v-2.6h2.2Z"/>
    <path class="st5" d="M319.5,12.1c0,4.3-2.1,6.6-5.8,6.6s-5.8-2.3-5.8-6.6,2.1-6.6,5.8-6.6,5.8,2.3,5.8,6.6ZM310.1,12.1c0,3,1.1,4.4,3.6,4.4s3.6-1.4,3.6-4.4-1.1-4.4-3.6-4.4-3.6,1.4-3.6,4.4Z"/>
    <path class="st5" d="M333.8,12.1c0,4.3-2.1,6.6-5.8,6.6s-5.8-2.3-5.8-6.6,2.1-6.6,5.8-6.6,5.8,2.3,5.8,6.6ZM324.3,12.1c0,3,1.1,4.4,3.6,4.4s3.6-1.4,3.6-4.4-1.1-4.4-3.6-4.4-3.6,1.4-3.6,4.4Z"/>
  </g>
</svg>