<?xml version="1.0" encoding="UTF-8"?>
<svg id="_圖層_1" xmlns="http://www.w3.org/2000/svg" version="1.1" viewBox="0 0 692.1 43.4">
  <!-- Generator: Adobe Illustrator 30.5.1, SVG Export Plug-In . SVG Version: 2.1.4 Build 3)  -->
  <defs>
    <style>
      .st0, .st1 {
        fill: #fff;
      }

      .st1 {
        isolation: isolate;
        opacity: .6;
      }
    </style>
  </defs>
  <polygon class="st0" points="59.7 16 22.7 16 27.9 6 64.9 6 59.7 16"/>
  <polygon class="st0" points="37 28.5 0 28.5 5.2 18.6 42.2 18.6 37 28.5"/>
  <polygon class="st1" points="31.3 39.7 37 28.5 24 28.5 18.3 39.7 31.3 39.7"/>
  <polygon class="st1" points="53.9 27.1 59.7 16 46.7 16 41 27.1 53.9 27.1"/>
  <path class="st0" d="M176.9,9.7h-1.8l.9-.7c-.9-.9-1.9-1.7-2.9-2.6l-.8.7c.6.9,1.2,1.8,1.7,2.7h-2.5v-2.6h0c0,0-1.8,0-1.8,0h0v2.8h-7.8v1.3h7.9v.3c.1,3.5.6,6,1.3,7.9-1.2,1.5-2.7,2.8-4.4,4l.6.9c1.7-1,3.2-2.1,4.4-3.3,1,2,2.2,2.8,3.2,2.9.6,0,1,0,1.3-.3.7-.7.7-2.9.2-5.7h-1c.1,1.9,0,3.8-.3,4h-.2c-.4-.1-1.2-.8-1.8-2.5,1.3-1.7,2.3-3.7,3-6.1l-1.9-.5c-.4,1.7-.9,3.3-1.7,4.8-.4-1.5-.7-3.4-.8-5.9v-.3h5.3v-1.7Z"/>
  <path class="st0" d="M169.7,18.4c-2.4,1-4.9,1.8-7.4,2.2l.7,2c2.5-.8,4.9-1.9,7.2-3.2l-.5-1Z"/>
  <path class="st0" d="M166.7,17.9h1.9v-5.6h-6v5.6h4.1ZM166.7,13.6v3h-2.1v-3h2.1Z"/>
  <path class="st0" d="M179.7,24.7V4.8h-20.7v21.1h20.7v-1.3h0ZM161.2,24.7V6.1h16.4v18.6h-16.4Z"/>
  <path class="st0" d="M277.6,9.6h13.3v-4.5h-18.9v4.5h5.6ZM288.8,6.3v2h-3.4v-2h3.4ZM283.2,6.3v2h-3.4v-2h3.4ZM274.2,6.3h3.4v2h-3.4v-2Z"/>
  <path class="st0" d="M287.6,14.5c.6-.3,1.3-.7,1.9-1,.9-.5,1.8-1.1,2.6-1.7l-1.3-1.6c-1,.8-2.1,1.6-3.3,2.2v-.9h-5.5v-1.2h-2.2v1.2h-6.8v1.3h6.8v1.7h-9.9v1.3h10.8-.1c-3.6,1.5-7.3,2.9-11.1,3.9l.2,1c1.9-.4,3.8-1,5.7-1.5v7h13.4v-8.6h-8.8c.3-.1.7-.2,1-.4,1.2-.5,2.4-.9,3.6-1.5h8v-1.3h-5.2.2ZM287,24.9h-9.1v-2.4h9.1v2.4ZM287,21.3h-9.1v-2.4h9.1v2.4ZM282.1,14.5v-1.7h4.9c-1.1.6-2.2,1.2-3.3,1.7h-1.6Z"/>
  <path class="st0" d="M263.5,16.4h-14.1c.6-.6,1-1.2,1.4-1.8h10.2V5.3h-15.3v9.4h2.7c-.6.9-1.5,1.8-2.3,2.4-1.3,1-2.7,1.9-4.2,2.7l.4,1c1.8-.6,3.9-1.7,5.6-3h2.9c-.2.2-.4.5-.6.7-1.9,1.9-4.1,3.4-6.5,4.7l.5,1.1c3.2-1.3,7.3-3.5,9.3-6.4h2.7c-.9,1.5-2.1,2.8-3.4,3.9-1.7,1.5-3.5,2.8-5.5,3.7l.4,1.1c1.1-.4,2.2-.9,3.2-1.5,3.1-1.8,6-4,7.9-7.2h2.2c-.1,1.5-.4,3.8-.5,4.5-.1,1-.4,2-1.3,2.3-1.2.4-4.3-.5-4.3-.5l-.3,1s2.8,1,4.3,1.2c1.6.2,2.9-.1,3.4-1.1.8-1.6,1.2-8.7,1.2-8.7v-.2ZM247.8,6.5h11v2.8h-11v-2.8h0ZM247.8,10.6h11v2.8h-11v-2.8h0Z"/>
  <path class="st0" d="M228.1,9.6c-.7,1.1-1.5,2.2-2.7,2.9,0,0,.2.3.3.6h-7.5v9.3h4.2c-1,.6-2.1,1.2-3.2,1.7-1.4.6-2.9,1.2-4.4,1.5v1c1.8-.2,3.4-.6,5-1.1s3.1-1.1,4.6-2c0,0-.4-.6-.7-1.1h3.7c0,.1-.2.9-.2.9,3.1.9,6.2,2,9.1,3.3l.7-1.9c-3-1-6.1-1.8-9.2-2.3h6.4v-9.3h-7.6c2.3-1.3,4.1-3.8,4.7-6.4h3c0,1-.1,2.3-.1,2.9,0,1-.2,1.6-.9,1.6s-2.4-.6-2.4-.6l-.4.9s2.1,1.2,3.5,1.3c1.3,0,2.1-.6,2.3-1.9.2-1.5.3-5.4.3-5.4h-10.2v1.2h3c-.2,1-.6,2.1-1.1,2.9h-.2ZM220.5,17h11.5v1.4h-11.5v-1.4ZM220.5,21.1v-1.4h11.5v1.4h-11.5ZM232,15.7h-11.5v-1.4h11.5v1.4Z"/>
  <path class="st0" d="M215.2,13.6c2.9-.9,5.8-1.9,8.6-3.2.3.5.6,1.1.9,1.6l1.8-1.1c-1-1.3-2-2.6-3.2-3.8l-.9.7c.3.5.6,1,.9,1.6-1.4.5-2.9.9-4.3,1.3v-3.4c2,0,4-.5,5.8-1.4l-1.1-1.7c-.9.5-1.9,1-2.9,1.3-1.3.4-2.7.6-4,.7v5.1c-.6.2-1.3.3-2,.4l.5,2h-.1Z"/>
  <polygon class="st0" points="142.4 6.9 137.4 6.9 137.4 4 135.2 4 135.2 6.9 130.6 6.9 130.6 8.2 142.4 8.2 142.4 6.9"/>
  <path class="st0" d="M142.7,13.5h-4.1c.9-1.2,1.6-2.5,2.2-3.9l-1.9-1c-.4,1.7-.9,3.3-1.7,4.9h-7.3v1.2h12.8v-1.2Z"/>
  <polygon class="st0" points="133.9 13.2 135.7 12.3 133.4 8.6 132.3 9.2 133.9 13.2"/>
  <path class="st0" d="M152.4,6.7l-.8-1.2h-8v20.7h2.2V6.9h3.9s-1.6,4.5-2.4,6.2c1.9,1.8,2.8,4.2,2.9,5.9,0,2-.9,2.8-1.9,2.9h-1.2v.8c.1,0,1.5.1,2.4,0,2.1-.2,3.1-1.6,3.1-3.6s-1.1-3.8-3.4-6.4l3.3-6h-.1Z"/>
  <path class="st0" d="M139.3,17.4h-7.6v7.8h9.8v-7.8h-2.2ZM133.8,24v-5.3h5.5v5.3s-5.5,0-5.5,0Z"/>
  <polygon class="st0" points="115.5 9.1 112.6 7.2 111.9 8 114.5 10.3 114.5 15 116.2 15 116.2 10 118.9 8.2 118 7.1 123.7 7.1 123.7 5.9 116.5 5.9 116.5 4 114.3 4 114.3 5.9 107.1 5.9 107.1 7.1 117.7 7.1 115.5 9.1"/>
  <path class="st0" d="M106.4,14.5l.7.8c.8-.6,1.4-1.3,2-2.1.5-.8.9-1.7,1.1-2.6h1v2.1c-.2,1.1-.3,1.3-.9,1.5-.4.1-1.2-.1-1.2-.1l-.2.5s.7.5,1.8.5,1.9-.3,2.1-1.4c.2-1.2.2-4.3.2-4.3h-6v1.1h1.5c-.2,1.5-.9,2.9-2,3.9h0Z"/>
  <path class="st0" d="M106.2,12.4c-1.4-1-2.8-1.8-4.2-2.5l-.6,1c1.3,1,2.4,2,3.5,3.1l1.4-1.6h-.1Z"/>
  <path class="st0" d="M106.4,15.8l-1.4-.3c-.8,3.3-2.1,6.5-3.9,9.3l2.1,1.2c1.6-3.3,2.7-6.7,3.2-10.3h0Z"/>
  <path class="st0" d="M119.6,17.4h-8.7v-1.5h-2.2c0,1.8,0,3.5-.3,5.3-.3,1.7-.9,3.2-2.1,4.5l.7.7c1.7-1,2.6-2.6,3.1-4.4h9.4v4.2h2.1v-10.3h-2.1v1.5h0ZM110.5,20.8c0-.7.2-1.5.3-2.2h8.8v2.2h-9.1Z"/>
  <path class="st0" d="M106.6,7.2c-1.4-1-2.8-1.8-4.2-2.5l-.6,1c1.3,1,2.4,2,3.5,3.1l1.4-1.6h-.1Z"/>
  <path class="st0" d="M122.9,12.2c-.4-.5-.8-1.1-1.1-1.8.7-.1,1.4-.3,2.1-.4v-.2l-.9-1.3c-.8.3-1.6.6-2.3.8-.9.2-1.8.5-2.8.6v.3h0v4.8h0l3.9-.8v-.9h-2.2v-2.6c.4,0,.8,0,1.2-.1.5,1.8,1.6,3.3,3,4.5l1.1-1.1c-.7-.5-1.4-1.1-1.9-1.8h-.1Z"/>
  <path class="st0" d="M189.2,6.2h2.6s-1.5,5.4-1.8,6.2c1.1,2.1,1.4,3.3,1.5,4.8.2,1.3,0,2.3-1,2.5-.4,0-.8-.1-.8-.1l-.4.5s.5.7,1.4,1c1.6.6,2.7-.8,2.7-2.7s-1-4-2.4-6l3-6.2-.7-1.1h-6.3v21.6h2.1V6.2h0Z"/>
  <path class="st0" d="M192.3,25.3c2.4-1.5,4.6-3.3,6.2-5.7l-1.7-1c-.6,1.1-1.3,2.2-2.2,3.2s-1.8,1.9-2.9,2.7l.6.8h0Z"/>
  <path class="st0" d="M204.1,18.5l-.7.7c1.7,1.8,3.2,3.8,4.6,5.8l1.6-1.3c-1.7-1.8-3.5-3.6-5.5-5.3h0Z"/>
  <path class="st0" d="M202.2,24.2v-6.2h6.1v-1.3h-14.3v1.3h6v4.6c0,1.7,0,2.1-.9,2.1s-2.9-.6-2.9-.6l-.2.9s2.8,1.2,4.1,1.2,2.1-.9,2.1-2.1h0Z"/>
  <path class="st0" d="M192.9,12.6c.6-.6,1.1-1.3,1.6-2l1.8,1.8c-.8,1-1.8,2-2.8,2.9l.6.8c1.1-.8,2.2-1.7,3.2-2.7v1.3h7.8v-1.2c.9.9,2,1.7,3.1,2.5l1.3-1.8c-1.6-.9-3.1-1.9-4.4-3.2,1.3-1.1,2.4-2.5,3.3-3.9l-.6-1h-5.5c-.2-.6-.3-1.2-.3-1.8h-1c0,3.7,1.6,6.8,4.1,9.2h-7.8c1.7-1.8,3.1-4,3.9-6.4l-1.1-.9h-3c.3-.6.5-1.2.7-1.8l-1.9-.5c-.3,1.5-.9,2.9-1.5,4.3-.6,1.4-1.4,2.8-2.3,4l.8.7v-.3ZM206.3,7.2c-.2.3-.3.6-.5.9-.4.7-.9,1.3-1.4,1.9-.7-.9-1.2-1.8-1.6-2.8,0,0,3.5,0,3.5,0ZM195.1,9.8c.2-.3.4-.6.6-.9l2,1.6c-.1.3-.3.5-.5.8l-2.2-1.4h0ZM199.1,7.3c-.2.6-.4,1.2-.7,1.7l-2.3-1.1c.1-.2.2-.4.3-.7h2.7Z"/>
  <rect class="st0" x="81.3" y="5.8" width="13.6" height="1.2"/>
  <polygon class="st0" points="89.2 19.4 94.4 19.4 94.4 18.1 81.8 18.1 81.8 19.4 87 19.4 87 24.3 80.7 24.3 80.7 25.5 95.3 25.5 95.3 24.3 89.2 24.3 89.2 19.4"/>
  <path class="st0" d="M78.2,26.2v-9.3l1.5-.4c.2.6.4,1.1.5,1.7l1.9-.7c-.6-1.2-1.2-2.3-1.9-3.4-.2-.4-.5-.7-.7-1.1l-1,.6c.2.4.3.7.5,1.1,0,.2.2.4.3.7l-3.5.4c2.2-2.2,4-4.8,5.5-7.5l-1.8-.9c-.5,1-1,2-1.5,2.9l-2.5.2c1.3-1.8,2.4-3.7,3.3-5.7l-1.9-.7c-.4,1.1-.8,2.3-1.3,3.4-.5,1.1-1,2.2-1.6,3.2h-1.4c0,.1.3,2.1.3,2.1l4.3-1c-1,1.6-2.1,3-3.3,4.4l-1.7.2.4,2,3.8-.9v8.8h1.8,0Z"/>
  <path class="st0" d="M73.2,22.3c-.3,1-.7,2-1.2,3l1,.5c1.2-2,2.2-4.1,2.7-6.4l-1.9-.2c0,1-.3,2.1-.6,3.1Z"/>
  <polygon class="st0" points="80.5 23.7 82.2 22.9 79.7 18.6 78.7 19.1 80.5 23.7"/>
  <path class="st0" d="M85.9,8.3l-1.9-.8c-.5,1.7-1.3,3.4-2.3,5,1,1.5,1.8,3.2,2.3,5l1.9-.8c-.8-1.5-1.7-2.9-2.8-4.2,1.1-1.3,2.1-2.7,2.8-4.2Z"/>
  <path class="st0" d="M90,16.7c-.8-1.5-1.7-2.9-2.8-4.2,1.1-1.3,2.1-2.7,2.8-4.2l-1.9-.8c-.5,1.7-1.3,3.4-2.3,5,1,1.5,1.8,3.2,2.3,5,0,0,1.9-.8,1.9-.8Z"/>
  <path class="st0" d="M92.2,7.5c-.5,1.7-1.3,3.4-2.3,5,1,1.5,1.8,3.2,2.3,5l1.9-.8c-.8-1.5-1.7-2.9-2.8-4.2,1.1-1.3,2.1-2.7,2.8-4.2,0,0-1.9-.8-1.9-.8Z"/>
  <rect class="st0" x="72.6" y="32.7" width="1.5" height="9.1"/>
  <path class="st0" d="M80,35.2c-.9,0-1.5.4-1.9,1h0v-.8h-1.4v6.5h1.5v-3.6c0-1.2.6-1.9,1.5-1.9s1.3.5,1.3,1.6v3.8h1.5v-4c0-1.8-.9-2.7-2.4-2.7h0Z"/>
  <path class="st0" d="M86.4,39.6v-3.2h1.3v-1.1h-1.3v-1.6h-1.5v1.6h-1.1v1.1h1.1v3.5c0,1.4.6,2,2,2s.6,0,.8,0v-1.1h-.4c-.6,0-.9-.3-.9-1h0Z"/>
  <path class="st0" d="M95,37.3c-.4-1.4-1.4-2.2-2.9-2.2s-3.1,1.4-3.1,3.4,1.2,3.5,3.1,3.5,2.7-1,3-2.1h-1.5c0,.6-.7,1.1-1.5,1.1s-1.6-.6-1.7-2.1h4.8c0-.6,0-1.1-.2-1.5h0ZM90.5,37.9c0-1.1.8-1.7,1.6-1.7s1.5.6,1.6,1.7h-3.3.1Z"/>
  <path class="st0" d="M98.6,36.3h0v-1h-1.4v6.5h1.5v-3.2c0-1.4.6-2.1,1.8-2.1s.3,0,.5,0v-1.3h-.5c-.8,0-1.4.3-1.8,1h0Z"/>
  <path class="st0" d="M105.9,35.2c-.9,0-1.5.4-1.9,1h0v-.8h-1.4v6.5h1.5v-3.6c0-1.2.6-1.9,1.5-1.9s1.3.5,1.3,1.6v3.8h1.5v-4c0-1.8-.9-2.7-2.4-2.7h0Z"/>
  <path class="st0" d="M115.8,37.6c0-1.7-1-2.5-2.7-2.5s-2.6,1-2.7,2.2h1.4c0-.7.5-1.1,1.3-1.1s1.3.4,1.3,1.3v.3c-.5,0-1.2,0-1.7.2-1.9.3-2.5,1-2.5,2s.8,1.9,2.2,1.9,1.7-.4,2.2-1h0v.9h1.3c0-.4-.2-.9-.2-1.7v-2.4h0ZM114.4,39c0,.7,0,1-.4,1.4-.3.3-.7.4-1.2.4s-1.1-.4-1.1-1,.3-.9,1.3-1c.4,0,1.1,0,1.5-.2v.3h-.1Z"/>
  <path class="st0" d="M119.9,39.6v-3.2h1.3v-1.1h-1.3v-1.6h-1.5v1.6h-1.1v1.1h1.1v3.5c0,1.4.6,2,2,2s.6,0,.8,0v-1.1h-.4c-.6,0-.9-.3-.9-1h0Z"/>
  <rect class="st0" x="123" y="32.7" width="1.5" height="1.4"/>
  <rect class="st0" x="123" y="35.3" width="1.5" height="6.5"/>
  <path class="st0" d="M129.6,35.1c-2,0-3.2,1.3-3.2,3.4s1.2,3.4,3.2,3.4,3.2-1.3,3.2-3.4-1.2-3.4-3.2-3.4ZM129.6,40.8c-1,0-1.7-.9-1.7-2.3s.6-2.3,1.7-2.3,1.7.9,1.7,2.3-.6,2.3-1.7,2.3Z"/>
  <path class="st0" d="M138.2,35.2c-.9,0-1.5.4-1.9,1h0v-.8h-1.4v6.5h1.5v-3.6c0-1.2.6-1.9,1.5-1.9s1.3.5,1.3,1.6v3.8h1.5v-4c0-1.8-.9-2.7-2.4-2.7h-.1Z"/>
  <path class="st0" d="M148,37.6c0-1.7-1-2.5-2.7-2.5s-2.6,1-2.7,2.2h1.4c0-.7.5-1.1,1.3-1.1s1.3.4,1.3,1.3v.3c-.5,0-1.2,0-1.7.2-1.9.3-2.5,1-2.5,2s.8,1.9,2.2,1.9,1.7-.4,2.2-1h0v.9h1.3c-.1-.4-.2-.9-.2-1.7v-2.4h0ZM146.6,39c0,.7-.1,1-.4,1.4-.3.3-.7.4-1.2.4s-1.1-.4-1.1-1,.3-.9,1.3-1c.4,0,1.1,0,1.5-.2v.3h-.1Z"/>
  <rect class="st0" x="150.3" y="32.7" width="1.5" height="9.1"/>
  <polygon class="st0" points="158.6 34 161.5 34 161.5 41.8 163.1 41.8 163.1 34 166 34 166 32.7 158.6 32.7 158.6 34"/>
  <path class="st0" d="M167.9,36.3h0v-1h-1.4v6.5h1.5v-3.2c0-1.4.6-2.1,1.8-2.1s.3,0,.5,0v-1.3h-.5c-.8,0-1.4.3-1.8,1h-.1Z"/>
  <path class="st0" d="M177.1,37.6c0-1.7-1-2.5-2.7-2.5s-2.6,1-2.7,2.2h1.4c0-.7.5-1.1,1.3-1.1s1.3.4,1.3,1.3v.3c-.5,0-1.2,0-1.7.2-1.9.3-2.5,1-2.5,2s.8,1.9,2.2,1.9,1.7-.4,2.2-1h0v.9h1.3c-.1-.4-.2-.9-.2-1.7v-2.4h0ZM175.7,39c0,.7-.1,1-.4,1.4-.3.3-.7.4-1.2.4s-1.1-.4-1.1-1,.3-.9,1.3-1c.4,0,1.1,0,1.5-.2v.3h-.1Z"/>
  <path class="st0" d="M183.7,36.1h0c-.4-.6-1.1-1-1.9-1-1.6,0-2.7,1.3-2.7,3.4s1.1,3.4,2.7,3.4,1.5-.4,1.9-1h0v.9h1.4v-9.1h-1.5v3.4h.1ZM182.2,40.8c-1,0-1.6-.9-1.6-2.3s.6-2.3,1.6-2.3,1.6.9,1.6,2.3-.6,2.3-1.6,2.3Z"/>
  <path class="st0" d="M193.1,37.3c-.4-1.4-1.4-2.2-2.9-2.2s-3.1,1.4-3.1,3.4,1.2,3.5,3.1,3.5,2.7-1,3-2.1h-1.5c-.1.6-.7,1.1-1.5,1.1s-1.6-.6-1.7-2.1h4.8c0-.6,0-1.1-.2-1.5h0ZM188.6,37.9c.1-1.1.8-1.7,1.6-1.7s1.5.6,1.6,1.7h-3.3,0Z"/>
  <path class="st0" d="M202.9,32.7l-3.3,9.1h1.6l.8-2.5h3.8l.8,2.5h1.6l-3.3-9.1h-2.1,0ZM205.3,38h-2.8l.2-.7c.4-1.2.8-2.4,1.2-3.6h0c.4,1.2.8,2.4,1.2,3.6l.2.7h0Z"/>
  <path class="st0" d="M213.9,36.1h0c-.4-.6-1.1-1-1.9-1-1.6,0-2.7,1.3-2.7,3.4s1.1,3.4,2.7,3.4,1.5-.4,1.9-1h0v.9h1.4v-9.1h-1.5v3.4h.1ZM212.4,40.8c-1,0-1.6-.9-1.6-2.3s.6-2.3,1.6-2.3,1.6.9,1.6,2.3-.6,2.3-1.6,2.3Z"/>
  <path class="st0" d="M224.9,35.2c-1,0-1.6.4-2.1,1.2-.3-.8-1-1.2-1.9-1.2s-1.3.3-1.8.9h0v-.8h-1.4v6.5h1.5v-3.5c0-1.2.5-2,1.4-2s1.2.5,1.2,1.5v4h1.5v-3.5c0-1.2.5-2,1.4-2s1.2.5,1.2,1.6v3.8h1.5v-4c0-1.7-.8-2.6-2.2-2.6h-.3Z"/>
  <rect class="st0" x="229.5" y="32.7" width="1.5" height="1.4"/>
  <rect class="st0" x="229.5" y="35.3" width="1.5" height="6.5"/>
  <path class="st0" d="M236.6,35.2c-.9,0-1.5.4-1.9,1h0v-.8h-1.4v6.5h1.5v-3.6c0-1.2.6-1.9,1.5-1.9s1.3.5,1.3,1.6v3.8h1.5v-4c0-1.8-.9-2.7-2.4-2.7h-.1Z"/>
  <rect class="st0" x="241.3" y="32.7" width="1.5" height="1.4"/>
  <rect class="st0" x="241.3" y="35.3" width="1.5" height="6.5"/>
  <path class="st0" d="M247.8,37.9c-1-.3-1.5-.4-1.5-.9s.4-.8,1.1-.8,1.2.4,1.2,1.1h1.4c0-1.4-1-2.2-2.6-2.2s-2.5.8-2.5,1.9,1.1,1.7,2.2,2c1.1.3,1.6.4,1.6,1.1s-.4.8-1.2.8-1.4-.4-1.4-1.2h-1.5c0,1.5,1.1,2.3,2.8,2.3s2.7-.8,2.7-2-1.3-1.8-2.4-2.1h0Z"/>
  <path class="st0" d="M254.1,39.6v-3.2h1.3v-1.1h-1.3v-1.6h-1.5v1.6h-1.1v1.1h1.1v3.5c0,1.4.6,2,2,2s.6,0,.8,0v-1.1h-.4c-.6,0-.9-.3-.9-1h0Z"/>
  <path class="st0" d="M258.6,36.3h0v-1h-1.4v6.5h1.5v-3.2c0-1.4.6-2.1,1.8-2.1s.3,0,.5,0v-1.3h-.5c-.8,0-1.4.3-1.8,1h-.1Z"/>
  <path class="st0" d="M267.8,37.6c0-1.7-1-2.5-2.7-2.5s-2.6,1-2.7,2.2h1.4c0-.7.5-1.1,1.3-1.1s1.3.4,1.3,1.3v.3c-.5,0-1.2,0-1.7.2-1.9.3-2.5,1-2.5,2s.8,1.9,2.2,1.9,1.7-.4,2.2-1h0v.9h1.3c-.1-.4-.2-.9-.2-1.7v-2.4h.1ZM266.4,39c0,.7-.1,1-.4,1.4-.3.3-.7.4-1.2.4s-1.1-.4-1.1-1,.3-.9,1.3-1c.4,0,1.1,0,1.5-.2v.3h0Z"/>
  <path class="st0" d="M271.9,39.6v-3.2h1.3v-1.1h-1.3v-1.6h-1.5v1.6h-1.1v1.1h1.1v3.5c0,1.4.6,2,2,2s.6,0,.8,0v-1.1h-.4c-.6,0-.9-.3-.9-1h0Z"/>
  <rect class="st0" x="275" y="32.7" width="1.5" height="1.4"/>
  <rect class="st0" x="275" y="35.3" width="1.5" height="6.5"/>
  <path class="st0" d="M281.6,35.1c-2,0-3.2,1.3-3.2,3.4s1.2,3.4,3.2,3.4,3.2-1.3,3.2-3.4-1.2-3.4-3.2-3.4ZM281.6,40.8c-1,0-1.7-.9-1.7-2.3s.6-2.3,1.7-2.3,1.7.9,1.7,2.3-.6,2.3-1.7,2.3Z"/>
  <path class="st0" d="M290.2,35.2c-.9,0-1.5.4-1.9,1h0v-.8h-1.4v6.5h1.5v-3.6c0-1.2.6-1.9,1.5-1.9s1.3.5,1.3,1.6v3.8h1.5v-4c0-1.8-.9-2.7-2.4-2.7h-.1Z"/>
  <path class="st0" d="M416.3,27.6h7v2.4h-2.2v9.7h-2.7v-9.7h-2.1v-2.4h0Z"/>
  <path class="st0" d="M427.3,39c-.6.7-1.1,1.1-2.1,1.1s-2.2-1-2.2-2.4c0-2.1,1.1-2.7,2.1-3.1,1.1-.4,2.1-.5,2.1-1.5s-.3-.9-.8-.9c-.9,0-.9.6-.9,1.4h-2.4c0-1.1.3-1.9.9-2.4s1.4-.7,2.4-.7c2.4,0,3.3.8,3.3,2.8v5.6c0,.3,0,.7.2,1h-2.4l-.2-.8h0ZM427.2,35.4c-.5.3-.9.4-1.2.7-.3.2-.6.6-.6,1.2s.3,1,.9,1,.9-.8.9-1.4v-1.4h0Z"/>
  <path class="st0" d="M431.2,29.8v-2.2h2.4v2.2h-2.4ZM431.2,39.8v-9.1h2.4v9.1h-2.4Z"/>
  <path class="st0" d="M441.6,36.6h0l.7-5.9h2.3l-1.7,9.1h-2.6l-.7-4.7h0l-.7,4.7h-2.6l-1.6-9.1h2.4l.7,5.9h0l.9-5.9h2.1l.9,5.9h0Z"/>
  <path class="st0" d="M449.5,39c-.6.7-1.1,1.1-2.1,1.1s-2.2-1-2.2-2.4c0-2.1,1.1-2.7,2.1-3.1,1.1-.4,2.1-.5,2.1-1.5s-.3-.9-.8-.9c-.9,0-.9.6-.9,1.4h-2.4c0-1.1.3-1.9.9-2.4s1.4-.7,2.4-.7c2.4,0,3.3.8,3.3,2.8v5.6c0,.3,0,.7.2,1h-2.4l-.2-.8h0ZM449.4,35.4c-.5.3-.9.4-1.2.7-.3.2-.6.6-.6,1.2s.3,1,.9,1,.9-.8.9-1.4v-1.4h0Z"/>
  <path class="st0" d="M455.5,30.7v1.1h0c.2-.7.9-1.4,1.7-1.4,1.2,0,2.2.7,2.2,1.9v7.4h-2.4v-6.5c0-.4-.2-.8-.6-.7-.4,0-.7.3-.7.7v6.5h-2.4v-9.1h2.3-.1Z"/>
  <path class="st0" d="M464.7,39.8v-12.2h6.2v2.4h-3.5v2.2h3.4v2.4h-3.4v2.6h3.7v2.4h-6.4v.2Z"/>
  <path class="st0" d="M478.4,30.7l-1.9,4.5,2,4.5h-2.4l-.8-2.6h0l-.8,2.6h-2.5l2-4.5-1.9-4.5h2.4l.7,2.5h0l.8-2.5h2.4,0Z"/>
  <path class="st0" d="M478.7,32.6v-1.9h1v-2.6h2.4v2.6h1.2v1.9h-1.2v4.8c0,.5.2.6.5.6h.6v1.8c-.5,0-1,0-1.6,0-1.3,0-2-.7-2-2.1v-5.3h-1,.1Z"/>
  <path class="st0" d="M486.7,35.7v1.6c0,.5.2.9.8,1,.9,0,.8-.8.9-1.6h2.4c.1,2.3-1.1,3.4-3.2,3.4s-3.3-.7-3.3-2.8v-3.7c0-2.3,1.4-3.1,3.3-3.1s3.3.7,3.3,2.6v2.6h-4.2ZM488.4,34v-.9c0-.3-.2-.9-.8-.9s-.9.6-.9,1.2v.6h1.7,0Z"/>
  <path class="st0" d="M494.3,30.7v1.4h0c.3-1,.9-1.6,1.9-1.6v2.9h-.7c-.7,0-1,0-1,.9v5.6h-2.4v-9.1h2.3,0Z"/>
  <path class="st0" d="M499.5,30.7v1.1h0c.2-.7.9-1.4,1.7-1.4,1.2,0,2.2.7,2.2,1.9v7.4h-2.4v-6.5c0-.4-.2-.8-.6-.7-.4,0-.7.3-.7.7v6.5h-2.4v-9.1h2.3-.1Z"/>
  <path class="st0" d="M508.9,39c-.6.7-1.1,1.1-2.1,1.1s-2.2-1-2.2-2.4c0-2.1,1.1-2.7,2.1-3.1,1.1-.4,2.1-.5,2.1-1.5s-.3-.9-.8-.9c-.9,0-.9.6-.9,1.4h-2.4c0-1.1.3-1.9.9-2.4s1.4-.7,2.4-.7c2.4,0,3.3.8,3.3,2.8v5.6c0,.3,0,.7.2,1h-2.4l-.2-.8h0ZM508.8,35.4c-.5.3-.9.4-1.2.7-.3.2-.6.6-.6,1.2s.3,1,.9,1,.9-.8.9-1.4v-1.4h0Z"/>
  <path class="st0" d="M512.8,39.8v-12.2h2.4v12.2h-2.4Z"/>
  <path class="st0" d="M520.4,27.6h7v2.4h-2.2v9.7h-2.7v-9.7h-2.1s0-2.4,0-2.4Z"/>
  <path class="st0" d="M529.5,30.7v1.4h0c.3-1,.9-1.6,1.9-1.6v2.9h-.7c-.7,0-1,0-1,.9v5.6h-2.4v-9.1h2.3,0Z"/>
  <path class="st0" d="M536.4,39c-.6.7-1.1,1.1-2.1,1.1s-2.2-1-2.2-2.4c0-2.1,1.1-2.7,2.1-3.1,1.1-.4,2.1-.5,2.1-1.5s-.3-.9-.8-.9c-.9,0-.9.6-.9,1.4h-2.4c0-1.1.3-1.9.9-2.4.6-.5,1.4-.7,2.4-.7,2.4,0,3.3.8,3.3,2.8v5.6c0,.3,0,.7.2,1h-2.4l-.2-.8h0ZM536.3,35.4c-.5.3-.9.4-1.2.7-.3.2-.6.6-.6,1.2s.3,1,.9,1,.9-.8.9-1.4v-1.4h0Z"/>
  <path class="st0" d="M544.1,39.8v-1.1h0c-.4.9-1.2,1.3-1.9,1.3-1.8,0-2.1-1.8-2.1-3.4v-3.1c0-1.4.5-3.1,2.1-3.1s1.3.3,1.8,1.1h0v-3.9h2.4v12.2h-2.3ZM542.5,36.5c0,.5,0,1.5.7,1.5s.8-.7.8-1.6v-2.1c0-.8,0-1.7-.7-1.7s-.8,1-.8,1.6v2.4h0Z"/>
  <path class="st0" d="M550.1,35.7v1.6c0,.5.2.9.8,1,.9,0,.8-.8.9-1.6h2.4c0,2.3-1.1,3.4-3.2,3.4s-3.3-.7-3.3-2.8v-3.7c0-2.3,1.4-3.1,3.3-3.1s3.3.7,3.3,2.6v2.6h-4.2ZM551.8,34v-.9c0-.3-.2-.9-.8-.9s-.9.6-.9,1.2v.6s1.7,0,1.7,0Z"/>
  <path class="st0" d="M559.3,39.8v-12.2h2.9c1,0,2.2,0,3,.6,1,.6,1.2,1.8,1.2,3v5.4c0,1.2-.4,2.1-1.2,2.6-.7.5-1.6.6-2.4.6h-3.6,0ZM562.1,37.6c1.8,0,1.8-.6,1.8-2.3v-4c0-1.4-.5-1.5-1.8-1.5v7.8Z"/>
  <path class="st0" d="M570.2,35.7v1.6c0,.5.2.9.8,1,.9,0,.8-.8.9-1.6h2.4c0,2.3-1.1,3.4-3.2,3.4s-3.3-.7-3.3-2.8v-3.7c0-2.3,1.4-3.1,3.3-3.1s3.3.7,3.3,2.6v2.6h-4.2ZM571.9,34v-.9c0-.3-.2-.9-.8-.9s-.9.6-.9,1.2v.6s1.7,0,1.7,0Z"/>
  <path class="st0" d="M578.3,36.6h0l.9-5.9h2.4l-1.9,9.1h-2.8l-1.9-9.1h2.5l.8,5.9Z"/>
  <path class="st0" d="M584.8,35.7v1.6c0,.5.2.9.8,1,.9,0,.8-.8.9-1.6h2.4c0,2.3-1.1,3.4-3.2,3.4s-3.3-.7-3.3-2.8v-3.7c0-2.3,1.4-3.1,3.3-3.1s3.3.7,3.3,2.6v2.6h-4.2ZM586.5,34v-.9c0-.3-.2-.9-.8-.9s-.9.6-.9,1.2v.6s1.7,0,1.7,0Z"/>
  <path class="st0" d="M590.3,39.8v-12.2h2.4v12.2h-2.4Z"/>
  <path class="st0" d="M594.3,33.6c0-2.3,1.3-3.1,3.2-3.1s3.2,1.1,3.2,3.1v3.7c0,2.1-1.3,2.8-3.2,2.8s-3.2-.7-3.2-2.8v-3.7ZM596.8,37.4c0,.5.2.8.8.8s.7-.3.8-.8v-4.1c0-.6-.2-1.1-.8-1.1s-.8.5-.8,1.1v4.1Z"/>
  <path class="st0" d="M604.3,30.7v1.1h0c.5-.9,1.2-1.3,2-1.4,1.6,0,2.1,1.7,2.1,3.1v3.1c0,1.5-.4,3.3-2.1,3.4-.4,0-1.2-.3-1.8-1.2h0v3.9h-2.4v-12.1h2.3,0ZM606,34c0-.5,0-1.5-.7-1.5s-.8.7-.8,1.6v2.1c0,.8.2,1.7.8,1.7s.8-1,.8-1.6v-2.3h0Z"/>
  <path class="st0" d="M612,30.7v1.1h0c.4-.8,1.2-1.3,1.8-1.3s1.5.4,1.8,1.2h0c.4-.8,1.1-1.2,1.8-1.2,1.2,0,2.2.7,2.2,1.9v7.4h-2.4v-6.5c0-.4-.2-.8-.6-.7-.4,0-.7.3-.7.7v6.5h-2.4v-6.5c0-.4-.2-.7-.6-.7s-.7.3-.7.7v6.5h-2.4v-9.1h2.3,0Z"/>
  <path class="st0" d="M623.2,35.7v1.6c0,.5.2.9.8,1,.9,0,.8-.8.9-1.6h2.4c0,2.3-1.1,3.4-3.2,3.4s-3.3-.7-3.3-2.8v-3.7c0-2.3,1.4-3.1,3.3-3.1s3.3.7,3.3,2.6v2.6h-4.2ZM624.9,34v-.9c0-.3-.2-.9-.8-.9s-.9.6-.9,1.2v.6s1.7,0,1.7,0Z"/>
  <path class="st0" d="M630.9,30.7v1.1h0c.2-.7.9-1.4,1.7-1.4,1.2,0,2.2.7,2.2,1.9v7.4h-2.4v-6.5c0-.4-.2-.8-.6-.7-.4,0-.7.3-.7.7v6.5h-2.4v-9.1h2.3,0Z"/>
  <path class="st0" d="M635.8,32.6v-1.9h1v-2.6h2.4v2.6h1.2v1.9h-1.2v4.8c0,.5.2.6.5.6h.6v1.8c-.5,0-1,0-1.6,0-1.3,0-2-.7-2-2.1v-5.3h-1,0Z"/>
  <path class="st0" d="M649.8,31.9v-.8c0-1-.4-1.6-.9-1.6-.8,0-1,.5-1,1.3v6c0,.7.2,1.1,1,1.1s1-1,1-1.7v-1.1h2.7v1.5c0,2.1-1.1,3.5-3.9,3.5s-3.5-1.4-3.5-3.9v-5c0-2.6,1.2-3.9,3.6-3.9s3.7,1,3.7,3.5v1h-2.7,0Z"/>
  <path class="st0" d="M653.8,33.6c0-2.3,1.3-3.1,3.2-3.1s3.2,1.1,3.2,3.1v3.7c0,2.1-1.3,2.8-3.2,2.8s-3.2-.7-3.2-2.8v-3.7ZM656.2,37.4c0,.5.2.8.8.8s.7-.3.8-.8v-4.1c0-.6-.2-1.1-.8-1.1s-.8.5-.8,1.1v4.1Z"/>
  <path class="st0" d="M665.5,39.8v-1.1h0c-.2.7-.9,1.4-1.7,1.4-1.4,0-2.2-.7-2.2-1.9v-7.5h2.4v6.5c0,.4,0,.8.6.8s.7-.3.7-.8v-6.5h2.4v9.1h-2.3,0Z"/>
  <path class="st0" d="M671.5,30.7v1.1h0c.2-.7.9-1.4,1.7-1.4,1.2,0,2.2.7,2.2,1.9v7.4h-2.4v-6.5c0-.4-.2-.8-.6-.7-.4,0-.7.3-.7.7v6.5h-2.4v-9.1h2.3,0Z"/>
  <path class="st0" d="M680.9,34.1v-.2c0-.3,0-.7,0-1,0-.4-.3-.6-.7-.6-.6,0-.7.5-.7,1.1v3.7c0,.6.2,1.1.8,1.1.9,0,.8-1.4.8-2.1h2.4c0,.5,0,1.7-.2,2.2-.3,1.1-1.2,1.7-2.3,1.8h-.8c-1.8,0-3-.7-3-2.8v-3.7c0-2.3,1.1-3.1,3-3.1s3.4,1.1,3.2,3.6h-2.4Z"/>
  <path class="st0" d="M684.8,29.8v-2.2h2.4v2.2h-2.4ZM684.8,39.8v-9.1h2.4v9.1h-2.4Z"/>
  <path class="st0" d="M689.1,39.8v-12.2h2.4v12.2h-2.4Z"/>
  <path class="st0" d="M417.5,14.2h-1.7V4.6c0-.4.2-.6.6-.6h7.1V.7h1.7v3.3h7c.4,0,.6.2.6.6v9.6h-1.7v-.9h-5.9v5.4h-1.7v-5.4h-6v.9ZM423.5,11.6v-5.9h-5.7c-.2,0-.3,0-.2.2v5.6h6,0ZM431.1,11.6v-5.6c0-.2-.1-.2-.3-.2h-5.6v5.9h5.9Z"/>
  <path class="st0" d="M445.2,3.1v1.1h-1.7v-1.1h-4.6v-1.5h4.6V.5h1.7v1h5.4v-1h1.7v1h4.4v1.5h-4.4v1.1h-1.7v-1.1h-5.4ZM439.2,16.2v-1.5h7.8v-1.6h-7.3v-1.5h2.7v-1.9h-3.5v-1.5h3.5v-1.9h-2.7v-1.5h16.3v1.5h-2.6v1.9h3.3v1.5h-3.3v1.9h2.5v1.5h-7.2v1.6h7.7v1.5h-7.7v2.6h-1.7v-2.6h-7.8,0ZM447,6.2h-2.9v1.9h2.9v-1.9ZM447,9.7h-2.9v1.9h2.9v-1.9ZM448.7,8.2h3v-1.9h-3v1.9ZM448.7,11.6h3v-1.9h-3v1.9Z"/>
  <path class="st0" d="M465.7,11.4v5c2.9-.6,4.9-1.1,5.8-1.4l.5,1.7c-2.5.8-5.6,1.5-9.3,1.9l-.4-1.7c.6,0,1.2-.2,1.8-.2V1.5c0-.3.2-.5.5-.5h13.8c.3,0,.5.2.5.5v5.1c0,.4-.2.5-.5.5h-6c.2,1,.4,1.8.6,2.6h6.7v1.7h-6.2c.5,1.2,1.1,2.2,1.9,3.1.7.8,1.3,1.4,1.8,1.8.5.3.9.5,1.2.4.2,0,.3-.2.4-.5.1-.6.2-1.4.2-2.5l1.6.5c-.1,1.8-.3,2.9-.6,3.5-.2.5-.5.7-.8.9-.6.2-1.3,0-2.1-.4-2.4-1.3-4.1-3.5-5.2-6.7h-6.2ZM465.7,5.5h11.2c.2,0,.3,0,.3-.3v-2.1c0-.3-.1-.4-.4-.4h-10.7c-.3,0-.4,0-.4.4v2.4ZM470.6,7.1h-4.9v2.6h5.6c-.2-.8-.4-1.7-.7-2.6Z"/>
  <path class="st0" d="M488.1,18.7h-1.7V1.8c0-.4.2-.6.6-.6h15.8c.4,0,.6.2.6.6v16.9h-1.7v-.8h-13.6v.8h0ZM499.7,2.7c.1.4.3.8.4,1.3h.9v1.5h-3.6c.3,2.1.5,3.7.8,4.7.5-1.1.9-2.4,1.2-3.8l1.5.4c-.6,2.2-1.3,3.9-2.1,5.2v.2c.2.5.4,1,.5,1.4.2.4.3.7.3.7.1,0,.2-.2.2-.4v-2l1.5.4c0,1.6-.2,2.7-.5,3.4-.2.3-.4.4-.5.5-.2,0-.4.1-.6,0-.4,0-.7-.3-1.1-.7-.3-.5-.6-1.1-.8-1.8-.7,1-1.4,1.8-2.1,2.5l-1.3-1c.4-.4.7-.7,1.1-1.1-1.9.5-4,.8-6.3.9l-.3-1.6c2.9-.2,5.2-.6,6.7-1l.3,1.3c.5-.7,1-1.3,1.4-1.8-.5-1.7-.9-3.8-1.3-6.5h-6.9v-1.5h6.7v-1.3h-7.3q-.2,0-.2.2v13.4h13.6V2.9q0-.2-.2-.2h-2ZM495.1,12h-5.9c-.1,0-.2,0-.2-.2v-4.8c0,0,0-.2.2-.2h5.9c.1,0,.2,0,.2.2v4.8c0,.1,0,.2-.2.2ZM490.6,8.1h0v2.3h3.1v-2.3h-3.1ZM498,2.7h-.9c0,.4,0,.9.1,1.3h1.3c-.2-.5-.3-1-.5-1.3Z"/>
  <path class="st0" d="M513.5,14h-3.4v-1.5h3.4v-1.9h-3.7v-1.5h1.9l-.3-2.2h-2.1v-1.5h3.2V.8h1.5v4.5h1.2V.8h1.5v4.5h2.5v1.5h-2l-.5,2.2h1.9v1.5h-3.6v1.9h3.3v1.5h-3.3v2.5c1.5-.2,2.7-.5,3.7-.7l.5,1.6c-2.6.6-5.7,1-9.5,1.2l-.4-1.7c1.6,0,2.9,0,4.1-.1v-2.7h0ZM510.8,1.4c.5.7.9,1.7,1.3,2.8l-1.4.6c-.4-1.2-.9-2.1-1.3-2.7,0,0,1.4-.7,1.4-.7ZM515.3,9l.4-2.2h-2.8l.3,2.2h2.1ZM519.9,2c-.2.8-.6,1.7-1.2,2.8l-1.4-.7c.6-1.1,1-2,1.2-2.7,0,0,1.4.6,1.4.6ZM521.3,7.5c.7,1.9,1.3,3.8,1.7,5.6l-1.5.3c-.4-1.7-.9-3.5-1.7-5.5l1.5-.4ZM520,6v-1.6h4.1V.7h1.7v3.7h1.8v1.6h-1.8v10.8c0,.7-.3,1.3-.9,1.7-.7.5-2.2.4-4.3-.2v-1.7c1.9.5,3,.7,3.3.4,0-.1.2-.3.2-.6V6h-4.1Z"/>
  <path class="st0" d="M542.6,6.2c-.6,2.8-1.3,5-2.1,6.4-1.3,2.4-3.2,4.3-5.8,5.6l-1.5-1.3c.8-.3,1.5-.7,2.1-1,1.7-1.1,3.1-2.5,4.1-4.4-1.2-1-2.5-2.1-4-3.1-.3.5-.8,1-1.2,1.5l-1.5-.9c.9-1,1.6-2,2-3.2.4-1.1.7-2.7.9-4.9l1.6.2v.7h5.4c.2,0,.4,0,.4.1h0s0,.2,0,.3h0c.5,2.2,1.3,4,2.3,5.5V.7h1.7v9.3c1,.8,2.3,1.6,4,2.4l-1.3,1.4c-1-.6-1.9-1.2-2.7-1.8v6.6h-1.7v-8.1c-1.1-1.1-2-2.6-2.8-4.4h0ZM538,8.3c.8.6,1.5,1.2,2.1,1.7.6-1.7,1.1-3.6,1.4-5.8,0-.3,0-.4-.2-.4h-4.3c-.2,1.4-.4,2.4-.7,3.2h0c.5.3,1,.8,1.7,1.3Z"/>
  <path class="st0" d="M565.7,2.5v-1.5h7.5c.3,0,.6,0,.7.2.2.1.2.4.2.9-.2,2.6-.6,4.1-1.2,4.4-.7.5-1.8.5-3.5,0l.2-1.6c.4,0,.9.2,1.3.3h.9c0,0,.2,0,.2-.3h0c.3-1.2.4-2,.3-2.2h-2.2c-.2.5-.5,1-.8,1.5-.7,1.1-1.9,2.1-3.6,3l-.9-1.1-1,.6c0-.3-.2-.5-.4-.7l-6.6,1.7-.5-1.5,1.1-.3V1.9c0-.2,0-.3.4-.3,2-.1,3.8-.4,5.6-.9l.7,1.4c-1.5.4-3.2.7-5.1.9,0,0,0,0,0,.2v2.2l3.7-1c-.2-.3-.4-.6-.5-.8l1.3-.8c.6.7,1.1,1.7,1.7,2.9,0,0,.2,0,.3-.2,1.5-.9,2.5-1.9,2.9-2.9h-2.8,0ZM562.4,16l.4,1.3c-1.5.6-3.5,1.2-5.8,1.6l-.4-1.6c2-.4,3.6-.8,4.9-1.2h-2.6c0,0-.2,0-.2-.2V7.4c0,0,0-.2.2-.2h13.1q.2,0,.2.2v8.3q0,.2-.2.2h-2.9l5.1,1.2-.4,1.6-5.8-1.4.2-1.5h-5.9v.2ZM570.7,9.6v-1h-10.2v1h10.4-.2ZM560.4,13.4v1.1h10.2v-1.1h-10.4.2ZM570.7,12.1v-1.1h-10.4v1.1h10.4Z"/>
  <path class="st0" d="M589.3,11.5c-.2.3-.4.5-.5.7-1.5,2.1-4.2,3.6-8.1,4.7l-.7-1.6c.2,0,.4-.1.5-.1,3.2-.8,5.5-2,6.8-3.7h-3c-1.1.7-2.3,1.3-3.6,1.9l-.9-1.5c.3-.1.5-.2.8-.3,1.9-.7,3.4-1.8,4.4-3.1h-2.9q-.2,0-.2-.2V1.4q0-.2.2-.2h13.8q.2,0,.2.2v6.9q0,.2-.2.2h-9c-.2.4-.5.8-.8,1.4h11.2c.2.1.3.4.3.8v4c0,1.2-.3,2.1-.6,2.6s-.8.8-1.3,1c-.9.3-2.2.3-3.9-.1v-1.9c.7.3,1.3.4,1.8.5.9.1,1.6-.1,2-.7.2-.3.4-.9.4-1.6,0-1.8,0-2.8,0-3,0,0,0-.1-.2-.1h-1.7c0,.3-.2.6-.4.8-1.3,2.7-4.2,4.8-8.5,6.6l-1-1.5c.8-.3,1.5-.6,2.1-.8,2.8-1.2,4.8-3,6-5.1h-3ZM594.4,4.1v-1.3h-10.8v1.3h11-.2ZM583.5,5.7v1.1h10.8v-1.1h-11,.2Z"/>
  <path class="st0" d="M606,14.6c-.5-.1-1-.3-1.5-.4l.6-4.2c0-.4.3-.5.6-.5h4.1v-1.4c0,0,0-.2-.2-.2h-4v-.9c-.6.2-1.2.3-1.6.4l-.7-1.4c1.2-.2,2.2-.4,3-.7-.7-.6-1.3-1-1.9-1.4l1-1.2c.9.6,1.8,1.3,2.5,1.9,1-.7,1.7-1.4,2.1-1.9,0-.2,0-.2-.2-.2h-3.3v-1.5h4.8l.9.7c-.9,2.2-2.6,3.8-5.1,4.8h3.9c.3,0,.4,0,.4.4v4.5h-1.5v-.4h-2.9c-.2,0-.3.1-.3.4l-.2,1.2h4.3c.4,0,.5.1.5.3,0,1.9,0,3.2-.2,4.2,0,.5-.4.9-.7,1.2,0,0-.2.1-.3.2-.9.5-2.4.5-4.7,0l-.2-1.7c1.7.5,2.9.7,3.5.5.4-.2.7-.4.8-.7,0-.6,0-1.4.2-2.3,0-.2,0-.3-.2-.3h-3.2v.7h-.3ZM615.7,17.3c0,0-.3.1-.4.2-1.3.7-2.3,1.1-3.1,1.3l-.9-1.5c1.2-.3,2.2-.6,3-1-.8-.7-1.5-1.5-2.1-2.5l1.4-.7c.7,1.1,1.4,2,2,2.5,1.3-.8,2.2-1.7,2.8-2.8,0-.2,0-.3-.3-.3h-6v-1.5h7.3l.9.8c-.6,1.6-1.3,2.7-2,3.5-.4.4-.8.7-1.2,1,1.1.5,2.5.7,4.2.8l-.4,1.6c-2.1-.1-3.9-.6-5.2-1.5h0ZM614.4,7.6v.5c0,.4,0,.8-.2,1.1-.3.7-.9,1.2-1.7,1.6l-.9-1.2c.4-.2.7-.3.8-.5.4-.3.6-.8.6-1.4v-1.5h4.9v2.8c0,.1.3.2.6.2h.6v-1.2l1.4.2c0,.8,0,1.4-.2,1.6,0,.2,0,.4-.3.5-.3.3-.6.4-.9.4h-1.4c-.4,0-.7-.2-1-.4-.3-.3-.4-.6-.4-1v-1.5c0,0,0-.2-.2-.2h-1.8c0,0-.2,0-.2.2l.3-.2ZM621.7,5.8l-1,1.4c-3.1-1.2-5.7-2.9-7.8-5l.9-1.4c.5.5,1,1,1.5,1.5.7-.7,1.2-1.2,1.6-1.7l1.1,1.1c-.2.3-.7.8-1.5,1.6.3.2.7.5,1,.7,1-1,1.6-1.6,1.7-1.8l1,1.1c-.2.2-.5.6-1,1.1,0,0-.2.2-.4.4.9.4,1.9.8,3,1.1h0Z"/>
  <path class="st0" d="M643.1,12.5l.8,1.5c-.9.6-2,1.2-3.3,1.7,1.4.7,2.9,1.2,4.5,1.5l-.7,1.6h-.2c-4.2-1-7.1-3.3-8.7-6.6h-1.7v4.7c1.3-.2,2.4-.4,3.3-.6l.4,1.6c-2.1.5-4.6.8-7.6.9v-1.7c.7,0,1.5,0,2.2-.1v-4.9h-2.2c-.2,2.7-.7,4.8-1.5,6.2l-1.6-.7c1-2,1.5-4.4,1.5-7.2V1.8c0-.4.2-.6.6-.6h14.8c.4,0,.6.2.6.6v3.5c0,.4-.2.6-.6.6h-3v1.6h3.3v1.6h-3.3v1.6h4.1v1.6h-7.5c.4.8,1,1.6,1.7,2.3,1.7-.7,3.1-1.4,4.1-2h0ZM629.9,4.3h12.5c.2,0,.3,0,.3-.3v-1c0-.2,0-.2-.3-.2h-12.3q-.2,0-.2.2v1.3ZM633.5,10.6v-1.6h-2.8v-1.6h2.8v-1.6h-3.5v4.7h3.5ZM639.1,5.9h-4.1v1.6h4.1v-1.6ZM639.1,10.6v-1.6h-4.1v1.6h4.1Z"/>
  <path class="st0" d="M650.5,6.8v-1.7h1.7V.6h1.7v4.5h1.6v1.7h-1.6v11.9h-1.7V6.8h-1.7ZM655,11.2v-1.5h1.9v-1.1h1.5v1.1h2c.2,0,.4.1.5.3v.2c0,4.1-.2,6.5-.5,7.2-.2.5-.5.9-.9,1.1-.5.3-1.4.2-2.5,0v-1.9c.8.4,1.4.5,1.6.3.2-.1.4-.3.5-.7,0-.2.2-.5.2-.9.2-2.4.2-3.8,0-4,0,0,0-.1-.2-.1h-.9c0,.4,0,1-.2,1.5-.2,1-.5,2.1-.9,3-.5,1.2-1,2.1-1.5,2.7l-1.5-.5c1.5-1.8,2.4-4,2.7-6.7h-1.9.1ZM655.7,3.6v-1.5h4.6V.6h1.6v1.5h5.3c.2,0,.4,0,.5.3v.2c0,2.6-.2,4.1-.4,4.6-.2.3-.5.5-.8.7-1,.4-2.5.3-4.4-.3v-1.9c1.6.6,2.8.8,3.5.6.2,0,.3,0,.4-.2,0,0,.2-.4.2-.7v-1.6s0,0-.2,0h-4.2c-.2,1.1-.5,1.9-.9,2.4-.8,1.2-2.3,2-4.5,2.4l-.8-1.5c1.8-.2,3.1-.7,3.9-1.6.3-.4.6-.9.8-1.6h-4.5v-.2ZM661.8,11.4v-1.5h2v-1.3h1.5v1.3h2.3c.2,0,.4.1.5.3v.2c0,4-.2,6.3-.5,7-.2.5-.5.8-.8,1-.6.3-1.5.3-2.9,0v-1.9c.9.4,1.6.5,1.9.3.2-.1.3-.3.4-.6,0-.2,0-.4,0-.6,0-2.5,0-3.8,0-4,0,0,0-.1-.2-.1h-1.2c0,.4-.2,1.2-.5,2.4-.7,2.2-1.5,3.8-2.5,4.7l-1.5-.6c1.6-1.9,2.6-4.1,3-6.6h-2,.4Z"/>
  <path class="st0" d="M686.4,4.9h-6.7v-1.1c-1.5.5-3.2,1-5.2,1.4l-.6-1.6c4.4-.6,7.3-1.6,8.9-3.1l1.4.6h0c2.5,1.4,5.2,2.2,8,2.5l-.6,1.6c-1.5-.3-3.2-.8-5.1-1.4v1h0ZM690.3,10.7h-14.6c0,0-.2,0-.2-.2v-4.6c0,0,0-.2.2-.2h14.6q.2,0,.2.2v4.6q0,.2-.2.2ZM678.3,18.6h-1.6v-6.7q0-.2.2-.2h12.2c.2,0,.3.1.3.3v6.6h-1.6v-.7h-9.6v.7h0ZM680.9,9.3h1.4v-2.2h-5.2v2h2.1c-.3-.5-.5-1-.7-1.3l1.4-.7c.4.6.7,1.2,1.1,2.1h0ZM687.9,14.1v-.9c0-.1,0-.2-.2-.2h-9.1q-.2,0-.2.2v.9h9.6,0ZM678.3,15.5v1.1h9.6v-1.1h-9.6ZM685.4,3.5c-.8-.3-1.6-.7-2.4-1.2-.4.3-1.2.7-2.2,1.2h4.7,0ZM687.1,9.3h1.9v-2h-5.1v2.2h1.3c.6-.8,1.1-1.5,1.4-2l1.3.8c-.2.4-.4.8-.7,1.2v-.2Z"/>
  <g>
    <path class="st0" d="M388.8,6.3c-1.4.4-2.4,1.6-2.4,3.1s1.5,3.2,3.2,3.2,2.8-1.1,3.1-2.5l6.4,6.4c-2.2,2.9-5.6,4.7-9.4,4.7-6.5,0-11.8-5.3-11.8-11.8s1.8-7.2,4.7-9.4l6.2,6.2h0Z"/>
    <path class="st0" d="M392.9,33c-.4-1.4-1.6-2.4-3.1-2.4s-3.2,1.5-3.2,3.2,1.1,2.8,2.5,3.1l-6.4,6.4c-2.8-2.2-4.7-5.6-4.7-9.4,0-6.5,5.3-11.8,11.8-11.8s7.2,1.8,9.4,4.7l-6.2,6.2h0Z"/>
    <path class="st0" d="M366.2,37.1c1.4-.4,2.4-1.6,2.4-3.1s-1.4-3.2-3.2-3.2-2.8,1.1-3.1,2.5l-6.4-6.4c2.2-2.9,5.6-4.7,9.4-4.7,6.5,0,11.8,5.3,11.8,11.8s-1.8,7.2-4.7,9.4l-6.2-6.2h0Z"/>
    <path class="st0" d="M362.2,10.4c.4,1.4,1.6,2.4,3.1,2.4s3.2-1.4,3.2-3.2-1.1-2.8-2.5-3.1l6.4-6.4c2.8,2.2,4.7,5.6,4.7,9.4,0,6.5-5.3,11.8-11.8,11.8s-7.2-1.8-9.4-4.7l6.2-6.2h0Z"/>
  </g>
</svg>