<?xml version="1.0" encoding="UTF-8"?>
<svg id="_圖層_1" data-name="圖層_1" xmlns="http://www.w3.org/2000/svg" version="1.1" viewBox="0 0 380 50.7">
  <!-- Generator: Adobe Illustrator 30.5.1, SVG Export Plug-In . SVG Version: 2.1.4 Build 3)  -->
  <defs>
    <style>
      .st0 {
        opacity: .6;
      }

      .st0, .st1 {
        fill: #fff;
      }
    </style>
  </defs>
  <g>
    <g>
      <path class="st1" d="M244.6,0l-7.4,7.7c1.5.3,2.6,1.7,2.6,3.3s-1.5,3.4-3.3,3.4-2.9-1.2-3.2-2.7l-7.5,7.7c2.5,3.3,6.3,5.5,10.7,5.5,7.4,0,13.5-6.2,13.5-13.9s-2.1-8.5-5.3-11Z"/>
      <path class="st1" d="M225.8,31.2l7.5,7.7c.3-1.5,1.6-2.7,3.2-2.7s3.3,1.5,3.3,3.4-1.1,3-2.6,3.3l7.5,7.7c3.2-2.5,5.3-6.5,5.3-11.1,0-7.7-6-13.9-13.5-13.9s-8.2,2.2-10.7,5.5Z"/>
      <path class="st1" d="M256,50.7l7.4-7.7c-1.5-.3-2.6-1.7-2.6-3.3s1.5-3.4,3.3-3.4,2.9,1.1,3.2,2.7l7.5-7.7c-2.5-3.3-6.3-5.5-10.7-5.5-7.4,0-13.5,6.2-13.5,13.9s2.1,8.5,5.3,11.1Z"/>
      <path class="st1" d="M274.8,19.5l-7.5-7.7c-.3,1.5-1.6,2.7-3.2,2.7s-3.3-1.5-3.3-3.4,1.1-3,2.6-3.3L256,0c-3.2,2.5-5.3,6.5-5.3,11,0,7.7,6,13.9,13.5,13.9s8.2-2.2,10.7-5.5Z"/>
    </g>
    <g>
      <polygon class="st1" points="325.3 13.7 341.8 13.7 341.8 15.6 334.7 15.6 334.7 36.4 332.2 36.4 332.2 15.6 325.3 15.6 325.3 13.7"/>
      <path class="st1" d="M346.8,36.4h-2.5V13.7h7.5c6.7,0,7.1,4.9,7.1,6,0,3.7-2.5,6.4-7,6.3l6.7,10.4h-2.8l-7.7-12.2s2.1,0,2.9,0c3.8.1,5.6-1.4,5.6-4.5s-.4-4.1-4.5-4.1h-5.2v20.8Z"/>
      <path class="st1" d="M370.7,13.7h-2.7l-9.3,22.7h2.6l4-10.2h8.1l4,10.2h2.6l-9.3-22.7ZM366,24.3l3.3-8.5,3.4,8.5h-6.7Z"/>
      <polygon class="st1" points="284.5 14 301 14 301 15.9 293.9 15.9 293.9 36.7 291.4 36.7 291.4 15.9 284.5 15.9 284.5 14"/>
      <path class="st1" d="M309.1,14h-2.7l-9.3,22.7h2.6l4-10.2h8.1l4,10.2h2.6l-9.3-22.7ZM304.4,24.6l3.3-8.5,3.4,8.5h-6.7Z"/>
      <g>
        <path class="st1" d="M322.8,13.6v23h-2.4V13.6h2.4Z"/>
        <path class="st1" d="M322.8,13.6v23h-2.4V13.6h2.4Z"/>
      </g>
    </g>
  </g>
  <g>
    <g>
      <polygon class="st1" points="128.2 8.3 125.8 6.6 125.3 7.3 127.4 9.2 127.4 13.2 128.8 13.2 128.8 9 131.1 7.5 130.4 6.6 135.1 6.6 135.1 5.6 129.1 5.6 129.1 4 127.2 4 127.2 5.6 121.2 5.6 121.2 6.6 130.1 6.6 128.2 8.3"/>
      <path class="st1" d="M120.7,12.7l.6.7c.6-.5,1.2-1,1.6-1.7.4-.7.7-1.4.9-2.2h.8v1.8c-.2.9-.3,1.1-.8,1.2-.3,0-1,0-1,0l-.2.4s.6.4,1.5.4c.9,0,1.6-.3,1.7-1.2.1-1,.2-3.6.2-3.6h-5v.9h1.2c-.2,1.2-.7,2.4-1.6,3.3Z"/>
      <path class="st1" d="M120.5,11c-1.1-.8-2.3-1.5-3.5-2.1l-.5.9c1,.8,2,1.7,2.9,2.6l1.1-1.3Z"/>
      <path class="st1" d="M120.7,13.8l-1.1-.2c-.7,2.8-1.8,5.4-3.3,7.8l1.8,1c1.4-2.7,2.2-5.6,2.7-8.6Z"/>
      <path class="st1" d="M131.7,15.2h-7.3c0-.4,0-.8,0-1.3h-1.8c0,1.5,0,3-.2,4.4-.2,1.4-.8,2.7-1.7,3.7,0,0,.6.6.6.6,1.4-.9,2.2-2.2,2.6-3.7h7.8v3.5h1.8v-8.6h-1.8v1.3ZM124.1,18c.1-.6.2-1.2.3-1.9h7.3v1.9h-7.6Z"/>
      <path class="st1" d="M120.8,6.6c-1.1-.8-2.3-1.5-3.5-2.1l-.5.9c1,.8,2,1.7,2.9,2.6l1.1-1.3Z"/>
      <path class="st1" d="M134.4,10.9c-.4-.5-.6-1-.9-1.5.6,0,1.1-.2,1.7-.4,0,0,0-.1,0-.1l-.7-1.1c-.6.3-1.3.5-2,.6-.8.2-1.5.4-2.3.5v.3h0v4h0s0,0,0,0l3.2-.7v-.8c0,0-1.8,0-1.8,0v-2.2c.3,0,.7,0,1,0,.4,1.5,1.3,2.8,2.5,3.8l.9-.9c-.6-.4-1.2-.9-1.6-1.5Z"/>
      <rect class="st1" x="99.7" y="5.5" width="11.3" height="1"/>
      <polygon class="st1" points="106.3 16.8 110.6 16.8 110.6 15.8 100.1 15.8 100.1 16.8 104.5 16.8 104.5 20.9 99.2 20.9 99.2 21.9 111.3 21.9 111.3 20.9 106.3 20.9 106.3 16.8"/>
      <path class="st1" d="M93.4,16.7c0,.8-.3,1.7-.5,2.6-.3.9-.6,1.7-1,2.5,0,0,.8.5.8.5,1-1.7,1.9-3.4,2.2-5.4l-1.6-.2Z"/>
      <polygon class="st1" points="99 20.5 100.5 19.7 98.3 16.2 97.5 16.6 99 20.5"/>
      <path class="st1" d="M92.1,14.2l.3,1.7,3.2-.8v7.4h1.5v-7.8l1.3-.3c.2.5.3.9.4,1.4l1.6-.6c-.5-1-1-1.9-1.6-2.8-.2-.3-.4-.6-.6-.9l-.8.5c.1.3.3.6.4.9,0,.2.1.4.2.6l-3,.4c1.8-1.9,3.4-4,4.7-6.3l-1.5-.8c-.4.8-.8,1.6-1.3,2.4l-2.1.2c1-1.5,2-3.1,2.8-4.8l-1.6-.6c-.3.9-.7,1.9-1.1,2.8-.4.9-.9,1.8-1.3,2.7h-1.2c0,.1.3,1.8.3,1.8l3.6-.9c-.8,1.3-1.7,2.5-2.8,3.6l-1.4.2Z"/>
      <path class="st1" d="M103.5,7.6l-1.6-.7c-.4,1.5-1.1,2.9-1.9,4.2.8,1.3,1.5,2.7,1.9,4.2l1.6-.7c-.7-1.3-1.5-2.4-2.4-3.5.9-1.1,1.7-2.2,2.4-3.5Z"/>
      <path class="st1" d="M107,14.6c-.7-1.3-1.5-2.4-2.4-3.5.9-1.1,1.7-2.2,2.4-3.5l-1.6-.7c-.4,1.5-1.1,2.9-1.9,4.2.8,1.3,1.5,2.7,1.9,4.2l1.6-.7Z"/>
      <path class="st1" d="M108.8,6.9c-.4,1.5-1.1,2.9-1.9,4.2.8,1.3,1.5,2.7,1.9,4.2l1.6-.7c-.7-1.3-1.5-2.4-2.4-3.5.9-1.1,1.7-2.2,2.4-3.5l-1.6-.7Z"/>
      <polygon class="st1" points="150.7 6.4 146.6 6.4 146.6 4 144.7 4 144.7 6.4 140.9 6.4 140.9 7.5 150.7 7.5 150.7 6.4"/>
      <path class="st1" d="M150.9,11.9h-3.4c.7-1,1.3-2.1,1.8-3.2l-1.6-.8c-.3,1.4-.8,2.8-1.4,4.1h-6.1v1h10.7v-1Z"/>
      <path class="st1" d="M143.5,15.2h-1.8v6.5h8.2v-6.5h-6.4ZM143.5,20.7v-4.5h4.6v4.5h-4.6Z"/>
      <polygon class="st1" points="143.6 11.7 145.1 10.9 143.2 7.8 142.3 8.3 143.6 11.7"/>
      <path class="st1" d="M159.1,6.2l-.6-1h-6.7s0,0,0,0v17.3h1.8V6.4h3.2s-1.3,3.7-2,5.2c1.5,1.5,2.3,3.5,2.4,4.9,0,1.7-.7,2.4-1.6,2.4-.5,0-1,0-1,0v.7c0,0,1.2,0,2,0,1.8-.1,2.6-1.3,2.5-3,0-1.7-1-3.1-2.8-5.4l2.8-5Z"/>
      <path class="st1" d="M108.3,35.2h-1.5l.7-.6c-.8-.7-1.6-1.4-2.4-2.2l-.7.5c.5.8,1,1.5,1.5,2.2h-2.1c0-.7,0-1.5,0-2.2h0c0-.1-1.5-.1-1.5-.1h0c0,.8,0,1.6,0,2.3h-6.5v1.1h6.6v.3c.1,2.9.5,5.1,1.1,6.6-1,1.3-2.3,2.4-3.6,3.3l.5.7c1.5-.9,2.7-1.8,3.7-2.8.8,1.7,1.9,2.3,2.6,2.4.5,0,.8,0,1.1-.2.6-.6.5-2.4.2-4.8h-.8c0,1.6,0,3.1-.2,3.3,0,0,0,0-.1,0-.3-.1-1-.7-1.5-2.1,1.1-1.4,1.9-3.1,2.5-5.1l-1.6-.5c-.3,1.4-.8,2.7-1.4,4-.3-1.2-.6-2.9-.7-5v-.3s4.4,0,4.4,0v-1.1Z"/>
      <path class="st1" d="M102.2,42.4c-2,.8-4.1,1.5-6.2,1.9l.6,1.6c2.1-.7,4.1-1.6,6-2.7l-.4-.8Z"/>
      <path class="st1" d="M99.8,42h1.6v-4.7h-5v4.7h3.4ZM99.8,38.4v2.5h-1.8v-2.5h1.8Z"/>
      <path class="st1" d="M108.8,31.1h-15.5v17.6h17.3v-17.6h-1.8ZM95.2,47.7v-15.5h13.7v15.5h-13.7Z"/>
      <path class="st1" d="M192.4,35.1h11.1v-3.8h-15.8v3.8h4.7ZM201.7,32.4v1.7h-2.9v-1.7h2.9ZM197.1,32.4v1.7h-2.9v-1.7h2.9ZM189.6,32.4h2.9v1.7h-2.9v-1.7Z"/>
      <path class="st1" d="M198.5,40.3h6.7v-1.1h-4.4c.5-.3,1.1-.5,1.6-.8.7-.4,1.5-.9,2.2-1.4,0,0-1.1-1.3-1.1-1.3-.8.7-1.8,1.3-2.7,1.8v-.8h-4.6v-1h-1.8v1h-5.7v1.1h5.7v1.4h-8.2v1.1h9s0,0,0,0c-3,1.3-6.1,2.4-9.2,3.2l.2.8c1.6-.4,3.2-.8,4.8-1.3v5.8h11.2v-7.1h-7.4c.3-.1.6-.2.9-.3,1-.4,2-.8,3-1.2ZM196.1,39.2v-1.4h4c-.9.5-1.8,1-2.7,1.4h-1.3ZM200.2,47.9h-7.6v-2h7.6v2ZM200.2,44.8h-7.6v-2h7.6v2Z"/>
      <path class="st1" d="M178.6,40.8h-9.8c.5-.5.9-1,1.2-1.5h8.5v-7.8h-12.8v7.8h2.3c-.5.8-1.3,1.5-2,2-1.1.9-2.2,1.6-3.5,2.2l.3.8c1.5-.5,3.2-1.4,4.7-2.5h2.4c-.2.2-.3.4-.5.6-1.5,1.6-3.4,2.8-5.4,3.9,0,0,.4.9.4.9,2.6-1.1,6.1-2.9,7.8-5.4h2.3c-.7,1.2-1.8,2.3-2.8,3.3-1.4,1.2-2.9,2.3-4.6,3.1l.4.9c.9-.3,1.8-.8,2.7-1.3,2.5-1.5,5-3.4,6.6-6h1.8c-.1,1.2-.3,3.2-.4,3.8-.1.9-.3,1.7-1.1,1.9-1,.4-3.6-.4-3.6-.4l-.3.8s2.3.9,3.6,1c1.3.2,2.4-.1,2.9-.9.7-1.3,1-7.2,1-7.2h-2ZM167.5,32.5h9.2v2.3h-9.2v-2.3ZM167.5,35.9h9.2v2.3h-9.2v-2.3Z"/>
      <path class="st1" d="M154.3,45.7h1.8v-7.8h-6.3c1.9-1.1,3.4-3.2,3.9-5.3h2.5c0,.8,0,1.9-.1,2.4,0,.8-.2,1.4-.8,1.3-.4,0-2-.5-2-.5l-.4.7s1.8,1,2.9,1.1c1.1,0,1.7-.5,1.9-1.6.2-1.2.3-4.5.3-4.5h-8.5v1h2.5c-.1.8-.5,1.7-.9,2.4-.6.9-1.3,1.8-2.2,2.4,0,0,.1.3.3.5h-6.3v7.8h3.5c-.8.5-1.8,1-2.7,1.4-1.2.5-2.4,1-3.7,1.2v.9c1.5-.1,2.8-.5,4.2-.9,1.3-.4,2.6-.9,3.8-1.7l-.6-.9h3.1c0,.1-.2.8-.2.8,2.6.7,5.1,1.7,7.6,2.8l.6-1.6c-2.5-.8-5.1-1.5-7.7-2h3.5ZM154.3,42.4h-9.6v-1.2h9.6v1.2ZM154.3,39v1.2h-9.6v-1.2h9.6ZM144.7,43.5h9.6v1.2h-9.6v-1.2Z"/>
      <path class="st1" d="M147.4,35.8c.2.5.5.9.7,1.4l1.5-1c-.9-1.1-1.7-2.1-2.7-3.2l-.7.6c.3.4.5.9.8,1.3-1.2.4-2.4.8-3.6,1.1v-2.9c1.6,0,3.3-.4,4.9-1.2l-.9-1.4c-.7.5-1.6.8-2.4,1.1-1.1.3-2.2.5-3.4.6v4.2c-.5.1-1.1.3-1.7.4l.4,1.7c2.4-.8,4.9-1.6,7.2-2.7Z"/>
      <path class="st1" d="M122.2,42.3c0-1.6-.9-3.3-2-5l2.5-5.2-.6-1h-5.3s0,1.1,0,1.1v16.9h1.7v-16.9h2.2s-1.3,4.5-1.5,5.1c.9,1.8,1.1,2.8,1.3,4,.1,1.1,0,1.9-.8,2.1-.3,0-.7-.1-.7-.1l-.3.4s.4.6,1.2.9c1.4.5,2.3-.7,2.2-2.3Z"/>
      <path class="st1" d="M124.9,42.6c-.5,1-1.1,1.8-1.8,2.7-.7.8-1.5,1.6-2.4,2.3l.5.7c2-1.2,3.8-2.8,5.2-4.7l-1.4-.9Z"/>
      <path class="st1" d="M131,42.5l-.6.6c1.4,1.5,2.7,3.2,3.9,4.9l1.3-1.1c-1.4-1.5-3-3-4.6-4.4Z"/>
      <path class="st1" d="M134.6,42.1v-1.1h-11.9v1.1h5v3.9c0,1.4,0,1.8-.8,1.8-.7,0-2.4-.5-2.4-.5l-.2.7s2.3,1,3.5,1c1.3,0,1.7-.8,1.7-1.7v-5.2h5.1Z"/>
      <path class="st1" d="M134.7,32.9l-.5-.9h-.8s0,0,0,0h-3.7c-.1-.5-.2-1-.3-1.5,0,0-.9,0-.9,0,0,3.1,1.3,5.7,3.4,7.7h-6.5c1.5-1.5,2.6-3.3,3.3-5.4l-.9-.8h-.6s0,0,0,0h-1.9c.2-.5.4-1,.6-1.5l-1.6-.5c-.3,1.2-.7,2.4-1.3,3.6-.5,1.2-1.2,2.3-1.9,3.3l.6.6c.5-.5,1-1.1,1.4-1.7l1.5,1.5c-.7.9-1.5,1.7-2.4,2.4,0,0,.5.7.5.7,1-.7,1.9-1.4,2.7-2.3v1.1h6.5v-1c.8.8,1.6,1.4,2.6,2l1.1-1.5c-1.3-.7-2.6-1.6-3.6-2.7,1.1-1,2-2.1,2.8-3.3ZM126.9,33.2c-.2.5-.4,1-.6,1.4l-1.9-.9c0-.2.2-.4.3-.5h2.2ZM123.5,35.2c.2-.3.3-.5.5-.8l1.7,1.3c-.1.2-.2.4-.4.6l-1.8-1.2ZM131.3,35.5c-.6-.7-1-1.5-1.4-2.3h2.9c-.1.2-.3.5-.4.7-.3.6-.7,1.1-1.1,1.6Z"/>
    </g>
    <g>
      <polygon class="st1" points="76.4 18.2 29 18.2 35.6 5.5 83 5.5 76.4 18.2"/>
      <polygon class="st1" points="47.4 34.3 0 34.3 6.6 21.5 54 21.5 47.4 34.3"/>
      <polygon class="st0" points="40 48.6 47.4 34.3 30.7 34.3 23.3 48.6 40 48.6"/>
      <polygon class="st0" points="69.1 32.4 76.4 18.2 59.8 18.2 52.4 32.4 69.1 32.4"/>
    </g>
  </g>
</svg>