<svg width="16" height="33" viewBox="0 0 16 33" fill="none" xmlns="http://www.w3.org/2000/svg">
<path d="M15.0308 31.8189C15.2614 31.5545 15.4015 31.2039 15.4259 30.8309C15.4502 30.4579 15.357 30.0873 15.1633 29.7865L15.0308 29.6116L3.28715 16.1383L15.0326 2.66495C15.2629 2.40025 15.4028 2.04953 15.4267 1.67655C15.4507 1.30358 15.3572 0.933113 15.1633 0.632504L15.0308 0.457581C14.8002 0.193076 14.4946 0.0322519 14.1695 0.00435505C13.8443 -0.0235418 13.5212 0.0833384 13.259 0.305564L13.1065 0.457581L0.398901 15.0346C0.168317 15.299 0.0281185 15.6496 0.00379991 16.0226C-0.0205197 16.3956 0.0726544 16.7662 0.26638 17.067L0.398902 17.242L13.1065 31.8189C13.3618 32.1114 13.7078 32.2757 14.0686 32.2757C14.4294 32.2757 14.7755 32.1114 15.0308 31.8189Z" fill="#F0F0F0" fill-opacity="0.88"/>
</svg>
