<svg width="247" height="32" viewBox="0 0 247 32" fill="none" xmlns="http://www.w3.org/2000/svg">
<g clip-path="url(#clip0_173_839)">
<path d="M24.4319 4.63425C23.38 4.90486 22.6335 5.85201 22.6335 6.96829C22.6335 8.28753 23.7193 9.36998 25.0427 9.36998C26.1625 9.36998 27.1127 8.59197 27.3841 7.54334L32.1009 12.2452C30.506 14.3763 27.961 15.7294 25.1106 15.7294C20.2582 15.7294 16.3558 11.8055 16.3558 7.00211C16.3558 4.12685 17.7132 1.62368 19.817 0L24.4659 4.60042L24.4319 4.63425Z" fill="white"/>
<path d="M27.4859 24.3554C27.2145 23.3068 26.2643 22.5288 25.1445 22.5288C23.8211 22.5288 22.7353 23.6112 22.7353 24.9305C22.7353 26.0468 23.5157 26.9939 24.5677 27.2645L19.851 32.0002C17.7471 30.4104 16.3558 27.8734 16.3558 25.032C16.3558 20.1948 20.2921 16.3047 25.1106 16.3047C27.961 16.3047 30.506 17.6578 32.1009 19.755L27.4859 24.3893V24.3554Z" fill="white"/>
<path d="M7.66891 27.3998C8.72084 27.1292 9.46737 26.1821 9.46737 25.0658C9.46737 23.7465 8.38151 22.6641 7.05811 22.6641C5.93831 22.6641 4.98818 23.4421 4.71672 24.4907L-0.0339355 19.7888C1.56093 17.6916 4.10592 16.3047 6.95631 16.3047C11.8088 16.3047 15.7111 20.2286 15.7111 25.032C15.7111 27.8734 14.3538 30.3766 12.2499 32.0002L7.60104 27.3998H7.66891Z" fill="white"/>
<path d="M4.64885 7.64482C4.92032 8.69345 5.87045 9.43763 6.99025 9.43763C8.31364 9.43763 9.39951 8.35518 9.39951 7.03594C9.39951 5.91966 8.61904 4.97252 7.56711 4.7019L12.2838 0C14.3877 1.58985 15.779 4.12685 15.779 6.96829C15.779 11.8055 11.8427 15.6956 7.02418 15.6956C4.13985 15.7294 1.6288 14.3763 0 12.2791L4.61492 7.64482H4.64885Z" fill="white"/>
<path d="M40.8896 12.0756H47.1333V9.23421C47.1333 9.23421 47.2351 9.03125 47.4047 9.03125C48.3209 9.03125 48.7621 9.0989 48.7621 9.23421C48.7621 9.36952 48.6942 9.471 48.5924 9.50482C48.4906 9.50482 48.4227 9.64013 48.4227 9.84309V12.1095H54.2593C54.4629 12.1095 54.5986 12.1771 54.5986 12.3124V19.9911C54.5986 19.9911 54.4968 20.194 54.2593 20.194H53.5806C53.377 20.194 53.3091 20.1264 53.3091 19.9911V18.7057H48.4227V24.2194C48.4227 24.2194 48.3209 24.4224 48.0834 24.4224H47.4047C47.2351 24.4224 47.1333 24.3547 47.1333 24.2194V18.7057H41.9076V19.9234C41.9076 19.9234 41.8058 20.1264 41.5682 20.1264H40.8896C40.7199 20.1264 40.6181 20.0587 40.6181 19.9234V12.3463C40.6181 12.1771 40.7199 12.0756 40.8896 12.0756ZM41.9076 17.5217H47.1333V13.2596H41.9076V17.5217ZM48.4227 13.2596V17.5217H53.3091V13.2596H48.4227Z" fill="white"/>
<path d="M58.6706 12.8204H71.3616C71.3616 12.8204 71.4973 12.888 71.4973 13.0233V13.5646C71.4973 13.7337 71.4634 13.8352 71.3616 13.8352H69.3256V15.9663H72.651C72.651 15.9663 72.7868 16.0339 72.7868 16.1692V16.7104C72.7868 16.8796 72.7528 16.9811 72.651 16.9811H69.3256V19.0106H72.4474C72.4474 19.0106 72.5832 19.0783 72.5832 19.2136V19.7548C72.5832 19.924 72.5492 20.0254 72.4474 20.0254H65.5929V21.48H71.3616C71.3616 21.48 71.4973 21.5476 71.4973 21.683V22.2242C71.4973 22.3933 71.4634 22.4948 71.3616 22.4948H65.5929V24.3553C65.5929 24.3553 65.4911 24.5582 65.3215 24.5582H64.6428C64.4731 24.5582 64.3713 24.4906 64.3713 24.3553V22.4948H58.6706C58.6706 22.4948 58.5348 22.3933 58.5348 22.2242V21.683C58.5348 21.683 58.5688 21.48 58.6706 21.48H64.3713V20.0254H57.4829C57.4829 20.0254 57.3472 19.924 57.3472 19.7548V19.2136C57.3472 19.2136 57.3811 19.0106 57.4829 19.0106H60.7405V16.9811H57.2793C57.2793 16.9811 57.1436 16.8796 57.1436 16.7104V16.1692C57.1436 16.1692 57.1775 15.9663 57.2793 15.9663H60.7405V13.8352H58.6366C58.6366 13.8352 58.5009 13.7337 58.5009 13.5646V13.0233C58.5009 13.0233 58.5348 12.8204 58.6366 12.8204H58.6706ZM57.415 10.2157H61.8263V9.09944C61.8263 9.09944 61.9281 8.89648 62.0978 8.89648C62.9461 8.89648 63.3873 8.96414 63.3873 9.09944C63.3873 9.23475 63.3194 9.33623 63.2176 9.37006C63.1158 9.37006 63.0479 9.50536 63.0479 9.70832V10.2495H67.0521V9.13327C67.0521 9.13327 67.1539 8.93031 67.3235 8.93031C68.1719 8.93031 68.613 8.99796 68.613 9.13327C68.613 9.26858 68.5451 9.37006 68.4433 9.40388C68.3415 9.40388 68.2737 9.53919 68.2737 9.74215V10.2834H72.6171C72.6171 10.2834 72.7528 10.351 72.7528 10.4863V11.0276C72.7528 11.1967 72.7189 11.2982 72.6171 11.2982H68.2737V12.2453C68.2737 12.2453 68.1719 12.4483 68.0022 12.4483H67.3235C67.1539 12.4483 67.0521 12.3806 67.0521 12.2453V11.2982H63.0479V12.2453C63.0479 12.2453 62.9461 12.4483 62.7765 12.4483H62.0978C61.9281 12.4483 61.8263 12.3806 61.8263 12.2453V11.2982H57.415C57.415 11.2982 57.2793 11.1967 57.2793 11.0276V10.4863C57.2793 10.4863 57.3132 10.2834 57.415 10.2834V10.2157ZM64.4053 15.9324V13.8013H61.996V15.9324H64.4053ZM61.996 18.9768H64.4053V16.9472H61.996V18.9768ZM68.1379 15.9324V13.8013H65.6269V15.9324H68.1379ZM65.5929 16.9472V18.9768H68.104V16.9472H65.5929Z" fill="white"/>
<path d="M84.0865 14.4439V14.5454C84.1204 15.6955 84.1883 16.575 84.2901 17.2515H89.3801C89.3801 17.2515 89.5837 17.353 89.5837 17.5221V18.0634C89.5837 18.2325 89.5158 18.334 89.3801 18.334H84.4937C84.6634 18.8752 84.833 19.3826 85.0366 19.8562C85.3081 20.3974 85.6814 20.9386 86.1225 21.4122C86.4279 21.8181 86.7672 22.1564 87.1744 22.4608C87.6156 22.7991 87.9888 23.0021 88.2264 23.0021C88.3621 23.0021 88.5318 22.8668 88.7014 22.5623C88.905 22.1902 89.0408 21.5813 89.1765 20.8033C89.1765 20.668 89.2444 20.6004 89.3122 20.6004C89.414 20.6004 89.4819 20.6004 89.5158 20.7019C89.6855 20.8033 89.8891 20.871 90.0588 20.9725C90.1945 21.0401 90.2624 21.1078 90.2624 21.1754C90.0927 22.1226 89.8891 22.9006 89.6516 23.4418C89.3122 24.0845 88.9729 24.4228 88.5657 24.4228C88.3621 24.4228 88.1246 24.3551 87.8531 24.2537C87.5477 24.1522 87.2762 23.983 86.9708 23.7462C86.5636 23.4756 86.0546 23.0359 85.4778 22.4947C85.0706 22.0211 84.6973 21.5137 84.3919 21.0063C84.0865 20.3974 83.849 19.9238 83.7132 19.5179C83.5775 19.112 83.4418 18.7399 83.3739 18.334H77.7071V22.5285C77.9107 22.4608 78.1482 22.427 78.3857 22.3594C79.8449 21.9873 81.2361 21.6152 82.5256 21.1754C82.5595 21.1754 82.6274 21.1416 82.6613 21.1416C82.7292 21.1416 82.797 21.2093 82.797 21.3446C82.797 21.9534 82.797 22.2579 82.7292 22.3255C80.4217 23.0021 78.0803 23.6448 75.7389 24.186C75.5693 24.4904 75.3996 24.6596 75.2639 24.6596C75.1621 24.6596 74.9245 24.186 74.5852 23.205C75.1621 23.1035 75.7729 23.0021 76.4855 22.8329V9.80968C76.4855 9.64054 76.5873 9.53906 76.7569 9.53906H88.3621C88.5318 9.53906 88.6336 9.60672 88.6336 9.74202V14.2071C88.6336 14.3763 88.5318 14.4778 88.3621 14.4778H84.0865V14.4439ZM77.6731 10.5877V13.3615H87.412V10.5877H77.6731ZM77.6731 14.4439V17.2515H83.1024C82.9667 16.4735 82.8988 15.5264 82.831 14.4439H77.6392H77.6731Z" fill="white"/>
<path d="M92.8074 9.50488H106.652C106.822 9.50488 106.924 9.57254 106.924 9.70784V24.1518C106.924 24.1518 106.822 24.3548 106.652 24.3548H105.974C105.804 24.3548 105.702 24.2871 105.702 24.1518V23.6106H93.7575V24.1518C93.7575 24.1518 93.6557 24.3548 93.4861 24.3548H92.8074C92.6377 24.3548 92.5359 24.2871 92.5359 24.1518V9.70784C92.5359 9.70784 92.6377 9.50488 92.8074 9.50488ZM93.7236 22.562H105.668V10.5197H93.7236V22.562ZM99.6959 19.0778C99.6959 19.0778 99.8316 19.1455 99.8316 19.2808C99.8316 19.7882 99.8316 20.0926 99.7637 20.1264C98.3725 20.5324 96.9473 20.8706 95.4881 21.2089C95.3185 21.5133 95.1827 21.6825 95.0809 21.6825C94.9791 21.6825 94.7755 21.2427 94.4701 20.3632C95.1488 20.2618 95.9632 20.0926 96.9133 19.8558C97.8635 19.6529 98.7457 19.4161 99.5941 19.1455C99.628 19.1455 99.6619 19.1116 99.6959 19.1116V19.0778ZM94.7416 12.5155H100.408C100.408 12.1772 100.408 11.8051 100.375 11.3992C100.375 11.2639 100.408 11.1962 100.51 11.1962L101.562 11.2977C101.766 11.2977 101.868 11.3315 101.868 11.433C101.868 11.5683 101.834 11.6698 101.732 11.7036C101.63 11.7374 101.596 11.9066 101.596 12.1772V12.5831H103.836C103.564 12.3463 103.293 12.1434 102.987 11.9404C102.716 11.7713 102.512 11.636 102.343 11.5683C102.343 11.5007 102.512 11.2639 102.818 10.8579C102.852 10.7903 102.92 10.7565 102.953 10.7565C103.293 10.9256 103.598 11.1286 103.836 11.2977C104.107 11.5007 104.345 11.6698 104.514 11.8389C104.514 11.8389 104.514 11.9066 104.447 11.9742C104.209 12.2787 104.073 12.4816 103.971 12.5831H105.125C105.125 12.5831 105.261 12.6508 105.261 12.7861V13.3273C105.261 13.4964 105.227 13.5979 105.125 13.5979H101.596C101.596 14.2068 101.63 14.748 101.664 15.2216C101.732 16.0334 101.868 16.7776 102.071 17.4541C102.139 17.7586 102.207 18.0292 102.309 18.2998C102.546 17.8939 102.75 17.4541 102.953 16.9467C103.225 16.3717 103.395 15.729 103.53 15.0525C103.53 14.951 103.598 14.8833 103.7 14.8833C104.616 15.1878 105.057 15.3907 105.057 15.4922C105.057 15.5937 104.989 15.6952 104.854 15.7628C104.718 15.7628 104.616 15.8305 104.548 15.9658C104.277 16.8453 103.971 17.6571 103.598 18.3675C103.361 18.8072 103.089 19.247 102.818 19.619C102.987 19.9235 103.157 20.1941 103.361 20.4309C103.564 20.5662 103.7 20.6338 103.802 20.6338C103.87 20.6338 103.971 20.5324 104.073 20.3294C104.209 20.0926 104.345 19.7544 104.48 19.3146C104.548 19.3146 104.616 19.3823 104.684 19.4837C104.82 19.6867 104.989 19.8558 105.193 20.025C105.329 20.1264 105.397 20.2279 105.397 20.3971C105.159 20.9045 104.956 21.3104 104.752 21.581C104.447 21.9869 104.175 22.1899 103.904 22.1899C103.768 22.1899 103.632 22.1899 103.53 22.0884C103.293 21.9869 103.021 21.784 102.784 21.4795C102.546 21.2427 102.309 20.9383 102.105 20.5662C101.63 21.0736 101.053 21.5472 100.408 21.9869C100.341 22.0207 100.273 22.0546 100.171 22.0546C100.035 22.0546 99.9334 21.9869 99.8655 21.8516C99.7637 21.6825 99.5941 21.5133 99.4583 21.378C99.3565 21.3442 99.3226 21.2427 99.3226 21.1412C99.3226 21.1074 99.3565 21.0736 99.4244 21.0398C99.7298 20.9383 100.001 20.7353 100.307 20.4985C100.782 20.1603 101.189 19.7882 101.528 19.3484C101.359 18.9425 101.189 18.5028 101.087 18.0292C100.884 17.1835 100.714 16.3379 100.612 15.4584C100.544 14.951 100.51 14.3083 100.442 13.5641H94.7416C94.7416 13.5641 94.6059 13.4626 94.6059 13.2935V12.7522C94.6059 12.7522 94.6398 12.5493 94.7416 12.5493V12.5155ZM95.2167 14.5451H99.2887C99.4583 14.5451 99.5601 14.6127 99.5601 14.748V18.1307C99.5601 18.1307 99.4583 18.3336 99.2887 18.3336H95.2167C95.047 18.3336 94.9452 18.266 94.9452 18.1307V14.748C94.9452 14.748 95.047 14.5451 95.2167 14.5451ZM98.4064 17.3188V15.5599H96.0989V17.3188H98.4064Z" fill="white"/>
<path d="M112.217 9.09953C113.032 9.09953 113.405 9.16718 113.405 9.30249C113.405 9.43779 113.371 9.50545 113.269 9.53927C113.201 9.53927 113.133 9.64075 113.133 9.84371V12.6175H114.151V9.16718C114.151 9.16718 114.219 9.03187 114.355 9.03187C115.169 9.03187 115.543 9.09953 115.543 9.23483C115.543 9.37014 115.509 9.43779 115.407 9.47162C115.339 9.47162 115.271 9.5731 115.271 9.77606V12.6175H116.12C116.357 12.1778 116.561 11.7718 116.696 11.3321C116.866 10.757 117.036 10.2158 117.138 9.70841C117.138 9.60693 117.205 9.5731 117.273 9.5731L118.223 10.1482C118.223 10.1482 118.359 10.2496 118.359 10.3173C118.359 10.4188 118.325 10.4526 118.223 10.4864C118.088 10.4864 118.02 10.5541 117.986 10.6894C117.816 11.2306 117.579 11.9071 117.239 12.6513H117.986C117.986 12.6513 118.189 12.7528 118.189 12.9219V13.4632C118.189 13.6323 118.122 13.7338 117.986 13.7338H109.401C109.401 13.7338 109.197 13.6323 109.197 13.4632V12.9219C109.197 12.7528 109.265 12.6513 109.401 12.6513H110.283C110.249 12.4484 110.181 12.2454 110.079 12.0086C109.91 11.4336 109.672 10.8923 109.401 10.3173C109.401 10.2496 109.706 10.0805 110.283 9.77606C110.588 10.3849 110.826 10.9262 110.996 11.4336C111.131 11.8057 111.267 12.2116 111.369 12.6513H111.98V9.26866C111.98 9.26866 112.048 9.13335 112.183 9.13335L112.217 9.09953ZM111.674 13.9367C112.014 14.4103 112.285 14.8501 112.523 15.256C112.726 15.6281 112.896 16.0002 113.032 16.4061C113.032 16.4399 112.726 16.5414 112.149 16.6767H115.034L114.525 16.3384C114.796 15.9663 115 15.5942 115.135 15.2221C115.305 14.8162 115.441 14.4103 115.543 14.0382C115.543 13.9706 115.611 13.9367 115.678 13.9367L116.764 14.478C116.764 14.478 116.9 14.6133 116.9 14.6809C116.9 14.7486 116.866 14.7824 116.764 14.8162C116.629 14.8162 116.561 14.8839 116.527 14.9854C116.357 15.4589 116.052 16.034 115.644 16.7105H117.443C117.443 16.7105 117.647 16.812 117.647 16.9811V17.5224C117.647 17.6915 117.579 17.793 117.443 17.793H114.321V19.7211H117.036C117.036 19.7211 117.171 19.7887 117.171 19.9241V20.4653C117.171 20.6344 117.138 20.7359 117.036 20.7359H114.321V22.6302C115.339 22.4949 116.323 22.3596 117.273 22.1904C117.307 22.1904 117.341 22.1904 117.409 22.1904C117.511 22.1904 117.545 22.2581 117.545 22.3934C117.545 22.9346 117.545 23.2052 117.477 23.2729C115.203 23.5773 112.896 23.8479 110.554 24.0847C110.385 24.3892 110.249 24.5583 110.147 24.5583C110.045 24.5583 109.842 24.1186 109.536 23.2391C110.521 23.1714 111.742 23.0361 113.133 22.867V20.8035H110.079C110.079 20.8035 109.944 20.7021 109.944 20.5329V19.9917C109.944 19.9917 109.978 19.7887 110.079 19.7887H113.133V17.8606H109.876C109.876 17.8606 109.672 17.7591 109.672 17.59V17.0488C109.672 16.8797 109.74 16.7782 109.876 16.7782H111.878C111.81 16.5414 111.708 16.2708 111.539 15.9325C111.335 15.4928 111.063 15.0868 110.724 14.6471C110.724 14.5794 111.03 14.3765 111.674 14.0382V13.9367ZM118.8 13.7338H122.261V10.2158C122.261 9.91137 122.261 9.64075 122.194 9.47162C122.16 9.33631 122.126 9.23483 122.126 9.13335C122.126 9.03187 122.228 8.99805 122.465 8.99805L123.822 9.20101C123.822 9.20101 124.026 9.30249 124.026 9.37014C124.026 9.47162 123.958 9.53927 123.822 9.53927C123.585 9.60693 123.483 9.87754 123.483 10.3173V13.7676H124.84C124.84 13.7676 125.044 13.8353 125.044 13.9706V14.6133C125.044 14.7824 124.976 14.8839 124.84 14.8839H123.483V23.2391C123.483 24.0171 122.872 24.423 121.651 24.423H119.954C119.954 24.423 119.818 24.3215 119.818 24.1186C119.784 23.9156 119.649 23.645 119.479 23.3405C119.479 23.2391 119.513 23.2052 119.615 23.2052C120.327 23.3067 120.938 23.3405 121.515 23.3405C122.024 23.3405 122.261 23.1376 122.261 22.7317V14.8501H118.8C118.8 14.8501 118.597 14.7486 118.597 14.5794V13.9367C118.597 13.9367 118.665 13.7338 118.8 13.7338ZM119.479 16.4061C120.056 17.0826 120.497 17.6915 120.836 18.2665C121.176 18.7739 121.447 19.3152 121.719 19.9241C121.719 19.9579 121.345 20.0594 120.633 20.2623C120.531 19.8902 120.327 19.4167 120.022 18.8754C119.649 18.2327 119.207 17.59 118.631 16.9473C118.631 16.8797 118.936 16.7105 119.513 16.4061H119.479Z" fill="white"/>
<path d="M130.948 8.89648L132.17 9.33623C132.17 9.33623 132.374 9.50536 132.374 9.57302C132.374 9.70832 132.306 9.8098 132.17 9.84363C131.966 9.84363 131.831 9.94511 131.797 10.1481C131.627 10.6893 131.457 11.1967 131.288 11.6364H134.918C134.918 11.6364 135.156 11.6703 135.224 11.7717C135.495 12.0762 135.597 12.2453 135.597 12.3468C135.258 14.0043 134.918 15.2559 134.613 16.1354C134.24 17.2517 133.867 18.1988 133.493 18.9092C133.12 19.6534 132.645 20.3637 132.034 21.0402C131.389 21.8183 130.677 22.461 129.862 22.9684C129.353 23.3743 128.641 23.7126 127.826 24.017C127.657 24.017 127.555 23.9493 127.487 23.8479C127.351 23.6449 127.216 23.4419 127.08 23.239C127.012 23.1713 126.978 23.1037 126.978 23.036C126.978 22.9345 127.012 22.9007 127.08 22.8669C127.589 22.6978 128.098 22.461 128.607 22.1904C129.557 21.683 130.338 21.0741 130.948 20.3299C131.288 19.9578 131.559 19.5857 131.831 19.1798C131.05 18.5032 130.304 17.9282 129.557 17.5223C129.489 17.4884 129.455 17.4546 129.455 17.4208C129.455 17.3531 129.659 17.1164 130.032 16.6428C130.1 16.5413 130.202 16.5075 130.27 16.5075C131.05 17.0149 131.797 17.5561 132.475 18.1312C132.475 18.0973 132.509 18.0635 132.543 18.0297C132.95 17.2178 133.29 16.3045 133.561 15.3235C133.765 14.6808 133.968 13.8013 134.172 12.7189H130.914C130.779 12.9895 130.677 13.2601 130.575 13.4631C130.168 14.2749 129.727 15.0868 129.286 15.7971C128.811 16.4398 128.335 17.0149 127.793 17.5561C127.657 17.5561 127.521 17.5561 127.419 17.4885C127.182 17.387 126.944 17.2855 126.707 17.2178C126.639 17.184 126.571 17.1164 126.571 17.0825C126.571 16.9811 126.605 16.9134 126.673 16.8796C127.487 16.1354 128.234 15.1882 128.878 14.072C129.286 13.4293 129.591 12.7527 129.862 12.0424C130.202 11.2982 130.507 10.3172 130.779 9.13327C130.847 8.99796 130.914 8.93031 130.982 8.93031L130.948 8.89648ZM138.074 9.06562C138.923 9.06562 139.364 9.13327 139.364 9.26858C139.364 9.40388 139.296 9.50536 139.194 9.53919C139.092 9.53919 139.024 9.6745 139.024 9.87746V14.1058C140.28 15.2559 141.4 16.5075 142.452 17.7929C142.553 17.8605 142.621 17.962 142.621 18.0973C142.621 18.165 142.587 18.1988 142.486 18.2326C142.078 18.6386 141.807 18.8415 141.705 18.8415C141.637 18.8415 141.535 18.8077 141.468 18.7062C140.619 17.5899 139.771 16.6428 138.99 15.8648V24.2538C138.99 24.2538 138.889 24.4567 138.719 24.4567H138.04C137.871 24.4567 137.769 24.3891 137.769 24.2538V9.26858C137.769 9.26858 137.871 9.06562 138.04 9.06562H138.074Z" fill="white"/>
<path d="M150.833 9.97858C150.833 9.97858 150.697 9.97858 150.63 10.0124C150.087 10.2492 149.51 10.4183 148.831 10.5536C148.085 10.6889 147.338 10.7566 146.592 10.7904V13.7672C146.592 13.7672 146.829 13.6995 146.965 13.6657C147.915 13.4289 148.831 13.1921 149.679 12.9215C149.476 12.4818 149.204 12.042 148.899 11.6023C148.899 11.5346 149.204 11.3655 149.781 11.061C150.188 11.7376 150.528 12.3464 150.799 12.8877C151.037 13.3951 151.24 13.9363 151.41 14.5114C151.41 14.5452 151.071 14.6805 150.392 14.8496C150.324 14.5452 150.222 14.2069 150.087 13.8348C148.458 14.3084 146.795 14.7481 145.098 15.1202C144.929 15.4247 144.793 15.5938 144.691 15.5938C144.589 15.5938 144.386 15.1541 144.08 14.2746C144.488 14.2069 144.895 14.1054 145.37 14.004V9.67414C145.37 9.67414 145.438 9.47118 145.574 9.47118L146.218 9.7418C147.067 9.7418 147.745 9.64032 148.254 9.53884C148.967 9.43736 149.612 9.2344 150.188 8.92996C150.256 8.89613 150.324 8.8623 150.358 8.8623C150.426 8.8623 150.494 8.89613 150.562 8.96379C151.105 9.43736 151.376 9.7418 151.376 9.8771C151.376 10.0462 151.308 10.1477 151.172 10.1477L150.765 9.94476L150.833 9.97858ZM146.625 15.1541H157.28C157.45 15.1541 157.552 15.2217 157.552 15.357V22.3253C157.552 22.3253 157.45 22.5283 157.28 22.5283H155.075C155.618 22.7989 156.127 23.0357 156.636 23.2048C157.145 23.3739 157.925 23.5769 158.909 23.8137C159.045 23.8813 159.113 23.9152 159.113 23.949C159.113 24.0505 158.875 24.3211 158.366 24.8285C158.332 24.8285 158.231 24.8285 158.129 24.7947C156.262 24.2196 154.871 23.7122 153.955 23.2048C153.853 23.1371 153.819 23.1033 153.819 23.0695C153.819 23.0018 153.955 22.8327 154.26 22.5283H149.679L150.256 22.968C150.256 22.968 150.392 23.1371 150.392 23.2048C150.392 23.2048 150.324 23.2725 150.222 23.2725C150.053 23.2725 149.883 23.3063 149.815 23.3401C149.374 23.6107 148.865 23.8475 148.356 24.0843C147.745 24.3211 146.931 24.5917 145.981 24.8285C145.845 24.8285 145.743 24.7947 145.709 24.6932C145.472 24.524 145.268 24.3549 145.098 24.2196C145.031 24.1858 144.963 24.1519 144.963 24.0843C144.963 24.0843 144.963 24.0505 145.065 24.0166C145.506 23.949 145.879 23.8475 146.184 23.746C146.829 23.5431 147.372 23.3401 147.847 23.1033C148.152 22.9342 148.492 22.7651 148.831 22.5283H146.558C146.388 22.5283 146.286 22.4606 146.286 22.3253V15.357C146.286 15.357 146.388 15.1541 146.558 15.1541H146.625ZM147.576 17.319H156.33V16.1689H147.576V17.319ZM147.576 19.3824H156.33V18.3338H147.576V19.3824ZM156.33 21.5135V20.3972H147.576V21.5135H156.33ZM152.801 9.50501H159.316C159.316 9.50501 159.52 9.57266 159.52 9.70797C159.52 11.0272 159.418 11.9405 159.316 12.5156C159.215 13.1921 159.011 13.6995 158.807 14.0378C158.604 14.376 158.061 14.579 157.145 14.579C156.398 14.579 155.991 14.4775 155.991 14.2746C155.923 14.0378 155.787 13.7672 155.516 13.4627V13.3274H157.145C157.552 13.3274 157.789 13.2259 157.925 12.9892C158.061 12.82 158.163 12.4818 158.265 11.9744C158.332 11.6699 158.4 11.1625 158.434 10.5198H155.686C155.652 11.1963 155.584 11.7037 155.482 12.042C155.346 12.5494 155.143 12.9892 154.905 13.3274C154.702 13.598 154.43 13.8348 154.125 14.0378C153.853 14.2407 153.514 14.4099 153.073 14.579C152.767 14.2746 152.496 14.004 152.258 13.7333C152.462 13.6657 152.699 13.5642 153.005 13.3951C153.344 13.2259 153.582 13.023 153.785 12.7862C154.023 12.4818 154.193 12.1435 154.294 11.7376C154.396 11.467 154.464 11.061 154.498 10.5198H152.869C152.869 10.5198 152.666 10.4183 152.666 10.2492V9.70797C152.666 9.70797 152.733 9.50501 152.869 9.50501H152.801Z" fill="white"/>
<path d="M164.237 9.20117H174.688C174.858 9.20117 174.96 9.26882 174.96 9.40413V15.5606C174.96 15.5606 174.858 15.7635 174.688 15.7635H168.003C167.664 16.2709 167.325 16.7107 166.985 17.0828C166.884 17.1843 166.816 17.2519 166.748 17.3196H176.453C176.453 17.3196 176.656 17.3872 176.656 17.5225C176.622 19.3492 176.521 20.6346 176.385 21.4464C176.215 22.3936 175.944 23.1039 175.638 23.5775C175.333 24.0849 174.553 24.3217 173.263 24.3217C172.618 24.3217 172.313 24.1864 172.279 23.9496C172.245 23.679 172.109 23.3407 171.872 22.9686V22.8333C172.381 22.9686 172.822 23.0363 173.229 23.0363C173.942 23.0363 174.383 22.8671 174.587 22.5289C174.824 22.2583 174.994 21.7509 175.163 21.0067C175.299 20.4654 175.401 19.5521 175.469 18.3344H173.127C172.72 19.1124 172.313 19.8566 171.906 20.5331C171.363 21.2773 170.752 21.92 170.141 22.5289C169.53 23.1377 168.818 23.7128 167.97 24.254C167.834 24.254 167.698 24.2202 167.63 24.1525C167.325 24.0172 167.053 23.8819 166.782 23.7466C166.68 23.7466 166.612 23.7128 166.612 23.6451C167.698 22.9686 168.546 22.3259 169.225 21.6832C169.87 21.0743 170.413 20.4654 170.786 19.8904C171.057 19.5521 171.363 19.0447 171.702 18.3682H169.361C168.92 19.0447 168.445 19.6536 167.936 20.2287C167.291 20.8714 166.578 21.4464 165.866 21.9538C165.153 22.495 164.339 22.9686 163.355 23.4422C163.219 23.4422 163.083 23.4084 163.015 23.3407C162.744 23.2054 162.438 23.0701 162.167 22.9348C162.065 22.9348 161.997 22.9348 161.997 22.8333C163.253 22.2583 164.271 21.6832 165.051 21.142C165.832 20.6007 166.409 20.0933 166.85 19.5859C167.155 19.3153 167.461 18.9094 167.834 18.3682H165.662C165.662 18.3682 165.56 18.4697 165.492 18.5035C164.949 18.9432 164.305 19.3492 163.66 19.7213C162.812 20.161 162.337 20.364 162.235 20.364C162.167 20.364 162.065 20.2963 161.997 20.1272C161.828 19.9242 161.624 19.7213 161.42 19.4845C161.319 19.383 161.285 19.3153 161.285 19.2815C162.201 18.9771 162.981 18.6726 163.626 18.3344C164.271 17.9961 164.916 17.5225 165.526 16.9813C165.832 16.7107 166.171 16.3048 166.612 15.7635H164.203C164.033 15.7635 163.931 15.6959 163.931 15.5606V9.40413C163.931 9.40413 164.033 9.20117 164.203 9.20117H164.237ZM165.187 11.9073H173.738V10.2498H165.187V11.9073ZM173.738 14.6811V12.9898H165.187V14.6811H173.738Z" fill="white"/>
<path d="M181.169 9.43788H185.886C185.886 9.43788 186.09 9.43788 186.158 9.53936C186.361 9.77614 186.497 9.91145 186.497 9.9791C186.158 10.6556 185.886 11.1969 185.581 11.569C185.241 12.0425 184.902 12.4484 184.529 12.7529C184.156 13.0573 183.714 13.3618 183.172 13.6662C182.968 13.7677 182.73 13.903 182.527 14.0045H185.343C185.513 14.0045 185.615 14.0721 185.615 14.2074V17.8607C185.615 18.0298 185.513 18.1313 185.343 18.1313H181.814C181.746 18.6049 181.678 19.0108 181.577 19.4167H185.445C185.445 19.4167 185.649 19.4844 185.649 19.6197C185.649 20.9728 185.581 21.9199 185.445 22.495C185.343 23.2053 185.174 23.7127 184.936 24.051C184.732 24.4231 184.223 24.5922 183.341 24.5922C182.459 24.5922 182.018 24.4907 181.984 24.2539C181.916 23.9833 181.746 23.6789 181.441 23.3406V23.2053C182.12 23.3406 182.764 23.4083 183.341 23.4083C183.748 23.4083 183.986 23.3068 184.122 23.07C184.257 22.8671 184.359 22.5288 184.427 21.9876C184.495 21.6493 184.563 21.1419 184.597 20.4315H181.305C181.237 20.7021 181.136 20.9728 181.034 21.2434C181.034 21.3449 181 21.3787 180.966 21.3787C180.864 21.3787 180.796 21.3787 180.694 21.3449C180.423 21.311 180.151 21.2434 179.88 21.1757C179.812 21.1757 179.744 21.1081 179.744 21.0404C179.914 20.5668 180.05 20.1947 180.118 19.958C180.253 19.552 180.389 19.0446 180.491 18.5372C180.593 17.996 180.694 17.421 180.728 16.8459C180.728 16.7444 180.762 16.6768 180.864 16.6768C181.543 16.9474 181.882 17.1165 181.882 17.1503H184.393V15.1546H181.136C181.136 15.1546 180.932 15.0531 180.932 14.884V14.6134C180.457 14.7487 179.88 14.884 179.167 15.0193C179.032 15.0193 178.93 14.9854 178.862 14.884C178.76 14.7148 178.624 14.5457 178.489 14.3766C178.421 14.3089 178.387 14.2751 178.387 14.2074C178.387 14.2074 178.421 14.1398 178.489 14.1398C178.964 14.0721 179.473 13.9706 179.948 13.8353C180.728 13.6662 181.407 13.4294 181.916 13.1926C181.645 12.9558 181.339 12.7191 181.034 12.5161C180.627 12.2455 180.287 12.0425 180.016 11.9072C180.016 11.8396 180.185 11.6366 180.491 11.2307C180.525 11.163 180.593 11.0954 180.627 11.0954C181.203 11.3998 181.645 11.6704 181.984 11.941C182.323 12.1778 182.595 12.4146 182.832 12.6514C183.104 12.4823 183.375 12.2793 183.613 12.1102C183.986 11.7719 184.291 11.3998 184.563 10.9939C184.665 10.8586 184.766 10.6895 184.868 10.4865H181.068C181.068 10.4865 180.932 10.385 180.932 10.2159V9.67466C180.932 9.67466 180.966 9.4717 181.068 9.4717L181.169 9.43788ZM186.565 18.7064H192.469C192.469 18.7064 192.673 18.7402 192.741 18.8079C192.944 19.0446 193.08 19.1799 193.08 19.2476C192.809 19.9918 192.571 20.5668 192.3 20.9389C191.994 21.4463 191.723 21.8523 191.417 22.1905C191.282 22.3258 191.146 22.4611 191.01 22.5964C191.282 22.7317 191.553 22.8332 191.892 22.9347C192.435 23.1377 193.148 23.3068 194.03 23.4759C194.132 23.4759 194.2 23.5098 194.2 23.5774C194.2 23.6451 194.2 23.7127 194.098 23.7465C193.894 23.9157 193.691 24.1186 193.487 24.3554C193.419 24.4569 193.352 24.5246 193.284 24.5246C193.25 24.5246 193.148 24.5246 193.012 24.4231C192.605 24.3216 192.13 24.1863 191.655 24.0172C191.078 23.8142 190.535 23.5774 190.06 23.3068C189.619 23.5774 189.144 23.8142 188.601 24.0172C188.194 24.1863 187.651 24.3554 186.972 24.4907C186.836 24.4907 186.735 24.4569 186.667 24.3554C186.531 24.1863 186.429 24.0172 186.293 23.848C186.226 23.7804 186.192 23.7465 186.192 23.6789C186.192 23.6451 186.192 23.6112 186.293 23.6112C186.701 23.5436 187.108 23.4421 187.481 23.3068C188.092 23.1377 188.601 22.9347 189.042 22.6641C188.906 22.5288 188.737 22.4273 188.635 22.292C188.194 21.9199 187.888 21.5478 187.685 21.1419C187.413 20.7698 187.176 20.2962 186.938 19.6873H186.531C186.531 19.6873 186.395 19.5859 186.395 19.4167V18.8755C186.395 18.8755 186.429 18.6725 186.531 18.6725L186.565 18.7064ZM187.719 13.9368H191.587C191.757 13.9368 191.858 14.0045 191.858 14.1398V16.6091C191.858 16.6091 191.892 16.7444 191.96 16.7783C192.028 16.8121 192.164 16.8459 192.334 16.8459H192.469C192.469 16.8459 192.741 16.7783 192.775 16.643C192.843 16.4738 192.91 16.1694 192.978 15.6958C192.978 15.662 193.012 15.6282 193.08 15.6282C193.114 15.6282 193.216 15.6281 193.318 15.6958C193.453 15.7635 193.657 15.8311 193.861 15.8988C194.03 15.9326 194.098 16.0341 194.098 16.1694C193.962 16.7783 193.827 17.2518 193.691 17.6239C193.589 17.8269 193.318 17.9622 192.944 17.9622H191.791C191.417 17.9622 191.112 17.9284 190.908 17.8269C190.773 17.7592 190.705 17.6577 190.705 17.4886V14.884H188.669V15.1884C188.669 15.6958 188.635 16.1694 188.533 16.5753C188.431 16.9474 188.262 17.2518 187.99 17.5563C187.82 17.7592 187.617 17.9284 187.311 18.1313C187.176 18.1313 187.074 18.0975 187.006 18.0298C186.87 17.8269 186.701 17.6577 186.565 17.4886C186.497 17.421 186.429 17.3533 186.429 17.2518C186.938 16.9474 187.244 16.5753 187.413 16.1356C187.481 15.8311 187.549 15.459 187.549 15.0531V14.0721C187.549 14.0721 187.617 13.8692 187.753 13.8692L187.719 13.9368ZM187.99 9.09961C187.99 9.09961 188.092 9.09961 188.126 9.16726C188.499 9.74232 188.872 10.2159 189.246 10.6218C189.313 10.588 189.381 10.5542 189.415 10.4865C189.687 10.3174 189.924 10.1482 190.162 9.94528C190.365 9.74232 190.535 9.50553 190.671 9.26874C190.705 9.23492 190.739 9.20109 190.773 9.20109L191.689 9.8438C191.689 9.8438 191.892 10.0129 191.892 10.1482C191.892 10.2159 191.825 10.2835 191.689 10.2835C191.587 10.2835 191.485 10.2835 191.417 10.385C190.908 10.7909 190.433 11.1292 190.026 11.3998C190.399 11.7381 190.807 12.0425 191.18 12.2793C191.282 12.2117 191.349 12.144 191.451 12.0764C191.723 11.9072 191.994 11.7043 192.232 11.4675C192.435 11.2307 192.605 10.9939 192.775 10.7571C192.809 10.6895 192.843 10.6556 192.876 10.6556L193.759 11.2983C193.759 11.2983 193.962 11.4675 193.962 11.6028C193.962 11.7043 193.894 11.7381 193.759 11.7381C193.657 11.7381 193.555 11.7719 193.487 11.8396C193.046 12.2455 192.639 12.5499 192.232 12.8205C192.571 12.9897 192.944 13.1588 193.284 13.2941C193.827 13.4971 194.403 13.7 195.048 13.8692C195.048 13.9706 195.014 14.0383 194.912 14.0721C194.743 14.2413 194.573 14.4442 194.437 14.6472C194.403 14.7148 194.302 14.7487 194.166 14.7487C193.385 14.5457 192.605 14.2413 191.825 13.8692C191.214 13.5309 190.637 13.1926 190.06 12.7867C189.551 12.4146 189.042 11.9749 188.533 11.4675C188.058 10.9601 187.583 10.2835 187.074 9.50553C187.074 9.43788 187.379 9.30257 188.024 9.09961H187.99ZM188.16 19.7212C188.262 19.958 188.363 20.1609 188.465 20.3639C188.669 20.7698 188.974 21.1757 189.347 21.514C189.551 21.7169 189.755 21.8861 189.992 22.0552C190.196 21.8861 190.399 21.7169 190.569 21.514C190.874 21.1757 191.146 20.7698 191.349 20.3301C191.451 20.1609 191.553 19.958 191.655 19.7212H188.16Z" fill="white"/>
<path d="M198.849 13.1586V14.7484C198.849 16.0339 198.815 17.1163 198.713 18.0635H202.276V16.3045H199.901C199.901 16.3045 199.697 16.203 199.697 16.0339V15.4926C199.697 15.3235 199.765 15.222 199.901 15.222H202.276V13.9028C202.276 13.9028 202.378 13.6998 202.547 13.6998C203.396 13.6998 203.837 13.7675 203.837 13.9028C203.837 14.0719 203.769 14.1396 203.667 14.1734C203.565 14.1734 203.498 14.3087 203.498 14.5117V15.2558H206.891V13.9366C206.891 13.9366 206.993 13.7336 207.162 13.7336C208.011 13.7336 208.452 13.8013 208.452 13.9366C208.452 14.1057 208.384 14.1734 208.282 14.2072C208.18 14.2072 208.112 14.3425 208.112 14.5455V15.2897H210.759C210.759 15.2897 210.963 15.3912 210.963 15.5603V16.1015C210.963 16.2706 210.895 16.3721 210.759 16.3721H208.112V18.1311H211.574C211.574 18.1311 211.777 18.2326 211.777 18.4017V18.943C211.777 19.1121 211.709 19.2136 211.574 19.2136H206.043C206.314 19.7548 206.552 20.1607 206.789 20.4651C207.094 20.9049 207.468 21.3446 207.943 21.7167C207.943 21.7167 207.977 21.7506 208.011 21.7844C208.723 21.277 209.334 20.7696 209.843 20.296C209.945 20.1945 210.047 20.1607 210.148 20.1607C210.216 20.1607 210.284 20.1945 210.386 20.296C211.031 20.7696 211.37 21.0402 211.37 21.1755C211.37 21.3108 211.302 21.3785 211.166 21.3785L210.759 21.3108C210.759 21.3108 210.522 21.3785 210.352 21.4799C209.945 21.7506 209.47 22.0888 208.893 22.4947C208.995 22.5624 209.097 22.6301 209.198 22.6977C209.606 22.9007 210.081 23.1375 210.59 23.3404C210.827 23.4081 211.133 23.4757 211.472 23.5772C211.574 23.5772 211.642 23.5772 211.642 23.6787C211.642 23.7802 211.574 23.8478 211.472 23.9155C211.302 24.1184 211.133 24.3214 210.963 24.5243C210.895 24.6258 210.793 24.6597 210.691 24.6597C209.877 24.389 209.164 24.0846 208.52 23.7125C207.977 23.3742 207.502 23.036 207.162 22.7315C206.687 22.3256 206.314 21.852 205.975 21.3446C205.601 20.8034 205.194 20.1269 204.787 19.2812H202.615V22.7654C203.667 22.5962 204.685 22.4271 205.635 22.2241C205.635 22.2241 205.703 22.2241 205.737 22.2241C205.805 22.2241 205.873 22.258 205.873 22.3594C205.873 22.9007 205.873 23.2051 205.805 23.2728C203.939 23.611 202.038 23.9493 200.104 24.2199C199.935 24.5243 199.799 24.6935 199.697 24.6935C199.595 24.6935 199.358 24.2199 199.018 23.3066C199.697 23.2389 200.511 23.1375 201.394 23.0021V19.3489H198.577C198.577 19.518 198.543 19.6871 198.509 19.8224C198.374 20.8034 198.102 21.8182 197.695 22.7992C197.491 23.4081 197.186 23.9831 196.779 24.5243C196.711 24.5243 196.643 24.5243 196.609 24.4905C196.439 24.3214 196.202 24.1523 195.998 24.0169C195.93 23.9493 195.896 23.8816 195.896 23.7802C196.236 23.2728 196.541 22.5962 196.813 21.7167C197.084 20.8034 197.288 19.8224 197.39 18.8076C197.525 17.759 197.593 16.4736 197.593 14.9514V9.91124C197.593 9.74211 197.695 9.64062 197.865 9.64062H210.522C210.691 9.64062 210.793 9.70828 210.793 9.84359V13.0909C210.793 13.2601 210.691 13.3616 210.522 13.3616H198.781L198.849 13.1586ZM198.849 10.4863V12.0761H209.639V10.4863H198.849ZM203.531 18.0635H206.925V16.3045H203.531V18.0635Z" fill="white"/>
<path d="M213.678 13.159H215.51V9.20128C215.51 9.20128 215.612 8.99832 215.781 8.99832C216.63 8.99832 217.071 9.06597 217.071 9.20128C217.071 9.33658 217.003 9.43806 216.901 9.47189C216.799 9.47189 216.732 9.6072 216.732 9.81016V13.1928H218.7C218.7 13.1928 218.903 13.2943 218.903 13.4634V14.0047C218.903 14.1738 218.835 14.2753 218.7 14.2753H216.732V24.1527C216.732 24.1527 216.63 24.3556 216.46 24.3556H215.781C215.612 24.3556 215.51 24.288 215.51 24.1527V14.2753H213.678C213.678 14.2753 213.474 14.1738 213.474 14.0047V13.4634C213.474 13.2943 213.542 13.1928 213.678 13.1928V13.159ZM217.885 17.4888H219.446C219.446 17.1505 219.446 16.7784 219.446 16.4064C219.446 16.3049 219.48 16.2372 219.582 16.2372L220.77 16.3387C220.77 16.3387 220.939 16.4064 220.939 16.5078C220.939 16.6431 220.871 16.7784 220.736 16.8461C220.634 16.8461 220.6 16.9138 220.6 17.0152C220.6 17.1844 220.6 17.3535 220.6 17.5226H222.941C222.941 17.5226 223.145 17.6241 223.145 17.7932C223.145 19.5522 223.077 20.8038 222.975 21.5818C222.874 22.4951 222.704 23.2055 222.534 23.6452C222.365 24.1188 221.889 24.3894 221.143 24.3894C220.532 24.3894 220.227 24.2541 220.193 24.0173C220.159 23.7467 220.023 23.4085 219.82 23.0364V22.9011C220.295 23.0364 220.736 23.104 221.109 23.104C221.414 23.104 221.584 22.9349 221.652 22.6305C221.754 22.3598 221.822 21.8863 221.889 21.1421C221.957 20.6009 221.991 19.7552 222.025 18.6051H220.566C220.532 19.3154 220.464 19.9243 220.362 20.4317C220.193 21.3112 219.989 22.0554 219.684 22.6305C219.378 23.2393 219.005 23.8144 218.496 24.3218C218.36 24.3218 218.225 24.3218 218.157 24.288C217.953 24.1527 217.716 24.0512 217.512 23.9159C217.41 23.9159 217.342 23.8482 217.342 23.7806C217.342 23.7467 217.342 23.7129 217.41 23.6452C217.953 23.1717 218.394 22.5628 218.7 21.8186C219.005 21.1083 219.209 20.3641 219.311 19.5522C219.344 19.2816 219.378 18.9772 219.412 18.6051H217.885C217.885 18.6051 217.682 18.5036 217.682 18.3345V17.7932C217.682 17.6241 217.75 17.5226 217.885 17.5226V17.4888ZM219.582 10.5205H222.874C222.907 10.1146 222.941 9.64102 222.941 9.16745C222.941 8.99832 223.009 8.93066 223.179 8.93066L224.333 9.03214C224.57 9.03214 224.672 9.0998 224.672 9.26893C224.672 9.47189 224.604 9.57337 224.434 9.6072C224.265 9.6072 224.197 9.7425 224.197 9.94546C224.197 10.1484 224.197 10.3514 224.129 10.5543H227.862C227.862 10.5543 228.065 10.6558 228.065 10.825C228.065 12.1442 227.963 13.0913 227.828 13.6664C227.692 14.3429 227.488 14.8503 227.217 15.1886C226.979 15.5607 226.335 15.7298 225.283 15.7298C224.536 15.7298 224.163 15.5945 224.163 15.3577C224.129 15.0533 223.959 14.715 223.722 14.3429V14.2076C224.299 14.3768 224.808 14.4782 225.283 14.4782C225.792 14.4782 226.131 14.3768 226.301 14.14C226.47 13.937 226.606 13.5987 226.742 13.0575C226.81 12.7531 226.878 12.2457 226.945 11.603H224.027C223.959 11.9751 223.858 12.3133 223.722 12.5839C223.416 13.3958 223.009 14.0385 222.5 14.4782C221.957 15.0195 221.279 15.4592 220.464 15.7636C220.362 15.7636 220.261 15.7636 220.227 15.6622C220.057 15.5269 219.853 15.3577 219.65 15.2224C219.548 15.1209 219.48 15.0533 219.48 14.9856C219.48 14.918 219.548 14.8503 219.684 14.8165C220.43 14.4782 220.973 14.1061 221.347 13.734C221.788 13.362 222.127 12.9222 222.365 12.381C222.5 12.1104 222.602 11.8398 222.704 11.5015H219.616C219.616 11.5015 219.412 11.4 219.412 11.2309V10.6896C219.412 10.5205 219.48 10.419 219.616 10.419L219.582 10.5205ZM224.129 17.4888H225.452C225.452 17.1505 225.452 16.7784 225.452 16.4064C225.452 16.3049 225.52 16.2372 225.622 16.2372L226.81 16.3387C226.81 16.3387 226.979 16.4064 226.979 16.5078C226.979 16.6431 226.912 16.7784 226.776 16.8461C226.674 16.8461 226.606 16.9138 226.606 17.0152C226.606 17.1844 226.606 17.3535 226.606 17.5226H229.015C229.015 17.5226 229.219 17.6241 229.219 17.7932C229.219 19.5522 229.151 20.8038 229.015 21.5818C228.914 22.4951 228.744 23.2055 228.506 23.6452C228.303 24.1188 227.76 24.3894 226.912 24.3894C226.335 24.3894 226.063 24.2541 226.029 24.0173C225.995 23.7467 225.894 23.4085 225.69 23.0364V22.9011C226.131 23.0364 226.538 23.104 226.912 23.104C227.285 23.104 227.522 22.9349 227.624 22.6305C227.76 22.3598 227.862 21.8863 227.93 21.1421C227.997 20.6009 228.065 19.7552 228.099 18.6051H226.538C226.504 19.3154 226.436 19.9243 226.335 20.4317C226.165 21.345 225.894 22.0892 225.588 22.6643C225.249 23.307 224.808 23.882 224.299 24.3894C224.163 24.3894 224.027 24.3894 223.959 24.3556C223.756 24.2203 223.518 24.1188 223.315 23.9835C223.213 23.9835 223.145 23.9159 223.145 23.8482C223.145 23.8144 223.145 23.7806 223.213 23.7129C223.824 23.2393 224.299 22.6305 224.604 21.8863C224.943 21.1759 225.147 20.4317 225.249 19.5861C225.283 19.3154 225.317 18.9772 225.351 18.6051H224.061C224.061 18.6051 223.858 18.5036 223.858 18.3345V17.7932C223.858 17.6241 223.925 17.5226 224.061 17.5226L224.129 17.4888Z" fill="white"/>
<path d="M238.924 8.5918L240.247 9.2345C240.247 9.2345 240.417 9.40364 240.417 9.47129C240.417 9.6066 240.315 9.67425 240.078 9.67425C240.044 9.67425 239.976 9.67425 239.942 9.67425C240.621 10.2155 241.265 10.6552 241.808 10.9597C242.657 11.4332 243.471 11.8392 244.285 12.1774C245.202 12.5495 246.118 12.7863 247 12.9216C247 12.9893 246.966 13.0569 246.864 13.0907C246.525 13.3614 246.287 13.5981 246.152 13.7673C246.118 13.8349 246.05 13.8688 245.914 13.8688C244.726 13.5643 243.607 13.1246 242.521 12.5833V13.0231C242.521 13.1922 242.487 13.2937 242.385 13.2937H235.463C235.463 13.2937 235.327 13.1922 235.327 13.0231V12.4819C234.682 12.7863 234.038 13.0907 233.427 13.3614C232.748 13.632 232.171 13.8349 231.73 13.9702C231.628 13.9702 231.526 13.9026 231.459 13.8011C231.323 13.5305 231.119 13.3275 230.916 13.1584C230.78 13.0907 230.712 13.0231 230.712 12.9554C230.712 12.9216 230.746 12.8878 230.848 12.8878C231.832 12.651 232.646 12.3804 233.291 12.1436C234.173 11.8053 235.089 11.3656 235.972 10.8582C236.582 10.5199 237.058 10.1816 237.465 9.87721C237.906 9.53894 238.279 9.16685 238.618 8.76093C238.754 8.65945 238.856 8.62562 238.958 8.62562L238.924 8.5918ZM233.019 14.1055H244.828C244.998 14.1055 245.1 14.1732 245.1 14.3085V17.8941C245.1 17.8941 244.998 18.0971 244.828 18.0971H233.019C232.85 18.0971 232.748 18.0294 232.748 17.8941V14.3085C232.748 14.3085 232.85 14.1055 233.019 14.1055ZM235.734 17.0823C235.734 17.0823 235.666 16.8455 235.598 16.744C235.463 16.3381 235.259 15.8984 235.055 15.4924C235.055 15.4248 235.259 15.3233 235.666 15.1203H233.97V17.1161H235.734V17.0823ZM234.241 18.7398H243.607C243.776 18.7398 243.878 18.8074 243.878 18.9427V24.2535C243.878 24.2535 243.776 24.4565 243.607 24.4565H242.928C242.758 24.4565 242.657 24.3888 242.657 24.2535V23.9153H235.157V24.2535C235.157 24.2535 235.056 24.4565 234.886 24.4565H234.207C234.037 24.4565 233.936 24.3888 233.936 24.2535V18.9427C233.936 18.9427 234.037 18.7398 234.207 18.7398H234.241ZM235.191 20.9385H242.69V19.7546H235.191V20.9385ZM235.191 22.9343H242.69V21.7842H235.191V22.9343ZM235.666 12.2451H241.944C241.944 12.2451 241.706 12.1098 241.571 12.0083C240.892 11.67 240.01 11.0273 238.89 10.114C238.313 10.5876 237.77 10.9597 237.227 11.2979C236.786 11.6024 236.243 11.9068 235.632 12.2451H235.666ZM238.245 17.0823V15.0865H236.006C236.243 15.4924 236.413 15.8645 236.549 16.2028C236.65 16.4734 236.752 16.7778 236.854 17.0823H238.211H238.245ZM240.994 17.0823C241.163 16.7778 241.299 16.4734 241.401 16.2366C241.571 15.8645 241.672 15.4924 241.74 15.1203L239.433 15.0865V17.0823H240.994ZM243.878 17.0823V15.0865H242.181L242.758 15.3233C242.758 15.3233 242.996 15.4586 242.996 15.5601C242.996 15.6277 242.996 15.6954 242.894 15.7292C242.792 15.7292 242.758 15.763 242.724 15.8984C242.589 16.3719 242.453 16.7778 242.317 17.1161H243.878V17.0823Z" fill="white"/>
</g>
<defs>
<clipPath id="clip0_173_839">
<rect width="247" height="32" fill="white"/>
</clipPath>
</defs>
</svg>
