<?xml version="1.0" encoding="UTF-8"?>
<svg id="_圖層_1" data-name="圖層_1" xmlns="http://www.w3.org/2000/svg" version="1.1" viewBox="0 0 573.2 237.1">
  <!-- Generator: Adobe Illustrator 30.5.1, SVG Export Plug-In . SVG Version: 2.1.4 Build 3)  -->
  <defs>
    <style>
      .st0 {
        fill: #fff;
      }
    </style>
  </defs>
  <g>
    <path class="st0" d="M7.2,37.9H0L13.1,4.8C14.5,1.3,17,0,20.9,0s6.4,1.3,7.7,4.8l12.6,33.1h-7.2l-11.3-29.9c-.3-.9-.9-1.3-1.8-1.3s-1.5.4-1.9,1.3l-11.8,29.9h0Z"/>
    <path class="st0" d="M70.5,37.9h-6.5V8.1c0-4.9,2.8-8.1,8.5-8.1s7.5,2.6,9,6.9l10.9,23.8c.4.9,1.2,1.5,2.4,1.5s2.2-.8,2.2-2.1V.7h6.6v29.7c0,4.9-2.8,8.2-8.5,8.2s-7.6-2.6-9.1-6.9l-10.9-23.8c-.5-1.1-1.2-1.6-2.3-1.6s-2.3.8-2.3,2.2v29.4h0Z"/>
    <path class="st0" d="M132.4,8.8c6.9,0,9.8,3.3,9.8,8.9s-2.7,8.4-9.9,8.4h-13.8v2.1c0,2.3,1.3,4,4.5,4h17.8v5.7h-17.8c-7.3,0-10.1-4.1-10.1-9.6v-9.9c0-5.5,2.9-9.6,10.1-9.6,0,0,9.4,0,9.4,0ZM118.5,21.5h13.7c3.1,0,4.3-1.3,4.3-3.5s-1.3-3.6-4.1-3.6h-9.4c-3.2,0-4.5,1.8-4.5,4v3.1Z"/>
    <path class="st0" d="M153.5,8.8l2.6,22.7c.2,1.3.7,1.9,2.1,1.9s1.9-.6,2.2-1.6l4.1-17.6c.9-3.9,3.4-5.9,8-5.9s6.9,2,7.8,5.9l3.9,17.6c.2,1,.9,1.6,2.2,1.6s1.8-.6,2-1.9l3-22.7h6.3l-3.3,23.1c-.6,4-2.9,6.7-8.2,6.7s-6.9-2-7.8-6l-3.9-17.7c-.2-1-1-1.4-2.2-1.4s-1.9.4-2.2,1.4l-4.1,17.7c-.9,4-3.4,6-8.1,6s-7.3-2.7-7.9-6.7l-3-23.1h6.5Z"/>
    <path class="st0" d="M250.8.7v6.5h-18.6c-3.9,0-5.6,1.8-5.6,4.7s1.9,4.4,5.7,4.4h18.3v5.9h-18.5c-3.8,0-5.7,1.5-5.7,4.5s1.8,4.7,5.6,4.7h18.9v6.5h-18.9c-8.8,0-12.4-4.4-12.4-10.1s1.9-7.1,5.3-8.5c-3.5-1.4-5.2-4.3-5.2-8.4,0-6,3.7-10.1,12.5-10.1h18.6Z"/>
    <path class="st0" d="M280.1,8.8v5.6h-10.3c-2.6,0-3.8,1.2-3.8,3.7v19.7h-5.8v-20.6c0-5.8,2.2-8.5,7.9-8.5h12,0Z"/>
    <path class="st0" d="M305.7,8.8c7.3,0,10.1,4.1,10.1,9.6v13.7c0,4.2-1.1,5.8-6,5.8h-13.6c-6.9,0-9.8-3.4-9.8-8.9s2.6-8.4,9.8-8.4h13.8v-2.2c0-2.3-1.3-4-4.5-4h-17.4v-5.6h17.6ZM310.1,30.7v-5.5h-13.7c-3.1,0-4.2,1.3-4.2,3.4s1.2,3.5,4.1,3.5h12.2c1.2,0,1.6-.4,1.6-1.5h0Z"/>
  </g>
  <g>
    <path class="st0" d="M18.7,74.9c7.7,0,12.6,4.7,12.6,14.6s-4.9,14.6-12.6,14.6h-6.1c-7.8,0-12.6-4.7-12.6-14.6s4.9-14.6,12.6-14.6h6.1ZM13.2,80.6c-5.1,0-7.3,2.6-7.3,8.9s2.2,8.9,7.3,8.9h5c5,0,7.3-2.6,7.3-8.9s-2.3-8.9-7.3-8.9h-5Z"/>
    <path class="st0" d="M40.7,74.9v-2.6c0-7.6,2.6-10,8.6-10h5.2v5.3h-4c-2.8,0-3.9,1.1-3.9,4.4v2.9h8.1v5.6h-8.1v23.5h-5.9v-23.5h-4v-5.6s4,0,4,0Z"/>
    <path class="st0" d="M81.6,104.1h-7.2l13.1-33.1c1.4-3.5,3.9-4.8,7.8-4.8s6.4,1.3,7.7,4.8l12.6,33.1h-7.2l-11.3-29.9c-.3-.9-.9-1.3-1.8-1.3s-1.5.4-1.9,1.3l-11.8,29.9h0Z"/>
    <path class="st0" d="M128.9,66.8v37.2h-6.5v-37.2h6.5Z"/>
    <path class="st0" d="M161.7,66.8v15.2h19v-15.2h6.6v37.2h-6.6v-15.6h-19v15.6h-6.5v-37.2h6.5Z"/>
    <path class="st0" d="M216.1,74.9c6.9,0,9.8,3.3,9.8,8.9s-2.7,8.4-9.9,8.4h-13.8v2.1c0,2.3,1.3,4,4.5,4h17.8v5.7h-17.8c-7.3,0-10.1-4.1-10.1-9.6v-9.9c0-5.5,2.9-9.6,10.1-9.6h9.4ZM202.3,87.7h13.7c3.1,0,4.3-1.3,4.3-3.5s-1.3-3.6-4.1-3.6h-9.4c-3.2,0-4.5,1.8-4.5,4v3.1Z"/>
    <path class="st0" d="M253,74.9c7.3,0,10.1,4.1,10.1,9.6v13.7c0,4.2-1.1,5.8-6,5.8h-13.6c-6.9,0-9.8-3.4-9.8-8.9s2.6-8.4,9.8-8.4h13.8v-2.2c0-2.3-1.3-4-4.5-4h-17.4v-5.6h17.6ZM257.5,96.9v-5.5h-13.7c-3.1,0-4.2,1.3-4.2,3.4s1.2,3.5,4.1,3.5h12.2c1.2,0,1.6-.4,1.6-1.5h0Z"/>
    <path class="st0" d="M278.6,62.3v41.7h-5.8v-41.7h5.8Z"/>
    <path class="st0" d="M289.3,74.9v-6.9h5.9v6.9h8.1v5.6h-8.1v13.8c0,3.3,1.2,4.4,3.9,4.4h4v5.3h-5.2c-6,0-8.6-2.4-8.6-10v-13.5h-4v-5.6h4Z"/>
    <path class="st0" d="M316,62.3v12.6h10.3c9.8,0,14.7,4.7,14.7,12.7v16.4h-5.9v-16.4c0-4.5-2.7-7.1-8.8-7.1h-10.3v23.5h-5.8v-41.7h5.8,0Z"/>
    <path class="st0" d="M376.7,74.9v5.6h-14.4c-5.1,0-7.3,2.6-7.3,8.9s2.2,8.9,7.3,8.9h14.4v5.7h-15c-7.8,0-12.6-4.7-12.6-14.6s4.9-14.6,12.6-14.6h15Z"/>
    <path class="st0" d="M403.5,74.9c7.3,0,10.1,4.1,10.1,9.6v13.7c0,4.2-1.1,5.8-6,5.8h-13.6c-6.9,0-9.8-3.4-9.8-8.9s2.6-8.4,9.8-8.4h13.8v-2.2c0-2.3-1.3-4-4.5-4h-17.4v-5.6h17.6ZM407.9,96.9v-5.5h-13.7c-3.1,0-4.2,1.3-4.2,3.4s1.2,3.5,4.1,3.5h12.2c1.2,0,1.6-.4,1.6-1.5h0Z"/>
    <path class="st0" d="M443,74.9v5.6h-10.3c-2.6,0-3.8,1.2-3.8,3.8v19.7h-5.8v-20.6c0-5.8,2.2-8.5,7.9-8.5h12,0Z"/>
    <path class="st0" d="M469,74.9c6.9,0,9.8,3.3,9.8,8.9s-2.7,8.4-9.9,8.4h-13.8v2.1c0,2.3,1.3,4,4.5,4h17.8v5.7h-17.8c-7.3,0-10.1-4.1-10.1-9.6v-9.9c0-5.5,2.9-9.6,10.1-9.6h9.4ZM455.1,87.7h13.7c3.1,0,4.3-1.3,4.3-3.5s-1.3-3.6-4.1-3.6h-9.4c-3.2,0-4.5,1.8-4.5,4v3.1Z"/>
    <path class="st0" d="M493.7,75.7v7.5h-6.3v-7.5h6.3ZM493.7,96.6v7.5h-6.3v-7.5h6.3Z"/>
  </g>
  <g>
    <path class="st0" d="M31.2,133v6.5h-14.4c-7.2,0-10.3,3.6-10.3,12.1s3.1,12.1,10.3,12.1h14.4v6.5h-14.4c-10.9,0-16.8-6.1-16.8-18.6s6-18.6,16.8-18.6h14.4Z"/>
    <path class="st0" d="M57.3,141.1c7.7,0,12.6,4.7,12.6,14.6s-4.9,14.6-12.6,14.6h-6.1c-7.8,0-12.6-4.7-12.6-14.6s4.9-14.6,12.6-14.6c0,0,6.1,0,6.1,0ZM51.7,146.7c-5.1,0-7.3,2.6-7.3,8.9s2.2,8.9,7.3,8.9h5c5,0,7.3-2.6,7.3-8.9s-2.3-8.9-7.3-8.9h-5Z"/>
    <path class="st0" d="M94.3,141.1c9.9,0,14.7,4.7,14.7,12.7v16.4h-5.9v-16.4c0-4.6-2.6-7.1-8.8-7.1h-9.5c-.5,0-.7.3-.7.8v22.7h-5.8v-24.6c0-3.4,1.2-4.5,4.1-4.5h12,0Z"/>
    <path class="st0" d="M134.6,141.1c9.9,0,14.7,4.7,14.7,12.7v16.4h-5.9v-16.4c0-4.6-2.6-7.1-8.8-7.1h-9.5c-.5,0-.7.3-.7.8v22.7h-5.8v-24.6c0-3.4,1.2-4.5,4.1-4.5h12-.1Z"/>
    <path class="st0" d="M177.7,141.1c6.9,0,9.8,3.3,9.8,8.9s-2.7,8.4-9.9,8.4h-13.8v2.1c0,2.3,1.3,4,4.5,4h17.8v5.7h-17.8c-7.3,0-10.1-4.1-10.1-9.6v-9.9c0-5.5,2.9-9.6,10.1-9.6h9.4ZM163.8,153.9h13.7c3.1,0,4.3-1.3,4.3-3.5s-1.3-3.6-4.1-3.6h-9.4c-3.2,0-4.5,1.8-4.5,4v3.1Z"/>
    <path class="st0" d="M222.2,141.1v5.6h-14.4c-5.1,0-7.3,2.6-7.3,8.9s2.2,8.9,7.3,8.9h14.4v5.7h-15c-7.8,0-12.6-4.7-12.6-14.6s4.9-14.6,12.6-14.6h15Z"/>
    <path class="st0" d="M231.4,141.1v-6.9h5.9v6.9h8.1v5.6h-8.1v13.8c0,3.3,1.2,4.4,3.9,4.4h4v5.3h-5.2c-6,0-8.6-2.4-8.6-10v-13.5h-4v-5.6h4Z"/>
    <path class="st0" d="M258.2,130.1v6.8h-5.9v-6.8h5.9ZM258.2,141.1v29.1h-5.8v-29.1h5.8Z"/>
    <path class="st0" d="M283.9,141.1c9.9,0,14.7,4.7,14.7,12.7v16.4h-5.9v-16.4c0-4.6-2.6-7.1-8.8-7.1h-9.5c-.5,0-.7.3-.7.8v22.7h-5.8v-24.6c0-3.4,1.2-4.5,4.1-4.5h12-.1Z"/>
    <path class="st0" d="M327.4,141.1c6.9,0,10.7,4.1,10.7,12.5v16.8c0,8.3-2.9,11.5-11,11.5h-17.3v-5.6h16.7c4.4,0,5.8-1.7,5.8-5.9v-1.3h-12.8c-7.8,0-12.6-4.6-12.6-14s4.9-13.9,12.6-13.9h8.1-.2ZM319.9,163.7h12.3v-10.2c0-4.7-1.8-6.8-6.5-6.8h-5.8c-5,0-7.3,2.5-7.3,8.5s2.3,8.5,7.3,8.5Z"/>
    <path class="st0" d="M389.2,133v6.5h-10.9v30.7h-6.6v-30.7h-10.9v-6.5h28.4Z"/>
    <path class="st0" d="M413.8,141.1c7.3,0,10.1,4.1,10.1,9.6v13.7c0,4.2-1.1,5.8-6,5.8h-13.6c-6.9,0-9.8-3.4-9.8-8.9s2.6-8.4,9.8-8.4h13.8v-2.2c0-2.3-1.3-4-4.5-4h-17.4v-5.6h17.6ZM418.2,163.1v-5.5h-13.7c-3.1,0-4.2,1.3-4.2,3.4s1.2,3.5,4.1,3.5h12.2c1.2,0,1.6-.4,1.6-1.5h0Z"/>
    <path class="st0" d="M439.4,130.1v6.8h-5.9v-6.8h5.9ZM439.3,141.1v29.1h-5.8v-29.1h5.8Z"/>
    <path class="st0" d="M452.8,141.1l2.6,22.7c.2,1.3.7,1.9,2.1,1.9s1.9-.6,2.2-1.6l4.1-17.6c.9-3.9,3.4-5.9,8-5.9s6.9,2,7.8,5.9l3.9,17.6c.2,1,.9,1.6,2.2,1.6s1.8-.6,2-1.9l3-22.7h6.3l-3.3,23.1c-.6,4-2.9,6.7-8.2,6.7s-6.9-2-7.8-6l-3.9-17.7c-.2-1-1-1.4-2.2-1.4s-1.9.4-2.2,1.4l-4.1,17.7c-.9,4-3.4,6-8.1,6s-7.3-2.7-7.9-6.7l-3-23.1h6.5Z"/>
    <path class="st0" d="M522.8,141.1c7.3,0,10.1,4.1,10.1,9.6v13.7c0,4.2-1.1,5.8-6,5.8h-13.6c-6.9,0-9.8-3.4-9.8-8.9s2.6-8.4,9.8-8.4h13.8v-2.2c0-2.3-1.3-4-4.5-4h-17.4v-5.6h17.6ZM527.2,163.1v-5.5h-13.7c-3.1,0-4.2,1.3-4.2,3.4s1.2,3.5,4.1,3.5h12.2c1.2,0,1.6-.4,1.6-1.5h0Z"/>
    <path class="st0" d="M558.5,141.1c9.9,0,14.7,4.7,14.7,12.7v16.4h-5.9v-16.4c0-4.6-2.6-7.1-8.8-7.1h-9.5c-.5,0-.7.3-.7.8v22.7h-5.8v-24.6c0-3.4,1.2-4.5,4.1-4.5h12,0Z"/>
  </g>
  <g>
    <path class="st0" d="M4,207.3v-6.9h5.9v6.9h8.1v5.6h-8.1v13.8c0,3.3,1.2,4.4,3.9,4.4h4v5.3h-5.2c-6,0-8.6-2.4-8.6-10v-13.5H0v-5.6h4Z"/>
    <path class="st0" d="M42.2,207.3c7.7,0,12.6,4.7,12.6,14.6s-4.9,14.6-12.6,14.6h-6.1c-7.8,0-12.6-4.7-12.6-14.6s4.9-14.6,12.6-14.6h6.1ZM36.7,212.9c-5.1,0-7.3,2.6-7.3,8.9s2.2,8.9,7.3,8.9h5c5,0,7.3-2.6,7.3-8.9s-2.3-8.9-7.3-8.9h-5Z"/>
    <path class="st0" d="M80.2,207.3v-6.9h5.9v6.9h8.1v5.6h-8.1v13.8c0,3.3,1.2,4.4,3.9,4.4h4v5.3h-5.2c-6,0-8.6-2.4-8.6-10v-13.5h-4v-5.6h4Z"/>
    <path class="st0" d="M106.9,194.7v12.6h10.3c9.8,0,14.7,4.7,14.7,12.7v16.4h-5.9v-16.4c0-4.5-2.7-7.1-8.8-7.1h-10.3v23.5h-5.8v-41.7h5.8,0Z"/>
    <path class="st0" d="M160.3,207.3c6.9,0,9.8,3.3,9.8,8.9s-2.7,8.4-9.9,8.4h-13.8v2.1c0,2.3,1.3,4,4.5,4h17.8v5.7h-17.8c-7.3,0-10.1-4.1-10.1-9.6v-9.9c0-5.5,2.9-9.6,10.1-9.6h9.4ZM146.4,220h13.7c3.1,0,4.3-1.3,4.3-3.5s-1.3-3.6-4.1-3.6h-9.4c-3.2,0-4.5,1.8-4.5,4v3.1Z"/>
    <path class="st0" d="M198.3,199.2l11.1,30c.4.9,1,1.5,2,1.5s1.9-.8,1.9-2.1v-22c0-4.9,2.8-8.1,8.2-8.1s7.4,2.6,8.8,6.9l9,23.8c.3.9,1.1,1.5,2,1.5s1.9-.8,1.9-2.1v-29.4h6.6v29.7c0,4.9-2.8,8.2-8.3,8.2s-7.3-2.6-8.8-6.9l-9-23.8c-.3-.9-1.1-1.6-2.1-1.6s-1.9.8-1.9,2.2v21.9c0,4.9-2.8,8.2-8.3,8.2s-7.3-2.6-8.8-6.9l-11.5-31h7.2Z"/>
    <path class="st0" d="M277.3,207.3c7.7,0,12.6,4.7,12.6,14.6s-4.9,14.6-12.6,14.6h-6.1c-7.8,0-12.6-4.7-12.6-14.6s4.9-14.6,12.6-14.6h6.1ZM271.7,212.9c-5.1,0-7.3,2.6-7.3,8.9s2.2,8.9,7.3,8.9h5c5,0,7.3-2.6,7.3-8.9s-2.3-8.9-7.3-8.9h-5Z"/>
    <path class="st0" d="M318,207.3v5.6h-10.3c-2.6,0-3.8,1.2-3.8,3.8v19.7h-5.8v-20.6c0-5.8,2.2-8.5,7.9-8.5h12Z"/>
    <path class="st0" d="M330.9,194.7v41.7h-5.8v-41.7h5.8Z"/>
    <path class="st0" d="M370.5,194.7v29.3c0,8.4-3.8,12.5-10.7,12.5h-8.1c-7.8,0-12.6-4.7-12.6-14.6s4.9-14.6,12.6-14.6h12.8v-12.6h6ZM364.6,223.7v-10.8h-12.3c-5,0-7.3,2.6-7.3,8.9s2.3,8.9,7.3,8.9h5.8c4.7,0,6.5-2.1,6.5-7.1h0Z"/>
  </g>
</svg>