<?xml version="1.0" encoding="UTF-8"?>
<svg id="_圖層_1" xmlns="http://www.w3.org/2000/svg" xmlns:xlink="http://www.w3.org/1999/xlink" version="1.1" viewBox="0 0 374.8 202.8">
  <!-- Generator: Adobe Illustrator 30.5.1, SVG Export Plug-In . SVG Version: 2.1.4 Build 3)  -->
  <defs>
    <style>
      .st0 {
        fill: none;
      }

      .st1, .st2, .st3 {
        fill: #fff;
      }

      .st4, .st3 {
        opacity: .5;
      }

      .st5 {
        clip-path: url(#clippath);
      }

      .st2 {
        opacity: .6;
      }

      .st2, .st3 {
        isolation: isolate;
      }
    </style>
    <clipPath id="clippath">
      <path class="st0" d="M16.6,116.8c-7.5,0-13.7-6.1-13.7-13.7s6.1-13.7,13.7-13.7,13.7,6.1,13.7,13.7-6.1,13.7-13.7,13.7Z"/>
    </clipPath>
  </defs>
  <path class="st3" d="M16.2,29.3c7.3,0,13.3-5.9,13.3-13.3S23.5,2.8,16.2,2.8,2.9,8.7,2.9,16.1s5.9,13.3,13.3,13.3h0Z"/>
  <path class="st1" d="M16.2,29.8c-7.5,0-13.7-6.1-13.7-13.7S8.8,2.4,16.2,2.4s13.7,6.1,13.7,13.7-6.1,13.7-13.7,13.7ZM16.2,3.2c-7.1,0-12.8,5.8-12.8,12.9s5.8,12.9,12.9,12.9,12.9-5.8,12.9-12.9S23.3,3.2,16.2,3.2Z"/>
  <path class="st3" d="M17.1,10.1l.8,2.9,3-.7c.9-.2,1.6.9.9,1.6l-2.1,2.2,2.1,2.2c.7.7,0,1.8-.9,1.6l-3-.7-.8,2.9c-.3.9-1.6.9-1.8,0l-.8-2.9-3,.7c-.9.2-1.6-.9-.9-1.6l2.1-2.2-2.1-2.2c-.7-.7,0-1.8.9-1.6l3,.7.8-2.9c.3-.9,1.6-.9,1.8,0Z"/>
  <g class="st5">
    <g>
      <path class="st3" d="M16.7,116.4c7.3,0,13.3-5.9,13.3-13.3s-5.9-13.3-13.3-13.3-13.3,5.9-13.3,13.3,5.9,13.3,13.3,13.3Z"/>
      <g class="st4">
        <path class="st2" d="M10.9,89.1L0,118.8l.8.3,10.9-29.7s-.8-.3-.8-.3Z"/>
        <path class="st2" d="M16.3,89.1l-10.9,29.7.8.3,10.9-29.7s-.8-.3-.8-.3Z"/>
        <path class="st2" d="M21.8,89.1l-10.9,29.7.8.3,10.9-29.7s-.8-.3-.8-.3Z"/>
        <path class="st2" d="M27.2,89.1l-10.9,29.7.8.3,10.9-29.7s-.8-.3-.8-.3Z"/>
        <path class="st2" d="M32.6,89.1l-10.9,29.7.8.3,10.9-29.7s-.8-.3-.8-.3Z"/>
        <path class="st2" d="M22.5,89.1l-.8.3,10.9,29.7.8-.3s-10.9-29.7-10.9-29.7Z"/>
        <path class="st2" d="M17.1,89.1l-.8.3,10.9,29.7.8-.3s-10.9-29.7-10.9-29.7Z"/>
        <path class="st2" d="M11.6,89.1l-.8.3,10.9,29.7.8-.3s-10.9-29.7-10.9-29.7Z"/>
        <path class="st2" d="M6.2,89.1l-.8.3,10.9,29.7.8-.3-10.9-29.7Z"/>
        <path class="st2" d="M.8,89.1l-.8.3,10.9,29.7.8-.3L.8,89.1Z"/>
      </g>
      <path class="st1" d="M16.7,116.8c-7.5,0-13.7-6.1-13.7-13.7s6.1-13.7,13.7-13.7,13.7,6.1,13.7,13.7-6.1,13.7-13.7,13.7ZM16.7,90.2c-7.1,0-12.9,5.8-12.9,12.9s5.8,12.9,12.9,12.9,12.9-5.8,12.9-12.9-5.8-12.9-12.9-12.9Z"/>
    </g>
  </g>
  <g>
    <path class="st1" d="M67.2.5c6.2,0,9.6,3.2,9.6,9.1s-2.3,7.4-7.5,8.6l-13.3,3c-2.2.5-2.7,1.7-2.7,3.5v1.6c0,.5.2.7.6.7h22v5.6h-25.6c-1.8,0-2.7-.9-2.7-2.6v-4.8c0-5.2,1.6-8,7-9.2l13.5-3.1c2.3-.5,3-1.6,3-3.1s-1.4-3.6-3.9-3.6h-18.5V.5h18.4Z"/>
    <path class="st1" d="M110.1,16.5c0,10.7-5.1,16.5-14.5,16.5s-14.5-5.7-14.5-16.5S86.3,0,95.7,0s14.5,5.7,14.5,16.5ZM86.7,16.5c0,7.4,2.7,10.9,9,10.9s8.9-3.6,8.9-10.9-2.7-10.9-8.9-10.9-9,3.6-9,10.9Z"/>
    <path class="st1" d="M135.2.5c6.2,0,9.6,3.2,9.6,9.1s-2.3,7.4-7.5,8.6l-13.3,3c-2.2.5-2.7,1.7-2.7,3.5v1.6c0,.5.2.7.6.7h22v5.6h-25.6c-1.8,0-2.7-.9-2.7-2.6v-4.8c0-5.2,1.6-8,7-9.2l13.5-3.1c2.3-.5,3-1.6,3-3.1s-1.4-3.6-3.9-3.6h-18.5V.5h18.4Z"/>
    <path class="st1" d="M177,.5v5.6h-12.3c-5.3,0-8.1,2.3-8.7,7.6h13.4c6.6,0,9.5,2.8,9.5,8.7s-2.9,10.2-10,10.2h-5.5c-8.1,0-13.2-5.3-13.2-16S155.4.5,164.7.5h12.3ZM155.8,18.1c.4,6.2,3,8.8,8.3,8.8h4.5c3.2,0,4.7-1.9,4.7-4.7s-1.6-4.1-4.5-4.1h-13Z"/>
    <path class="st1" d="M188.9,26.1v6.5h-5.4v-6.5h5.4Z"/>
    <path class="st1" d="M221.7,16.5c0,10.7-5.1,16.5-14.5,16.5s-14.5-5.7-14.5-16.5S197.9,0,207.2,0s14.5,5.7,14.5,16.5ZM198.3,16.5c0,7.4,2.7,10.9,9,10.9s8.9-3.6,8.9-10.9-2.7-10.9-8.9-10.9-9,3.6-9,10.9Z"/>
    <path class="st1" d="M246.6.5c7.6,0,10.7,3.6,10.7,8.8s-1.6,6-4.6,7.2c3,1.2,4.7,3.6,4.7,7.3s-3.2,8.8-10.7,8.8h-7.8c-7.6,0-10.7-3.7-10.7-8.8s1.7-6,4.7-7.3c-2.9-1.2-4.6-3.5-4.6-7.2,0-5.2,3.2-8.8,10.7-8.8h7.6ZM246.9,27c3.4,0,4.9-1.5,4.9-4.1s-1.7-4-4.9-4h-8.1c-3.2,0-4.9,1.4-4.9,4s1.6,4.1,4.9,4.1h8.1ZM246.7,14c3.3,0,4.9-1.2,4.9-3.9s-1.5-4.1-4.9-4.1h-7.9c-3.4,0-4.9,1.7-4.9,4.1s1.7,3.9,5,3.9h7.8Z"/>
    <path class="st1" d="M266.7,31c-1.1,0-2-.4-2.7-1.2s-1.1-1.8-1.1-2.9.4-2.1,1.1-2.9,1.6-1.1,2.7-1.1,2.1.4,2.8,1.1,1.1,1.7,1.1,2.9-.4,2.1-1.1,2.9-1.7,1.2-2.8,1.2Z"/>
    <path class="st1" d="M281,.5c5.8,0,7.5,2.1,7.5,7.6v24.4h-5.6V8.5c0-1.7-.6-2.4-2.3-2.4h-2.9V.5h3.4Z"/>
    <path class="st1" d="M297,.5c5.8,0,7.5,2.1,7.5,7.6v24.4h-5.6V8.5c0-1.7-.6-2.4-2.3-2.4h-2.9V.5h3.4Z"/>
  </g>
  <g>
    <path class="st1" d="M333.6,19.3v2.3h-3.8v10.6h-2.3v-10.6h-3.8v-2.3h9.8Z"/>
    <path class="st1" d="M337.6,22.1v6c0,1.2.9,2.1,2.5,2.1h1.6c1.6,0,2.5-.9,2.5-2.1v-6h2v6.1c0,2.3-1.5,4-4.4,4h-1.9c-2.9,0-4.4-1.6-4.4-4v-6.1h2Z"/>
    <path class="st1" d="M355.6,22.1c2.4,0,3.4,1.1,3.4,3.1s-.9,2.9-3.4,2.9h-4.8v.7c0,.8.4,1.4,1.5,1.4h6.2v2h-6.2c-2.5,0-3.5-1.4-3.5-3.3v-3.4c0-1.9,1-3.3,3.5-3.3h3.3ZM350.7,26.5h4.7c1.1,0,1.5-.5,1.5-1.2s-.4-1.3-1.4-1.3h-3.2c-1.1,0-1.5.6-1.5,1.4v1.1Z"/>
    <path class="st1" d="M363,29.6v2.6h-2.2v-2.6h2.2Z"/>
  </g>
  <g>
    <path class="st1" d="M68.2,59.2c0,8-3.8,12.3-10.8,12.3s-10.8-4.3-10.8-12.3,3.9-12.3,10.8-12.3,10.8,4.3,10.8,12.3ZM50.7,59.2c0,5.5,2,8.2,6.7,8.2s6.7-2.7,6.7-8.2-2-8.1-6.7-8.1-6.7,2.7-6.7,8.1Z"/>
    <path class="st1" d="M83.8,47.2c5.6,0,9.4,3.3,9.4,11.6s-3.9,12.3-10.8,12.3h-7.9v-4.2h7.9c3.8,0,5.9-1.7,6.5-5.6h-10c-4.9,0-7-2.1-7-6.5s2.1-7.6,7.9-7.6h4ZM79.3,58h9.7c-.2-4.5-2.2-6.6-6.2-6.6h-3.3c-2.4,0-3.5,1.4-3.5,3.5s1.2,3.1,3.4,3.1Z"/>
    <path class="st1" d="M102.1,52.9v4.8h-4v-4.8h4ZM102.1,66.3v4.8h-4v-4.8h4Z"/>
    <path class="st1" d="M128.5,59.2c0,8-3.8,12.3-10.8,12.3s-10.8-4.3-10.8-12.3,3.9-12.3,10.8-12.3,10.8,4.3,10.8,12.3ZM111,59.2c0,5.5,2,8.2,6.7,8.2s6.7-2.7,6.7-8.2-2-8.1-6.7-8.1-6.7,2.7-6.7,8.1Z"/>
    <path class="st1" d="M155,59.2c0,8-3.8,12.3-10.8,12.3s-10.8-4.3-10.8-12.3,3.9-12.3,10.8-12.3,10.8,4.3,10.8,12.3ZM137.5,59.2c0,5.5,2,8.2,6.7,8.2s6.7-2.7,6.7-8.2-2-8.1-6.7-8.1-6.7,2.7-6.7,8.1Z"/>
    <path class="st1" d="M177.4,58.1v3.6h-18.5v-3.6h18.5Z"/>
    <path class="st1" d="M181.9,47.2c4.4,0,5.6,1.6,5.6,5.7v18.2h-4.2v-17.9c0-1.3-.5-1.8-1.7-1.8h-2.2v-4.2h2.5Z"/>
    <path class="st1" d="M207.2,47.2c4.6,0,7.2,2.4,7.2,6.8s-1.7,5.5-5.6,6.4l-10,2.2c-1.7.4-2,1.3-2,2.6v1.2c0,.4.1.5.5.5h16.4v4.2h-19.1c-1.3,0-2-.6-2-1.9v-3.6c0-3.9,1.2-6,5.2-6.9l10.1-2.3c1.7-.4,2.2-1.2,2.2-2.3s-1-2.7-2.9-2.7h-13.8v-4.2h13.7Z"/>
    <path class="st1" d="M223.2,52.9v4.8h-4v-4.8h4ZM223.2,66.3v4.8h-4v-4.8h4Z"/>
    <path class="st1" d="M249.6,59.2c0,8-3.8,12.3-10.8,12.3s-10.8-4.3-10.8-12.3,3.9-12.3,10.8-12.3,10.8,4.3,10.8,12.3ZM232.1,59.2c0,5.5,2,8.2,6.7,8.2s6.7-2.7,6.7-8.2-2-8.1-6.7-8.1-6.7,2.7-6.7,8.1Z"/>
    <path class="st1" d="M276.1,59.2c0,8-3.8,12.3-10.8,12.3s-10.8-4.3-10.8-12.3,3.9-12.3,10.8-12.3,10.8,4.3,10.8,12.3ZM258.6,59.2c0,5.5,2,8.2,6.7,8.2s6.7-2.7,6.7-8.2-2-8.1-6.7-8.1-6.7,2.7-6.7,8.1Z"/>
  </g>
  <g>
    <path class="st1" d="M64.4,94.7v3.8h-6.4v18.1h-3.9v-18.1h-6.4v-3.8h16.7Z"/>
    <path class="st1" d="M78.2,99.4c4.3,0,6,2.4,6,5.7v8.1c0,2.5-.7,3.5-3.6,3.5h-8c-4.1,0-5.8-2-5.8-5.2s1.6-4.9,5.8-4.9h8.2v-1.3c0-1.3-.7-2.4-2.6-2.4h-10.3v-3.3h10.3ZM80.8,112.4v-3.2h-8.1c-1.8,0-2.5.7-2.5,2s.7,2.1,2.4,2.1h7.2c.7,0,.9-.3.9-.9Z"/>
    <path class="st1" d="M92.5,93v4h-3.5v-4h3.5ZM92.5,99.4v17.2h-3.5v-17.2h3.5Z"/>
    <path class="st1" d="M108.5,99.4c4.6,0,7.4,2.8,7.4,8.6s-2.9,8.6-7.4,8.6h-7.6v6.9h-3.5v-16.7c0-5,2.2-7.4,6.3-7.4h4.8ZM100.9,113.3h7.3c3,0,4.3-1.5,4.3-5.2s-1.3-5.3-4.3-5.3h-3.4c-2.8,0-3.9,1.2-3.9,4.2v6.3Z"/>
    <path class="st1" d="M131.2,99.4c4.1,0,5.8,2,5.8,5.3s-1.6,5-5.8,5h-8.2v1.2c0,1.4.7,2.4,2.6,2.4h10.5v3.4h-10.5c-4.3,0-6-2.4-6-5.7v-5.9c0-3.3,1.7-5.7,6-5.7h5.6ZM123,107h8.1c1.9,0,2.5-.8,2.5-2.1s-.7-2.2-2.4-2.2h-5.5c-1.9,0-2.6,1-2.6,2.4v1.8Z"/>
    <path class="st1" d="M144.7,93v4h-3.5v-4h3.5ZM144.7,99.4v17.2h-3.5v-17.2h3.5Z"/>
    <path class="st1" d="M162.4,94.7v22h-3.8v-22h3.8Z"/>
    <path class="st1" d="M177,99.4c5.8,0,8.7,2.8,8.7,7.5v9.7h-3.5v-9.7c0-2.7-1.6-4.2-5.2-4.2h-5.6c-.3,0-.4.2-.4.5v13.4h-3.5v-14.5c0-2,.7-2.7,2.4-2.7h7.1Z"/>
    <path class="st1" d="M191.1,99.4v-4.1h3.5v4.1h4.8v3.3h-4.8v8.1c0,1.9.7,2.6,2.3,2.6h2.4v3.2h-3.1c-3.6,0-5.1-1.4-5.1-5.9v-7.9h-2.3v-3.3h2.3Z"/>
    <path class="st1" d="M213.9,99.4c4.1,0,5.8,2,5.8,5.3s-1.6,5-5.8,5h-8.2v1.2c0,1.4.7,2.4,2.6,2.4h10.5v3.4h-10.5c-4.3,0-6-2.4-6-5.7v-5.9c0-3.3,1.7-5.7,6-5.7h5.6ZM205.7,107h8.1c1.9,0,2.5-.8,2.5-2.1s-.7-2.2-2.4-2.2h-5.5c-1.9,0-2.6,1-2.6,2.4v1.8Z"/>
    <path class="st1" d="M235.7,99.4v3.3h-6.1c-1.5,0-2.2.7-2.2,2.2v11.7h-3.5v-12.2c0-3.5,1.3-5,4.7-5h7.1Z"/>
    <path class="st1" d="M248.5,99.4c5.8,0,8.7,2.8,8.7,7.5v9.7h-3.5v-9.7c0-2.7-1.6-4.2-5.2-4.2h-5.6c-.3,0-.4.2-.4.5v13.4h-3.5v-14.5c0-2,.7-2.7,2.4-2.7h7.1Z"/>
    <path class="st1" d="M273.1,99.4c4.3,0,6,2.4,6,5.7v8.1c0,2.5-.7,3.5-3.6,3.5h-8c-4.1,0-5.8-2-5.8-5.2s1.6-4.9,5.8-4.9h8.2v-1.3c0-1.3-.7-2.4-2.6-2.4h-10.3v-3.3h10.3ZM275.7,112.4v-3.2h-8.1c-1.8,0-2.5.7-2.5,2s.7,2.1,2.4,2.1h7.2c.7,0,.9-.3.9-.9Z"/>
    <path class="st1" d="M284.6,99.4v-4.1h3.5v4.1h4.8v3.3h-4.8v8.1c0,1.9.7,2.6,2.3,2.6h2.4v3.2h-3.1c-3.6,0-5.1-1.4-5.1-5.9v-7.9h-2.3v-3.3h2.3Z"/>
    <path class="st1" d="M299.6,93v4h-3.5v-4h3.5ZM299.6,99.4v17.2h-3.5v-17.2h3.5Z"/>
    <path class="st1" d="M314.8,99.4c4.6,0,7.5,2.8,7.5,8.6s-2.9,8.6-7.5,8.6h-3.6c-4.6,0-7.5-2.8-7.5-8.6s2.9-8.6,7.5-8.6h3.6ZM311.5,102.8c-3,0-4.3,1.6-4.3,5.3s1.3,5.2,4.3,5.2h3c3,0,4.3-1.5,4.3-5.2s-1.3-5.3-4.3-5.3h-3Z"/>
    <path class="st1" d="M335.9,99.4c5.8,0,8.7,2.8,8.7,7.5v9.7h-3.5v-9.7c0-2.7-1.6-4.2-5.2-4.2h-5.6c-.3,0-.4.2-.4.5v13.4h-3.5v-14.5c0-2,.7-2.7,2.4-2.7h7.1Z"/>
    <path class="st1" d="M360.4,99.4c4.3,0,6,2.4,6,5.7v8.1c0,2.5-.7,3.5-3.5,3.5h-8c-4.1,0-5.8-2-5.8-5.2s1.6-4.9,5.8-4.9h8.2v-1.3c0-1.3-.7-2.4-2.6-2.4h-10.3v-3.3h10.3ZM363,112.4v-3.2h-8.1c-1.8,0-2.5.7-2.5,2s.7,2.1,2.4,2.1h7.2c.7,0,.9-.3.9-.9Z"/>
    <path class="st1" d="M374.8,92v24.7h-3.5v-24.7h3.5Z"/>
  </g>
  <g>
    <path class="st1" d="M66.1,137.9v3.8h-8.5c-4.2,0-6.1,2.1-6.1,7.2s1.8,7.1,6.1,7.1h8.5v3.8h-8.5c-6.4,0-9.9-3.6-9.9-11s3.6-11,9.9-11h8.5Z"/>
    <path class="st1" d="M80.8,142.6c4.6,0,7.5,2.8,7.5,8.6s-2.9,8.6-7.5,8.6h-3.6c-4.6,0-7.5-2.8-7.5-8.6s2.9-8.6,7.5-8.6h3.6ZM77.5,146c-3,0-4.3,1.6-4.3,5.3s1.3,5.2,4.3,5.2h3c3,0,4.3-1.5,4.3-5.2s-1.3-5.3-4.3-5.3h-3Z"/>
    <path class="st1" d="M101.9,142.6c5.8,0,8.7,2.8,8.7,7.5v9.7h-3.5v-9.7c0-2.7-1.6-4.2-5.2-4.2h-5.6c-.3,0-.4.2-.4.5v13.4h-3.5v-14.5c0-2,.7-2.7,2.4-2.7h7.1Z"/>
    <path class="st1" d="M116.5,142.6l5.7,13.8c.1.4.4.5.8.5s.7-.2.9-.5l6-13.8h3.7l-6.6,15.3c-.7,1.6-2,2.2-3.9,2.2s-3.3-.7-3.9-2.2l-6.3-15.3h3.6Z"/>
    <path class="st1" d="M147.1,142.6c4.1,0,5.8,2,5.8,5.3s-1.6,5-5.8,5h-8.2v1.2c0,1.4.7,2.4,2.6,2.4h10.5v3.4h-10.5c-4.3,0-6-2.4-6-5.7v-5.9c0-3.3,1.7-5.7,6-5.7h5.6ZM138.8,150.2h8.1c1.9,0,2.5-.8,2.5-2.1s-.7-2.2-2.4-2.2h-5.5c-1.9,0-2.6,1-2.6,2.4v1.8Z"/>
    <path class="st1" d="M166.6,142.6c5.8,0,8.7,2.8,8.7,7.5v9.7h-3.5v-9.7c0-2.7-1.6-4.2-5.2-4.2h-5.6c-.3,0-.4.2-.4.5v13.4h-3.5v-14.5c0-2,.7-2.7,2.4-2.7h7.1Z"/>
    <path class="st1" d="M180.7,142.6v-4.1h3.5v4.1h4.8v3.3h-4.8v8.1c0,1.9.7,2.6,2.3,2.6h2.4v3.2h-3.1c-3.6,0-5.1-1.4-5.1-5.9v-7.9h-2.3v-3.3h2.3Z"/>
    <path class="st1" d="M195.8,136.2v4h-3.5v-4h3.5ZM195.8,142.6v17.2h-3.5v-17.2h3.5Z"/>
    <path class="st1" d="M211,142.6c4.6,0,7.5,2.8,7.5,8.6s-2.9,8.6-7.5,8.6h-3.6c-4.6,0-7.5-2.8-7.5-8.6s2.9-8.6,7.5-8.6h3.6ZM207.7,146c-3,0-4.3,1.6-4.3,5.3s1.3,5.2,4.3,5.2h3c3,0,4.3-1.5,4.3-5.2s-1.3-5.3-4.3-5.3h-3Z"/>
    <path class="st1" d="M232.1,142.6c5.8,0,8.7,2.8,8.7,7.5v9.7h-3.5v-9.7c0-2.7-1.6-4.2-5.2-4.2h-5.6c-.3,0-.4.2-.4.5v13.4h-3.5v-14.5c0-2,.7-2.7,2.4-2.7h7.1Z"/>
  </g>
  <g>
    <path class="st1" d="M277.9,138.2v3.8h-8.5c-4.2,0-6.1,2.1-6.1,7.2s1.8,7.1,6.1,7.1h8.5v3.8h-8.5c-6.4,0-9.9-3.6-9.9-11s3.6-11,9.9-11h8.5Z"/>
    <path class="st1" d="M293.5,143c4.1,0,5.8,2,5.8,5.3s-1.6,5-5.8,5h-8.2v1.2c0,1.4.7,2.4,2.6,2.4h10.5v3.4h-10.5c-4.3,0-6-2.4-6-5.7v-5.9c0-3.3,1.7-5.7,6-5.7h5.6ZM285.3,150.6h8.1c1.9,0,2.5-.8,2.5-2.1s-.7-2.2-2.4-2.2h-5.5c-1.9,0-2.6,1-2.6,2.4v1.8Z"/>
    <path class="st1" d="M313,143c5.8,0,8.7,2.8,8.7,7.5v9.7h-3.5v-9.7c0-2.7-1.6-4.2-5.2-4.2h-5.6c-.3,0-.4.2-.4.5v13.4h-3.5v-14.5c0-2,.7-2.7,2.4-2.7h7.1Z"/>
    <path class="st1" d="M327.2,143v-4.1h3.5v4.1h4.8v3.3h-4.8v8.1c0,1.9.7,2.6,2.3,2.6h2.4v3.2h-3.1c-3.6,0-5.1-1.4-5.1-5.9v-7.9h-2.3v-3.3h2.3Z"/>
    <path class="st1" d="M350,143c4.1,0,5.8,2,5.8,5.3s-1.6,5-5.8,5h-8.2v1.2c0,1.4.7,2.4,2.6,2.4h10.5v3.4h-10.5c-4.3,0-6-2.4-6-5.7v-5.9c0-3.3,1.7-5.7,6-5.7h5.6ZM341.8,150.6h8.1c1.9,0,2.5-.8,2.5-2.1s-.7-2.2-2.4-2.2h-5.5c-1.9,0-2.6,1-2.6,2.4v1.8Z"/>
    <path class="st1" d="M371.7,143v3.3h-6.1c-1.5,0-2.2.7-2.2,2.2v11.7h-3.5v-12.2c0-3.5,1.3-5,4.7-5h7.1Z"/>
  </g>
  <g>
    <path class="st1" d="M55.1,172.8v1.9h-.4c-3.8,0-5.1,1.7-5.1,7v12.1c0,5.3,1.3,7,5.1,7h.4v1.9h-.4c-5.2,0-7-2.7-7-9.2v-11.7c0-6.5,1.8-9.2,7-9.2h.4Z"/>
    <path class="st1" d="M73.5,177.6v3.8h-6.4v18.1h-3.9v-18.1h-6.4v-3.8h16.7Z"/>
    <path class="st1" d="M80.9,177.6v22h-3.8v-22h3.8Z"/>
    <path class="st1" d="M103.8,177.6v3.8h-8.5c-4.2,0-6.1,2.1-6.1,7.2s1.8,7.1,6.1,7.1h8.5v3.8h-8.5c-6.4,0-9.9-3.6-9.9-11s3.6-11,9.9-11h8.5Z"/>
    <path class="st1" d="M125.7,177.6v3.8h-8.5c-4.2,0-6.1,2.1-6.1,7.2s1.8,7.1,6.1,7.1h8.5v3.8h-8.5c-6.4,0-9.9-3.6-9.9-11s3.6-11,9.9-11h8.5Z"/>
    <path class="st1" d="M128.4,202.8v-1.9h.4c3.8,0,5.1-1.7,5.1-7v-12.1c0-5.3-1.3-7-5.1-7h-.4v-1.9h.4c5.2,0,7,2.7,7,9.2v11.7c0,6.5-1.8,9.2-7,9.2h-.4Z"/>
    <path class="st1" d="M159.1,187.6v3.3h-11.6v-3.3h11.6Z"/>
    <path class="st1" d="M183.2,177.6c5,0,7.1,3.1,7.1,6.6s-1.3,5.7-4.7,6.6l5.1,8.8h-4.3l-5-8.5h-5.7c-.4,0-.6.2-.6.6v7.9h-3.8v-8.7c0-2.5,1-3.5,3.5-3.5h8.6c2.2,0,3.1-1.5,3.1-3.1s-.9-2.9-3.1-2.9h-12.1v-3.8h11.9Z"/>
    <path class="st1" d="M203.6,182.4c4.6,0,7.5,2.8,7.5,8.6s-2.9,8.6-7.5,8.6h-3.6c-4.6,0-7.5-2.8-7.5-8.6s2.9-8.6,7.5-8.6h3.6ZM200.3,185.7c-3,0-4.3,1.6-4.3,5.3s1.3,5.2,4.3,5.2h3c3,0,4.3-1.5,4.3-5.2s-1.3-5.3-4.3-5.3h-3Z"/>
    <path class="st1" d="M225.4,182.4c4.6,0,7.5,2.8,7.5,8.6s-2.9,8.6-7.5,8.6h-3.6c-4.6,0-7.5-2.8-7.5-8.6s2.9-8.6,7.5-8.6h3.6ZM222.1,185.7c-3,0-4.3,1.6-4.3,5.3s1.3,5.2,4.3,5.2h3c3,0,4.3-1.5,4.3-5.2s-1.3-5.3-4.3-5.3h-3Z"/>
    <path class="st1" d="M257.1,182.4c5.8,0,8.7,2.8,8.7,7.5v9.7h-3.5v-9.7c0-2.7-1.6-4.2-5.2-4.2h-4v13.9h-3.5v-13.9h-8.7c-.3,0-.4.2-.4.5v13.4h-3.5v-14.5c0-2,.7-2.7,2.4-2.7h17.7Z"/>
    <path class="st1" d="M280.1,177.6c4,0,5.1,1.4,5.1,5.2v16.7h-3.8v-16.5c0-1.2-.4-1.7-1.6-1.7h-2v-3.8h2.3Z"/>
    <path class="st1" d="M309.5,188.6c0,7.4-3.5,11.3-9.9,11.3s-9.9-3.9-9.9-11.3,3.6-11.3,9.9-11.3,9.9,3.9,9.9,11.3ZM293.4,188.5c0,5,1.9,7.5,6.2,7.5s6.1-2.4,6.1-7.5-1.9-7.5-6.1-7.5-6.2,2.4-6.2,7.5Z"/>
    <path class="st1" d="M315.4,177.6c4,0,5.1,1.4,5.1,5.2v16.7h-3.8v-16.5c0-1.2-.4-1.7-1.6-1.7h-2v-3.8h2.3Z"/>
  </g>
</svg>