<?xml version="1.0" encoding="UTF-8"?>
<svg id="_圖層_1" xmlns="http://www.w3.org/2000/svg" xmlns:xlink="http://www.w3.org/1999/xlink" version="1.1" viewBox="0 0 578.3 113.3">
  <!-- Generator: Adobe Illustrator 30.5.1, SVG Export Plug-In . SVG Version: 2.1.4 Build 3)  -->
  <defs>
    <style>
      .st0 {
        fill: none;
      }

      .st1, .st2, .st3 {
        isolation: isolate;
      }

      .st4, .st2, .st3 {
        fill: #fff;
      }

      .st5, .st3 {
        opacity: .5;
      }

      .st6 {
        clip-path: url(#clippath);
      }

      .st2 {
        opacity: .6;
      }
    </style>
    <clipPath id="clippath">
      <path class="st0" d="M14.1,74.9c-7.5,0-13.7-6.1-13.7-13.7s6.1-13.7,13.7-13.7,13.7,6.1,13.7,13.7-6.1,13.7-13.7,13.7Z"/>
    </clipPath>
  </defs>
  <path class="st3" d="M13.7,26.9c7.3,0,13.3-5.9,13.3-13.3S21,.4,13.7.4.4,6.3.4,13.7s5.9,13.3,13.3,13.3h0Z"/>
  <path class="st4" d="M13.7,27.4C6.2,27.4,0,21.3,0,13.7S6.3,0,13.7,0s13.7,6.1,13.7,13.7-6.1,13.7-13.7,13.7ZM13.7.8C6.6.8.9,6.6.9,13.7s5.8,12.9,12.9,12.9,12.9-5.8,12.9-12.9S20.8.8,13.7.8Z"/>
  <path class="st3" d="M14.6,7.7l.8,2.9,3-.7c.9-.2,1.6.9.9,1.6l-2.1,2.2,2.1,2.2c.7.7,0,1.8-.9,1.6l-3-.7-.8,2.9c-.3.9-1.6.9-1.8,0l-.8-2.9-3,.7c-.9.2-1.6-.9-.9-1.6l2.1-2.2-2.1-2.2c-.7-.7,0-1.8.9-1.6l3,.7.8-2.9c.3-.9,1.6-.9,1.8,0Z"/>
  <g class="st1">
    <path class="st4" d="M44.5,24.3c-1.6,0-2.4-.6-2.4-1.7v-5.9c0-3.8,3.3-5.7,10-5.7h9.7c2.5,0,3.7-.6,3.7-1.6v-1.6c0-1.2-1.3-1.8-4-1.8h-5.1c-1.6,0-2.5-.7-2.5-2.2s.8-2.2,2.5-2.2h5.1c6.3,0,9.5,1.9,9.5,5.8v2.4c0,3.6-3.1,5.3-9.4,5.3h-10.2c-2.6,0-3.9.6-3.9,1.9v2.7c0,.2,0,.3.3.3h20.7c1.7,0,2.5.7,2.5,2.1s-.8,2.2-2.5,2.2h-24.2.2Z"/>
    <path class="st4" d="M85.8,24.3c-6.7,0-10-2.1-10-6.4V7.9c0-4.2,3.3-6.3,9.8-6.3h7.6c6.5,0,9.8,2.1,9.8,6.3v10c0,4.3-3.3,6.4-10,6.4h-7.3,0ZM97.6,8c0-1.4-1.4-2.1-4.4-2.1h-7.4c-2.9,0-4.4.7-4.4,2.1v9.6c0,1.5,1.5,2.3,4.4,2.3h7.4c2.9,0,4.4-.8,4.4-2.3v-9.6Z"/>
    <path class="st4" d="M110.2,24.3c-1.6,0-2.4-.6-2.4-1.7v-5.9c0-3.8,3.3-5.7,10-5.7h9.7c2.5,0,3.7-.6,3.7-1.6v-1.6c0-1.2-1.3-1.8-4-1.8h-5.1c-1.6,0-2.5-.7-2.5-2.2s.8-2.2,2.5-2.2h5.1c6.3,0,9.5,1.9,9.5,5.8v2.4c0,3.6-3.1,5.3-9.4,5.3h-10.2c-2.6,0-3.9.6-3.9,1.9v2.7c0,.2,0,.3.3.3h20.7c1.7,0,2.5.7,2.5,2.1s-.8,2.2-2.5,2.2h-24.2.2,0Z"/>
    <path class="st4" d="M171.2,18c0,4.2-3.5,6.3-10.6,6.3h-9.1c-6.7,0-10-2.1-10-6.4V7.7c0-4.1,3.3-6.1,9.8-6.1h5.3c1.6,0,2.5.7,2.5,2.1s-.9,2.2-2.5,2.2h-5.2c-2.9,0-4.4.7-4.4,1.9v1.3h13.5c7.1,0,10.6,2.1,10.6,6.2v2.6h0ZM147.1,13.4v4.3c0,1.5,1.6,2.3,4.9,2.3h9c3.2,0,4.7-.8,4.7-2.2v-2.3c0-1.4-1.6-2.2-4.8-2.2h-13.8,0Z"/>
    <path class="st4" d="M178.1,24.4c-1.9,0-2.9-.8-2.9-2.4s1-2.4,2.9-2.4,2.9.8,2.9,2.4-1,2.4-3,2.4h.1Z"/>
    <path class="st4" d="M195,24.3c-6.7,0-10-2.1-10-6.4V7.9c0-4.2,3.3-6.3,9.8-6.3h7.6c6.5,0,9.8,2.1,9.8,6.3v10c0,4.3-3.3,6.4-10,6.4h-7.3,0ZM206.7,8c0-1.4-1.4-2.1-4.4-2.1h-7.4c-2.9,0-4.4.7-4.4,2.1v9.6c0,1.5,1.5,2.3,4.4,2.3h7.4c2.9,0,4.4-.8,4.4-2.3v-9.6Z"/>
    <path class="st4" d="M246.3,19c0,3.5-2.9,5.2-8.8,5.2h-11.8c-5.8,0-8.8-1.7-8.8-5.2v-2.3c0-1.6.9-3,2.6-4-1.5-.9-2.2-2.2-2.2-3.7v-1.7c0-3.8,3-5.7,9-5.7h10.5c6,0,9,1.9,9,5.7v1.7c0,1.5-.8,2.7-2.3,3.7,1.7,1,2.6,2.4,2.6,4v2.3h.2ZM240.7,16.5c0-1.1-1.1-1.6-3.4-1.6h-11.4c-2.3,0-3.4.5-3.4,1.6v1.9c0,1,1.1,1.6,3.4,1.6h11.4c2.3,0,3.4-.5,3.4-1.6v-1.9ZM240.4,7.6c0-1.1-1.1-1.7-3.4-1.7h-10.8c-2.3,0-3.4.6-3.4,1.7v1.7c0,1,1.1,1.6,3.3,1.6h11c2.2,0,3.3-.5,3.3-1.6v-1.7h0Z"/>
    <path class="st4" d="M252.7,24.4c-1.9,0-2.9-.8-2.9-2.4s1-2.4,2.9-2.4,2.9.8,2.9,2.4-1,2.4-3,2.4h0Z"/>
    <path class="st4" d="M260.5,3.7c0-1.5.9-2.3,2.8-2.3s2.7.8,2.7,2.3v18.4c0,1.5-.9,2.3-2.8,2.3s-2.7-.8-2.7-2.3V3.7Z"/>
    <path class="st4" d="M271.4,3.7c0-1.5.9-2.3,2.8-2.3s2.7.8,2.7,2.3v18.4c0,1.5-.9,2.3-2.8,2.3s-2.7-.8-2.7-2.3V3.7Z"/>
  </g>
  <g class="st1">
    <path class="st4" d="M368.7,23.7c-5.2,0-7.8-1.7-7.8-5.1v-8.2c0-3.4,2.5-5.1,7.6-5.1h5.9c5.1,0,7.6,1.7,7.6,5.1v8.2c0,3.4-2.6,5.1-7.8,5.1h-5.6,0ZM379.2,10.4c0-2-1.6-2.9-4.8-2.9h-5.8c-3.2,0-4.8,1-4.8,2.9v8.1c0,2,1.6,3,4.9,3h5.7c3.3,0,4.9-1,4.9-3v-8.1h-.1Z"/>
    <path class="st4" d="M396.9,23.7c-.8,0-1.3-.4-1.3-1.1s.5-1.1,1.3-1.1h3.8c3.2,0,4.9-1,4.9-2.8v-1.8h-10.8c-5.5,0-8.2-1.7-8.2-5v-1.5c0-3.4,2.7-5,8.2-5h5.8c5.2,0,7.9,1.7,7.9,5.2v8.2c0,3.3-2.6,4.9-7.7,4.9h-3.9,0ZM394.7,14.8h10.9v-4.2c0-2.1-1.7-3.1-5.1-3.1h-5.8c-3.5,0-5.2,1-5.2,2.9v1.4c0,2,1.8,2.9,5.3,2.9h0Z"/>
    <path class="st4" d="M414.7,14.6c-1,0-1.6-.4-1.6-1.3s.5-1.3,1.6-1.3,1.6.4,1.6,1.3-.5,1.3-1.6,1.3ZM414.7,22.2c-1,0-1.6-.4-1.6-1.3s.5-1.3,1.6-1.3,1.6.4,1.6,1.3-.5,1.3-1.6,1.3Z"/>
    <path class="st4" d="M428.9,23.7c-5.2,0-7.8-1.7-7.8-5.1v-8.2c0-3.4,2.5-5.1,7.6-5.1h5.9c5.1,0,7.6,1.7,7.6,5.1v8.2c0,3.4-2.6,5.1-7.8,5.1h-5.6,0ZM439.5,10.4c0-2-1.6-2.9-4.8-2.9h-5.8c-3.2,0-4.8,1-4.8,2.9v8.1c0,2,1.6,3,4.9,3h5.7c3.3,0,4.9-1,4.9-3v-8.1h-.1Z"/>
    <path class="st4" d="M455.1,23.7c-5.2,0-7.8-1.7-7.8-5.1v-8.2c0-3.4,2.5-5.1,7.6-5.1h5.9c5.1,0,7.6,1.7,7.6,5.1v8.2c0,3.4-2.6,5.1-7.8,5.1h-5.6,0ZM465.7,10.4c0-2-1.6-2.9-4.8-2.9h-5.8c-3.2,0-4.8,1-4.8,2.9v8.1c0,2,1.6,3,4.9,3h5.7c3.3,0,4.9-1,4.9-3v-8.1h-.1Z"/>
    <path class="st4" d="M474,16.6c-.8,0-1.3-.4-1.3-1.1s.5-1,1.3-1h8.8c.9,0,1.3.3,1.3,1s-.5,1.1-1.3,1.1h-8.8Z"/>
    <path class="st4" d="M488.3,6.3c0-.7.5-1.1,1.5-1.1s1.4.4,1.4,1.1v16.4c0,.7-.5,1.1-1.5,1.1s-1.4-.4-1.4-1.1V6.3Z"/>
    <path class="st4" d="M497.4,23.7c-.9,0-1.3-.3-1.3-.9v-5c0-2.8,2.5-4.2,7.5-4.2h7.9c2.9,0,4.3-.7,4.3-2.1v-1.7c0-1.5-1.5-2.2-4.4-2.2h-4.6c-.9,0-1.3-.4-1.3-1.1s.5-1.1,1.3-1.1h4.6c4.8,0,7.3,1.4,7.3,4.2v2c0,2.7-2.4,4.1-7.2,4.1h-8.1c-2.9,0-4.4.7-4.4,2.2v3.5c0,.1,0,.2.2.2h18.1c.9,0,1.4.4,1.4,1.1s-.5,1.1-1.4,1.1h-19.9,0Z"/>
    <path class="st4" d="M524.6,14.6c-1,0-1.6-.4-1.6-1.3s.5-1.3,1.6-1.3,1.6.4,1.6,1.3-.5,1.3-1.6,1.3ZM524.6,22.2c-1,0-1.6-.4-1.6-1.3s.5-1.3,1.6-1.3,1.6.4,1.6,1.3-.5,1.3-1.6,1.3Z"/>
    <path class="st4" d="M538.8,23.7c-5.2,0-7.8-1.7-7.8-5.1v-8.2c0-3.4,2.5-5.1,7.6-5.1h5.9c5.1,0,7.6,1.7,7.6,5.1v8.2c0,3.4-2.6,5.1-7.8,5.1h-5.6,0ZM549.3,10.4c0-2-1.6-2.9-4.8-2.9h-5.8c-3.2,0-4.8,1-4.8,2.9v8.1c0,2,1.6,3,4.9,3h5.7c3.3,0,4.9-1,4.9-3v-8.1h-.1Z"/>
    <path class="st4" d="M565,23.7c-5.2,0-7.8-1.7-7.8-5.1v-8.2c0-3.4,2.5-5.1,7.6-5.1h5.9c5.1,0,7.6,1.7,7.6,5.1v8.2c0,3.4-2.6,5.1-7.8,5.1h-5.6,0ZM575.6,10.4c0-2-1.6-2.9-4.8-2.9h-5.8c-3.2,0-4.8,1-4.8,2.9v8.1c0,2,1.6,3,4.9,3h5.7c3.3,0,4.9-1,4.9-3v-8.1h-.1Z"/>
  </g>
  <g class="st6">
    <g>
      <path class="st3" d="M14.2,74.5c7.3,0,13.3-5.9,13.3-13.3s-5.9-13.3-13.3-13.3S.9,53.8.9,61.2s5.9,13.3,13.3,13.3Z"/>
      <g class="st5">
        <path class="st2" d="M8.4,47.2l-10.9,29.7.8.3,10.9-29.7s-.8-.3-.8-.3Z"/>
        <path class="st2" d="M13.8,47.2l-10.9,29.7.8.3,10.9-29.7s-.8-.3-.8-.3Z"/>
        <path class="st2" d="M19.3,47.2l-10.9,29.7.8.3,10.9-29.7s-.8-.3-.8-.3Z"/>
        <path class="st2" d="M24.7,47.2l-10.9,29.7.8.3,10.9-29.7s-.8-.3-.8-.3Z"/>
        <path class="st2" d="M30.1,47.2l-10.9,29.7.8.3,10.9-29.7s-.8-.3-.8-.3Z"/>
        <path class="st2" d="M20,47.2l-.8.3,10.9,29.7.8-.3s-10.9-29.7-10.9-29.7Z"/>
        <path class="st2" d="M14.6,47.2l-.8.3,10.9,29.7.8-.3s-10.9-29.7-10.9-29.7Z"/>
        <path class="st2" d="M9.1,47.2l-.8.3,10.9,29.7.8-.3s-10.9-29.7-10.9-29.7Z"/>
        <path class="st2" d="M3.7,47.2l-.8.3,10.9,29.7.8-.3S3.7,47.2,3.7,47.2Z"/>
        <path class="st2" d="M-1.7,47.2l-.8.3,10.9,29.7.8-.3L-1.7,47.2Z"/>
      </g>
      <path class="st4" d="M14.2,74.9c-7.5,0-13.7-6.1-13.7-13.7s6.1-13.7,13.7-13.7,13.7,6.1,13.7,13.7-6.1,13.7-13.7,13.7ZM14.2,48.3c-7.1,0-12.9,5.8-12.9,12.9s5.8,12.9,12.9,12.9,12.9-5.8,12.9-12.9-5.8-12.9-12.9-12.9Z"/>
    </g>
  </g>
  <g class="st1">
    <g class="st1">
      <path class="st4" d="M51.3,57.6h-5.8c-1.2,0-1.9-.6-1.9-1.7s.6-1.6,1.9-1.6h15.9c1.3,0,1.9.5,1.9,1.6s-.6,1.7-1.9,1.7h-5.8v12.4c0,1.1-.7,1.7-2.1,1.7s-2.1-.6-2.1-1.7v-12.4Z"/>
      <path class="st4" d="M64.7,71.6c-3.7,0-5.5-1.2-5.5-3.5v-1.5c0-2.3,1.8-3.5,5.5-3.5h9.8v-.5c0-.6-.7-.9-2.2-.9h-2.8c-1.2,0-1.9-.5-1.9-1.5s.6-1.5,1.9-1.5h2.8c4.1,0,6.2,1.3,6.2,4v5.3c0,2.5-1.9,3.8-5.7,3.8h-8.1ZM74.5,67.6v-2h-9.3c-1.3,0-2,.3-2,.8v1.2c0,.5.7.8,2,.8h7.3c1.4,0,2-.3,2-.8Z"/>
      <path class="st4" d="M84.3,57.3c-1.4,0-2.2-.6-2.2-1.7s.7-1.7,2.2-1.7,2.1.6,2.1,1.7-.7,1.7-2.1,1.7ZM82.3,60c0-1.1.7-1.7,2-1.7s2.1.6,2.1,1.7v10c0,1.1-.7,1.7-2,1.7s-2.1-.6-2.1-1.7v-10Z"/>
      <path class="st4" d="M94.4,71.6v2.7c0,1.1-.7,1.7-2.1,1.7s-2-.6-2-1.7v-11.6c0-2.8,2.2-4.3,6.7-4.3h5.2c4.5,0,6.7,1.4,6.7,4.3v4.6c0,2.9-2.2,4.3-6.7,4.3h-7.8ZM94.4,68.3h8c1.6,0,2.4-.3,2.4-1v-4.7c0-.6-.8-1-2.4-1h-5.6c-1.6,0-2.4.3-2.4,1v5.6Z"/>
      <path class="st4" d="M116.7,66.3v1.3c0,.6.8.9,2.3.9h3.3c1.3,0,1.9.5,1.9,1.6s-.6,1.5-1.9,1.5h-3.3c-4.2,0-6.3-1.3-6.3-4v-5.3c0-2.5,1.9-3.8,5.7-3.8h7.5c3.7,0,5.5,1.1,5.5,3.5v3c0,.9-.6,1.4-1.7,1.4h-13.1ZM116.7,63.7h10.5c.2,0,.2,0,.2-.2v-1c0-.6-.6-.9-2-.9h-6.7c-1.3,0-2,.3-2,.9v1.2Z"/>
      <path class="st4" d="M136.7,57.3c-1.4,0-2.2-.6-2.2-1.7s.7-1.7,2.2-1.7,2.1.6,2.1,1.7-.7,1.7-2.1,1.7ZM134.7,60c0-1.1.7-1.7,2-1.7s2.1.6,2.1,1.7v10c0,1.1-.7,1.7-2,1.7s-2.1-.6-2.1-1.7v-10Z"/>
      <path class="st4" d="M152.5,55.9c0-1.1.7-1.7,2.1-1.7s2.1.6,2.1,1.7v14.1c0,1.1-.7,1.7-2.1,1.7s-2.1-.6-2.1-1.7v-14.1Z"/>
      <path class="st4" d="M175,62.7c0-.6-.8-1-2.4-1h-5.4c-1.6,0-2.4.3-2.4,1v7.3c0,1.1-.7,1.7-2,1.7s-2.1-.6-2.1-1.7v-7.3c0-2.9,2.2-4.3,6.7-4.3h5c4.5,0,6.7,1.4,6.7,4.3v7.3c0,1.1-.7,1.7-2,1.7s-2.1-.6-2.1-1.7v-7.3Z"/>
      <path class="st4" d="M188.2,61.7v8.3c0,1.1-.7,1.7-2,1.7s-2.1-.6-2.1-1.7v-8.3h-.4c-1.2,0-1.9-.5-1.9-1.5s.6-1.6,1.9-1.6h.4v-2c0-1.1.7-1.7,2.1-1.7s2.1.6,2.1,1.7v2h3.5c1.2,0,1.9.5,1.9,1.6s-.6,1.5-1.9,1.5h-3.5Z"/>
      <path class="st4" d="M200.2,66.3v1.3c0,.6.8.9,2.3.9h3.3c1.3,0,1.9.5,1.9,1.6s-.6,1.5-1.9,1.5h-3.3c-4.2,0-6.3-1.3-6.3-4v-5.3c0-2.5,1.9-3.8,5.7-3.8h7.5c3.7,0,5.5,1.1,5.5,3.5v3c0,.9-.6,1.4-1.7,1.4h-13.1ZM200.2,63.7h10.5c.2,0,.2,0,.2-.2v-1c0-.6-.6-.9-2-.9h-6.7c-1.3,0-2,.3-2,.9v1.2Z"/>
      <path class="st4" d="M218.2,62.7c0-2.8,2.2-4.3,6.7-4.3h1.4c1.3,0,2,.5,2,1.6s-.6,1.6-2,1.6h-1.6c-1.6,0-2.4.3-2.4.9v7.3c0,1.1-.7,1.7-2.1,1.7s-2-.6-2-1.7v-7.3Z"/>
      <path class="st4" d="M245.2,62.7c0-.6-.8-1-2.4-1h-5.4c-1.6,0-2.4.3-2.4,1v7.3c0,1.1-.7,1.7-2,1.7s-2.1-.6-2.1-1.7v-7.3c0-2.9,2.2-4.3,6.7-4.3h5c4.5,0,6.7,1.4,6.7,4.3v7.3c0,1.1-.7,1.7-2,1.7s-2.1-.6-2.1-1.7v-7.3Z"/>
      <path class="st4" d="M258.1,71.6c-3.7,0-5.5-1.2-5.5-3.5v-1.5c0-2.3,1.8-3.5,5.5-3.5h9.8v-.5c0-.6-.7-.9-2.2-.9h-2.8c-1.2,0-1.9-.5-1.9-1.5s.6-1.5,1.9-1.5h2.8c4.1,0,6.2,1.3,6.2,4v5.3c0,2.5-1.9,3.8-5.7,3.8h-8.1ZM267.9,67.6v-2h-9.3c-1.3,0-2,.3-2,.8v1.2c0,.5.7.8,2,.8h7.3c1.4,0,2-.3,2-.8Z"/>
      <path class="st4" d="M281.3,61.7v8.3c0,1.1-.7,1.7-2,1.7s-2.1-.6-2.1-1.7v-8.3h-.4c-1.2,0-1.9-.5-1.9-1.5s.6-1.6,1.9-1.6h.4v-2c0-1.1.7-1.7,2.1-1.7s2.1.6,2.1,1.7v2h3.5c1.2,0,1.9.5,1.9,1.6s-.6,1.5-1.9,1.5h-3.5Z"/>
      <path class="st4" d="M291.7,57.3c-1.4,0-2.2-.6-2.2-1.7s.7-1.7,2.2-1.7,2.1.6,2.1,1.7-.7,1.7-2.1,1.7ZM289.7,60c0-1.1.7-1.7,2-1.7s2.1.6,2.1,1.7v10c0,1.1-.7,1.7-2,1.7s-2.1-.6-2.1-1.7v-10Z"/>
      <path class="st4" d="M304.3,71.6c-4.5,0-6.7-1.4-6.7-4.3v-4.6c0-2.8,2.2-4.3,6.7-4.3h5c4.5,0,6.7,1.4,6.7,4.3v4.6c0,2.9-2.2,4.3-6.7,4.3h-5ZM312,62.7c0-.6-.8-1-2.4-1h-5.4c-1.6,0-2.4.3-2.4,1v4.7c0,.6.8,1,2.4,1h5.4c1.6,0,2.4-.3,2.4-1v-4.7Z"/>
      <path class="st4" d="M334.2,62.7c0-.6-.8-1-2.4-1h-5.4c-1.6,0-2.4.3-2.4,1v7.3c0,1.1-.7,1.7-2,1.7s-2.1-.6-2.1-1.7v-7.3c0-2.9,2.2-4.3,6.7-4.3h5c4.5,0,6.7,1.4,6.7,4.3v7.3c0,1.1-.7,1.7-2,1.7s-2.1-.6-2.1-1.7v-7.3Z"/>
      <path class="st4" d="M347.1,71.6c-3.7,0-5.5-1.2-5.5-3.5v-1.5c0-2.3,1.8-3.5,5.5-3.5h9.8v-.5c0-.6-.7-.9-2.2-.9h-2.8c-1.2,0-1.9-.5-1.9-1.5s.6-1.5,1.9-1.5h2.8c4.1,0,6.2,1.3,6.2,4v5.3c0,2.5-1.9,3.8-5.7,3.8h-8.1ZM356.9,67.6v-2h-9.3c-1.3,0-2,.3-2,.8v1.2c0,.5.7.8,2,.8h7.3c1.4,0,2-.3,2-.8Z"/>
      <path class="st4" d="M364.7,55.1c0-1.1.7-1.7,2-1.7s2.1.6,2.1,1.7v14.9c0,1.1-.7,1.7-2,1.7s-2.1-.6-2.1-1.7v-14.9Z"/>
      <path class="st4" d="M390.1,71.6c-5.1,0-7.6-1.6-7.6-4.9v-7.7c0-3.1,2.5-4.7,7.5-4.7h9.4c1.2,0,1.9.5,1.9,1.6s-.7,1.7-1.9,1.7h-9.3c-2.2,0-3.4.5-3.4,1.5v7.5c0,1.1,1.2,1.7,3.7,1.7h9c1.2,0,1.9.5,1.9,1.6s-.7,1.7-1.9,1.7h-9.3Z"/>
      <path class="st4" d="M410.9,71.6c-4.5,0-6.7-1.4-6.7-4.3v-4.6c0-2.8,2.2-4.3,6.7-4.3h5c4.5,0,6.7,1.4,6.7,4.3v4.6c0,2.9-2.2,4.3-6.7,4.3h-5ZM418.6,62.7c0-.6-.8-1-2.4-1h-5.4c-1.6,0-2.4.3-2.4,1v4.7c0,.6.8,1,2.4,1h5.4c1.6,0,2.4-.3,2.4-1v-4.7Z"/>
      <path class="st4" d="M440.8,62.7c0-.6-.8-1-2.4-1h-5.4c-1.6,0-2.4.3-2.4,1v7.3c0,1.1-.7,1.7-2,1.7s-2.1-.6-2.1-1.7v-7.3c0-2.9,2.2-4.3,6.7-4.3h5c4.5,0,6.7,1.4,6.7,4.3v7.3c0,1.1-.7,1.7-2,1.7s-2.1-.6-2.1-1.7v-7.3Z"/>
      <path class="st4" d="M459.6,70.8c-.6.8-1.1.9-1.9.9s-1.3-.2-1.9-.9l-8-9.6c-.5-.5-.5-.9-.5-1.3,0-1.1.8-1.6,2.1-1.6s1.5.3,1.9.9l6.4,8,6.4-8c.5-.6.9-.9,1.9-.9s2.1.5,2.1,1.6-.1.7-.6,1.3l-8,9.6Z"/>
      <path class="st4" d="M474.4,66.3v1.3c0,.6.8.9,2.3.9h3.3c1.3,0,1.9.5,1.9,1.6s-.6,1.5-1.9,1.5h-3.3c-4.2,0-6.3-1.3-6.3-4v-5.3c0-2.5,1.9-3.8,5.7-3.8h7.5c3.7,0,5.5,1.1,5.5,3.5v3c0,.9-.6,1.4-1.7,1.4h-13.1ZM474.4,63.7h10.5c.2,0,.2,0,.2-.2v-1c0-.6-.7-.9-2-.9h-6.7c-1.4,0-2,.3-2,.9v1.2Z"/>
      <path class="st4" d="M506.7,62.7c0-.6-.8-1-2.4-1h-5.4c-1.6,0-2.4.3-2.4,1v7.3c0,1.1-.7,1.7-2,1.7s-2.1-.6-2.1-1.7v-7.3c0-2.9,2.2-4.3,6.7-4.3h5c4.5,0,6.7,1.4,6.7,4.3v7.3c0,1.1-.7,1.7-2,1.7s-2.1-.6-2.1-1.7v-7.3Z"/>
      <path class="st4" d="M519.9,61.7v8.3c0,1.1-.7,1.7-2,1.7s-2.1-.6-2.1-1.7v-8.3h-.5c-1.2,0-1.9-.5-1.9-1.5s.7-1.6,1.9-1.6h.5v-2c0-1.1.7-1.7,2.1-1.7s2.1.6,2.1,1.7v2h3.5c1.2,0,1.9.5,1.9,1.6s-.6,1.5-1.9,1.5h-3.5Z"/>
      <path class="st4" d="M530.3,57.3c-1.4,0-2.2-.6-2.2-1.7s.7-1.7,2.2-1.7,2.1.6,2.1,1.7-.7,1.7-2.1,1.7ZM528.3,60c0-1.1.7-1.7,2-1.7s2.1.6,2.1,1.7v10c0,1.1-.7,1.7-2,1.7s-2.1-.6-2.1-1.7v-10Z"/>
      <path class="st4" d="M542.9,71.6c-4.5,0-6.7-1.4-6.7-4.3v-4.6c0-2.8,2.2-4.3,6.7-4.3h5c4.5,0,6.7,1.4,6.7,4.3v4.6c0,2.9-2.2,4.3-6.7,4.3h-5ZM550.6,62.7c0-.6-.8-1-2.4-1h-5.4c-1.6,0-2.4.3-2.4,1v4.7c0,.6.8,1,2.4,1h5.4c1.6,0,2.4-.3,2.4-1v-4.7Z"/>
      <path class="st4" d="M572.8,62.7c0-.6-.8-1-2.4-1h-5.4c-1.6,0-2.4.3-2.4,1v7.3c0,1.1-.7,1.7-2,1.7s-2.1-.6-2.1-1.7v-7.3c0-2.9,2.2-4.3,6.7-4.3h5c4.5,0,6.7,1.4,6.7,4.3v7.3c0,1.1-.7,1.7-2,1.7s-2.1-.6-2.1-1.7v-7.3Z"/>
    </g>
    <g class="st1">
      <path class="st4" d="M52.4,107.6c-5.1,0-7.6-1.6-7.6-4.9v-7.7c0-3.1,2.5-4.7,7.5-4.7h9.4c1.2,0,1.9.5,1.9,1.6s-.6,1.7-1.9,1.7h-9.3c-2.2,0-3.4.5-3.4,1.5v7.5c0,1.1,1.2,1.7,3.7,1.7h9c1.2,0,1.9.5,1.9,1.6s-.6,1.7-1.9,1.7h-9.3Z"/>
      <path class="st4" d="M70.5,102.3v1.3c0,.6.8.9,2.3.9h3.3c1.3,0,1.9.5,1.9,1.6s-.6,1.5-1.9,1.5h-3.3c-4.2,0-6.3-1.3-6.3-4v-5.3c0-2.5,1.9-3.8,5.7-3.8h7.5c3.7,0,5.5,1.1,5.5,3.5v3c0,.9-.6,1.4-1.7,1.4h-13.1ZM70.5,99.7h10.5c.2,0,.2,0,.2-.2v-1c0-.6-.6-.9-2-.9h-6.7c-1.3,0-2,.3-2,.9v1.2Z"/>
      <path class="st4" d="M102.8,98.7c0-.6-.8-1-2.4-1h-5.4c-1.6,0-2.4.3-2.4,1v7.3c0,1.1-.7,1.7-2,1.7s-2.1-.6-2.1-1.7v-7.3c0-2.9,2.2-4.3,6.7-4.3h5c4.5,0,6.7,1.4,6.7,4.3v7.3c0,1.1-.7,1.7-2,1.7s-2.1-.6-2.1-1.7v-7.3Z"/>
      <path class="st4" d="M116,97.7v8.3c0,1.1-.7,1.7-2,1.7s-2.1-.6-2.1-1.7v-8.3h-.4c-1.2,0-1.9-.5-1.9-1.5s.6-1.6,1.9-1.6h.4v-2c0-1.1.7-1.7,2.1-1.7s2.1.6,2.1,1.7v2h3.5c1.2,0,1.9.5,1.9,1.6s-.6,1.5-1.9,1.5h-3.5Z"/>
      <path class="st4" d="M128,102.3v1.3c0,.6.8.9,2.3.9h3.3c1.3,0,1.9.5,1.9,1.6s-.6,1.5-1.9,1.5h-3.3c-4.2,0-6.3-1.3-6.3-4v-5.3c0-2.5,1.9-3.8,5.7-3.8h7.5c3.7,0,5.5,1.1,5.5,3.5v3c0,.9-.6,1.4-1.7,1.4h-13.1ZM128,99.7h10.5c.2,0,.2,0,.2-.2v-1c0-.6-.6-.9-2-.9h-6.7c-1.3,0-2,.3-2,.9v1.2Z"/>
      <path class="st4" d="M146,98.7c0-2.8,2.2-4.3,6.7-4.3h1.4c1.3,0,2,.5,2,1.6s-.6,1.6-2,1.6h-1.6c-1.6,0-2.4.3-2.4.9v7.3c0,1.1-.7,1.7-2.1,1.7s-2-.6-2-1.7v-7.3Z"/>
      <path class="st4" d="M175.7,113.3c-3.6,0-5.4-2.2-5.4-6.7v-14.8c0-4.5,1.8-6.7,5.4-6.7h1.2c1,0,1.6.5,1.6,1.5s-.5,1.6-1.6,1.6h-1.4c-1.3,0-2,1.2-2,3.5v15c0,2.3.7,3.5,2,3.5h1.4c1,0,1.6.5,1.6,1.6s-.5,1.5-1.6,1.5h-1.2Z"/>
      <path class="st4" d="M187.4,93.6h-5.8c-1.2,0-1.9-.6-1.9-1.7s.6-1.6,1.9-1.6h15.9c1.3,0,1.9.5,1.9,1.6s-.6,1.7-1.9,1.7h-5.8v12.4c0,1.1-.7,1.7-2.1,1.7s-2.1-.6-2.1-1.7v-12.4Z"/>
      <path class="st4" d="M202.1,91.9c0-1.1.7-1.7,2.1-1.7s2.1.6,2.1,1.7v14.1c0,1.1-.7,1.7-2.1,1.7s-2.1-.6-2.1-1.7v-14.1Z"/>
      <path class="st4" d="M218,107.6c-5.1,0-7.6-1.6-7.6-4.9v-7.7c0-3.1,2.5-4.7,7.5-4.7h9.4c1.2,0,1.9.5,1.9,1.6s-.6,1.7-1.9,1.7h-9.3c-2.2,0-3.4.5-3.4,1.5v7.5c0,1.1,1.2,1.7,3.7,1.7h9c1.2,0,1.9.5,1.9,1.6s-.6,1.7-1.9,1.7h-9.3Z"/>
      <path class="st4" d="M240.2,107.6c-5.1,0-7.6-1.6-7.6-4.9v-7.7c0-3.1,2.5-4.7,7.5-4.7h9.4c1.2,0,1.9.5,1.9,1.6s-.6,1.7-1.9,1.7h-9.3c-2.2,0-3.4.5-3.4,1.5v7.5c0,1.1,1.2,1.7,3.7,1.7h9c1.2,0,1.9.5,1.9,1.6s-.6,1.7-1.9,1.7h-9.3Z"/>
      <path class="st4" d="M256,85c3.6,0,5.4,2.2,5.4,6.7v14.8c0,4.5-1.8,6.7-5.4,6.7h-1.2c-1,0-1.6-.5-1.6-1.5s.5-1.6,1.6-1.6h1.4c1.3,0,2-1.2,2-3.5v-15c0-2.3-.7-3.5-2-3.5h-1.4c-1,0-1.6-.5-1.6-1.6s.5-1.5,1.6-1.5h1.2Z"/>
      <path class="st4" d="M277.5,101.5c-1.2,0-1.9-.5-1.9-1.6s.6-1.5,1.9-1.5h7.4c1.2,0,1.9.5,1.9,1.5s-.6,1.6-1.9,1.6h-7.4Z"/>
      <path class="st4" d="M303.9,101.3v4.7c0,1.1-.7,1.7-2.1,1.7s-2.1-.6-2.1-1.7v-14.4c0-.9.6-1.3,1.7-1.3h11.8c5.4,0,8.1,1.5,8.1,4.6v1.6c0,3-2.7,4.4-8.1,4.4h-2.3l7.8,3.4c.8.4,1.2.8,1.2,1.6,0,1.2-.8,1.8-2.2,1.8s-.9,0-1.6-.5l-12.1-6ZM303.9,98h9.4c2.4,0,3.7-.5,3.7-1.5v-1.4c0-1-1.2-1.5-3.7-1.5h-9.2c-.1,0-.2,0-.2.2v4.1Z"/>
      <path class="st4" d="M330.7,107.6c-4.5,0-6.7-1.4-6.7-4.3v-4.6c0-2.8,2.2-4.3,6.7-4.3h5c4.5,0,6.7,1.4,6.7,4.3v4.6c0,2.9-2.2,4.3-6.7,4.3h-5ZM338.4,98.7c0-.6-.8-1-2.4-1h-5.4c-1.6,0-2.4.3-2.4,1v4.7c0,.6.8,1,2.4,1h5.4c1.6,0,2.4-.3,2.4-1v-4.7Z"/>
      <path class="st4" d="M352.9,107.6c-4.5,0-6.7-1.4-6.7-4.3v-4.6c0-2.8,2.2-4.3,6.7-4.3h5c4.5,0,6.7,1.4,6.7,4.3v4.6c0,2.9-2.2,4.3-6.7,4.3h-5ZM360.6,98.7c0-.6-.8-1-2.4-1h-5.4c-1.6,0-2.4.3-2.4,1v4.7c0,.6.8,1,2.4,1h5.4c1.6,0,2.4-.3,2.4-1v-4.7Z"/>
      <path class="st4" d="M389,98.7c0-.6-.7-.9-2.1-.9h-1.9c-1.5,0-2.2.3-2.2.9v7.3c0,1.1-.7,1.7-2,1.7s-2-.6-2-1.7v-7.3c0-.6-.7-.9-2.2-.9h-1.9c-1.4,0-2.1.3-2.1.9v7.3c0,1.1-.7,1.7-2,1.7s-2.1-.6-2.1-1.7v-7.3c0-2.8,2.1-4.2,6.4-4.2h1.9c1.5,0,2.9.5,4,1.4,1.1-.9,2.4-1.4,4-1.4h1.9c4.3,0,6.4,1.4,6.4,4.2v7.3c0,1.1-.7,1.7-2.1,1.7s-2-.6-2-1.7v-7.3Z"/>
      <path class="st4" d="M406.8,91.9c0-1.1.7-1.7,2.1-1.7s2.1.6,2.1,1.7v14.1c0,1.1-.7,1.7-2.1,1.7s-2.1-.6-2.1-1.7v-14.1Z"/>
      <path class="st4" d="M422.7,107.6c-5.1,0-7.6-1.6-7.6-4.9v-7.6c0-3.2,2.5-4.8,7.5-4.8h5.8c5,0,7.5,1.6,7.5,4.8v7.6c0,3.2-2.5,4.9-7.6,4.9h-5.6ZM431.6,95.2c0-1-1.1-1.6-3.3-1.6h-5.7c-2.2,0-3.4.5-3.4,1.6v7.4c0,1.1,1.1,1.7,3.4,1.7h5.7c2.2,0,3.3-.6,3.3-1.7v-7.4Z"/>
      <path class="st4" d="M439.8,91.9c0-1.1.7-1.7,2.1-1.7s2.1.6,2.1,1.7v14.1c0,1.1-.7,1.7-2.1,1.7s-2.1-.6-2.1-1.7v-14.1Z"/>
    </g>
  </g>
  <g class="st1">
    <g class="st1">
      <path class="st4" d="M298.3,8.6h-6.6c-.8,0-1.2-.3-1.2-1s.4-1,1.2-1h15.7c.8,0,1.2.3,1.2,1s-.4,1-1.2,1h-6.5v13.8c0,.7-.4,1-1.3,1s-1.3-.3-1.3-1v-13.8Z"/>
      <path class="st4" d="M317.5,23.2c-4.1,0-6.2-1.3-6.2-3.8v-7c0-.6.4-1,1.3-1s1.3.4,1.3,1v7c0,1.2,1.2,1.8,3.6,1.8h4.6c2.4,0,3.6-.6,3.6-1.8v-7c0-.6.4-1,1.3-1s1.3.4,1.3,1v7c0,2.5-2.1,3.8-6.2,3.8h-4.4Z"/>
      <path class="st4" d="M335.1,18.2v1.5c0,1.1,1.1,1.7,3.3,1.7h3.6c.8,0,1.2.3,1.2.9s-.4.9-1.2.9h-3.6c-3.9,0-5.9-1.2-5.9-3.6v-4.7c0-2.3,1.8-3.4,5.2-3.4h6.9c3.4,0,5.1,1,5.1,3.1v2.7c0,.6-.4.9-1.1.9h-13.7ZM335.1,16.5h12c.1,0,.2,0,.2-.2v-1.2c0-1.1-.9-1.7-2.8-1.7h-6.6c-1.9,0-2.9.6-2.9,1.7v1.4Z"/>
      <path class="st4" d="M352.7,23.3c-.9,0-1.4-.4-1.4-1.2s.5-1.2,1.4-1.2,1.4.4,1.4,1.2-.5,1.2-1.4,1.2Z"/>
    </g>
  </g>
</svg>