<?xml version="1.0" encoding="UTF-8"?>
<svg id="_圖層_1" xmlns="http://www.w3.org/2000/svg" xmlns:xlink="http://www.w3.org/1999/xlink" version="1.1" viewBox="0 0 580.8 124.9">
  <!-- Generator: Adobe Illustrator 30.5.1, SVG Export Plug-In . SVG Version: 2.1.4 Build 3)  -->
  <defs>
    <style>
      .st0 {
        fill: none;
      }

      .st1, .st2, .st3 {
        fill: #fff;
      }

      .st4, .st3 {
        opacity: .5;
      }

      .st5 {
        clip-path: url(#clippath);
      }

      .st2 {
        opacity: .6;
      }

      .st2, .st3 {
        isolation: isolate;
      }
    </style>
    <clipPath id="clippath">
      <path class="st0" d="M16.6,77.3c-7.5,0-13.7-6.1-13.7-13.7s6.1-13.7,13.7-13.7,13.7,6.1,13.7,13.7-6.1,13.7-13.7,13.7Z"/>
    </clipPath>
  </defs>
  <path class="st3" d="M16.2,29.3c7.3,0,13.3-5.9,13.3-13.3S23.5,2.8,16.2,2.8,2.9,8.7,2.9,16.1s5.9,13.3,13.3,13.3h0Z"/>
  <path class="st1" d="M16.2,29.8c-7.5,0-13.7-6.1-13.7-13.7S8.8,2.4,16.2,2.4s13.7,6.1,13.7,13.7-6.1,13.7-13.7,13.7ZM16.2,3.2c-7.1,0-12.8,5.8-12.8,12.9s5.8,12.9,12.9,12.9,12.9-5.8,12.9-12.9S23.3,3.2,16.2,3.2Z"/>
  <path class="st3" d="M17.1,10.1l.8,2.9,3-.7c.9-.2,1.6.9.9,1.6l-2.1,2.2,2.1,2.2c.7.7,0,1.8-.9,1.6l-3-.7-.8,2.9c-.3.9-1.6.9-1.8,0l-.8-2.9-3,.7c-.9.2-1.6-.9-.9-1.6l2.1-2.2-2.1-2.2c-.7-.7,0-1.8.9-1.6l3,.7.8-2.9c.3-.9,1.6-.9,1.8,0Z"/>
  <g class="st5">
    <g>
      <path class="st3" d="M16.7,76.9c7.3,0,13.3-5.9,13.3-13.3s-5.9-13.3-13.3-13.3-13.3,5.9-13.3,13.3,5.9,13.3,13.3,13.3Z"/>
      <g class="st4">
        <path class="st2" d="M10.9,49.6L0,79.3l.8.3,10.9-29.7s-.8-.3-.8-.3Z"/>
        <path class="st2" d="M16.3,49.6l-10.9,29.7.8.3,10.9-29.7s-.8-.3-.8-.3Z"/>
        <path class="st2" d="M21.8,49.6l-10.9,29.7.8.3,10.9-29.7s-.8-.3-.8-.3Z"/>
        <path class="st2" d="M27.2,49.6l-10.9,29.7.8.3,10.9-29.7s-.8-.3-.8-.3Z"/>
        <path class="st2" d="M32.6,49.6l-10.9,29.7.8.3,10.9-29.7s-.8-.3-.8-.3Z"/>
        <path class="st2" d="M22.5,49.6l-.8.3,10.9,29.7.8-.3s-10.9-29.7-10.9-29.7Z"/>
        <path class="st2" d="M17.1,49.6l-.8.3,10.9,29.7.8-.3s-10.9-29.7-10.9-29.7Z"/>
        <path class="st2" d="M11.6,49.6l-.8.3,10.9,29.7.8-.3s-10.9-29.7-10.9-29.7Z"/>
        <path class="st2" d="M6.2,49.6l-.8.3,10.9,29.7.8-.3s-10.9-29.7-10.9-29.7Z"/>
        <path class="st2" d="M.8,49.6l-.8.3,10.9,29.7.8-.3L.8,49.6Z"/>
      </g>
      <path class="st1" d="M16.7,77.3c-7.5,0-13.7-6.1-13.7-13.7s6.1-13.7,13.7-13.7,13.7,6.1,13.7,13.7-6.1,13.7-13.7,13.7ZM16.7,50.7c-7.1,0-12.9,5.8-12.9,12.9s5.8,12.9,12.9,12.9,12.9-5.8,12.9-12.9-5.8-12.9-12.9-12.9Z"/>
    </g>
  </g>
  <g>
    <path class="st1" d="M66.2.5c5.9,0,9.2,3,9.2,8.6s-2.2,7-7.1,8.2l-12.7,2.8c-2.1.5-2.5,1.6-2.5,3.3v1.5c0,.5.2.6.6.6h20.9v5.3h-24.3c-1.7,0-2.5-.8-2.5-2.5v-4.6c0-5,1.5-7.6,6.7-8.7l12.8-2.9c2.2-.5,2.8-1.5,2.8-3s-1.3-3.4-3.7-3.4h-17.6V.5s17.4,0,17.4,0Z"/>
    <path class="st1" d="M106.9,15.7c0,10.2-4.9,15.6-13.8,15.6s-13.8-5.5-13.8-15.6S84.3,0,93.2,0s13.8,5.5,13.8,15.7h0ZM84.6,15.6c0,7,2.6,10.4,8.5,10.4s8.5-3.4,8.5-10.4-2.6-10.3-8.5-10.3-8.5,3.4-8.5,10.3Z"/>
    <path class="st1" d="M130.7.5c5.9,0,9.2,3,9.2,8.6s-2.2,7-7.1,8.2l-12.7,2.8c-2.1.5-2.5,1.6-2.5,3.3v1.5c0,.5.2.6.6.6h20.9v5.3h-24.3c-1.7,0-2.5-.8-2.5-2.5v-4.6c0-5,1.5-7.6,6.7-8.7l12.8-2.9c2.2-.5,2.8-1.5,2.8-3s-1.3-3.4-3.7-3.4h-17.6V.5h17.4Z"/>
    <path class="st1" d="M170.3.5v5.3h-11.7c-5,0-7.7,2.2-8.3,7.2h12.8c6.2,0,9,2.7,9,8.3s-2.7,9.7-9.5,9.7h-5.2c-7.7,0-12.5-5-12.5-15.2s4.9-15.3,13.8-15.3h11.7,0ZM150.3,17.2c.4,5.9,2.9,8.3,7.9,8.3h4.2c3,0,4.5-1.8,4.5-4.4s-1.5-3.9-4.3-3.9h-12.3,0Z"/>
    <path class="st1" d="M181.6,24.8v6.1h-5.1v-6.1h5.1Z"/>
    <path class="st1" d="M212.8,15.7c0,10.2-4.9,15.6-13.8,15.6s-13.8-5.5-13.8-15.6,4.9-15.7,13.8-15.7,13.8,5.5,13.8,15.7ZM190.5,15.6c0,7,2.6,10.4,8.5,10.4s8.5-3.4,8.5-10.4-2.6-10.3-8.5-10.3-8.5,3.4-8.5,10.3Z"/>
    <path class="st1" d="M236.4.5c7.2,0,10.2,3.4,10.2,8.3s-1.5,5.7-4.3,6.8c2.8,1.2,4.5,3.4,4.5,6.9s-3,8.4-10.2,8.4h-7.4c-7.2,0-10.1-3.5-10.1-8.4s1.6-5.7,4.4-6.9c-2.8-1.1-4.3-3.3-4.3-6.8,0-5,3-8.3,10.2-8.3h7.2-.2ZM236.6,25.6c3.2,0,4.7-1.4,4.7-3.9s-1.6-3.8-4.7-3.8h-7.7c-3.1,0-4.7,1.3-4.7,3.8s1.5,3.9,4.7,3.9h7.7ZM236.5,13.3c3.2,0,4.7-1.2,4.7-3.7s-1.4-3.9-4.6-3.9h-7.5c-3.2,0-4.7,1.6-4.7,3.9s1.6,3.7,4.7,3.7h7.4Z"/>
    <path class="st1" d="M255.5,29.4c-1,0-1.9-.4-2.6-1.1s-1-1.7-1-2.8.3-2,1-2.7,1.6-1.1,2.6-1.1,1.9.4,2.6,1.1,1,1.6,1,2.7-.3,2-1,2.8-1.6,1.1-2.6,1.1Z"/>
    <path class="st1" d="M269.1.5c5.5,0,7.1,2,7.1,7.3v23.2h-5.3V8.1c0-1.6-.6-2.3-2.2-2.3h-2.8V.5h3.2,0Z"/>
    <path class="st1" d="M284.3.5c5.5,0,7.1,2,7.1,7.3v23.2h-5.3V8.1c0-1.6-.6-2.3-2.2-2.3h-2.8V.5h3.2,0Z"/>
  </g>
  <g>
    <path class="st1" d="M319,18.3v2.1h-3.6v10.1h-2.2v-10.1h-3.6v-2.1h9.4Z"/>
    <path class="st1" d="M322.8,21v5.7c0,1.1.8,2,2.4,2h1.6c1.5,0,2.3-.9,2.3-2v-5.7h1.9v5.8c0,2.2-1.4,3.8-4.2,3.8h-1.8c-2.7,0-4.2-1.6-4.2-3.8v-5.8h2Z"/>
    <path class="st1" d="M339.8,21c2.3,0,3.2,1.1,3.2,2.9s-.9,2.8-3.2,2.8h-4.6v.7c0,.8.4,1.3,1.5,1.3h5.9v1.9h-5.9c-2.4,0-3.3-1.3-3.3-3.2v-3.3c0-1.8.9-3.2,3.3-3.2h3.1ZM335.2,25.2h4.5c1,0,1.4-.4,1.4-1.1s-.4-1.2-1.4-1.2h-3.1c-1.1,0-1.5.6-1.5,1.3v1h.1Z"/>
    <path class="st1" d="M346.9,28.1v2.5h-2.1v-2.5h2.1Z"/>
  </g>
  <g>
    <path class="st1" d="M380.9,20.5c0,7.6-3.6,11.7-10.3,11.7s-10.3-4.1-10.3-11.7,3.7-11.7,10.3-11.7,10.3,4.1,10.3,11.7ZM364.3,20.4c0,5.2,1.9,7.7,6.4,7.7s6.3-2.5,6.3-7.7-1.9-7.7-6.3-7.7-6.4,2.5-6.4,7.7Z"/>
    <path class="st1" d="M395.7,9.1c5.3,0,8.9,3.2,8.9,11s-3.7,11.7-10.3,11.7h-7.5v-4h7.5c3.6,0,5.6-1.6,6.2-5.3h-9.5c-4.6,0-6.7-2-6.7-6.2s2-7.2,7.5-7.2h3.9ZM391.4,19.3h9.2c-.2-4.3-2.1-6.2-5.9-6.2h-3.2c-2.3,0-3.4,1.3-3.4,3.3s1.1,2.9,3.2,2.9h0Z"/>
    <path class="st1" d="M413,14.5v4.6h-3.8v-4.6h3.8ZM413,27.2v4.6h-3.8v-4.6h3.8Z"/>
    <path class="st1" d="M438.1,20.5c0,7.6-3.6,11.7-10.3,11.7s-10.3-4.1-10.3-11.7,3.7-11.7,10.3-11.7,10.3,4.1,10.3,11.7ZM421.5,20.4c0,5.2,1.9,7.7,6.4,7.7s6.3-2.5,6.3-7.7-1.9-7.7-6.3-7.7-6.4,2.5-6.4,7.7Z"/>
    <path class="st1" d="M463.3,20.5c0,7.6-3.6,11.7-10.3,11.7s-10.3-4.1-10.3-11.7,3.7-11.7,10.3-11.7,10.3,4.1,10.3,11.7ZM446.7,20.4c0,5.2,1.9,7.7,6.4,7.7s6.3-2.5,6.3-7.7-1.9-7.7-6.3-7.7-6.4,2.5-6.4,7.7Z"/>
    <path class="st1" d="M484.5,19.4v3.4h-17.6v-3.4h17.6Z"/>
    <path class="st1" d="M488.8,9.1c4.1,0,5.3,1.5,5.3,5.4v17.3h-4V14.8c0-1.2-.4-1.7-1.6-1.7h-2.1v-4h2.4Z"/>
    <path class="st1" d="M512.8,9.1c4.4,0,6.8,2.3,6.8,6.4s-1.6,5.2-5.3,6.1l-9.4,2.1c-1.6.4-1.9,1.2-1.9,2.5v1.1c0,.4.1.5.4.5h15.6v4h-18.1c-1.3,0-1.9-.6-1.9-1.8v-3.4c0-3.7,1.1-5.7,5-6.5l9.5-2.2c1.6-.4,2.1-1.1,2.1-2.2s-1-2.5-2.8-2.5h-13.1v-4h13.1Z"/>
    <path class="st1" d="M528,14.5v4.6h-3.8v-4.6h3.8ZM528,27.2v4.6h-3.8v-4.6h3.8Z"/>
    <path class="st1" d="M553.1,20.5c0,7.6-3.6,11.7-10.3,11.7s-10.3-4.1-10.3-11.7,3.7-11.7,10.3-11.7,10.3,4.1,10.3,11.7ZM536.4,20.4c0,5.2,1.9,7.7,6.4,7.7s6.3-2.5,6.3-7.7-1.9-7.7-6.3-7.7-6.4,2.5-6.4,7.7Z"/>
    <path class="st1" d="M578.2,20.5c0,7.6-3.6,11.7-10.3,11.7s-10.3-4.1-10.3-11.7,3.7-11.7,10.3-11.7,10.3,4.1,10.3,11.7ZM561.6,20.4c0,5.2,1.9,7.7,6.4,7.7s6.3-2.5,6.3-7.7-1.9-7.7-6.3-7.7-6.4,2.5-6.4,7.7Z"/>
  </g>
  <g>
    <path class="st1" d="M64.4,55.2v3.8h-6.4v18.1h-3.9v-18.1h-6.4v-3.8h16.7Z"/>
    <path class="st1" d="M78.2,59.9c4.3,0,6,2.4,6,5.7v8.1c0,2.5-.7,3.5-3.6,3.5h-8c-4.1,0-5.8-2-5.8-5.2s1.6-4.9,5.8-4.9h8.2v-1.3c0-1.3-.7-2.4-2.6-2.4h-10.3v-3.3h10.3v-.2ZM80.8,72.9v-3.2h-8.1c-1.8,0-2.5.7-2.5,2s.7,2.1,2.4,2.1h7.2c.7,0,.9-.3.9-.9h0Z"/>
    <path class="st1" d="M92.5,53.5v4h-3.5v-4h3.5ZM92.5,59.9v17.2h-3.5v-17.2s3.5,0,3.5,0Z"/>
    <path class="st1" d="M108.5,59.9c4.6,0,7.4,2.8,7.4,8.6s-2.9,8.6-7.4,8.6h-7.6v6.9h-3.5v-16.7c0-5,2.2-7.4,6.3-7.4,0,0,4.8,0,4.8,0ZM100.9,73.8h7.3c3,0,4.3-1.5,4.3-5.2s-1.3-5.3-4.3-5.3h-3.4c-2.8,0-3.9,1.2-3.9,4.2,0,0,0,6.3,0,6.3Z"/>
    <path class="st1" d="M131.2,59.9c4.1,0,5.8,2,5.8,5.3s-1.6,5-5.8,5h-8.2v1.2c0,1.4.7,2.4,2.6,2.4h10.5v3.4h-10.5c-4.3,0-6-2.4-6-5.7v-5.9c0-3.3,1.7-5.7,6-5.7h5.6,0ZM123,67.5h8.1c1.9,0,2.5-.8,2.5-2.1s-.7-2.2-2.4-2.2h-5.5c-1.9,0-2.6,1-2.6,2.4v1.8h-.1Z"/>
    <path class="st1" d="M144.7,53.5v4h-3.5v-4h3.5ZM144.7,59.9v17.2h-3.5v-17.2s3.5,0,3.5,0Z"/>
    <path class="st1" d="M162.4,55.2v22h-3.8v-22s3.8,0,3.8,0Z"/>
    <path class="st1" d="M177,59.9c5.8,0,8.7,2.8,8.7,7.5v9.7h-3.5v-9.7c0-2.7-1.6-4.2-5.2-4.2h-5.6c-.3,0-.4.2-.4.5v13.4h-3.5v-14.5c0-2,.7-2.7,2.4-2.7,0,0,7.1,0,7.1,0Z"/>
    <path class="st1" d="M191.1,59.9v-4.1h3.5v4.1h4.8v3.3h-4.8v8.1c0,1.9.7,2.6,2.3,2.6h2.4v3.2h-3.1c-3.6,0-5.1-1.4-5.1-5.9v-7.9h-2.3v-3.3h2.3Z"/>
    <path class="st1" d="M213.9,59.9c4.1,0,5.8,2,5.8,5.3s-1.6,5-5.8,5h-8.2v1.2c0,1.4.7,2.4,2.6,2.4h10.5v3.4h-10.5c-4.3,0-6-2.4-6-5.7v-5.9c0-3.3,1.7-5.7,6-5.7h5.6,0ZM205.7,67.5h8.1c1.9,0,2.5-.8,2.5-2.1s-.7-2.2-2.4-2.2h-5.5c-1.9,0-2.6,1-2.6,2.4v1.8h-.1Z"/>
    <path class="st1" d="M235.7,59.9v3.3h-6.1c-1.5,0-2.2.7-2.2,2.2v11.7h-3.5v-12.2c0-3.5,1.3-5,4.7-5h7.1Z"/>
    <path class="st1" d="M248.5,59.9c5.8,0,8.7,2.8,8.7,7.5v9.7h-3.5v-9.7c0-2.7-1.6-4.2-5.2-4.2h-5.6c-.3,0-.4.2-.4.5v13.4h-3.5v-14.5c0-2,.7-2.7,2.4-2.7h7.1,0Z"/>
    <path class="st1" d="M273.1,59.9c4.3,0,6,2.4,6,5.7v8.1c0,2.5-.7,3.5-3.6,3.5h-8c-4.1,0-5.8-2-5.8-5.2s1.6-4.9,5.8-4.9h8.2v-1.3c0-1.3-.7-2.4-2.6-2.4h-10.3v-3.3h10.3v-.2ZM275.7,72.9v-3.2h-8.1c-1.8,0-2.5.7-2.5,2s.7,2.1,2.4,2.1h7.2c.7,0,.9-.3.9-.9h.1Z"/>
    <path class="st1" d="M284.6,59.9v-4.1h3.5v4.1h4.8v3.3h-4.8v8.1c0,1.9.7,2.6,2.3,2.6h2.4v3.2h-3.1c-3.6,0-5.1-1.4-5.1-5.9v-7.9h-2.3v-3.3h2.3Z"/>
    <path class="st1" d="M299.6,53.5v4h-3.5v-4h3.5ZM299.6,59.9v17.2h-3.5v-17.2s3.5,0,3.5,0Z"/>
    <path class="st1" d="M314.8,59.9c4.6,0,7.5,2.8,7.5,8.6s-2.9,8.6-7.5,8.6h-3.6c-4.6,0-7.5-2.8-7.5-8.6s2.9-8.6,7.5-8.6h3.6ZM311.5,63.3c-3,0-4.3,1.6-4.3,5.3s1.3,5.2,4.3,5.2h3c3,0,4.3-1.5,4.3-5.2s-1.3-5.3-4.3-5.3h-3Z"/>
    <path class="st1" d="M335.9,59.9c5.8,0,8.7,2.8,8.7,7.5v9.7h-3.5v-9.7c0-2.7-1.6-4.2-5.2-4.2h-5.6c-.3,0-.4.2-.4.5v13.4h-3.5v-14.5c0-2,.7-2.7,2.4-2.7,0,0,7.1,0,7.1,0Z"/>
    <path class="st1" d="M360.4,59.9c4.3,0,6,2.4,6,5.7v8.1c0,2.5-.7,3.5-3.5,3.5h-8c-4.1,0-5.8-2-5.8-5.2s1.6-4.9,5.8-4.9h8.2v-1.3c0-1.3-.7-2.4-2.6-2.4h-10.3v-3.3h10.3v-.2ZM363,72.9v-3.2h-8.1c-1.8,0-2.5.7-2.5,2s.7,2.1,2.4,2.1h7.2c.7,0,.9-.3.9-.9h.1Z"/>
    <path class="st1" d="M374.8,52.5v24.7h-3.5v-24.7s3.5,0,3.5,0Z"/>
    <path class="st1" d="M406.2,55.2v3.8h-8.5c-4.2,0-6.1,2.1-6.1,7.2s1.8,7.1,6.1,7.1h8.5v3.8h-8.5c-6.4,0-9.9-3.6-9.9-11s3.6-11,9.9-11h8.5Z"/>
    <path class="st1" d="M420.9,59.9c4.6,0,7.5,2.8,7.5,8.6s-2.9,8.6-7.5,8.6h-3.6c-4.6,0-7.5-2.8-7.5-8.6s2.9-8.6,7.5-8.6h3.6ZM417.6,63.3c-3,0-4.3,1.6-4.3,5.3s1.3,5.2,4.3,5.2h3c3,0,4.3-1.5,4.3-5.2s-1.3-5.3-4.3-5.3h-3Z"/>
    <path class="st1" d="M442,59.9c5.8,0,8.7,2.8,8.7,7.5v9.7h-3.5v-9.7c0-2.7-1.6-4.2-5.2-4.2h-5.6c-.3,0-.4.2-.4.5v13.4h-3.5v-14.5c0-2,.7-2.7,2.4-2.7,0,0,7.1,0,7.1,0Z"/>
    <path class="st1" d="M456.6,59.9l5.7,13.8c.1.4.4.5.8.5s.7-.2.9-.5l6-13.8h3.7l-6.6,15.3c-.7,1.6-2,2.2-3.9,2.2s-3.3-.7-3.9-2.2l-6.3-15.3h3.6,0Z"/>
    <path class="st1" d="M487.1,59.9c4.1,0,5.8,2,5.8,5.3s-1.6,5-5.8,5h-8.2v1.2c0,1.4.7,2.4,2.6,2.4h10.5v3.4h-10.5c-4.3,0-6-2.4-6-5.7v-5.9c0-3.3,1.7-5.7,6-5.7,0,0,5.6,0,5.6,0ZM478.9,67.5h8.1c1.9,0,2.5-.8,2.5-2.1s-.7-2.2-2.4-2.2h-5.5c-1.9,0-2.6,1-2.6,2.4v1.8h-.1Z"/>
    <path class="st1" d="M506.7,59.9c5.8,0,8.7,2.8,8.7,7.5v9.7h-3.5v-9.7c0-2.7-1.6-4.2-5.2-4.2h-5.6c-.3,0-.4.2-.4.5v13.4h-3.5v-14.5c0-2,.7-2.7,2.4-2.7,0,0,7.1,0,7.1,0Z"/>
    <path class="st1" d="M520.8,59.9v-4.1h3.5v4.1h4.8v3.3h-4.8v8.1c0,1.9.7,2.6,2.3,2.6h2.4v3.2h-3.1c-3.6,0-5.1-1.4-5.1-5.9v-7.9h-2.3v-3.3h2.3,0Z"/>
    <path class="st1" d="M535.9,53.5v4h-3.5v-4h3.5ZM535.8,59.9v17.2h-3.5v-17.2s3.5,0,3.5,0Z"/>
    <path class="st1" d="M551,59.9c4.6,0,7.5,2.8,7.5,8.6s-2.9,8.6-7.5,8.6h-3.6c-4.6,0-7.5-2.8-7.5-8.6s2.9-8.6,7.5-8.6h3.6ZM547.7,63.3c-3,0-4.3,1.6-4.3,5.3s1.3,5.2,4.3,5.2h3c3,0,4.3-1.5,4.3-5.2s-1.3-5.3-4.3-5.3h-3Z"/>
    <path class="st1" d="M572.1,59.9c5.8,0,8.7,2.8,8.7,7.5v9.7h-3.5v-9.7c0-2.7-1.6-4.2-5.2-4.2h-5.6c-.3,0-.4.2-.4.5v13.4h-3.5v-14.5c0-2,.7-2.7,2.4-2.7,0,0,7.1,0,7.1,0Z"/>
    <path class="st1" d="M67.1,99.5v3.8h-8.5c-4.2,0-6.1,2.1-6.1,7.2s1.8,7.1,6.1,7.1h8.5v3.8h-8.5c-6.4,0-9.9-3.6-9.9-11s3.6-11,9.9-11h8.5Z"/>
    <path class="st1" d="M82.7,104.3c4.1,0,5.8,2,5.8,5.3s-1.6,5-5.8,5h-8.2v1.2c0,1.4.7,2.4,2.6,2.4h10.5v3.4h-10.5c-4.3,0-6-2.4-6-5.7v-5.9c0-3.3,1.7-5.7,6-5.7,0,0,5.6,0,5.6,0ZM74.4,111.8h8.1c1.9,0,2.5-.8,2.5-2.1s-.7-2.2-2.4-2.2h-5.5c-1.9,0-2.6,1-2.6,2.4v1.8h0Z"/>
    <path class="st1" d="M102.2,104.3c5.8,0,8.7,2.8,8.7,7.5v9.7h-3.5v-9.7c0-2.7-1.6-4.2-5.2-4.2h-5.6c-.3,0-.4.2-.4.5v13.4h-3.5v-14.5c0-2,.7-2.7,2.4-2.7,0,0,7.1,0,7.1,0Z"/>
    <path class="st1" d="M116.3,104.3v-4.1h3.5v4.1h4.8v3.3h-4.8v8.1c0,1.9.7,2.6,2.3,2.6h2.4v3.2h-3.1c-3.6,0-5.1-1.4-5.1-5.9v-7.9h-2.3v-3.3h2.3,0Z"/>
    <path class="st1" d="M139.1,104.3c4.1,0,5.8,2,5.8,5.3s-1.6,5-5.8,5h-8.2v1.2c0,1.4.7,2.4,2.6,2.4h10.5v3.4h-10.5c-4.3,0-6-2.4-6-5.7v-5.9c0-3.3,1.7-5.7,6-5.7h5.6,0ZM130.9,111.8h8.1c1.9,0,2.5-.8,2.5-2.1s-.7-2.2-2.4-2.2h-5.5c-1.9,0-2.6,1-2.6,2.4v1.8h-.1Z"/>
    <path class="st1" d="M160.8,104.3v3.3h-6.1c-1.5,0-2.2.7-2.2,2.2v11.7h-3.5v-12.2c0-3.5,1.3-5,4.7-5h7.1Z"/>
    <path class="st1" d="M179.9,94.8v1.9h-.4c-3.8,0-5.1,1.7-5.1,7v12.1c0,5.3,1.3,7,5.1,7h.4v1.9h-.4c-5.2,0-7-2.7-7-9.2v-11.7c0-6.5,1.8-9.2,7-9.2h.4v.2Z"/>
    <path class="st1" d="M198.3,99.5v3.8h-6.4v18.1h-3.9v-18.1h-6.4v-3.8h16.7,0Z"/>
    <path class="st1" d="M205.7,99.5v22h-3.8v-22h3.8Z"/>
    <path class="st1" d="M228.7,99.5v3.8h-8.5c-4.2,0-6.1,2.1-6.1,7.2s1.8,7.1,6.1,7.1h8.5v3.8h-8.5c-6.4,0-9.9-3.6-9.9-11s3.6-11,9.9-11h8.5Z"/>
    <path class="st1" d="M250.5,99.5v3.8h-8.5c-4.2,0-6.1,2.1-6.1,7.2s1.8,7.1,6.1,7.1h8.5v3.8h-8.5c-6.4,0-9.9-3.6-9.9-11s3.6-11,9.9-11h8.5Z"/>
    <path class="st1" d="M253.2,124.7v-1.9h.4c3.8,0,5.1-1.7,5.1-7v-12.1c0-5.3-1.3-7-5.1-7h-.4v-1.9h.4c5.2,0,7,2.7,7,9.2v11.7c0,6.5-1.8,9.2-7,9.2h-.4v-.2Z"/>
    <path class="st1" d="M283.9,109.5v3.3h-11.6v-3.3h11.6Z"/>
    <path class="st1" d="M308.1,99.5c5,0,7.1,3.1,7.1,6.6s-1.3,5.7-4.7,6.6l5.1,8.8h-4.3l-5-8.5h-5.7c-.4,0-.6.2-.6.6v7.9h-3.8v-8.7c0-2.5,1-3.5,3.5-3.5h8.6c2.2,0,3.1-1.5,3.1-3.1s-.9-2.9-3.1-2.9h-12.1v-3.8h11.9Z"/>
    <path class="st1" d="M328.4,104.3c4.6,0,7.5,2.8,7.5,8.6s-2.9,8.6-7.5,8.6h-3.6c-4.6,0-7.5-2.8-7.5-8.6s2.9-8.6,7.5-8.6h3.6ZM325.1,107.6c-3,0-4.3,1.6-4.3,5.3s1.3,5.2,4.3,5.2h3c3,0,4.3-1.5,4.3-5.2s-1.3-5.3-4.3-5.3h-3Z"/>
    <path class="st1" d="M350.2,104.3c4.6,0,7.5,2.8,7.5,8.6s-2.9,8.6-7.5,8.6h-3.6c-4.6,0-7.5-2.8-7.5-8.6s2.9-8.6,7.5-8.6h3.6ZM346.9,107.6c-3,0-4.3,1.6-4.3,5.3s1.3,5.2,4.3,5.2h3c3,0,4.3-1.5,4.3-5.2s-1.3-5.3-4.3-5.3h-3Z"/>
    <path class="st1" d="M381.9,104.3c5.8,0,8.7,2.8,8.7,7.5v9.7h-3.5v-9.7c0-2.7-1.6-4.2-5.2-4.2h-4v13.9h-3.5v-13.9h-8.7c-.3,0-.4.2-.4.5v13.4h-3.5v-14.5c0-2,.7-2.7,2.4-2.7,0,0,17.7,0,17.7,0Z"/>
    <path class="st1" d="M404.9,99.5c4,0,5.1,1.4,5.1,5.2v16.7h-3.8v-16.5c0-1.2-.4-1.7-1.6-1.7h-2v-3.8h2.3Z"/>
    <path class="st1" d="M434.3,110.5c0,7.4-3.5,11.3-9.9,11.3s-9.9-3.9-9.9-11.3,3.6-11.3,9.9-11.3,9.9,3.9,9.9,11.3ZM418.2,110.5c0,5,1.9,7.5,6.2,7.5s6.1-2.4,6.1-7.5-1.9-7.5-6.1-7.5-6.2,2.4-6.2,7.5Z"/>
    <path class="st1" d="M440.2,99.5c4,0,5.1,1.4,5.1,5.2v16.7h-3.8v-16.5c0-1.2-.4-1.7-1.6-1.7h-2v-3.8h2.3Z"/>
  </g>
</svg>