<?xml version="1.0" encoding="UTF-8"?>
<svg id="_圖層_1" xmlns="http://www.w3.org/2000/svg" xmlns:xlink="http://www.w3.org/1999/xlink" version="1.1" viewBox="0 0 364.9 172.8">
  <!-- Generator: Adobe Illustrator 30.5.1, SVG Export Plug-In . SVG Version: 2.1.4 Build 3)  -->
  <defs>
    <style>
      .st0 {
        fill: none;
      }

      .st1, .st2, .st3 {
        isolation: isolate;
      }

      .st4, .st2, .st3 {
        fill: #fff;
      }

      .st5, .st3 {
        opacity: .5;
      }

      .st6 {
        clip-path: url(#clippath);
      }

      .st2 {
        opacity: .6;
      }
    </style>
    <clipPath id="clippath">
      <path class="st0" d="M14.1,110.4c-7.5,0-13.7-6.1-13.7-13.7s6.1-13.7,13.7-13.7,13.7,6.1,13.7,13.7-6.1,13.7-13.7,13.7Z"/>
    </clipPath>
  </defs>
  <path class="st3" d="M13.7,26.9c7.3,0,13.3-5.9,13.3-13.3S21,.4,13.7.4.4,6.3.4,13.7s5.9,13.3,13.3,13.3h0Z"/>
  <path class="st4" d="M13.7,27.4C6.2,27.4,0,21.3,0,13.7S6.3,0,13.7,0s13.7,6.1,13.7,13.7-6.1,13.7-13.7,13.7ZM13.7.8C6.6.8.9,6.6.9,13.7s5.8,12.9,12.9,12.9,12.9-5.8,12.9-12.9S20.8.8,13.7.8Z"/>
  <path class="st3" d="M14.6,7.7l.8,2.9,3-.7c.9-.2,1.6.9.9,1.6l-2.1,2.2,2.1,2.2c.7.7,0,1.8-.9,1.6l-3-.7-.8,2.9c-.3.9-1.6.9-1.8,0l-.8-2.9-3,.7c-.9.2-1.6-.9-.9-1.6l2.1-2.2-2.1-2.2c-.7-.7,0-1.8.9-1.6l3,.7.8-2.9c.3-.9,1.6-.9,1.8,0Z"/>
  <g class="st1">
    <path class="st4" d="M44.5,24.3c-1.6,0-2.4-.6-2.4-1.7v-5.9c0-3.8,3.3-5.7,10-5.7h9.7c2.5,0,3.7-.6,3.7-1.6v-1.6c0-1.2-1.3-1.8-4-1.8h-5.1c-1.6,0-2.5-.7-2.5-2.2s.8-2.2,2.5-2.2h5.1c6.3,0,9.5,1.9,9.5,5.8v2.4c0,3.6-3.1,5.3-9.4,5.3h-10.2c-2.6,0-3.9.6-3.9,1.9v2.7c0,.2,0,.3.3.3h20.7c1.7,0,2.5.7,2.5,2.1s-.8,2.2-2.5,2.2h-24.2.2Z"/>
    <path class="st4" d="M85.8,24.3c-6.7,0-10-2.1-10-6.4V7.9c0-4.2,3.3-6.3,9.8-6.3h7.6c6.5,0,9.8,2.1,9.8,6.3v10c0,4.3-3.3,6.4-10,6.4h-7.3,0ZM97.6,8c0-1.4-1.4-2.1-4.4-2.1h-7.4c-2.9,0-4.4.7-4.4,2.1v9.6c0,1.5,1.5,2.3,4.4,2.3h7.4c2.9,0,4.4-.8,4.4-2.3v-9.6Z"/>
    <path class="st4" d="M110.2,24.3c-1.6,0-2.4-.6-2.4-1.7v-5.9c0-3.8,3.3-5.7,10-5.7h9.7c2.5,0,3.7-.6,3.7-1.6v-1.6c0-1.2-1.3-1.8-4-1.8h-5.1c-1.6,0-2.5-.7-2.5-2.2s.8-2.2,2.5-2.2h5.1c6.3,0,9.5,1.9,9.5,5.8v2.4c0,3.6-3.1,5.3-9.4,5.3h-10.2c-2.6,0-3.9.6-3.9,1.9v2.7c0,.2,0,.3.3.3h20.7c1.7,0,2.5.7,2.5,2.1s-.8,2.2-2.5,2.2h-24.2.2,0Z"/>
    <path class="st4" d="M171.2,18c0,4.2-3.5,6.3-10.6,6.3h-9.1c-6.7,0-10-2.1-10-6.4V7.7c0-4.1,3.3-6.1,9.8-6.1h5.3c1.6,0,2.5.7,2.5,2.1s-.9,2.2-2.5,2.2h-5.2c-2.9,0-4.4.7-4.4,1.9v1.3h13.5c7.1,0,10.6,2.1,10.6,6.2v2.6h0ZM147.1,13.4v4.3c0,1.5,1.6,2.3,4.9,2.3h9c3.2,0,4.7-.8,4.7-2.2v-2.3c0-1.4-1.6-2.2-4.8-2.2h-13.8,0Z"/>
    <path class="st4" d="M178.1,24.4c-1.9,0-2.9-.8-2.9-2.4s1-2.4,2.9-2.4,2.9.8,2.9,2.4-1,2.4-3,2.4h.1Z"/>
    <path class="st4" d="M195,24.3c-6.7,0-10-2.1-10-6.4V7.9c0-4.2,3.3-6.3,9.8-6.3h7.6c6.5,0,9.8,2.1,9.8,6.3v10c0,4.3-3.3,6.4-10,6.4h-7.3,0ZM206.7,8c0-1.4-1.4-2.1-4.4-2.1h-7.4c-2.9,0-4.4.7-4.4,2.1v9.6c0,1.5,1.5,2.3,4.4,2.3h7.4c2.9,0,4.4-.8,4.4-2.3v-9.6Z"/>
    <path class="st4" d="M246.3,19c0,3.5-2.9,5.2-8.8,5.2h-11.8c-5.8,0-8.8-1.7-8.8-5.2v-2.3c0-1.6.9-3,2.6-4-1.5-.9-2.2-2.2-2.2-3.7v-1.7c0-3.8,3-5.7,9-5.7h10.5c6,0,9,1.9,9,5.7v1.7c0,1.5-.8,2.7-2.3,3.7,1.7,1,2.6,2.4,2.6,4v2.3h.2ZM240.7,16.5c0-1.1-1.1-1.6-3.4-1.6h-11.4c-2.3,0-3.4.5-3.4,1.6v1.9c0,1,1.1,1.6,3.4,1.6h11.4c2.3,0,3.4-.5,3.4-1.6v-1.9ZM240.4,7.6c0-1.1-1.1-1.7-3.4-1.7h-10.8c-2.3,0-3.4.6-3.4,1.7v1.7c0,1,1.1,1.6,3.3,1.6h11c2.2,0,3.3-.5,3.3-1.6v-1.7h0Z"/>
    <path class="st4" d="M252.7,24.4c-1.9,0-2.9-.8-2.9-2.4s1-2.4,2.9-2.4,2.9.8,2.9,2.4-1,2.4-3,2.4h0Z"/>
    <path class="st4" d="M260.5,3.7c0-1.5.9-2.3,2.8-2.3s2.7.8,2.7,2.3v18.4c0,1.5-.9,2.3-2.8,2.3s-2.7-.8-2.7-2.3V3.7Z"/>
    <path class="st4" d="M271.4,3.7c0-1.5.9-2.3,2.8-2.3s2.7.8,2.7,2.3v18.4c0,1.5-.9,2.3-2.8,2.3s-2.7-.8-2.7-2.3V3.7Z"/>
  </g>
  <g class="st1">
    <path class="st4" d="M49.9,57.4c-5.2,0-7.8-1.7-7.8-5.1v-8.2c0-3.4,2.5-5.1,7.6-5.1h5.9c5.1,0,7.6,1.7,7.6,5.1v8.2c0,3.4-2.6,5.1-7.8,5.1h-5.6,0ZM60.4,44.1c0-2-1.6-2.9-4.8-2.9h-5.8c-3.2,0-4.8,1-4.8,2.9v8.1c0,2,1.6,3,4.9,3h5.7c3.3,0,4.9-1,4.9-3v-8.1h-.1Z"/>
    <path class="st4" d="M78.1,57.4c-.8,0-1.3-.4-1.3-1.1s.5-1.1,1.3-1.1h3.8c3.2,0,4.9-1,4.9-2.8v-1.8h-10.8c-5.5,0-8.2-1.7-8.2-5v-1.5c0-3.4,2.7-5,8.2-5h5.8c5.2,0,7.9,1.7,7.9,5.2v8.2c0,3.3-2.6,4.9-7.7,4.9,0,0-3.9,0-3.9,0ZM75.9,48.5h10.9v-4.2c0-2.1-1.7-3.1-5.1-3.1h-5.8c-3.5,0-5.2,1-5.2,2.9v1.4c0,2,1.8,2.9,5.3,2.9h-.1Z"/>
    <path class="st4" d="M95.9,48.3c-1,0-1.6-.4-1.6-1.3s.5-1.3,1.6-1.3,1.6.4,1.6,1.3-.5,1.3-1.6,1.3ZM95.9,55.9c-1,0-1.6-.4-1.6-1.3s.5-1.3,1.6-1.3,1.6.4,1.6,1.3-.5,1.3-1.6,1.3Z"/>
    <path class="st4" d="M110.1,57.4c-5.2,0-7.8-1.7-7.8-5.1v-8.2c0-3.4,2.5-5.1,7.6-5.1h5.9c5.1,0,7.6,1.7,7.6,5.1v8.2c0,3.4-2.6,5.1-7.8,5.1h-5.6.1ZM120.7,44.1c0-2-1.6-2.9-4.8-2.9h-5.8c-3.2,0-4.8,1-4.8,2.9v8.1c0,2,1.6,3,4.9,3h5.7c3.3,0,4.9-1,4.9-3v-8.1s0,0,0,0Z"/>
    <path class="st4" d="M136.3,57.4c-5.2,0-7.8-1.7-7.8-5.1v-8.2c0-3.4,2.5-5.1,7.6-5.1h5.9c5.1,0,7.6,1.7,7.6,5.1v8.2c0,3.4-2.6,5.1-7.8,5.1h-5.6.1ZM146.9,44.1c0-2-1.6-2.9-4.8-2.9h-5.8c-3.2,0-4.8,1-4.8,2.9v8.1c0,2,1.6,3,4.9,3h5.7c3.3,0,4.9-1,4.9-3v-8.1h-.1,0Z"/>
    <path class="st4" d="M155.2,50.3c-.8,0-1.3-.4-1.3-1.1s.5-1,1.3-1h8.8c.9,0,1.3.3,1.3,1s-.5,1.1-1.3,1.1h-8.8Z"/>
    <path class="st4" d="M169.5,40c0-.7.5-1.1,1.5-1.1s1.4.4,1.4,1.1v16.4c0,.7-.5,1.1-1.5,1.1s-1.4-.4-1.4-1.1v-16.4Z"/>
    <path class="st4" d="M178.6,57.4c-.9,0-1.3-.3-1.3-.9v-5c0-2.8,2.5-4.2,7.5-4.2h7.9c2.9,0,4.3-.7,4.3-2.1v-1.7c0-1.5-1.5-2.2-4.4-2.2h-4.6c-.9,0-1.3-.4-1.3-1.1s.5-1.1,1.3-1.1h4.6c4.8,0,7.3,1.4,7.3,4.2v2c0,2.7-2.4,4.1-7.2,4.1h-8.1c-2.9,0-4.4.7-4.4,2.2v3.5c0,0,0,.2.2.2h18.1c.9,0,1.4.4,1.4,1.1s-.5,1.1-1.4,1.1h-19.9Z"/>
    <path class="st4" d="M205.8,48.3c-1,0-1.6-.4-1.6-1.3s.5-1.3,1.6-1.3,1.6.4,1.6,1.3-.5,1.3-1.6,1.3ZM205.8,55.9c-1,0-1.6-.4-1.6-1.3s.5-1.3,1.6-1.3,1.6.4,1.6,1.3-.5,1.3-1.6,1.3Z"/>
    <path class="st4" d="M220,57.4c-5.2,0-7.8-1.7-7.8-5.1v-8.2c0-3.4,2.5-5.1,7.6-5.1h5.9c5.1,0,7.6,1.7,7.6,5.1v8.2c0,3.4-2.6,5.1-7.8,5.1h-5.6.1ZM230.5,44.1c0-2-1.6-2.9-4.8-2.9h-5.8c-3.2,0-4.8,1-4.8,2.9v8.1c0,2,1.6,3,4.9,3h5.7c3.3,0,4.9-1,4.9-3v-8.1h-.1,0Z"/>
    <path class="st4" d="M246.2,57.4c-5.2,0-7.8-1.7-7.8-5.1v-8.2c0-3.4,2.5-5.1,7.6-5.1h5.9c5.1,0,7.6,1.7,7.6,5.1v8.2c0,3.4-2.6,5.1-7.8,5.1h-5.6.1ZM256.8,44.1c0-2-1.6-2.9-4.8-2.9h-5.8c-3.2,0-4.8,1-4.8,2.9v8.1c0,2,1.6,3,4.9,3h5.7c3.3,0,4.9-1,4.9-3v-8.1h-.1,0Z"/>
  </g>
  <g class="st6">
    <g>
      <path class="st3" d="M14.2,110c7.3,0,13.3-5.9,13.3-13.3s-5.9-13.3-13.3-13.3S.9,89.3.9,96.7s5.9,13.3,13.3,13.3Z"/>
      <g class="st5">
        <path class="st2" d="M8.4,82.7l-10.9,29.7.8.3,10.9-29.7-.8-.3Z"/>
        <path class="st2" d="M13.8,82.7l-10.9,29.7.8.3,10.9-29.7-.8-.3Z"/>
        <path class="st2" d="M19.3,82.7l-10.9,29.7.8.3,10.9-29.7-.8-.3Z"/>
        <path class="st2" d="M24.7,82.7l-10.9,29.7.8.3,10.9-29.7-.8-.3Z"/>
        <path class="st2" d="M30.1,82.7l-10.9,29.7.8.3,10.9-29.7-.8-.3Z"/>
        <path class="st2" d="M20,82.7l-.8.3,10.9,29.7.8-.3s-10.9-29.7-10.9-29.7Z"/>
        <path class="st2" d="M14.6,82.7l-.8.3,10.9,29.7.8-.3-10.9-29.7Z"/>
        <path class="st2" d="M9.1,82.7l-.8.3,10.9,29.7.8-.3-10.9-29.7Z"/>
        <path class="st2" d="M3.7,82.7l-.8.3,10.9,29.7.8-.3s-10.9-29.7-10.9-29.7Z"/>
        <path class="st2" d="M-1.7,82.7l-.8.3,10.9,29.7.8-.3L-1.7,82.7Z"/>
      </g>
      <path class="st4" d="M14.2,110.4c-7.5,0-13.7-6.1-13.7-13.7s6.1-13.7,13.7-13.7,13.7,6.1,13.7,13.7-6.1,13.7-13.7,13.7ZM14.2,83.8c-7.1,0-12.9,5.8-12.9,12.9s5.8,12.9,12.9,12.9,12.9-5.8,12.9-12.9-5.8-12.9-12.9-12.9Z"/>
    </g>
  </g>
  <g class="st1">
    <g class="st1">
      <path class="st4" d="M52.1,91.9h-6.8c-.8,0-1.2-.3-1.2-1s.4-1,1.2-1h16.3c.9,0,1.3.3,1.3,1s-.4,1-1.3,1h-6.8v14.3c0,.7-.4,1-1.3,1s-1.4-.3-1.4-1v-14.3Z"/>
      <path class="st4" d="M64.1,107.1c-3.6,0-5.3-1.1-5.3-3.3v-1.4c0-2.2,1.8-3.3,5.3-3.3h10.6v-.4c0-1.2-1-1.8-3.1-1.8h-3.5c-.8,0-1.2-.3-1.2-1s.4-1,1.2-1h3.5c3.8,0,5.7,1.2,5.7,3.7v4.9c0,2.3-1.8,3.5-5.4,3.5h-7.8ZM74.7,103.5v-2.7h-10.4c-1.9,0-2.9.5-2.9,1.5v1.3c0,1,1,1.5,2.9,1.5h7.4c2,0,3-.5,3-1.7Z"/>
      <path class="st4" d="M83.3,93.1c-1,0-1.4-.4-1.4-1.2s.5-1.2,1.4-1.2,1.4.4,1.4,1.2-.5,1.2-1.4,1.2ZM82,95.9c0-.7.4-1,1.3-1s1.3.4,1.3,1v10.3c0,.7-.4,1-1.3,1s-1.3-.3-1.3-1v-10.3Z"/>
      <path class="st4" d="M92.1,107.1v3.3c0,.7-.5,1-1.3,1s-1.3-.3-1.3-1v-11.5c0-2.6,2.1-4,6.4-4h5c4.3,0,6.4,1.3,6.4,4v4.2c0,2.6-2.1,3.9-6.4,3.9h-8.8ZM92.1,105.1h8.9c2.5,0,3.7-.7,3.7-1.9v-4.3c0-1.3-1.2-1.9-3.7-1.9h-5.2c-2.4,0-3.7.6-3.7,1.9v6.2Z"/>
      <path class="st4" d="M114.5,101.9v1.5c0,1.2,1.1,1.8,3.5,1.8h3.7c.8,0,1.2.3,1.2,1s-.4,1-1.2,1h-3.7c-4,0-6.1-1.2-6.1-3.7v-4.9c0-2.3,1.8-3.5,5.4-3.5h7.2c3.5,0,5.3,1.1,5.3,3.2v2.8c0,.6-.4.9-1.1.9h-14.2ZM114.5,100.1h12.5c.1,0,.2,0,.2-.2v-1.3c0-1.1-.9-1.7-2.9-1.7h-6.9c-2,0-3,.6-3,1.7v1.5Z"/>
      <path class="st4" d="M135.4,93.1c-1,0-1.4-.4-1.4-1.2s.5-1.2,1.4-1.2,1.4.4,1.4,1.2-.5,1.2-1.4,1.2ZM134.1,95.9c0-.7.4-1,1.3-1s1.3.4,1.3,1v10.3c0,.7-.5,1-1.3,1s-1.3-.3-1.3-1v-10.3Z"/>
      <path class="st4" d="M150.9,90.7c0-.7.5-1,1.4-1s1.3.3,1.3,1v15.4c0,.7-.5,1-1.4,1s-1.3-.3-1.3-1v-15.4Z"/>
      <path class="st4" d="M173.5,98.9c0-1.3-1.2-1.9-3.7-1.9h-5c-2.4,0-3.7.6-3.7,1.9v7.2c0,.7-.4,1-1.3,1s-1.3-.3-1.3-1v-7.2c0-2.6,2.1-4,6.4-4h4.8c4.3,0,6.4,1.3,6.4,4v7.2c0,.7-.5,1-1.3,1s-1.3-.3-1.3-1v-7.2Z"/>
      <path class="st4" d="M184.5,97v9.2c0,.7-.4,1-1.3,1s-1.3-.3-1.3-1v-9.2h-1c-.8,0-1.2-.3-1.2-1s.4-1,1.2-1h1v-2.3c0-.7.4-1,1.3-1s1.3.4,1.3,1v2.3h4.3c.8,0,1.2.3,1.2,1s-.4,1-1.2,1h-4.3Z"/>
      <path class="st4" d="M196.2,101.9v1.5c0,1.2,1.1,1.8,3.5,1.8h3.7c.8,0,1.2.3,1.2,1s-.4,1-1.2,1h-3.7c-4,0-6.1-1.2-6.1-3.7v-4.9c0-2.3,1.8-3.5,5.4-3.5h7.2c3.5,0,5.3,1.1,5.3,3.2v2.8c0,.6-.4.9-1.1.9h-14.2ZM196.2,100.1h12.5c.2,0,.2,0,.2-.2v-1.3c0-1.1-1-1.7-2.9-1.7h-6.9c-2,0-3,.6-3,1.7v1.5Z"/>
      <path class="st4" d="M215.7,98.9c0-2.6,2.1-4,6.4-4h1.9c.9,0,1.3.4,1.3,1s-.4,1-1.3,1h-2c-2.4,0-3.7.6-3.7,1.9v7.3c0,.7-.4,1-1.3,1s-1.3-.4-1.3-1v-7.2Z"/>
      <path class="st4" d="M243.9,98.9c0-1.3-1.2-1.9-3.7-1.9h-5c-2.4,0-3.7.6-3.7,1.9v7.2c0,.7-.5,1-1.3,1s-1.3-.3-1.3-1v-7.2c0-2.6,2.1-4,6.4-4h4.8c4.3,0,6.4,1.3,6.4,4v7.2c0,.7-.5,1-1.3,1s-1.3-.3-1.3-1v-7.2Z"/>
      <path class="st4" d="M256,107.1c-3.6,0-5.3-1.1-5.3-3.3v-1.4c0-2.2,1.8-3.3,5.3-3.3h10.6v-.4c0-1.2-1-1.8-3.1-1.8h-3.5c-.8,0-1.2-.3-1.2-1s.4-1,1.2-1h3.5c3.8,0,5.7,1.2,5.7,3.7v4.9c0,2.3-1.8,3.5-5.4,3.5h-7.8ZM266.6,103.5v-2.7h-10.4c-1.9,0-2.9.5-2.9,1.5v1.3c0,1,1,1.5,2.9,1.5h7.4c2,0,3-.5,3-1.7Z"/>
      <path class="st4" d="M277.9,97v9.2c0,.7-.5,1-1.3,1s-1.3-.3-1.3-1v-9.2h-1c-.8,0-1.2-.3-1.2-1s.4-1,1.2-1h1v-2.3c0-.7.4-1,1.3-1s1.3.4,1.3,1v2.3h4.3c.8,0,1.2.3,1.2,1s-.4,1-1.2,1h-4.3Z"/>
      <path class="st4" d="M288.7,93.1c-1,0-1.5-.4-1.5-1.2s.5-1.2,1.5-1.2,1.4.4,1.4,1.2-.5,1.2-1.4,1.2ZM287.4,95.9c0-.7.5-1,1.3-1s1.3.4,1.3,1v10.3c0,.7-.5,1-1.3,1s-1.3-.3-1.3-1v-10.3Z"/>
      <path class="st4" d="M301.2,107.1c-4.3,0-6.5-1.3-6.5-3.9v-4.2c0-2.6,2.1-4,6.5-4h4.8c4.3,0,6.5,1.3,6.5,4v4.2c0,2.6-2.1,3.9-6.5,3.9h-4.8ZM309.8,98.9c0-1.3-1.2-1.9-3.7-1.9h-5c-2.4,0-3.7.6-3.7,1.9v4.3c0,1.2,1.2,1.9,3.7,1.9h5c2.5,0,3.7-.7,3.7-1.9v-4.3Z"/>
      <path class="st4" d="M332.2,98.9c0-1.3-1.2-1.9-3.7-1.9h-5c-2.4,0-3.7.6-3.7,1.9v7.2c0,.7-.5,1-1.3,1s-1.3-.3-1.3-1v-7.2c0-2.6,2.1-4,6.4-4h4.8c4.3,0,6.4,1.3,6.4,4v7.2c0,.7-.5,1-1.3,1s-1.3-.3-1.3-1v-7.2Z"/>
      <path class="st4" d="M344.3,107.1c-3.6,0-5.3-1.1-5.3-3.3v-1.4c0-2.2,1.8-3.3,5.3-3.3h10.6v-.4c0-1.2-1-1.8-3.1-1.8h-3.5c-.8,0-1.2-.3-1.2-1s.4-1,1.2-1h3.5c3.8,0,5.7,1.2,5.7,3.7v4.9c0,2.3-1.8,3.5-5.4,3.5h-7.8ZM354.9,103.5v-2.7h-10.4c-1.9,0-2.9.5-2.9,1.5v1.3c0,1,1,1.5,2.9,1.5h7.4c2,0,3-.5,3-1.7Z"/>
      <path class="st4" d="M362.2,90.4c0-.7.5-1,1.3-1s1.3.4,1.3,1v15.8c0,.7-.5,1-1.3,1s-1.3-.3-1.3-1v-15.8Z"/>
    </g>
    <g class="st1">
      <path class="st4" d="M52.5,137.1c-4.9,0-7.3-1.6-7.3-4.8v-7.8c0-3.1,2.4-4.7,7.2-4.7h9.6c.8,0,1.2.3,1.2,1s-.4,1-1.2,1h-9.5c-3,0-4.5.9-4.5,2.7v7.6c0,1.9,1.5,2.8,4.7,2.8h9.3c.8,0,1.2.4,1.2,1s-.4,1-1.2,1h-9.4Z"/>
      <path class="st4" d="M73.5,137.1c-4.3,0-6.5-1.3-6.5-3.9v-4.2c0-2.6,2.1-4,6.5-4h4.8c4.3,0,6.5,1.3,6.5,4v4.2c0,2.6-2.1,3.9-6.5,3.9h-4.8ZM82.1,128.9c0-1.3-1.2-1.9-3.7-1.9h-5c-2.4,0-3.7.6-3.7,1.9v4.3c0,1.2,1.2,1.9,3.7,1.9h5c2.5,0,3.7-.7,3.7-1.9v-4.3Z"/>
      <path class="st4" d="M104.5,128.9c0-1.3-1.2-1.9-3.7-1.9h-5c-2.4,0-3.7.6-3.7,1.9v7.2c0,.7-.4,1-1.3,1s-1.3-.3-1.3-1v-7.2c0-2.6,2.1-4,6.4-4h4.8c4.3,0,6.4,1.3,6.4,4v7.2c0,.7-.5,1-1.3,1s-1.3-.3-1.3-1v-7.2Z"/>
      <path class="st4" d="M121.6,136.6c-.4.5-.9.6-1.4.6s-.9-.1-1.3-.6l-8.3-10c-.2-.3-.3-.5-.3-.7,0-.7.5-1.1,1.4-1.1s.9.2,1.2.6l7.4,9,7.5-9c.3-.4.6-.6,1.2-.6.8,0,1.4.4,1.4,1s0,.4-.3.7l-8.3,10Z"/>
      <path class="st4" d="M136,131.9v1.5c0,1.2,1.1,1.8,3.5,1.8h3.7c.8,0,1.2.3,1.2,1s-.4,1-1.2,1h-3.7c-4,0-6.1-1.2-6.1-3.7v-4.9c0-2.3,1.8-3.5,5.4-3.5h7.2c3.5,0,5.3,1.1,5.3,3.2v2.8c0,.6-.4.9-1.1.9h-14.2ZM136,130.1h12.5c.1,0,.2,0,.2-.2v-1.3c0-1.1-.9-1.7-2.9-1.7h-6.9c-2,0-3,.6-3,1.7v1.5Z"/>
      <path class="st4" d="M170.6,128.9c0-1.3-1.2-1.9-3.7-1.9h-5c-2.4,0-3.7.6-3.7,1.9v7.2c0,.7-.4,1-1.3,1s-1.3-.3-1.3-1v-7.2c0-2.6,2.1-4,6.4-4h4.8c4.3,0,6.4,1.3,6.4,4v7.2c0,.7-.5,1-1.3,1s-1.3-.3-1.3-1v-7.2Z"/>
      <path class="st4" d="M181.6,127v9.2c0,.7-.4,1-1.3,1s-1.3-.3-1.3-1v-9.2h-1c-.8,0-1.2-.3-1.2-1s.4-1,1.2-1h1v-2.3c0-.7.4-1,1.3-1s1.3.4,1.3,1v2.3h4.3c.8,0,1.3.3,1.3,1s-.4,1-1.3,1h-4.3Z"/>
      <path class="st4" d="M192.4,123.1c-1,0-1.5-.4-1.5-1.2s.5-1.2,1.5-1.2,1.4.4,1.4,1.2-.5,1.2-1.4,1.2ZM191.1,125.9c0-.7.5-1,1.3-1s1.3.4,1.3,1v10.3c0,.7-.5,1-1.3,1s-1.3-.3-1.3-1v-10.3Z"/>
      <path class="st4" d="M204.9,137.1c-4.3,0-6.5-1.3-6.5-3.9v-4.2c0-2.6,2.1-4,6.5-4h4.8c4.3,0,6.5,1.3,6.5,4v4.2c0,2.6-2.1,3.9-6.5,3.9h-4.8ZM213.5,128.9c0-1.3-1.2-1.9-3.7-1.9h-5c-2.4,0-3.7.6-3.7,1.9v4.3c0,1.2,1.2,1.9,3.7,1.9h5c2.5,0,3.7-.7,3.7-1.9v-4.3Z"/>
      <path class="st4" d="M235.9,128.9c0-1.3-1.2-1.9-3.7-1.9h-5c-2.4,0-3.7.6-3.7,1.9v7.2c0,.7-.5,1-1.3,1s-1.3-.3-1.3-1v-7.2c0-2.6,2.1-4,6.4-4h4.8c4.3,0,6.4,1.3,6.4,4v7.2c0,.7-.5,1-1.3,1s-1.3-.3-1.3-1v-7.2Z"/>
      <path class="st4" d="M259.9,137.1c-4.9,0-7.3-1.6-7.3-4.8v-7.8c0-3.1,2.4-4.7,7.2-4.7h9.6c.8,0,1.2.3,1.2,1s-.5,1-1.2,1h-9.5c-3,0-4.5.9-4.5,2.7v7.6c0,1.9,1.5,2.8,4.7,2.8h9.3c.8,0,1.2.4,1.2,1s-.5,1-1.2,1h-9.4Z"/>
      <path class="st4" d="M277,131.9v1.5c0,1.2,1.1,1.8,3.5,1.8h3.7c.8,0,1.2.3,1.2,1s-.4,1-1.2,1h-3.7c-4,0-6.1-1.2-6.1-3.7v-4.9c0-2.3,1.8-3.5,5.4-3.5h7.2c3.5,0,5.3,1.1,5.3,3.2v2.8c0,.6-.4.9-1.1.9h-14.2ZM277,130.1h12.5c.2,0,.2,0,.2-.2v-1.3c0-1.1-1-1.7-2.9-1.7h-6.9c-2,0-3,.6-3,1.7v1.5Z"/>
      <path class="st4" d="M311.6,128.9c0-1.3-1.2-1.9-3.7-1.9h-5c-2.4,0-3.7.6-3.7,1.9v7.2c0,.7-.4,1-1.3,1s-1.3-.3-1.3-1v-7.2c0-2.6,2.1-4,6.4-4h4.8c4.3,0,6.4,1.3,6.4,4v7.2c0,.7-.5,1-1.3,1s-1.3-.3-1.3-1v-7.2Z"/>
      <path class="st4" d="M322.6,127v9.2c0,.7-.5,1-1.3,1s-1.3-.3-1.3-1v-9.2h-1c-.8,0-1.2-.3-1.2-1s.4-1,1.2-1h1v-2.3c0-.7.4-1,1.3-1s1.3.4,1.3,1v2.3h4.3c.8,0,1.2.3,1.2,1s-.4,1-1.2,1h-4.3Z"/>
      <path class="st4" d="M334.3,131.9v1.5c0,1.2,1.1,1.8,3.5,1.8h3.7c.8,0,1.2.3,1.2,1s-.4,1-1.2,1h-3.7c-4,0-6.1-1.2-6.1-3.7v-4.9c0-2.3,1.8-3.5,5.4-3.5h7.2c3.5,0,5.3,1.1,5.3,3.2v2.8c0,.6-.4.9-1.1.9h-14.2ZM334.3,130.1h12.5c.2,0,.2,0,.2-.2v-1.3c0-1.1-1-1.7-2.9-1.7h-6.9c-2,0-3,.6-3,1.7v1.5Z"/>
      <path class="st4" d="M353.8,128.9c0-2.6,2.1-4,6.4-4h1.9c.8,0,1.3.4,1.3,1s-.4,1-1.3,1h-2c-2.4,0-3.7.6-3.7,1.9v7.3c0,.7-.5,1-1.3,1s-1.3-.4-1.3-1v-7.2Z"/>
    </g>
    <g class="st1">
      <path class="st4" d="M52.2,172.8c-3.7,0-5.5-2.2-5.5-6.6v-15c0-4.4,1.8-6.6,5.5-6.6h1.5c.7,0,1.1.3,1.1,1s-.4,1-1.1,1h-1.6c-2.1,0-3.2,1.5-3.2,4.6v15.1c0,3.1,1.1,4.6,3.2,4.6h1.6c.7,0,1.1.3,1.1,1s-.4,1-1.1,1h-1.5Z"/>
      <path class="st4" d="M64.7,151.9h-6.8c-.8,0-1.2-.3-1.2-1s.4-1,1.2-1h16.3c.9,0,1.3.3,1.3,1s-.4,1-1.3,1h-6.8v14.3c0,.7-.4,1-1.3,1s-1.4-.3-1.4-1v-14.3Z"/>
      <path class="st4" d="M79.2,150.7c0-.7.5-1,1.4-1s1.3.3,1.3,1v15.4c0,.7-.5,1-1.4,1s-1.3-.3-1.3-1v-15.4Z"/>
      <path class="st4" d="M94.1,167.1c-4.9,0-7.3-1.6-7.3-4.8v-7.8c0-3.1,2.4-4.7,7.2-4.7h9.6c.8,0,1.2.3,1.2,1s-.4,1-1.2,1h-9.5c-3,0-4.5.9-4.5,2.7v7.6c0,1.9,1.5,2.8,4.7,2.8h9.3c.8,0,1.2.4,1.2,1s-.4,1-1.2,1h-9.4Z"/>
      <path class="st4" d="M116.4,167.1c-4.9,0-7.3-1.6-7.3-4.8v-7.8c0-3.1,2.4-4.7,7.2-4.7h9.6c.8,0,1.2.3,1.2,1s-.4,1-1.2,1h-9.5c-3,0-4.5.9-4.5,2.7v7.6c0,1.9,1.5,2.8,4.7,2.8h9.3c.8,0,1.2.4,1.2,1s-.4,1-1.2,1h-9.4Z"/>
      <path class="st4" d="M132.2,144.5c3.7,0,5.5,2.2,5.5,6.6v15c0,4.4-1.8,6.6-5.5,6.6h-1.5c-.7,0-1.1-.3-1.1-1s.4-1,1.1-1h1.6c2.1,0,3.2-1.5,3.2-4.6v-15.1c0-3.1-1.1-4.6-3.2-4.6h-1.6c-.7,0-1.1-.3-1.1-1s.4-1,1.1-1h1.5Z"/>
      <path class="st4" d="M153.7,160.4c-.8,0-1.2-.3-1.2-1s.4-1,1.2-1h8.3c.8,0,1.2.3,1.2,1s-.4,1-1.2,1h-8.3Z"/>
      <path class="st4" d="M179.2,160.3v5.8c0,.7-.5,1-1.4,1s-1.3-.3-1.3-1v-15.5c0-.6.4-.9,1.1-.9h11.7c5.2,0,7.8,1.4,7.8,4.2v1.8c0,2.8-2.6,4.2-7.8,4.2h-6l11.6,5.1c.5.2.8.5.8,1,0,.7-.5,1.1-1.4,1.1s-.5,0-.9-.2l-14.2-6.6ZM179.2,158.2h10.3c3.3,0,5-.8,5-2.3v-1.8c0-1.5-1.6-2.2-5-2.2h-10.1c-.1,0-.2,0-.2.2v6.1Z"/>
      <path class="st4" d="M207.3,167.1c-4.3,0-6.5-1.3-6.5-3.9v-4.2c0-2.6,2.1-4,6.5-4h4.8c4.3,0,6.5,1.3,6.5,4v4.2c0,2.6-2.1,3.9-6.5,3.9h-4.8ZM215.9,158.9c0-1.3-1.2-1.9-3.7-1.9h-5c-2.5,0-3.7.6-3.7,1.9v4.3c0,1.2,1.2,1.9,3.7,1.9h5c2.5,0,3.7-.7,3.7-1.9v-4.3Z"/>
      <path class="st4" d="M229.6,167.1c-4.3,0-6.5-1.3-6.5-3.9v-4.2c0-2.6,2.1-4,6.5-4h4.8c4.3,0,6.5,1.3,6.5,4v4.2c0,2.6-2.1,3.9-6.5,3.9h-4.8ZM238.2,158.9c0-1.3-1.2-1.9-3.7-1.9h-5c-2.4,0-3.7.6-3.7,1.9v4.3c0,1.2,1.2,1.9,3.7,1.9h5c2.5,0,3.7-.7,3.7-1.9v-4.3Z"/>
      <path class="st4" d="M266.5,158.8c0-1.2-1-1.8-3-1.8h-1.8c-2.1,0-3.1.6-3.1,1.8v7.3c0,.7-.4,1-1.3,1s-1.3-.3-1.3-1v-7.3c0-1.2-1-1.8-3.1-1.8h-1.8c-2,0-3,.6-3,1.8v7.3c0,.7-.5,1-1.3,1s-1.3-.3-1.3-1v-7.3c0-2.6,1.9-3.9,5.7-3.9h1.8c1.9,0,3.3.5,4.3,1.5,1-1,2.4-1.5,4.3-1.5h1.8c3.8,0,5.7,1.3,5.7,3.9v7.3c0,.7-.4,1-1.3,1s-1.3-.3-1.3-1v-7.3Z"/>
      <path class="st4" d="M283.3,150.7c0-.7.5-1,1.4-1s1.3.3,1.3,1v15.4c0,.7-.5,1-1.4,1s-1.3-.3-1.3-1v-15.4Z"/>
      <path class="st4" d="M298.2,167.1c-4.9,0-7.3-1.6-7.3-4.8v-7.7c0-3.2,2.4-4.8,7.2-4.8h5.6c4.8,0,7.2,1.6,7.2,4.8v7.7c0,3.2-2.5,4.8-7.3,4.8h-5.3ZM308.1,154.6c0-1.8-1.5-2.8-4.5-2.8h-5.5c-3,0-4.5.9-4.5,2.8v7.6c0,1.9,1.5,2.8,4.6,2.8h5.4c3.1,0,4.6-.9,4.6-2.8v-7.6Z"/>
      <path class="st4" d="M315.7,150.7c0-.7.5-1,1.4-1s1.3.3,1.3,1v15.4c0,.7-.5,1-1.4,1s-1.3-.3-1.3-1v-15.4Z"/>
    </g>
  </g>
  <g class="st1">
    <g class="st1">
      <path class="st4" d="M307,9.7h-6.6c-.8,0-1.2-.3-1.2-1s.4-1,1.2-1h15.7c.8,0,1.2.3,1.2,1s-.4,1-1.2,1h-6.5v13.8c0,.7-.4,1-1.3,1s-1.3-.3-1.3-1v-13.8Z"/>
      <path class="st4" d="M326.2,24.3c-4.1,0-6.2-1.3-6.2-3.8v-7c0-.6.4-1,1.3-1s1.3.4,1.3,1v7c0,1.2,1.2,1.8,3.6,1.8h4.6c2.4,0,3.6-.6,3.6-1.8v-7c0-.6.4-1,1.3-1s1.3.4,1.3,1v7c0,2.5-2.1,3.8-6.2,3.8h-4.4Z"/>
      <path class="st4" d="M343.8,19.3v1.5c0,1.1,1.1,1.7,3.3,1.7h3.6c.8,0,1.2.3,1.2.9s-.4.9-1.2.9h-3.6c-3.9,0-5.9-1.2-5.9-3.6v-4.7c0-2.3,1.8-3.4,5.2-3.4h6.9c3.4,0,5.1,1,5.1,3.1v2.7c0,.6-.4.9-1.1.9h-13.7ZM343.8,17.6h12c.1,0,.2,0,.2-.2v-1.2c0-1.1-.9-1.7-2.8-1.7h-6.6c-1.9,0-2.9.6-2.9,1.7v1.4Z"/>
      <path class="st4" d="M361.4,24.4c-.9,0-1.4-.4-1.4-1.2s.5-1.2,1.4-1.2,1.4.4,1.4,1.2-.5,1.2-1.4,1.2Z"/>
    </g>
  </g>
</svg>