<svg width="15" height="15" viewBox="0 0 15 15" fill="none" xmlns="http://www.w3.org/2000/svg">
<g clip-path="url(#clip0_225_8496)">
<path d="M7.5 0C3.36445 0 0 3.36445 0 7.5C0 11.6356 3.36445 15 7.5 15C11.6356 15 15 11.6356 15 7.5C15 3.36445 11.6356 0 7.5 0ZM7.06055 3.68134C6.39198 3.65261 5.73017 3.55865 5.09823 3.40588C5.19917 3.16669 5.30869 2.93701 5.42679 2.71935C5.91133 1.82648 6.5062 1.19991 7.06055 0.972977V3.68134ZM7.06055 4.56093V7.06055H4.31568C4.35436 6.08494 4.52065 5.11642 4.79565 4.23546C5.52441 4.41902 6.28944 4.53014 7.06055 4.56093ZM7.06055 7.93945V10.4391C6.28944 10.4699 5.52441 10.581 4.79565 10.7645C4.52065 9.88358 4.35436 8.91506 4.31568 7.93945H7.06055ZM7.06055 11.3187V14.027C6.5062 13.8001 5.91133 13.1735 5.42679 12.2807C5.30869 12.063 5.19917 11.8333 5.09823 11.5941C5.73017 11.4413 6.39187 11.3474 7.06055 11.3187ZM7.93945 11.3187C8.60802 11.3474 9.26983 11.4413 9.90177 11.5941C9.80083 11.8333 9.69131 12.063 9.57321 12.2807C9.08867 13.1735 8.4938 13.8001 7.93945 14.027V11.3187ZM7.93945 10.4391V7.93945H10.6843C10.6456 8.91506 10.4794 9.88358 10.2044 10.7645C9.47559 10.581 8.71056 10.4699 7.93945 10.4391ZM7.93945 7.06055V4.56093C8.71056 4.53014 9.47559 4.41902 10.2044 4.23546C10.4794 5.11642 10.6456 6.08494 10.6843 7.06055H7.93945ZM7.93945 3.68134V0.972977C8.4938 1.19991 9.08867 1.82648 9.57321 2.71935C9.69131 2.93701 9.80083 3.16669 9.90177 3.40588C9.26983 3.55865 8.60802 3.65261 7.93945 3.68134ZM10.3457 2.30015C10.1256 1.89457 9.88655 1.53706 9.63455 1.23207C10.5132 1.53214 11.3092 2.01221 11.9785 2.62791C11.5968 2.83241 11.1853 3.01003 10.7525 3.15845C10.6297 2.86022 10.494 2.57332 10.3457 2.30015ZM4.65431 2.30015C4.506 2.57332 4.37027 2.86022 4.24747 3.15845C3.81466 3.01003 3.40324 2.8323 3.02147 2.62791C3.69083 2.01221 4.48677 1.53214 5.36545 1.23207C5.11345 1.53706 4.8745 1.89445 4.65431 2.30015ZM3.95016 3.98449C3.65021 4.94408 3.47385 5.99018 3.43586 7.06055H0.893898C0.987968 5.63221 1.53648 4.32598 2.39662 3.28617C2.87395 3.55991 3.39672 3.79406 3.95016 3.98449ZM3.43586 7.93945C3.47385 9.00993 3.65021 10.0559 3.95016 11.0155C3.39672 11.2059 2.87395 11.4401 2.39662 11.7138C1.53648 10.674 0.987968 9.36779 0.893898 7.93945H3.43586ZM4.24747 11.8415C4.37027 12.1398 4.506 12.4267 4.65431 12.6999C4.8745 13.1054 5.11345 13.4629 5.36545 13.7679C4.48677 13.4679 3.69083 12.9878 3.02158 12.3721C3.40313 12.1677 3.81466 11.99 4.24747 11.8415ZM10.3457 12.6999C10.494 12.4267 10.6297 12.1398 10.7525 11.8415C11.1853 11.99 11.5968 12.1677 11.9785 12.3721C11.3092 12.9878 10.5132 13.4679 9.63455 13.7679C9.88655 13.4629 10.1255 13.1055 10.3457 12.6999ZM11.0498 11.0155C11.3498 10.0559 11.5261 9.00982 11.5641 7.93945H14.1061C14.012 9.36779 13.4635 10.674 12.6034 11.7138C12.126 11.4401 11.6033 11.2059 11.0498 11.0155ZM11.5641 7.06055C11.5261 5.99007 11.3498 4.94408 11.0498 3.98449C11.6033 3.79406 12.126 3.55991 12.6034 3.28617C13.4635 4.32598 14.012 5.63221 14.1061 7.06055H11.5641Z" fill="white"/>
</g>
<defs>
<clipPath id="clip0_225_8496">
<rect width="15" height="15" fill="white"/>
</clipPath>
</defs>
</svg>
