<?xml version="1.0" encoding="UTF-8"?>
<svg id="_圖層_1" xmlns="http://www.w3.org/2000/svg" version="1.1" viewBox="0 0 416.2 56.6">
  <!-- Generator: Adobe Illustrator 30.5.1, SVG Export Plug-In . SVG Version: 2.1.4 Build 3)  -->
  <defs>
    <style>
      .st0, .st1 {
        fill: #fff;
      }

      .st1 {
        isolation: isolate;
        opacity: .6;
      }
    </style>
  </defs>
  <g>
    <g>
      <path class="st0" d="M265.2,0l-8.2,8.6c1.7.3,2.9,1.9,2.9,3.7s-1.7,3.8-3.7,3.8-3.2-1.3-3.6-3l-8.4,8.6c2.8,3.7,7,6.1,11.9,6.1,8.2,0,15-6.9,15-15.5s-2.3-9.5-5.9-12.3h-.1Z"/>
      <path class="st0" d="M244.3,34.8l8.4,8.6c.3-1.7,1.8-3,3.6-3s3.7,1.7,3.7,3.8-1.2,3.3-2.9,3.7l8.4,8.6c3.6-2.8,5.9-7.2,5.9-12.4,0-8.6-6.7-15.5-15-15.5s-9.1,2.5-11.9,6.1h0Z"/>
      <path class="st0" d="M277.9,56.5l8.2-8.6c-1.7-.3-2.9-1.9-2.9-3.7s1.7-3.8,3.7-3.8,3.2,1.2,3.6,3l8.4-8.6c-2.8-3.7-7-6.1-11.9-6.1-8.2,0-15,6.9-15,15.5s2.3,9.5,5.9,12.4h.1Z"/>
      <path class="st0" d="M298.9,21.7l-8.4-8.6c-.3,1.7-1.8,3-3.6,3s-3.7-1.7-3.7-3.8,1.2-3.3,2.9-3.7l-8.2-8.7c-3.6,2.8-5.9,7.2-5.9,12.3,0,8.6,6.7,15.5,15,15.5s9.1-2.5,11.9-6.1h-.1Z"/>
    </g>
    <g>
      <polygon class="st0" points="355.2 15.3 373.6 15.3 373.6 17.4 365.7 17.4 365.7 40.6 362.9 40.6 362.9 17.4 355.2 17.4 355.2 15.3"/>
      <path class="st0" d="M379.2,40.6h-2.8V15.3h8.4c7.5,0,7.9,5.5,7.9,6.7,0,4.1-2.8,7.1-7.8,7l7.5,11.6h-3.1l-8.6-13.6h3.2c4.2.1,6.2-1.6,6.2-5s-.4-4.6-5-4.6h-5.8v23.2h-.1Z"/>
      <path class="st0" d="M405.8,15.3h-3l-10.4,25.3h2.9l4.5-11.4h9l4.5,11.4h2.9l-10.4-25.3h0ZM400.6,27.1l3.7-9.5,3.8,9.5h-7.5,0Z"/>
      <polygon class="st0" points="309.7 15.6 328.1 15.6 328.1 17.7 320.2 17.7 320.2 40.9 317.4 40.9 317.4 17.7 309.7 17.7 309.7 15.6"/>
      <path class="st0" d="M337.1,15.6h-3l-10.4,25.3h2.9l4.5-11.4h9l4.5,11.4h2.9l-10.4-25.3h0ZM331.9,27.4l3.7-9.5,3.8,9.5h-7.5,0Z"/>
      <g>
        <path class="st0" d="M352.4,15.2v25.6h-2.7V15.2h2.7Z"/>
        <path class="st0" d="M352.4,15.2v25.6h-2.7V15.2h2.7Z"/>
      </g>
    </g>
  </g>
  <g>
    <g>
      <path class="st0" d="M91.8,18v26.4h-6.6v-26.4h-10.1v-5.7h26.8v5.7h-10.1Z"/>
      <path class="st0" d="M115.3,44.4V12.3h6.6v32.1h-6.6Z"/>
      <path class="st0" d="M152,18v26.4h-6.6v-26.4h-10.1v-5.7h26.8v5.7h-10.1Z"/>
      <path class="st0" d="M178.4,36.6l-2.5,7.8h-6.9l11.1-32.1h8.9l11.1,32.1h-6.9l-2.5-7.8h-12.3ZM188.3,28.7c-1.3-4.2-2.6-8.4-3.7-12.5h0c-1.1,4.2-2.3,8.4-3.6,12.5l-.7,2.1h8.7l-.7-2.1Z"/>
    </g>
    <g>
      <polygon class="st0" points="57.1 21.7 21.7 21.7 26.6 12.2 62 12.2 57.1 21.7"/>
      <polygon class="st0" points="35.4 33.8 0 33.8 4.9 24.2 40.3 24.2 35.4 33.8"/>
      <polygon class="st1" points="29.9 44.4 35.4 33.8 23 33.8 17.4 44.4 29.9 44.4"/>
      <polygon class="st1" points="51.6 32.3 57.1 21.7 44.6 21.7 39.1 32.3 51.6 32.3"/>
    </g>
  </g>
</svg>